G04*
G04 #@! TF.GenerationSoftware,Altium Limited,Altium Designer,24.2.2 (26)*
G04*
G04 Layer_Color=2752767*
%FSLAX25Y25*%
%MOIN*%
G70*
G04*
G04 #@! TF.SameCoordinates,AF2FB041-FD52-4B01-B4D8-7A83CE53158D*
G04*
G04*
G04 #@! TF.FilePolarity,Positive*
G04*
G01*
G75*
%ADD17C,0.00500*%
%ADD72C,0.00667*%
%ADD73C,0.00400*%
D17*
X514961Y163197D02*
X512961Y167197D01*
X516961D01*
X514961Y163197D01*
Y173197D02*
X512961Y177197D01*
X516961D01*
X514961Y173197D01*
X377953Y162016D02*
X375953Y166016D01*
X379953D01*
X377953Y162016D01*
Y172016D02*
X375953Y176016D01*
X379953D01*
X377953Y172016D01*
X288945Y220835D02*
X289945D01*
X290945Y221835D01*
X291945Y220835D01*
X292945D01*
Y221835D01*
X291945Y222835D01*
X292945Y223835D01*
Y224835D01*
X291945D01*
X290945Y223835D01*
X289945Y224835D01*
X288945D01*
Y223835D01*
X289945Y222835D01*
X288945Y221835D01*
Y220835D01*
X227921D02*
X228921D01*
X229921Y221835D01*
X230921Y220835D01*
X231921D01*
Y221835D01*
X230921Y222835D01*
X231921Y223835D01*
Y224835D01*
X230921D01*
X229921Y223835D01*
X228921Y224835D01*
X227921D01*
Y223835D01*
X228921Y222835D01*
X227921Y221835D01*
Y220835D01*
Y273197D02*
X228921D01*
X229921Y274197D01*
X230921Y273197D01*
X231921D01*
Y274197D01*
X230921Y275197D01*
X231921Y276197D01*
Y277197D01*
X230921D01*
X229921Y276197D01*
X228921Y277197D01*
X227921D01*
Y276197D01*
X228921Y275197D01*
X227921Y274197D01*
Y273197D01*
X288945D02*
X289945D01*
X290945Y274197D01*
X291945Y273197D01*
X292945D01*
Y274197D01*
X291945Y275197D01*
X292945Y276197D01*
Y277197D01*
X291945D01*
X290945Y276197D01*
X289945Y277197D01*
X288945D01*
Y276197D01*
X289945Y275197D01*
X288945Y274197D01*
Y273197D01*
X273590Y198819D02*
X275590Y200819D01*
X277590Y198819D01*
X275590Y196819D01*
X273590Y198819D01*
Y216535D02*
X275590Y218535D01*
X277590Y216535D01*
X275590Y214535D01*
X273590Y216535D01*
X243276Y198819D02*
X245276Y200819D01*
X247276Y198819D01*
X245276Y196819D01*
X243276Y198819D01*
Y216535D02*
X245276Y218535D01*
X247276Y216535D01*
X245276Y214535D01*
X243276Y216535D01*
X248590Y285402D02*
Y289402D01*
X252590D01*
Y285402D01*
X248590D01*
X249391Y286202D02*
Y288602D01*
X251790D01*
Y286202D01*
X249391D01*
X258433Y285402D02*
Y289402D01*
X262433D01*
Y285402D01*
X258433D01*
X259233Y286202D02*
Y288602D01*
X261633D01*
Y286202D01*
X259233D01*
X268276Y285402D02*
Y289402D01*
X272276D01*
Y285402D01*
X268276D01*
X269076Y286202D02*
Y288602D01*
X271476D01*
Y286202D01*
X269076D01*
X296819Y256858D02*
Y260858D01*
X300819D01*
Y256858D01*
X296819D01*
X297619Y257658D02*
Y260058D01*
X300019D01*
Y257658D01*
X297619D01*
X296819Y247016D02*
Y251016D01*
X300819D01*
Y247016D01*
X296819D01*
X297619Y247816D02*
Y250216D01*
X300019D01*
Y247816D01*
X297619D01*
X296819Y237173D02*
Y241173D01*
X300819D01*
Y237173D01*
X296819D01*
X297619Y237973D02*
Y240373D01*
X300019D01*
Y237973D01*
X297619D01*
X295046Y158520D02*
X293046Y162520D01*
X297046D01*
X295046Y158520D01*
Y159320D02*
X293846Y161720D01*
X296246D01*
X295046Y159320D01*
X272546Y158520D02*
X270546Y162520D01*
X274546D01*
X272546Y158520D01*
Y159320D02*
X271346Y161720D01*
X273746D01*
X272546Y159320D01*
X295046Y178520D02*
X293046Y182520D01*
X297046D01*
X295046Y178520D01*
Y179320D02*
X293846Y181720D01*
X296246D01*
X295046Y179320D01*
X272546Y178520D02*
X270546Y182520D01*
X274546D01*
X272546Y178520D01*
Y179320D02*
X271346Y181720D01*
X273746D01*
X272546Y179320D01*
X433270Y247222D02*
X434270Y248222D01*
X435270D01*
X434270Y249222D01*
X435270Y250222D01*
X434270D01*
X433270Y251222D01*
X432270Y250222D01*
X431270D01*
X432270Y249222D01*
X431270Y248222D01*
X432270D01*
X433270Y247222D01*
X443270D02*
X444270Y248222D01*
X445270D01*
X444270Y249222D01*
X445270Y250222D01*
X444270D01*
X443270Y251222D01*
X442270Y250222D01*
X441270D01*
X442270Y249222D01*
X441270Y248222D01*
X442270D01*
X443270Y247222D01*
X453270D02*
X454270Y248222D01*
X455270D01*
X454270Y249222D01*
X455270Y250222D01*
X454270D01*
X453270Y251222D01*
X452270Y250222D01*
X451270D01*
X452270Y249222D01*
X451270Y248222D01*
X452270D01*
X453270Y247222D01*
X486189Y175165D02*
X487189Y177165D01*
X486189Y179165D01*
X488189Y178165D01*
X490189Y179165D01*
X489189Y177165D01*
X490189Y175165D01*
X488189Y176165D01*
X486189Y175165D01*
Y161386D02*
X487189Y163386D01*
X486189Y165386D01*
X488189Y164386D01*
X490189Y165386D01*
X489189Y163386D01*
X490189Y161386D01*
X488189Y162386D01*
X486189Y161386D01*
X451756Y168291D02*
Y167291D01*
X453756D01*
Y168291D01*
X454756D01*
Y170291D01*
X453756D01*
Y171291D01*
X451756D01*
Y170291D01*
X450756D01*
Y168291D01*
X451756D01*
X432071D02*
Y167291D01*
X434071D01*
Y168291D01*
X435071D01*
Y170291D01*
X434071D01*
Y171291D01*
X432071D01*
Y170291D01*
X431071D01*
Y168291D01*
X432071D01*
X539370Y167291D02*
X540370Y168291D01*
X541370D01*
X540370Y169291D01*
X541370Y170291D01*
X540370D01*
X539370Y171291D01*
X538370Y170291D01*
X537370D01*
X538370Y169291D01*
X537370Y168291D01*
X538370D01*
X539370Y167291D01*
Y168091D02*
X539970Y168691D01*
X540570D01*
X539970Y169291D01*
X540570Y169891D01*
X539970D01*
X539370Y170491D01*
X538770Y169891D01*
X538170D01*
X538770Y169291D01*
X538170Y168691D01*
X538770D01*
X539370Y168091D01*
X236221Y167291D02*
X237221Y168291D01*
X238221D01*
X237221Y169291D01*
X238221Y170291D01*
X237221D01*
X236221Y171291D01*
X235221Y170291D01*
X234221D01*
X235221Y169291D01*
X234221Y168291D01*
X235221D01*
X236221Y167291D01*
Y168091D02*
X236821Y168691D01*
X237421D01*
X236821Y169291D01*
X237421Y169891D01*
X236821D01*
X236221Y170491D01*
X235620Y169891D01*
X235020D01*
X235620Y169291D01*
X235020Y168691D01*
X235620D01*
X236221Y168091D01*
X417323Y356268D02*
X418323Y357268D01*
X419323D01*
X418323Y358268D01*
X419323Y359268D01*
X418323D01*
X417323Y360268D01*
X416323Y359268D01*
X415323D01*
X416323Y358268D01*
X415323Y357268D01*
X416323D01*
X417323Y356268D01*
Y357068D02*
X417923Y357668D01*
X418523D01*
X417923Y358268D01*
X418523Y358868D01*
X417923D01*
X417323Y359468D01*
X416723Y358868D01*
X416123D01*
X416723Y358268D01*
X416123Y357668D01*
X416723D01*
X417323Y357068D01*
X358268Y356268D02*
X359268Y357268D01*
X360268D01*
X359268Y358268D01*
X360268Y359268D01*
X359268D01*
X358268Y360268D01*
X357268Y359268D01*
X356268D01*
X357268Y358268D01*
X356268Y357268D01*
X357268D01*
X358268Y356268D01*
Y357068D02*
X358868Y357668D01*
X359468D01*
X358868Y358268D01*
X359468Y358868D01*
X358868D01*
X358268Y359468D01*
X357668Y358868D01*
X357068D01*
X357668Y358268D01*
X357068Y357668D01*
X357668D01*
X358268Y357068D01*
X535795Y220835D02*
X536795D01*
X537795Y221835D01*
X538795Y220835D01*
X539795D01*
Y221835D01*
X538795Y222835D01*
X539795Y223835D01*
Y224835D01*
X538795D01*
X537795Y223835D01*
X536795Y224835D01*
X535795D01*
Y223835D01*
X536795Y222835D01*
X535795Y221835D01*
Y220835D01*
X474772D02*
X475772D01*
X476772Y221835D01*
X477772Y220835D01*
X478772D01*
Y221835D01*
X477772Y222835D01*
X478772Y223835D01*
Y224835D01*
X477772D01*
X476772Y223835D01*
X475772Y224835D01*
X474772D01*
Y223835D01*
X475772Y222835D01*
X474772Y221835D01*
Y220835D01*
Y273197D02*
X475772D01*
X476772Y274197D01*
X477772Y273197D01*
X478772D01*
Y274197D01*
X477772Y275197D01*
X478772Y276197D01*
Y277197D01*
X477772D01*
X476772Y276197D01*
X475772Y277197D01*
X474772D01*
Y276197D01*
X475772Y275197D01*
X474772Y274197D01*
Y273197D01*
X535795D02*
X536795D01*
X537795Y274197D01*
X538795Y273197D01*
X539795D01*
Y274197D01*
X538795Y275197D01*
X539795Y276197D01*
Y277197D01*
X538795D01*
X537795Y276197D01*
X536795Y277197D01*
X535795D01*
Y276197D01*
X536795Y275197D01*
X535795Y274197D01*
Y273197D01*
X520441Y198819D02*
X522441Y200819D01*
X524441Y198819D01*
X522441Y196819D01*
X520441Y198819D01*
Y216535D02*
X522441Y218535D01*
X524441Y216535D01*
X522441Y214535D01*
X520441Y216535D01*
X490126Y198819D02*
X492126Y200819D01*
X494126Y198819D01*
X492126Y196819D01*
X490126Y198819D01*
Y216535D02*
X492126Y218535D01*
X494126Y216535D01*
X492126Y214535D01*
X490126Y216535D01*
X495441Y285402D02*
Y289402D01*
X499441D01*
Y285402D01*
X495441D01*
X496241Y286202D02*
Y288602D01*
X498641D01*
Y286202D01*
X496241D01*
X505283Y285402D02*
Y289402D01*
X509283D01*
Y285402D01*
X505283D01*
X506083Y286202D02*
Y288602D01*
X508484D01*
Y286202D01*
X506083D01*
X515126Y285402D02*
Y289402D01*
X519126D01*
Y285402D01*
X515126D01*
X515926Y286202D02*
Y288602D01*
X518326D01*
Y286202D01*
X515926D01*
X543669Y256858D02*
Y260858D01*
X547669D01*
Y256858D01*
X543669D01*
X544469Y257658D02*
Y260058D01*
X546869D01*
Y257658D01*
X544469D01*
X543669Y247016D02*
Y251016D01*
X547669D01*
Y247016D01*
X543669D01*
X544469Y247816D02*
Y250216D01*
X546869D01*
Y247816D01*
X544469D01*
X543669Y237173D02*
Y241173D01*
X547669D01*
Y237173D01*
X543669D01*
X544469Y237973D02*
Y240373D01*
X546869D01*
Y237973D01*
X544469D01*
X493924Y354906D02*
Y353906D01*
X495924D01*
Y354906D01*
X496924D01*
Y356906D01*
X495924D01*
Y357906D01*
X493924D01*
Y356906D01*
X492924D01*
Y354906D01*
X493924D01*
X474239D02*
Y353906D01*
X476239D01*
Y354906D01*
X477239D01*
Y356906D01*
X476239D01*
Y357906D01*
X474239D01*
Y356906D01*
X473239D01*
Y354906D01*
X474239D01*
X454554D02*
Y353906D01*
X456554D01*
Y354906D01*
X457554D01*
Y356906D01*
X456554D01*
Y357906D01*
X454554D01*
Y356906D01*
X453554D01*
Y354906D01*
X454554D01*
X540339Y313961D02*
Y312961D01*
X542339D01*
Y313961D01*
X543339D01*
Y315961D01*
X542339D01*
Y316961D01*
X540339D01*
Y315961D01*
X539339D01*
Y313961D01*
X540339D01*
Y333646D02*
Y332646D01*
X542339D01*
Y333646D01*
X543339D01*
Y335646D01*
X542339D01*
Y336646D01*
X540339D01*
Y335646D01*
X539339D01*
Y333646D01*
X540339D01*
Y353331D02*
Y352331D01*
X542339D01*
Y353331D01*
X543339D01*
Y355331D01*
X542339D01*
Y356331D01*
X540339D01*
Y355331D01*
X539339D01*
Y353331D01*
X540339D01*
X233449Y354119D02*
Y353119D01*
X235449D01*
Y354119D01*
X236449D01*
Y356119D01*
X235449D01*
Y357119D01*
X233449D01*
Y356119D01*
X232449D01*
Y354119D01*
X233449D01*
Y334434D02*
Y333434D01*
X235449D01*
Y334434D01*
X236449D01*
Y336434D01*
X235449D01*
Y337434D01*
X233449D01*
Y336434D01*
X232449D01*
Y334434D01*
X233449D01*
Y314749D02*
Y313749D01*
X235449D01*
Y314749D01*
X236449D01*
Y316749D01*
X235449D01*
Y317749D01*
X233449D01*
Y316749D01*
X232449D01*
Y314749D01*
X233449D01*
X317484Y354906D02*
Y353906D01*
X319484D01*
Y354906D01*
X320484D01*
Y356906D01*
X319484D01*
Y357906D01*
X317484D01*
Y356906D01*
X316484D01*
Y354906D01*
X317484D01*
X297798D02*
Y353906D01*
X299798D01*
Y354906D01*
X300799D01*
Y356906D01*
X299798D01*
Y357906D01*
X297798D01*
Y356906D01*
X296798D01*
Y354906D01*
X297798D01*
X278114D02*
Y353906D01*
X280114D01*
Y354906D01*
X281114D01*
Y356906D01*
X280114D01*
Y357906D01*
X278114D01*
Y356906D01*
X277114D01*
Y354906D01*
X278114D01*
X456575Y310785D02*
Y314785D01*
X460575D01*
Y310785D01*
X456575D01*
X446575D02*
Y314785D01*
X450575D01*
Y310785D01*
X446575D01*
X313659Y311771D02*
Y315771D01*
X317659D01*
Y311771D01*
X313659D01*
X323659D02*
Y315771D01*
X327659D01*
Y311771D01*
X323659D01*
X374378Y331422D02*
X375378Y333422D01*
X374378Y335422D01*
X376378Y334422D01*
X378378Y335422D01*
X377378Y333422D01*
X378378Y331422D01*
X376378Y332422D01*
X374378Y331422D01*
X375178Y332222D02*
X375778Y333422D01*
X375178Y334622D01*
X376378Y334022D01*
X377578Y334622D01*
X376978Y333422D01*
X377578Y332222D01*
X376378Y332822D01*
X375178Y332222D01*
X429102Y303512D02*
X430102Y305512D01*
X429102Y307512D01*
X431102Y306512D01*
X433102Y307512D01*
X432102Y305512D01*
X433102Y303512D01*
X431102Y304512D01*
X429102Y303512D01*
X429902Y304312D02*
X430502Y305512D01*
X429902Y306712D01*
X431102Y306112D01*
X432302Y306712D01*
X431702Y305512D01*
X432302Y304312D01*
X431102Y304912D01*
X429902Y304312D01*
X400362Y236189D02*
X401362Y238189D01*
X400362Y240189D01*
X402362Y239189D01*
X404362Y240189D01*
X403362Y238189D01*
X404362Y236189D01*
X402362Y237189D01*
X400362Y236189D01*
X401162Y236989D02*
X401762Y238189D01*
X401162Y239389D01*
X402362Y238789D01*
X403562Y239389D01*
X402962Y238189D01*
X403562Y236989D01*
X402362Y237589D01*
X401162Y236989D01*
X401150Y252724D02*
X402150Y254724D01*
X401150Y256724D01*
X403150Y255724D01*
X405150Y256724D01*
X404150Y254724D01*
X405150Y252724D01*
X403150Y253724D01*
X401150Y252724D01*
X401950Y253524D02*
X402550Y254724D01*
X401950Y255924D01*
X403150Y255324D01*
X404350Y255924D01*
X403750Y254724D01*
X404350Y253524D01*
X403150Y254124D01*
X401950Y253524D01*
X460205Y259417D02*
X461205Y261417D01*
X460205Y263417D01*
X462205Y262417D01*
X464205Y263417D01*
X463205Y261417D01*
X464205Y259417D01*
X462205Y260417D01*
X460205Y259417D01*
X461005Y260217D02*
X461605Y261417D01*
X461005Y262617D01*
X462205Y262017D01*
X463405Y262617D01*
X462805Y261417D01*
X463405Y260217D01*
X462205Y260817D01*
X461005Y260217D01*
X396031Y253118D02*
X397031Y255118D01*
X396031Y257118D01*
X398031Y256118D01*
X400032Y257118D01*
X399031Y255118D01*
X400032Y253118D01*
X398031Y254118D01*
X396031Y253118D01*
X396831Y253918D02*
X397431Y255118D01*
X396831Y256318D01*
X398031Y255718D01*
X399232Y256318D01*
X398632Y255118D01*
X399232Y253918D01*
X398031Y254518D01*
X396831Y253918D01*
X352724Y268472D02*
X353724Y270472D01*
X352724Y272472D01*
X354724Y271472D01*
X356724Y272472D01*
X355724Y270472D01*
X356724Y268472D01*
X354724Y269472D01*
X352724Y268472D01*
X353524Y269272D02*
X354124Y270472D01*
X353524Y271672D01*
X354724Y271072D01*
X355924Y271672D01*
X355324Y270472D01*
X355924Y269272D01*
X354724Y269872D01*
X353524Y269272D01*
X432252Y274772D02*
X433252Y276772D01*
X432252Y278772D01*
X434252Y277772D01*
X436252Y278772D01*
X435252Y276772D01*
X436252Y274772D01*
X434252Y275772D01*
X432252Y274772D01*
X433052Y275572D02*
X433652Y276772D01*
X433052Y277972D01*
X434252Y277372D01*
X435452Y277972D01*
X434852Y276772D01*
X435452Y275572D01*
X434252Y276172D01*
X433052Y275572D01*
X353906Y281465D02*
X354906Y283465D01*
X353906Y285465D01*
X355906Y284465D01*
X357906Y285465D01*
X356906Y283465D01*
X357906Y281465D01*
X355906Y282465D01*
X353906Y281465D01*
X354706Y282265D02*
X355306Y283465D01*
X354706Y284665D01*
X355906Y284065D01*
X357105Y284665D01*
X356505Y283465D01*
X357105Y282265D01*
X355906Y282865D01*
X354706Y282265D01*
X298787Y193669D02*
X299787Y195669D01*
X298787Y197669D01*
X300787Y196669D01*
X302787Y197669D01*
X301787Y195669D01*
X302787Y193669D01*
X300787Y194669D01*
X298787Y193669D01*
X299587Y194469D02*
X300187Y195669D01*
X299587Y196869D01*
X300787Y196269D01*
X301987Y196869D01*
X301387Y195669D01*
X301987Y194469D01*
X300787Y195069D01*
X299587Y194469D01*
X256661Y168866D02*
X257661Y170866D01*
X256661Y172866D01*
X258661Y171866D01*
X260661Y172866D01*
X259661Y170866D01*
X260661Y168866D01*
X258661Y169866D01*
X256661Y168866D01*
X257461Y169666D02*
X258061Y170866D01*
X257461Y172066D01*
X258661Y171466D01*
X259861Y172066D01*
X259261Y170866D01*
X259861Y169666D01*
X258661Y170266D01*
X257461Y169666D01*
X474782Y313235D02*
X475782Y315235D01*
X474782Y317235D01*
X476782Y316235D01*
X478782Y317235D01*
X477782Y315235D01*
X478782Y313235D01*
X476782Y314235D01*
X474782Y313235D01*
X475582Y314035D02*
X476182Y315235D01*
X475582Y316435D01*
X476782Y315835D01*
X477982Y316435D01*
X477382Y315235D01*
X477982Y314035D01*
X476782Y314635D01*
X475582Y314035D01*
X242094Y295244D02*
X243094Y297244D01*
X242094Y299244D01*
X244094Y298244D01*
X246094Y299244D01*
X245094Y297244D01*
X246094Y295244D01*
X244094Y296244D01*
X242094Y295244D01*
X242895Y296044D02*
X243495Y297244D01*
X242895Y298444D01*
X244094Y297844D01*
X245294Y298444D01*
X244694Y297244D01*
X245294Y296044D01*
X244094Y296644D01*
X242895Y296044D01*
X313354Y268079D02*
X314354Y270079D01*
X313354Y272079D01*
X315354Y271079D01*
X317354Y272079D01*
X316354Y270079D01*
X317354Y268079D01*
X315354Y269079D01*
X313354Y268079D01*
X314154Y268879D02*
X314754Y270079D01*
X314154Y271279D01*
X315354Y270679D01*
X316554Y271279D01*
X315954Y270079D01*
X316554Y268879D01*
X315354Y269479D01*
X314154Y268879D01*
X319654Y227134D02*
X320654Y229134D01*
X319654Y231134D01*
X321654Y230134D01*
X323654Y231134D01*
X322654Y229134D01*
X323654Y227134D01*
X321654Y228134D01*
X319654Y227134D01*
X320454Y227934D02*
X321054Y229134D01*
X320454Y230334D01*
X321654Y229734D01*
X322853Y230334D01*
X322253Y229134D01*
X322853Y227934D01*
X321654Y228534D01*
X320454Y227934D01*
X296819Y210992D02*
X297819Y212992D01*
X296819Y214992D01*
X298819Y213992D01*
X300819Y214992D01*
X299819Y212992D01*
X300819Y210992D01*
X298819Y211992D01*
X296819Y210992D01*
X297619Y211792D02*
X298219Y212992D01*
X297619Y214192D01*
X298819Y213592D01*
X300019Y214192D01*
X299419Y212992D01*
X300019Y211792D01*
X298819Y212392D01*
X297619Y211792D01*
X264142Y353906D02*
X265142Y355906D01*
X264142Y357906D01*
X266142Y356906D01*
X268142Y357906D01*
X267142Y355906D01*
X268142Y353906D01*
X266142Y354906D01*
X264142Y353906D01*
X264942Y354706D02*
X265542Y355906D01*
X264942Y357105D01*
X266142Y356505D01*
X267342Y357105D01*
X266742Y355906D01*
X267342Y354706D01*
X266142Y355306D01*
X264942Y354706D01*
X340913Y354693D02*
X341913Y356693D01*
X340913Y358693D01*
X342913Y357693D01*
X344913Y358693D01*
X343913Y356693D01*
X344913Y354693D01*
X342913Y355693D01*
X340913Y354693D01*
X341713Y355493D02*
X342313Y356693D01*
X341713Y357893D01*
X342913Y357293D01*
X344113Y357893D01*
X343513Y356693D01*
X344113Y355493D01*
X342913Y356093D01*
X341713Y355493D01*
X393276Y333433D02*
X394276Y335433D01*
X393276Y337433D01*
X395276Y336433D01*
X397276Y337433D01*
X396276Y335433D01*
X397276Y333433D01*
X395276Y334433D01*
X393276Y333433D01*
X394076Y334233D02*
X394676Y335433D01*
X394076Y336633D01*
X395276Y336033D01*
X396476Y336633D01*
X395876Y335433D01*
X396476Y334233D01*
X395276Y334833D01*
X394076Y334233D01*
X388451Y301595D02*
X389451Y303595D01*
X388451Y305595D01*
X390451Y304595D01*
X392451Y305595D01*
X391451Y303595D01*
X392451Y301595D01*
X390451Y302595D01*
X388451Y301595D01*
X389251Y302395D02*
X389851Y303595D01*
X389251Y304795D01*
X390451Y304195D01*
X391651Y304795D01*
X391051Y303595D01*
X391651Y302395D01*
X390451Y302995D01*
X389251Y302395D01*
X398000Y325953D02*
X399000Y327953D01*
X398000Y329953D01*
X400000Y328953D01*
X402000Y329953D01*
X401000Y327953D01*
X402000Y325953D01*
X400000Y326953D01*
X398000Y325953D01*
X398800Y326753D02*
X399400Y327953D01*
X398800Y329153D01*
X400000Y328553D01*
X401200Y329153D01*
X400600Y327953D01*
X401200Y326753D01*
X400000Y327353D01*
X398800Y326753D01*
X412961Y244850D02*
X413961Y246850D01*
X412961Y248850D01*
X414961Y247850D01*
X416961Y248850D01*
X415961Y246850D01*
X416961Y244850D01*
X414961Y245850D01*
X412961Y244850D01*
X413761Y245650D02*
X414361Y246850D01*
X413761Y248050D01*
X414961Y247450D01*
X416161Y248050D01*
X415561Y246850D01*
X416161Y245650D01*
X414961Y246250D01*
X413761Y245650D01*
X409024Y244850D02*
X410024Y246850D01*
X409024Y248850D01*
X411024Y247850D01*
X413024Y248850D01*
X412024Y246850D01*
X413024Y244850D01*
X411024Y245850D01*
X409024Y244850D01*
X409824Y245650D02*
X410424Y246850D01*
X409824Y248050D01*
X411024Y247450D01*
X412224Y248050D01*
X411624Y246850D01*
X412224Y245650D01*
X411024Y246250D01*
X409824Y245650D01*
X407449Y292882D02*
X408449Y294882D01*
X407449Y296882D01*
X409449Y295882D01*
X411449Y296882D01*
X410449Y294882D01*
X411449Y292882D01*
X409449Y293882D01*
X407449Y292882D01*
X408249Y293682D02*
X408849Y294882D01*
X408249Y296082D01*
X409449Y295482D01*
X410649Y296082D01*
X410049Y294882D01*
X410649Y293682D01*
X409449Y294282D01*
X408249Y293682D01*
X352370Y252685D02*
X353370Y254685D01*
X352370Y256685D01*
X354370Y255685D01*
X356370Y256685D01*
X355370Y254685D01*
X356370Y252685D01*
X354370Y253685D01*
X352370Y252685D01*
X353170Y253485D02*
X353770Y254685D01*
X353170Y255885D01*
X354370Y255285D01*
X355570Y255885D01*
X354970Y254685D01*
X355570Y253485D01*
X354370Y254085D01*
X353170Y253485D01*
X351543Y246819D02*
X352543Y248819D01*
X351543Y250819D01*
X353543Y249819D01*
X355543Y250819D01*
X354543Y248819D01*
X355543Y246819D01*
X353543Y247819D01*
X351543Y246819D01*
X352343Y247619D02*
X352943Y248819D01*
X352343Y250019D01*
X353543Y249419D01*
X354743Y250019D01*
X354143Y248819D01*
X354743Y247619D01*
X353543Y248219D01*
X352343Y247619D01*
X370047Y256661D02*
X371047Y258661D01*
X370047Y260661D01*
X372047Y259661D01*
X374047Y260661D01*
X373047Y258661D01*
X374047Y256661D01*
X372047Y257661D01*
X370047Y256661D01*
X370847Y257461D02*
X371447Y258661D01*
X370847Y259861D01*
X372047Y259261D01*
X373247Y259861D01*
X372647Y258661D01*
X373247Y257461D01*
X372047Y258061D01*
X370847Y257461D01*
X366110Y256661D02*
X367110Y258661D01*
X366110Y260661D01*
X368110Y259661D01*
X370110Y260661D01*
X369110Y258661D01*
X370110Y256661D01*
X368110Y257661D01*
X366110Y256661D01*
X366910Y257461D02*
X367510Y258661D01*
X366910Y259861D01*
X368110Y259261D01*
X369310Y259861D01*
X368710Y258661D01*
X369310Y257461D01*
X368110Y258061D01*
X366910Y257461D01*
X392488Y302331D02*
X393488Y304331D01*
X392488Y306331D01*
X394488Y305331D01*
X396488Y306331D01*
X395488Y304331D01*
X396488Y302331D01*
X394488Y303331D01*
X392488Y302331D01*
X393288Y303131D02*
X393888Y304331D01*
X393288Y305531D01*
X394488Y304931D01*
X395688Y305531D01*
X395088Y304331D01*
X395688Y303131D01*
X394488Y303731D01*
X393288Y303131D01*
X392094Y281858D02*
X393094Y283858D01*
X392094Y285858D01*
X394094Y284858D01*
X396094Y285858D01*
X395094Y283858D01*
X396094Y281858D01*
X394094Y282858D01*
X392094Y281858D01*
X392895Y282658D02*
X393495Y283858D01*
X392895Y285058D01*
X394094Y284458D01*
X395294Y285058D01*
X394694Y283858D01*
X395294Y282658D01*
X394094Y283258D01*
X392895Y282658D01*
X395638Y281858D02*
X396638Y283858D01*
X395638Y285858D01*
X397638Y284858D01*
X399638Y285858D01*
X398638Y283858D01*
X399638Y281858D01*
X397638Y282858D01*
X395638Y281858D01*
X396438Y282658D02*
X397038Y283858D01*
X396438Y285058D01*
X397638Y284458D01*
X398838Y285058D01*
X398238Y283858D01*
X398838Y282658D01*
X397638Y283258D01*
X396438Y282658D01*
X388529Y265455D02*
X389529Y267455D01*
X388529Y269455D01*
X390529Y268455D01*
X392529Y269455D01*
X391529Y267455D01*
X392529Y265455D01*
X390529Y266455D01*
X388529Y265455D01*
X389329Y266255D02*
X389929Y267455D01*
X389329Y268655D01*
X390529Y268055D01*
X391729Y268655D01*
X391129Y267455D01*
X391729Y266255D01*
X390529Y266855D01*
X389329Y266255D01*
X385795Y260598D02*
X386795Y262598D01*
X385795Y264598D01*
X387795Y263598D01*
X389795Y264598D01*
X388795Y262598D01*
X389795Y260598D01*
X387795Y261598D01*
X385795Y260598D01*
X386595Y261398D02*
X387195Y262598D01*
X386595Y263798D01*
X387795Y263198D01*
X388995Y263798D01*
X388395Y262598D01*
X388995Y261398D01*
X387795Y261998D01*
X386595Y261398D01*
X380283Y258236D02*
X381283Y260236D01*
X380283Y262236D01*
X382283Y261236D01*
X384283Y262236D01*
X383283Y260236D01*
X384283Y258236D01*
X382283Y259236D01*
X380283Y258236D01*
X381083Y259036D02*
X381683Y260236D01*
X381083Y261436D01*
X382283Y260836D01*
X383484Y261436D01*
X382884Y260236D01*
X383484Y259036D01*
X382283Y259636D01*
X381083Y259036D01*
X388551Y255480D02*
X389551Y257480D01*
X388551Y259480D01*
X390551Y258480D01*
X392551Y259480D01*
X391551Y257480D01*
X392551Y255480D01*
X390551Y256480D01*
X388551Y255480D01*
X389351Y256280D02*
X389951Y257480D01*
X389351Y258680D01*
X390551Y258080D01*
X391751Y258680D01*
X391151Y257480D01*
X391751Y256280D01*
X390551Y256880D01*
X389351Y256280D01*
X384711Y266757D02*
X385711Y268757D01*
X384711Y270757D01*
X386711Y269757D01*
X388711Y270757D01*
X387711Y268757D01*
X388711Y266757D01*
X386711Y267757D01*
X384711Y266757D01*
X385511Y267557D02*
X386111Y268757D01*
X385511Y269956D01*
X386711Y269356D01*
X387911Y269956D01*
X387311Y268757D01*
X387911Y267557D01*
X386711Y268157D01*
X385511Y267557D01*
X386253Y269615D02*
X387253Y271615D01*
X386253Y273615D01*
X388253Y272615D01*
X390253Y273615D01*
X389253Y271615D01*
X390253Y269615D01*
X388253Y270615D01*
X386253Y269615D01*
X387053Y270415D02*
X387653Y271615D01*
X387053Y272815D01*
X388253Y272215D01*
X389453Y272815D01*
X388853Y271615D01*
X389453Y270415D01*
X388253Y271015D01*
X387053Y270415D01*
D72*
X374034Y216535D02*
X373805Y217465D01*
X373170Y218181D01*
X372275Y218521D01*
X371325Y218406D01*
X370537Y217862D01*
X370092Y217014D01*
Y216057D01*
X370537Y215209D01*
X371325Y214665D01*
X372275Y214550D01*
X373170Y214890D01*
X373805Y215606D01*
X374034Y216535D01*
X384034D02*
X383805Y217465D01*
X383170Y218181D01*
X382275Y218521D01*
X381325Y218406D01*
X380537Y217862D01*
X380092Y217014D01*
Y216057D01*
X380537Y215209D01*
X381325Y214665D01*
X382275Y214550D01*
X383170Y214890D01*
X383805Y215606D01*
X384034Y216535D01*
X394034D02*
X393805Y217465D01*
X393170Y218181D01*
X392275Y218521D01*
X391325Y218406D01*
X390537Y217862D01*
X390092Y217014D01*
Y216057D01*
X390537Y215209D01*
X391325Y214665D01*
X392275Y214550D01*
X393170Y214890D01*
X393805Y215606D01*
X394034Y216535D01*
X404034D02*
X403805Y217465D01*
X403170Y218181D01*
X402275Y218521D01*
X401325Y218406D01*
X400537Y217862D01*
X400092Y217014D01*
Y216057D01*
X400537Y215209D01*
X401325Y214665D01*
X402275Y214550D01*
X403170Y214890D01*
X403805Y215606D01*
X404034Y216535D01*
X384034Y226535D02*
X383805Y227465D01*
X383170Y228181D01*
X382275Y228521D01*
X381325Y228405D01*
X380537Y227862D01*
X380092Y227014D01*
Y226057D01*
X380537Y225209D01*
X381325Y224665D01*
X382275Y224550D01*
X383170Y224889D01*
X383805Y225606D01*
X384034Y226535D01*
X394034D02*
X393805Y227465D01*
X393170Y228181D01*
X392275Y228521D01*
X391325Y228405D01*
X390537Y227862D01*
X390092Y227014D01*
Y226057D01*
X390537Y225209D01*
X391325Y224665D01*
X392275Y224550D01*
X393170Y224889D01*
X393805Y225606D01*
X394034Y226535D01*
X404034D02*
X403805Y227465D01*
X403170Y228181D01*
X402275Y228521D01*
X401325Y228405D01*
X400537Y227862D01*
X400092Y227014D01*
Y226057D01*
X400537Y225209D01*
X401325Y224665D01*
X402275Y224550D01*
X403170Y224889D01*
X403805Y225606D01*
X404034Y226535D01*
X374034D02*
X373805Y227465D01*
X373170Y228181D01*
X372275Y228521D01*
X371325Y228405D01*
X370537Y227862D01*
X370092Y227014D01*
Y226057D01*
X370537Y225209D01*
X371325Y224665D01*
X372275Y224550D01*
X373170Y224889D01*
X373805Y225606D01*
X374034Y226535D01*
X297046Y170520D02*
X296817Y171449D01*
X296182Y172166D01*
X295287Y172505D01*
X294337Y172390D01*
X293549Y171846D01*
X293104Y170998D01*
Y170041D01*
X293549Y169193D01*
X294337Y168650D01*
X295287Y168534D01*
X296182Y168874D01*
X296817Y169590D01*
X297046Y170520D01*
X267046Y166524D02*
X266817Y167453D01*
X266182Y168170D01*
X265287Y168509D01*
X264336Y168394D01*
X263549Y167850D01*
X263104Y167002D01*
Y166045D01*
X263549Y165197D01*
X264336Y164654D01*
X265287Y164538D01*
X266182Y164878D01*
X266817Y165594D01*
X267046Y166524D01*
Y174516D02*
X266817Y175445D01*
X266182Y176162D01*
X265287Y176501D01*
X264336Y176386D01*
X263549Y175842D01*
X263104Y174994D01*
Y174037D01*
X263549Y173189D01*
X264336Y172646D01*
X265287Y172530D01*
X266182Y172870D01*
X266817Y173586D01*
X267046Y174516D01*
D73*
X296246Y170520D02*
X295894Y171368D01*
X295046Y171720D01*
X294197Y171368D01*
X293846Y170520D01*
X294197Y169671D01*
X295046Y169320D01*
X295894Y169671D01*
X296246Y170520D01*
X266246Y166524D02*
X265894Y167372D01*
X265046Y167724D01*
X264197Y167372D01*
X263846Y166524D01*
X264197Y165675D01*
X265046Y165324D01*
X265894Y165675D01*
X266246Y166524D01*
Y174516D02*
X265894Y175364D01*
X265046Y175716D01*
X264197Y175364D01*
X263846Y174516D01*
X264197Y173667D01*
X265046Y173316D01*
X265894Y173667D01*
X266246Y174516D01*
M02*
