G04*
G04 #@! TF.GenerationSoftware,Altium Limited,Altium Designer,24.2.2 (26)*
G04*
G04 Layer_Color=8421504*
%FSLAX25Y25*%
%MOIN*%
G70*
G04*
G04 #@! TF.SameCoordinates,AF2FB041-FD52-4B01-B4D8-7A83CE53158D*
G04*
G04*
G04 #@! TF.FilePolarity,Positive*
G04*
G01*
G75*
%ADD18R,0.05807X0.01181*%
%ADD19R,0.01181X0.05807*%
%ADD20R,0.03098X0.03402*%
%ADD21R,0.03402X0.03098*%
%ADD22R,0.03150X0.02756*%
%ADD23R,0.05512X0.08268*%
%ADD24R,0.01575X0.01083*%
%ADD25R,0.04331X0.07165*%
%ADD26R,0.17717X0.06890*%
D18*
X404189Y283280D02*
D03*
Y285248D02*
D03*
Y287217D02*
D03*
Y289185D02*
D03*
Y291154D02*
D03*
Y293122D02*
D03*
Y295091D02*
D03*
Y297059D02*
D03*
Y299028D02*
D03*
Y300996D02*
D03*
Y302965D02*
D03*
Y304933D02*
D03*
X370819D02*
D03*
Y302965D02*
D03*
Y300996D02*
D03*
Y299028D02*
D03*
Y297059D02*
D03*
Y295091D02*
D03*
Y293122D02*
D03*
Y291154D02*
D03*
Y289185D02*
D03*
Y287217D02*
D03*
Y285248D02*
D03*
Y283280D02*
D03*
D19*
X398331Y310792D02*
D03*
X396362D02*
D03*
X394394D02*
D03*
X392425D02*
D03*
X390457D02*
D03*
X388488D02*
D03*
X386520D02*
D03*
X384551D02*
D03*
X382583D02*
D03*
X380614D02*
D03*
X378646D02*
D03*
X376677D02*
D03*
Y277422D02*
D03*
X378646D02*
D03*
X380614D02*
D03*
X382583D02*
D03*
X384551D02*
D03*
X386520D02*
D03*
X388488D02*
D03*
X390457D02*
D03*
X392425D02*
D03*
X394394D02*
D03*
X396362D02*
D03*
X398331D02*
D03*
D20*
X384362Y324409D02*
D03*
X390464D02*
D03*
X390551Y331890D02*
D03*
X384449D02*
D03*
X404524Y261500D02*
D03*
X398422D02*
D03*
X376690Y327321D02*
D03*
X370588D02*
D03*
X376636Y318690D02*
D03*
X370533D02*
D03*
X398390Y269402D02*
D03*
X404492D02*
D03*
X433811Y283730D02*
D03*
X427709D02*
D03*
X413908Y290930D02*
D03*
X420011D02*
D03*
X351546Y207530D02*
D03*
X357649D02*
D03*
X319804Y207776D02*
D03*
X325906D02*
D03*
X342763Y313774D02*
D03*
X336660D02*
D03*
X250787Y296850D02*
D03*
X256890D02*
D03*
X497507Y297350D02*
D03*
X503609D02*
D03*
X479160Y331773D02*
D03*
X473058D02*
D03*
X431595Y316142D02*
D03*
X437697D02*
D03*
D21*
X374511Y193030D02*
D03*
Y199132D02*
D03*
X382558D02*
D03*
Y193030D02*
D03*
X422078Y298968D02*
D03*
Y305071D02*
D03*
X414072Y299098D02*
D03*
Y305200D02*
D03*
X362968Y283372D02*
D03*
Y277270D02*
D03*
X443456Y295826D02*
D03*
Y289723D02*
D03*
X314030Y222114D02*
D03*
Y216012D02*
D03*
X345526Y222114D02*
D03*
Y216012D02*
D03*
X318484Y258634D02*
D03*
Y252532D02*
D03*
X328813Y258634D02*
D03*
Y252532D02*
D03*
X292912Y200402D02*
D03*
Y206504D02*
D03*
X230266Y206154D02*
D03*
Y200051D02*
D03*
X308801Y258634D02*
D03*
Y252532D02*
D03*
X547611Y283561D02*
D03*
Y289663D02*
D03*
X463234Y202493D02*
D03*
Y208595D02*
D03*
X474696D02*
D03*
Y202493D02*
D03*
X516180Y315235D02*
D03*
Y321338D02*
D03*
X259842Y355413D02*
D03*
Y349311D02*
D03*
X336221Y356201D02*
D03*
Y350098D02*
D03*
D22*
X433319Y294743D02*
D03*
X428201D02*
D03*
Y290806D02*
D03*
X433319D02*
D03*
D23*
X363189Y199016D02*
D03*
Y163189D02*
D03*
X345472Y199016D02*
D03*
Y163189D02*
D03*
X408715Y199016D02*
D03*
Y163189D02*
D03*
X390998Y199016D02*
D03*
Y163189D02*
D03*
X331693Y199016D02*
D03*
Y163189D02*
D03*
X313976Y199016D02*
D03*
Y163189D02*
D03*
D24*
X328761Y243347D02*
D03*
Y241276D02*
D03*
X318484Y243313D02*
D03*
Y241242D02*
D03*
D25*
X447587Y197175D02*
D03*
X436878D02*
D03*
X436915Y234330D02*
D03*
X447624D02*
D03*
D26*
X442176Y221684D02*
D03*
Y208889D02*
D03*
M02*
