G04*
G04 #@! TF.GenerationSoftware,Altium Limited,Altium Designer,24.2.2 (26)*
G04*
G04 Layer_Color=65535*
%FSLAX25Y25*%
%MOIN*%
G70*
G04*
G04 #@! TF.SameCoordinates,AF2FB041-FD52-4B01-B4D8-7A83CE53158D*
G04*
G04*
G04 #@! TF.FilePolarity,Positive*
G04*
G01*
G75*
%ADD10C,0.00984*%
%ADD11C,0.00787*%
%ADD12C,0.00787*%
%ADD13C,0.00945*%
%ADD14C,0.00591*%
%ADD15C,0.01000*%
%ADD16C,0.00394*%
%ADD17C,0.00500*%
G36*
X389057Y295937D02*
X389102D01*
X389207Y295926D01*
X389324Y295910D01*
X389446Y295882D01*
X389579Y295848D01*
X389707Y295804D01*
X389712D01*
X389723Y295799D01*
X389740Y295793D01*
X389762Y295782D01*
X389823Y295749D01*
X389901Y295710D01*
X389984Y295654D01*
X390073Y295588D01*
X390156Y295515D01*
X390234Y295427D01*
X390245Y295416D01*
X390267Y295382D01*
X390301Y295332D01*
X390345Y295260D01*
X390389Y295171D01*
X390439Y295060D01*
X390489Y294938D01*
X390528Y294800D01*
X390068Y294677D01*
Y294683D01*
X390062Y294689D01*
X390056Y294705D01*
X390051Y294727D01*
X390034Y294777D01*
X390012Y294844D01*
X389979Y294922D01*
X389940Y294994D01*
X389901Y295072D01*
X389851Y295138D01*
X389846Y295144D01*
X389829Y295166D01*
X389796Y295194D01*
X389757Y295233D01*
X389707Y295277D01*
X389640Y295321D01*
X389568Y295366D01*
X389485Y295405D01*
X389474Y295410D01*
X389446Y295421D01*
X389396Y295438D01*
X389329Y295460D01*
X389252Y295477D01*
X389163Y295493D01*
X389063Y295504D01*
X388958Y295510D01*
X388896D01*
X388869Y295504D01*
X388836D01*
X388752Y295499D01*
X388658Y295482D01*
X388552Y295466D01*
X388453Y295438D01*
X388353Y295399D01*
X388341Y295393D01*
X388308Y295382D01*
X388264Y295355D01*
X388208Y295327D01*
X388142Y295283D01*
X388070Y295238D01*
X388003Y295182D01*
X387942Y295122D01*
X387936Y295116D01*
X387914Y295094D01*
X387886Y295055D01*
X387853Y295010D01*
X387814Y294955D01*
X387775Y294888D01*
X387737Y294816D01*
X387698Y294739D01*
Y294733D01*
X387692Y294722D01*
X387687Y294705D01*
X387675Y294677D01*
X387664Y294644D01*
X387653Y294605D01*
X387637Y294561D01*
X387626Y294511D01*
X387598Y294394D01*
X387576Y294261D01*
X387559Y294123D01*
X387553Y293967D01*
Y293962D01*
Y293945D01*
Y293917D01*
X387559Y293884D01*
Y293839D01*
X387564Y293784D01*
X387570Y293728D01*
X387576Y293667D01*
X387598Y293529D01*
X387626Y293384D01*
X387670Y293240D01*
X387725Y293101D01*
Y293096D01*
X387737Y293085D01*
X387742Y293068D01*
X387759Y293046D01*
X387798Y292985D01*
X387859Y292907D01*
X387931Y292824D01*
X388020Y292741D01*
X388125Y292663D01*
X388242Y292591D01*
X388247D01*
X388258Y292585D01*
X388275Y292574D01*
X388303Y292563D01*
X388330Y292552D01*
X388369Y292541D01*
X388458Y292508D01*
X388569Y292480D01*
X388691Y292452D01*
X388824Y292430D01*
X388963Y292424D01*
X389019D01*
X389052Y292430D01*
X389085D01*
X389169Y292441D01*
X389268Y292452D01*
X389374Y292474D01*
X389490Y292508D01*
X389607Y292546D01*
X389613D01*
X389624Y292552D01*
X389635Y292557D01*
X389657Y292568D01*
X389718Y292596D01*
X389785Y292630D01*
X389862Y292668D01*
X389946Y292713D01*
X390023Y292763D01*
X390090Y292818D01*
Y293540D01*
X388958D01*
Y293995D01*
X390589D01*
Y292568D01*
X390584Y292563D01*
X390573Y292557D01*
X390550Y292541D01*
X390523Y292519D01*
X390489Y292496D01*
X390451Y292469D01*
X390401Y292435D01*
X390351Y292402D01*
X390234Y292330D01*
X390101Y292252D01*
X389962Y292180D01*
X389812Y292119D01*
X389807D01*
X389796Y292113D01*
X389773Y292108D01*
X389746Y292097D01*
X389707Y292086D01*
X389662Y292069D01*
X389613Y292058D01*
X389563Y292047D01*
X389440Y292019D01*
X389302Y291991D01*
X389152Y291975D01*
X388996Y291969D01*
X388941D01*
X388902Y291975D01*
X388852D01*
X388791Y291980D01*
X388724Y291991D01*
X388652Y291997D01*
X388491Y292030D01*
X388319Y292069D01*
X388142Y292130D01*
X388053Y292163D01*
X387964Y292208D01*
X387959Y292213D01*
X387942Y292219D01*
X387920Y292235D01*
X387886Y292252D01*
X387848Y292280D01*
X387809Y292308D01*
X387703Y292385D01*
X387592Y292485D01*
X387476Y292607D01*
X387365Y292746D01*
X387265Y292907D01*
Y292913D01*
X387254Y292929D01*
X387243Y292951D01*
X387226Y292990D01*
X387209Y293029D01*
X387193Y293085D01*
X387171Y293140D01*
X387148Y293207D01*
X387126Y293279D01*
X387104Y293362D01*
X387087Y293445D01*
X387071Y293534D01*
X387043Y293728D01*
X387032Y293934D01*
Y293939D01*
Y293962D01*
Y293989D01*
X387037Y294028D01*
Y294078D01*
X387043Y294139D01*
X387054Y294200D01*
X387059Y294272D01*
X387076Y294350D01*
X387087Y294433D01*
X387132Y294611D01*
X387187Y294794D01*
X387265Y294977D01*
X387270Y294983D01*
X387276Y294999D01*
X387287Y295022D01*
X387309Y295055D01*
X387331Y295099D01*
X387359Y295144D01*
X387437Y295249D01*
X387531Y295371D01*
X387648Y295488D01*
X387781Y295604D01*
X387859Y295654D01*
X387936Y295704D01*
X387942Y295710D01*
X387959Y295715D01*
X387981Y295726D01*
X388014Y295743D01*
X388058Y295760D01*
X388108Y295782D01*
X388164Y295804D01*
X388230Y295826D01*
X388303Y295848D01*
X388380Y295865D01*
X388464Y295887D01*
X388552Y295904D01*
X388747Y295932D01*
X388847Y295943D01*
X389024D01*
X389057Y295937D01*
D02*
G37*
G36*
X385122Y295871D02*
X385173D01*
X385289Y295865D01*
X385411Y295848D01*
X385544Y295832D01*
X385666Y295804D01*
X385728Y295788D01*
X385777Y295771D01*
X385783D01*
X385788Y295765D01*
X385822Y295749D01*
X385872Y295726D01*
X385933Y295688D01*
X385999Y295638D01*
X386072Y295571D01*
X386138Y295493D01*
X386205Y295405D01*
Y295399D01*
X386210Y295393D01*
X386232Y295360D01*
X386255Y295305D01*
X386288Y295233D01*
X386316Y295149D01*
X386344Y295049D01*
X386360Y294944D01*
X386366Y294827D01*
Y294822D01*
Y294811D01*
Y294789D01*
X386360Y294761D01*
Y294722D01*
X386355Y294683D01*
X386332Y294589D01*
X386299Y294478D01*
X386255Y294361D01*
X386188Y294245D01*
X386144Y294189D01*
X386099Y294134D01*
X386094Y294128D01*
X386088Y294123D01*
X386072Y294106D01*
X386049Y294089D01*
X386022Y294067D01*
X385988Y294045D01*
X385944Y294017D01*
X385899Y293984D01*
X385844Y293956D01*
X385783Y293928D01*
X385716Y293895D01*
X385644Y293867D01*
X385561Y293845D01*
X385478Y293817D01*
X385383Y293801D01*
X385283Y293784D01*
X385295Y293778D01*
X385317Y293767D01*
X385350Y293745D01*
X385395Y293723D01*
X385494Y293662D01*
X385544Y293623D01*
X385589Y293590D01*
X385600Y293579D01*
X385628Y293551D01*
X385672Y293506D01*
X385728Y293451D01*
X385788Y293373D01*
X385861Y293290D01*
X385933Y293190D01*
X386011Y293079D01*
X386671Y292036D01*
X386038D01*
X385533Y292835D01*
Y292841D01*
X385522Y292851D01*
X385511Y292868D01*
X385494Y292890D01*
X385455Y292951D01*
X385406Y293029D01*
X385345Y293112D01*
X385283Y293201D01*
X385222Y293285D01*
X385167Y293362D01*
X385161Y293368D01*
X385145Y293390D01*
X385117Y293423D01*
X385078Y293462D01*
X384995Y293545D01*
X384950Y293584D01*
X384906Y293618D01*
X384900Y293623D01*
X384889Y293629D01*
X384867Y293640D01*
X384834Y293656D01*
X384801Y293673D01*
X384762Y293690D01*
X384673Y293717D01*
X384667D01*
X384656Y293723D01*
X384634D01*
X384606Y293728D01*
X384567Y293734D01*
X384523D01*
X384462Y293740D01*
X383807D01*
Y292036D01*
X383297D01*
Y295876D01*
X385078D01*
X385122Y295871D01*
D02*
G37*
%LPC*%
G36*
X385017Y295449D02*
X383807D01*
Y294178D01*
X384950D01*
X385017Y294184D01*
X385095Y294189D01*
X385184Y294195D01*
X385272Y294206D01*
X385361Y294222D01*
X385439Y294245D01*
X385450Y294250D01*
X385472Y294261D01*
X385506Y294278D01*
X385550Y294300D01*
X385600Y294333D01*
X385650Y294372D01*
X385700Y294422D01*
X385739Y294478D01*
X385744Y294483D01*
X385755Y294506D01*
X385772Y294539D01*
X385794Y294583D01*
X385811Y294633D01*
X385827Y294689D01*
X385839Y294755D01*
X385844Y294822D01*
Y294827D01*
Y294833D01*
X385839Y294866D01*
X385833Y294916D01*
X385822Y294983D01*
X385794Y295049D01*
X385761Y295127D01*
X385711Y295199D01*
X385644Y295271D01*
X385633Y295277D01*
X385605Y295299D01*
X385561Y295327D01*
X385489Y295360D01*
X385406Y295393D01*
X385295Y295421D01*
X385167Y295443D01*
X385017Y295449D01*
D02*
G37*
%LPD*%
D10*
X406598Y280327D02*
X405860Y280753D01*
Y279901D01*
X406598Y280327D01*
D11*
X437453Y295137D02*
X436665D01*
X437453D01*
X328761Y238374D02*
Y238768D01*
Y238374D01*
Y238768D01*
X318484Y238340D02*
Y238734D01*
Y238340D01*
Y238734D01*
X433664Y239380D02*
X432877D01*
X433664D01*
X503937Y170276D02*
X503905Y171274D01*
X503810Y172269D01*
X503652Y173256D01*
X503432Y174231D01*
X503151Y175189D01*
X502809Y176128D01*
X502408Y177044D01*
X501950Y177932D01*
X501437Y178790D01*
X500870Y179613D01*
X500253Y180398D01*
X499586Y181143D01*
X498874Y181844D01*
X498119Y182498D01*
X497324Y183104D01*
X496492Y183657D01*
X495626Y184157D01*
X494731Y184600D01*
X493809Y184987D01*
X492865Y185313D01*
X491902Y185580D01*
X490924Y185784D01*
X489934Y185927D01*
X488938Y186006D01*
X487939Y186022D01*
X486941Y185974D01*
X485948Y185863D01*
X484964Y185690D01*
X483993Y185454D01*
X483038Y185158D01*
X482105Y184801D01*
X481196Y184386D01*
X480315Y183914D01*
X479466Y183387D01*
X478652Y182807D01*
X477876Y182177D01*
X477142Y181499D01*
X476452Y180776D01*
X475810Y180010D01*
X475218Y179206D01*
X474677Y178365D01*
X474192Y177492D01*
X473762Y176590D01*
X473391Y175662D01*
X473079Y174712D01*
X472828Y173745D01*
X472639Y172764D01*
X472512Y171773D01*
X472449Y170775D01*
Y169776D01*
X472512Y168779D01*
X472639Y167787D01*
X472828Y166806D01*
X473079Y165839D01*
X473391Y164889D01*
X473762Y163962D01*
X474192Y163059D01*
X474677Y162186D01*
X475218Y161346D01*
X475810Y160541D01*
X476452Y159775D01*
X477142Y159052D01*
X477876Y158374D01*
X478652Y157744D01*
X479466Y157164D01*
X480315Y156637D01*
X481196Y156165D01*
X482105Y155750D01*
X483038Y155394D01*
X483993Y155097D01*
X484964Y154861D01*
X485948Y154688D01*
X486941Y154577D01*
X487939Y154530D01*
X488938Y154545D01*
X489934Y154625D01*
X490924Y154767D01*
X491902Y154972D01*
X492865Y155238D01*
X493809Y155565D01*
X494731Y155951D01*
X495626Y156394D01*
X496492Y156894D01*
X497324Y157448D01*
X498119Y158053D01*
X498874Y158707D01*
X499586Y159408D01*
X500253Y160153D01*
X500870Y160938D01*
X501437Y161761D01*
X501950Y162619D01*
X502408Y163507D01*
X502809Y164423D01*
X503151Y165362D01*
X503432Y166320D01*
X503652Y167295D01*
X503810Y168282D01*
X503905Y169277D01*
X503937Y170275D01*
X375102Y281705D02*
X399905D01*
X375102D02*
Y306508D01*
X399905D01*
Y281705D02*
Y306508D01*
X342520Y169291D02*
X366142D01*
X342520D02*
Y192913D01*
X366142D01*
Y169291D02*
Y192913D01*
X443977Y307032D02*
Y318538D01*
X330257Y308018D02*
Y319524D01*
X388045Y169291D02*
X411667D01*
X388045D02*
Y192913D01*
X411667D01*
Y169291D02*
Y192913D01*
X311024Y169291D02*
X334646D01*
X311024D02*
Y192913D01*
X334646D01*
Y169291D02*
Y192913D01*
D12*
X345677Y155358D02*
D03*
X420079Y169291D02*
D03*
X391203Y155358D02*
D03*
X314181D02*
D03*
D13*
X290754Y187769D02*
X290046Y188178D01*
Y187360D01*
X290754Y187769D01*
D14*
X465081Y312785D02*
X465037Y313788D01*
X464907Y314783D01*
X464689Y315763D01*
X464387Y316721D01*
X464003Y317648D01*
X463540Y318538D01*
X463000Y319385D01*
X462389Y320181D01*
X461711Y320921D01*
X460971Y321600D01*
X460175Y322211D01*
X459328Y322750D01*
X458438Y323213D01*
X457511Y323597D01*
X456553Y323899D01*
X455573Y324116D01*
X454578Y324248D01*
X453575Y324291D01*
X452572Y324248D01*
X451577Y324116D01*
X450597Y323899D01*
X449640Y323597D01*
X448713Y323213D01*
X447822Y322750D01*
X446976Y322211D01*
X446179Y321600D01*
X445439Y320921D01*
X444761Y320181D01*
X444150Y319385D01*
X443611Y318538D01*
X443148Y317648D01*
X442763Y316721D01*
X442461Y315763D01*
X442244Y314783D01*
X442113Y313788D01*
X442069Y312785D01*
X442113Y311783D01*
X442244Y310787D01*
X442461Y309807D01*
X442763Y308850D01*
X443148Y307923D01*
X443611Y307032D01*
X444150Y306186D01*
X444761Y305390D01*
X445439Y304649D01*
X446179Y303971D01*
X446976Y303360D01*
X447822Y302821D01*
X448713Y302358D01*
X449640Y301973D01*
X450597Y301672D01*
X451577Y301454D01*
X452572Y301323D01*
X453575Y301279D01*
X454578Y301323D01*
X455573Y301454D01*
X456553Y301672D01*
X457511Y301973D01*
X458438Y302358D01*
X459328Y302821D01*
X460175Y303360D01*
X460971Y303971D01*
X461711Y304649D01*
X462389Y305390D01*
X463000Y306186D01*
X463540Y307032D01*
X464003Y307923D01*
X464387Y308850D01*
X464689Y309807D01*
X464907Y310787D01*
X465037Y311783D01*
X465081Y312785D01*
X332165Y313771D02*
X332121Y314774D01*
X331990Y315769D01*
X331773Y316749D01*
X331471Y317706D01*
X331087Y318633D01*
X330623Y319524D01*
X330084Y320370D01*
X329473Y321167D01*
X328795Y321907D01*
X328055Y322585D01*
X327258Y323196D01*
X326412Y323735D01*
X325521Y324199D01*
X324594Y324583D01*
X323637Y324885D01*
X322657Y325102D01*
X321662Y325233D01*
X320659Y325277D01*
X319656Y325233D01*
X318661Y325102D01*
X317681Y324885D01*
X316723Y324583D01*
X315796Y324199D01*
X314906Y323735D01*
X314059Y323196D01*
X313263Y322585D01*
X312523Y321907D01*
X311845Y321167D01*
X311234Y320370D01*
X310694Y319524D01*
X310231Y318633D01*
X309847Y317706D01*
X309545Y316749D01*
X309328Y315769D01*
X309197Y314774D01*
X309153Y313771D01*
X309197Y312768D01*
X309328Y311773D01*
X309545Y310793D01*
X309847Y309836D01*
X310231Y308908D01*
X310694Y308018D01*
X311234Y307171D01*
X311845Y306375D01*
X312523Y305635D01*
X313263Y304957D01*
X314059Y304346D01*
X314906Y303806D01*
X315796Y303343D01*
X316723Y302959D01*
X317681Y302657D01*
X318661Y302440D01*
X319656Y302309D01*
X320659Y302265D01*
X321662Y302309D01*
X322657Y302440D01*
X323637Y302657D01*
X324594Y302959D01*
X325521Y303343D01*
X326412Y303806D01*
X327258Y304346D01*
X328055Y304957D01*
X328795Y305635D01*
X329473Y306375D01*
X330084Y307171D01*
X330623Y308018D01*
X331087Y308908D01*
X331471Y309836D01*
X331773Y310793D01*
X331990Y311773D01*
X332121Y312768D01*
X332165Y313771D01*
D15*
X381613Y321509D02*
Y327309D01*
Y321509D02*
X393213D01*
Y327309D01*
X381613D02*
X393213D01*
X393300Y328990D02*
Y334790D01*
X381700D02*
X393300D01*
X381700Y328990D02*
Y334790D01*
Y328990D02*
X393300D01*
X407273Y258600D02*
Y264400D01*
X395673D02*
X407273D01*
X395673Y258600D02*
Y264400D01*
Y258600D02*
X407273D01*
X371610Y190281D02*
X377411D01*
Y201881D01*
X371610D02*
X377411D01*
X371610Y190281D02*
Y201881D01*
X379658D02*
X385458D01*
X379658Y190281D02*
Y201881D01*
Y190281D02*
X385458D01*
Y201881D01*
X419178Y296220D02*
X424978D01*
Y307820D01*
X419178D02*
X424978D01*
X419178Y296220D02*
Y307820D01*
X411172Y296349D02*
X416972D01*
Y307949D01*
X411172D02*
X416972D01*
X411172Y296349D02*
Y307949D01*
X379439Y324421D02*
Y330221D01*
X367839D02*
X379439D01*
X367839Y324421D02*
Y330221D01*
Y324421D02*
X379439D01*
X379385Y315790D02*
Y321590D01*
X367785D02*
X379385D01*
X367785Y315790D02*
Y321590D01*
Y315790D02*
X379385D01*
X395641Y266502D02*
Y272302D01*
Y266502D02*
X407241D01*
Y272302D01*
X395641D02*
X407241D01*
X360068Y286121D02*
X365868D01*
X360068Y274521D02*
Y286121D01*
Y274521D02*
X365868D01*
Y286121D01*
X377251Y212500D02*
Y221555D01*
X366522D02*
X377251D01*
X366522Y212205D02*
Y230906D01*
Y212205D02*
X407270D01*
Y230906D01*
X366522D02*
X407270D01*
X436560Y280830D02*
Y286630D01*
X424960D02*
X436560D01*
X424960Y280830D02*
Y286630D01*
Y280830D02*
X436560D01*
X440556Y298574D02*
X446356D01*
X440556Y286975D02*
Y298574D01*
Y286975D02*
X446356D01*
Y298574D01*
X411159Y288030D02*
Y293830D01*
Y288030D02*
X422759D01*
Y293830D01*
X411159D02*
X422759D01*
X311130Y224863D02*
X316930D01*
X311130Y213263D02*
Y224863D01*
Y213263D02*
X316930D01*
Y224863D01*
X342626D02*
X348426D01*
X342626Y213263D02*
Y224863D01*
Y213263D02*
X348426D01*
Y224863D01*
X348797Y204630D02*
Y210430D01*
Y204630D02*
X360398D01*
Y210430D01*
X348797D02*
X360398D01*
X317055Y204876D02*
Y210676D01*
Y204876D02*
X328655D01*
Y210676D01*
X317055D02*
X328655D01*
X315584Y261383D02*
X321384D01*
X315584Y249783D02*
Y261383D01*
Y249783D02*
X321384D01*
Y261383D01*
X325912D02*
X331713D01*
X325912Y249783D02*
Y261383D01*
Y249783D02*
X331713D01*
Y261383D01*
X451232Y192175D02*
Y202175D01*
X433232D02*
X451232D01*
X433232Y192175D02*
Y202175D01*
Y192175D02*
X451232D01*
X345512Y310874D02*
Y316674D01*
X333911D02*
X345512D01*
X333911Y310874D02*
Y316674D01*
Y310874D02*
X345512D01*
X433270Y229330D02*
Y239330D01*
Y229330D02*
X451270D01*
Y239330D01*
X433270D02*
X451270D01*
X290012Y197653D02*
X295812D01*
Y209253D01*
X290012D02*
X295812D01*
X290012Y197653D02*
Y209253D01*
X227366Y208903D02*
X233166D01*
X227366Y197302D02*
Y208903D01*
Y197302D02*
X233166D01*
Y208903D01*
X305901Y261383D02*
X311701D01*
X305901Y249783D02*
Y261383D01*
Y249783D02*
X311701D01*
Y261383D01*
X248039Y293950D02*
Y299750D01*
Y293950D02*
X259639D01*
Y299750D01*
X248039D02*
X259639D01*
X544711Y280812D02*
X550511D01*
Y292412D01*
X544711D02*
X550511D01*
X544711Y280812D02*
Y292412D01*
X494758Y294450D02*
Y300250D01*
Y294450D02*
X506358D01*
Y300250D01*
X494758D02*
X506358D01*
X460334Y199744D02*
X466134D01*
Y211344D01*
X460334D02*
X466134D01*
X460334Y199744D02*
Y211344D01*
X471796D02*
X477596D01*
X471796Y199744D02*
Y211344D01*
Y199744D02*
X477596D01*
Y211344D01*
X513280Y312487D02*
X519080D01*
Y324087D01*
X513280D02*
X519080D01*
X513280Y312487D02*
Y324087D01*
X481909Y328873D02*
Y334673D01*
X470309D02*
X481909D01*
X470309Y328873D02*
Y334673D01*
Y328873D02*
X481909D01*
X256943Y358162D02*
X262742D01*
X256943Y346562D02*
Y358162D01*
Y346562D02*
X262742D01*
Y358162D01*
X333320Y358950D02*
X339121D01*
X333320Y347350D02*
Y358950D01*
Y347350D02*
X339121D01*
Y358950D01*
X428846Y313242D02*
Y319042D01*
Y313242D02*
X440446D01*
Y319042D01*
X428846D02*
X440446D01*
D16*
X280118Y280512D02*
X287992D01*
X280118D02*
Y291929D01*
X240748D02*
X280118D01*
X240748Y280512D02*
Y291929D01*
X232874Y280512D02*
X240748D01*
X228937Y229331D02*
Y233268D01*
X222244D02*
X228937D01*
X222244D02*
Y264764D01*
X228937D01*
Y268701D01*
X284055Y217520D02*
X289961D01*
X284055Y191929D02*
Y217520D01*
X236811Y191929D02*
X284055D01*
X236811D02*
Y217520D01*
X230906D02*
X236811D01*
X303500Y229366D02*
Y268736D01*
X291929Y268701D02*
X303346D01*
X291929Y229331D02*
X303346D01*
X420436Y274813D02*
X466105D01*
Y241348D02*
Y274813D01*
X420436Y241348D02*
X466105D01*
X420436D02*
Y274813D01*
X423228Y150591D02*
Y187992D01*
Y150591D02*
X462598D01*
Y187992D01*
X423228D02*
X462598D01*
X526968Y280512D02*
X534842D01*
X526968D02*
Y291929D01*
X487598D02*
X526968D01*
X487598Y280512D02*
Y291929D01*
X479724Y280512D02*
X487598D01*
X475787Y229331D02*
Y233268D01*
X469095D02*
X475787D01*
X469095D02*
Y264764D01*
X475787D01*
Y268701D01*
X530905Y217520D02*
X536811D01*
X530905Y191929D02*
Y217520D01*
X483661Y191929D02*
X530905D01*
X483661D02*
Y217520D01*
X477756D02*
X483661D01*
X550350Y229366D02*
Y268736D01*
X538779Y268701D02*
X550197D01*
X538779Y229331D02*
X550197D01*
X445908Y339764D02*
X504766D01*
X445908D02*
Y371850D01*
X504766D01*
Y339764D02*
Y371850D01*
X525197Y305118D02*
Y363976D01*
X557283D01*
Y305118D02*
Y363976D01*
X525197Y305118D02*
X557283D01*
X250590Y306103D02*
Y364962D01*
X218504Y306103D02*
X250590D01*
X218504D02*
Y364962D01*
X250590D01*
X269468Y339764D02*
X328326D01*
X269468D02*
Y371850D01*
X328326D01*
Y339764D02*
Y371850D01*
D17*
X299534Y155843D02*
X304337D01*
X277290D02*
X290479D01*
X255754D02*
X267841D01*
X304337D02*
Y185197D01*
X255754D02*
X266857D01*
X278077D02*
X289298D01*
X300715D02*
X304337D01*
X255754Y155843D02*
Y185197D01*
X451391Y206024D02*
Y224549D01*
X432961Y206071D02*
Y224549D01*
X392920Y154706D02*
Y157905D01*
X394520D01*
X395053Y157372D01*
Y156306D01*
X394520Y155773D01*
X392920D01*
X393987D02*
X395053Y154706D01*
X397719D02*
X396653D01*
X396119Y155239D01*
Y156306D01*
X396653Y156839D01*
X397719D01*
X398252Y156306D01*
Y155773D01*
X396119D01*
X399318Y154706D02*
X400918D01*
X401451Y155239D01*
X400918Y155773D01*
X399851D01*
X399318Y156306D01*
X399851Y156839D01*
X401451D01*
X404117Y154706D02*
X403051D01*
X402517Y155239D01*
Y156306D01*
X403051Y156839D01*
X404117D01*
X404650Y156306D01*
Y155773D01*
X402517D01*
X406249Y157372D02*
Y156839D01*
X405716D01*
X406783D01*
X406249D01*
Y155239D01*
X406783Y154706D01*
X514034Y184671D02*
X512967D01*
X513500D01*
Y182004D01*
X512967Y181471D01*
X512434D01*
X511901Y182004D01*
X515100Y184137D02*
X515633Y184671D01*
X516700D01*
X517233Y184137D01*
Y183604D01*
X516700Y183071D01*
X517233Y182538D01*
Y182004D01*
X516700Y181471D01*
X515633D01*
X515100Y182004D01*
Y182538D01*
X515633Y183071D01*
X515100Y183604D01*
Y184137D01*
X515633Y183071D02*
X516700D01*
X334668Y247213D02*
Y244014D01*
X336268D01*
X336801Y244547D01*
Y246680D01*
X336268Y247213D01*
X334668D01*
X340000Y244014D02*
X337867D01*
X340000Y246147D01*
Y246680D01*
X339467Y247213D01*
X338401D01*
X337867Y246680D01*
X307927Y247310D02*
Y244111D01*
X309526D01*
X310059Y244644D01*
Y246777D01*
X309526Y247310D01*
X307927D01*
X311125Y244111D02*
X312192D01*
X311659D01*
Y247310D01*
X311125Y246777D01*
X421344Y279700D02*
Y277034D01*
X421877Y276501D01*
X422943D01*
X423476Y277034D01*
Y279700D01*
X426142Y276501D02*
Y279700D01*
X424543Y278100D01*
X426675D01*
X357500Y504899D02*
Y502233D01*
X358033Y501700D01*
X359100D01*
X359633Y502233D01*
Y504899D01*
X360699Y504366D02*
X361232Y504899D01*
X362298D01*
X362832Y504366D01*
Y503833D01*
X362298Y503300D01*
X361765D01*
X362298D01*
X362832Y502766D01*
Y502233D01*
X362298Y501700D01*
X361232D01*
X360699Y502233D01*
X428077Y301100D02*
Y298434D01*
X428610Y297901D01*
X429677D01*
X430210Y298434D01*
Y301100D01*
X433409Y297901D02*
X431276D01*
X433409Y300033D01*
Y300567D01*
X432876Y301100D01*
X431809D01*
X431276Y300567D01*
X368590Y313921D02*
Y311255D01*
X369123Y310722D01*
X370189D01*
X370722Y311255D01*
Y313921D01*
X371789Y310722D02*
X372855D01*
X372322D01*
Y313921D01*
X371789Y313388D01*
X390333Y208666D02*
X389799Y209199D01*
X388733D01*
X388200Y208666D01*
Y208133D01*
X388733Y207599D01*
X389799D01*
X390333Y207066D01*
Y206533D01*
X389799Y206000D01*
X388733D01*
X388200Y206533D01*
X391399Y208666D02*
X391932Y209199D01*
X392999D01*
X393532Y208666D01*
Y208133D01*
X392999Y207599D01*
X392465D01*
X392999D01*
X393532Y207066D01*
Y206533D01*
X392999Y206000D01*
X391932D01*
X391399Y206533D01*
X342035Y208138D02*
X341502Y208671D01*
X340435D01*
X339902Y208138D01*
Y207605D01*
X340435Y207072D01*
X341502D01*
X342035Y206539D01*
Y206005D01*
X341502Y205472D01*
X340435D01*
X339902Y206005D01*
X345234Y205472D02*
X343101D01*
X345234Y207605D01*
Y208138D01*
X344701Y208671D01*
X343634D01*
X343101Y208138D01*
X313233Y208666D02*
X312700Y209199D01*
X311633D01*
X311100Y208666D01*
Y208133D01*
X311633Y207599D01*
X312700D01*
X313233Y207066D01*
Y206533D01*
X312700Y206000D01*
X311633D01*
X311100Y206533D01*
X314299Y206000D02*
X315365D01*
X314832D01*
Y209199D01*
X314299Y208666D01*
X288595Y210953D02*
Y214152D01*
X290194D01*
X290728Y213619D01*
Y212553D01*
X290194Y212020D01*
X288595D01*
X289661D02*
X290728Y210953D01*
X291794D02*
X292860D01*
X292327D01*
Y214152D01*
X291794Y213619D01*
X296059Y210953D02*
Y214152D01*
X294460Y212553D01*
X296592D01*
X459153Y212979D02*
Y216178D01*
X460752D01*
X461286Y215644D01*
Y214578D01*
X460752Y214045D01*
X459153D01*
X460219D02*
X461286Y212979D01*
X462352D02*
X463418D01*
X462885D01*
Y216178D01*
X462352Y215644D01*
X465018D02*
X465551Y216178D01*
X466617D01*
X467150Y215644D01*
Y215111D01*
X466617Y214578D01*
X466084D01*
X466617D01*
X467150Y214045D01*
Y213512D01*
X466617Y212979D01*
X465551D01*
X465018Y213512D01*
X337116Y318390D02*
Y321589D01*
X338716D01*
X339249Y321056D01*
Y319990D01*
X338716Y319457D01*
X337116D01*
X338183D02*
X339249Y318390D01*
X340315D02*
X341382D01*
X340848D01*
Y321589D01*
X340315Y321056D01*
X345114Y318390D02*
X342981D01*
X345114Y320523D01*
Y321056D01*
X344581Y321589D01*
X343514D01*
X342981Y321056D01*
X428800Y322000D02*
Y325199D01*
X430400D01*
X430933Y324666D01*
Y323600D01*
X430400Y323066D01*
X428800D01*
X429866D02*
X430933Y322000D01*
X431999D02*
X433065D01*
X432532D01*
Y325199D01*
X431999Y324666D01*
X434665Y322000D02*
X435731D01*
X435198D01*
Y325199D01*
X434665Y324666D01*
X408844Y260318D02*
Y263517D01*
X410443D01*
X410976Y262984D01*
Y261918D01*
X410443Y261385D01*
X408844D01*
X409910D02*
X410976Y260318D01*
X412043D02*
X413109D01*
X412576D01*
Y263517D01*
X412043Y262984D01*
X414708D02*
X415242Y263517D01*
X416308D01*
X416841Y262984D01*
Y260852D01*
X416308Y260318D01*
X415242D01*
X414708Y260852D01*
Y262984D01*
X371758Y185440D02*
Y188639D01*
X373358D01*
X373891Y188106D01*
Y187039D01*
X373358Y186506D01*
X371758D01*
X372825D02*
X373891Y185440D01*
X374957Y185973D02*
X375490Y185440D01*
X376557D01*
X377090Y185973D01*
Y188106D01*
X376557Y188639D01*
X375490D01*
X374957Y188106D01*
Y187573D01*
X375490Y187039D01*
X377090D01*
X448140Y295200D02*
Y298399D01*
X449739D01*
X450273Y297866D01*
Y296800D01*
X449739Y296267D01*
X448140D01*
X449206D02*
X450273Y295200D01*
X451339Y297866D02*
X451872Y298399D01*
X452938D01*
X453472Y297866D01*
Y297333D01*
X452938Y296800D01*
X453472Y296267D01*
Y295734D01*
X452938Y295200D01*
X451872D01*
X451339Y295734D01*
Y296267D01*
X451872Y296800D01*
X451339Y297333D01*
Y297866D01*
X451872Y296800D02*
X452938D01*
X416792Y283836D02*
Y287035D01*
X418392D01*
X418925Y286502D01*
Y285436D01*
X418392Y284902D01*
X416792D01*
X417859D02*
X418925Y283836D01*
X419991Y287035D02*
X422124D01*
Y286502D01*
X419991Y284369D01*
Y283836D01*
X394985Y330153D02*
Y333352D01*
X396584D01*
X397118Y332818D01*
Y331752D01*
X396584Y331219D01*
X394985D01*
X396051D02*
X397118Y330153D01*
X400317Y333352D02*
X399250Y332818D01*
X398184Y331752D01*
Y330686D01*
X398717Y330153D01*
X399783D01*
X400317Y330686D01*
Y331219D01*
X399783Y331752D01*
X398184D01*
X395551Y322878D02*
Y326077D01*
X397151D01*
X397684Y325544D01*
Y324478D01*
X397151Y323945D01*
X395551D01*
X396618D02*
X397684Y322878D01*
X400883Y326077D02*
X398750D01*
Y324478D01*
X399817Y325011D01*
X400350D01*
X400883Y324478D01*
Y323411D01*
X400350Y322878D01*
X399284D01*
X398750Y323411D01*
X326399Y263011D02*
Y266210D01*
X327999D01*
X328532Y265676D01*
Y264610D01*
X327999Y264077D01*
X326399D01*
X327466D02*
X328532Y263011D01*
X331198D02*
Y266210D01*
X329598Y264610D01*
X331731D01*
X343004Y226353D02*
Y229552D01*
X344603D01*
X345136Y229019D01*
Y227953D01*
X344603Y227420D01*
X343004D01*
X344070D02*
X345136Y226353D01*
X346202Y229019D02*
X346736Y229552D01*
X347802D01*
X348335Y229019D01*
Y228486D01*
X347802Y227953D01*
X347269D01*
X347802D01*
X348335Y227420D01*
Y226886D01*
X347802Y226353D01*
X346736D01*
X346202Y226886D01*
X311434Y226501D02*
Y229700D01*
X313033D01*
X313566Y229167D01*
Y228100D01*
X313033Y227567D01*
X311434D01*
X312500D02*
X313566Y226501D01*
X316765D02*
X314633D01*
X316765Y228633D01*
Y229167D01*
X316232Y229700D01*
X315166D01*
X314633Y229167D01*
X316352Y262937D02*
Y266136D01*
X317951D01*
X318484Y265602D01*
Y264536D01*
X317951Y264003D01*
X316352D01*
X317418D02*
X318484Y262937D01*
X319551D02*
X320617D01*
X320084D01*
Y266136D01*
X319551Y265602D01*
X224603Y294355D02*
Y297554D01*
X226203D01*
X226736Y297021D01*
Y295955D01*
X226203Y295422D01*
X224603D01*
X229935Y294355D02*
X227802D01*
X229935Y296488D01*
Y297021D01*
X229402Y297554D01*
X228335D01*
X227802Y297021D01*
X542255Y294146D02*
Y297345D01*
X543855D01*
X544388Y296812D01*
Y295746D01*
X543855Y295213D01*
X542255D01*
X545454Y294146D02*
X546521D01*
X545988D01*
Y297345D01*
X545454Y296812D01*
X424257Y217842D02*
Y214643D01*
X426390D01*
X427456D02*
X428522D01*
X427989D01*
Y217842D01*
X427456Y217309D01*
X240475Y301081D02*
X239409D01*
X239942D01*
Y298415D01*
X239409Y297882D01*
X238876D01*
X238342Y298415D01*
X241542Y301081D02*
X243674D01*
Y300547D01*
X241542Y298415D01*
Y297882D01*
X529538Y300331D02*
X528471D01*
X529004D01*
Y297666D01*
X528471Y297132D01*
X527938D01*
X527405Y297666D01*
X532736Y300331D02*
X531670Y299798D01*
X530604Y298732D01*
Y297666D01*
X531137Y297132D01*
X532203D01*
X532736Y297666D01*
Y298199D01*
X532203Y298732D01*
X530604D01*
X437074Y372382D02*
X436007D01*
X436540D01*
Y369716D01*
X436007Y369183D01*
X435474D01*
X434941Y369716D01*
X440273Y372382D02*
X438140D01*
Y370782D01*
X439206Y371315D01*
X439739D01*
X440273Y370782D01*
Y369716D01*
X439739Y369183D01*
X438673D01*
X438140Y369716D01*
X335140Y373573D02*
X334074D01*
X334607D01*
Y370908D01*
X334074Y370374D01*
X333541D01*
X333008Y370908D01*
X337806Y370374D02*
Y373573D01*
X336207Y371974D01*
X338339D01*
X458048Y196282D02*
X456982D01*
X457515D01*
Y193616D01*
X456982Y193083D01*
X456449D01*
X455915Y193616D01*
X459115Y195749D02*
X459648Y196282D01*
X460714D01*
X461247Y195749D01*
Y195216D01*
X460714Y194683D01*
X460181D01*
X460714D01*
X461247Y194149D01*
Y193616D01*
X460714Y193083D01*
X459648D01*
X459115Y193616D01*
X377026Y157899D02*
X375960D01*
X376493D01*
Y155233D01*
X375960Y154700D01*
X375426D01*
X374893Y155233D01*
X380225Y154700D02*
X378092D01*
X380225Y156832D01*
Y157366D01*
X379692Y157899D01*
X378625D01*
X378092Y157366D01*
X257796Y190251D02*
X256730D01*
X257263D01*
Y187585D01*
X256730Y187052D01*
X256196D01*
X255663Y187585D01*
X258862Y187052D02*
X259928D01*
X259395D01*
Y190251D01*
X258862Y189718D01*
X257617Y343352D02*
X257084Y343885D01*
X256018D01*
X255485Y343352D01*
Y341220D01*
X256018Y340686D01*
X257084D01*
X257617Y341220D01*
X260816Y340686D02*
X258683D01*
X260816Y342819D01*
Y343352D01*
X260283Y343885D01*
X259217D01*
X258683Y343352D01*
X261882D02*
X262416Y343885D01*
X263482D01*
X264015Y343352D01*
Y342819D01*
X263482Y342286D01*
X262949D01*
X263482D01*
X264015Y341753D01*
Y341220D01*
X263482Y340686D01*
X262416D01*
X261882Y341220D01*
X227706Y213249D02*
X227172Y213783D01*
X226106D01*
X225573Y213249D01*
Y211117D01*
X226106Y210583D01*
X227172D01*
X227706Y211117D01*
X230905Y210583D02*
X228772D01*
X230905Y212716D01*
Y213249D01*
X230371Y213783D01*
X229305D01*
X228772Y213249D01*
X234104Y210583D02*
X231971D01*
X234104Y212716D01*
Y213249D01*
X233570Y213783D01*
X232504D01*
X231971Y213249D01*
X263767Y297742D02*
X263234Y298275D01*
X262168D01*
X261634Y297742D01*
Y295610D01*
X262168Y295076D01*
X263234D01*
X263767Y295610D01*
X266966Y295076D02*
X264833D01*
X266966Y297209D01*
Y297742D01*
X266433Y298275D01*
X265367D01*
X264833Y297742D01*
X268032Y295076D02*
X269099D01*
X268566D01*
Y298275D01*
X268032Y297742D01*
X307738Y265752D02*
X307205Y266285D01*
X306139D01*
X305606Y265752D01*
Y263619D01*
X306139Y263086D01*
X307205D01*
X307738Y263619D01*
X310937Y263086D02*
X308805D01*
X310937Y265219D01*
Y265752D01*
X310404Y266285D01*
X309338D01*
X308805Y265752D01*
X312004D02*
X312537Y266285D01*
X313603D01*
X314136Y265752D01*
Y263619D01*
X313603Y263086D01*
X312537D01*
X312004Y263619D01*
Y265752D01*
X513494Y310383D02*
X512961Y310916D01*
X511895D01*
X511362Y310383D01*
Y308250D01*
X511895Y307717D01*
X512961D01*
X513494Y308250D01*
X514561Y307717D02*
X515627D01*
X515094D01*
Y310916D01*
X514561Y310383D01*
X517226Y308250D02*
X517760Y307717D01*
X518826D01*
X519359Y308250D01*
Y310383D01*
X518826Y310916D01*
X517760D01*
X517226Y310383D01*
Y309850D01*
X517760Y309316D01*
X519359D01*
X474308Y326614D02*
X473775Y327147D01*
X472708D01*
X472175Y326614D01*
Y324481D01*
X472708Y323948D01*
X473775D01*
X474308Y324481D01*
X475374Y323948D02*
X476440D01*
X475907D01*
Y327147D01*
X475374Y326614D01*
X478040D02*
X478573Y327147D01*
X479639D01*
X480173Y326614D01*
Y326081D01*
X479639Y325548D01*
X480173Y325015D01*
Y324481D01*
X479639Y323948D01*
X478573D01*
X478040Y324481D01*
Y325015D01*
X478573Y325548D01*
X478040Y326081D01*
Y326614D01*
X478573Y325548D02*
X479639D01*
X472817Y197293D02*
X472284Y197827D01*
X471218D01*
X470685Y197293D01*
Y195161D01*
X471218Y194628D01*
X472284D01*
X472817Y195161D01*
X473884Y194628D02*
X474950D01*
X474417D01*
Y197827D01*
X473884Y197293D01*
X476549Y197827D02*
X478682D01*
Y197293D01*
X476549Y195161D01*
Y194628D01*
X486737Y298577D02*
X486204Y299110D01*
X485138D01*
X484605Y298577D01*
Y296444D01*
X485138Y295911D01*
X486204D01*
X486737Y296444D01*
X487804Y295911D02*
X488870D01*
X488337D01*
Y299110D01*
X487804Y298577D01*
X492602Y299110D02*
X491536Y298577D01*
X490469Y297510D01*
Y296444D01*
X491003Y295911D01*
X492069D01*
X492602Y296444D01*
Y296977D01*
X492069Y297510D01*
X490469D01*
X536756Y291359D02*
X536222Y291893D01*
X535156D01*
X534623Y291359D01*
Y289227D01*
X535156Y288694D01*
X536222D01*
X536756Y289227D01*
X537822Y288694D02*
X538888D01*
X538355D01*
Y291893D01*
X537822Y291359D01*
X542620Y291893D02*
X540488D01*
Y290293D01*
X541554Y290826D01*
X542087D01*
X542620Y290293D01*
Y289227D01*
X542087Y288694D01*
X541021D01*
X540488Y289227D01*
X337110Y345161D02*
X336577Y345694D01*
X335511D01*
X334978Y345161D01*
Y343028D01*
X335511Y342495D01*
X336577D01*
X337110Y343028D01*
X338177Y342495D02*
X339243D01*
X338710D01*
Y345694D01*
X338177Y345161D01*
X342442Y342495D02*
Y345694D01*
X340843Y344094D01*
X342975D01*
X455353Y236346D02*
X454820Y236879D01*
X453753D01*
X453220Y236346D01*
Y234213D01*
X453753Y233680D01*
X454820D01*
X455353Y234213D01*
X456419Y233680D02*
X457485D01*
X456952D01*
Y236879D01*
X456419Y236346D01*
X459085D02*
X459618Y236879D01*
X460684D01*
X461217Y236346D01*
Y235813D01*
X460684Y235280D01*
X460151D01*
X460684D01*
X461217Y234747D01*
Y234213D01*
X460684Y233680D01*
X459618D01*
X459085Y234213D01*
X425124Y198486D02*
X424591Y199019D01*
X423525D01*
X422991Y198486D01*
Y196353D01*
X423525Y195820D01*
X424591D01*
X425124Y196353D01*
X426190Y195820D02*
X427257D01*
X426723D01*
Y199019D01*
X426190Y198486D01*
X430989Y195820D02*
X428856D01*
X430989Y197952D01*
Y198486D01*
X430456Y199019D01*
X429389D01*
X428856Y198486D01*
X502604Y187287D02*
X502071Y187820D01*
X501005D01*
X500471Y187287D01*
Y185154D01*
X501005Y184621D01*
X502071D01*
X502604Y185154D01*
X503670Y184621D02*
X504737D01*
X504204D01*
Y187820D01*
X503670Y187287D01*
X506336Y184621D02*
X507403D01*
X506869D01*
Y187820D01*
X506336Y187287D01*
X421364Y312396D02*
X420831Y312930D01*
X419764D01*
X419231Y312396D01*
Y310264D01*
X419764Y309731D01*
X420831D01*
X421364Y310264D01*
X422430Y309731D02*
X423496D01*
X422963D01*
Y312930D01*
X422430Y312396D01*
X425096D02*
X425629Y312930D01*
X426695D01*
X427229Y312396D01*
Y310264D01*
X426695Y309731D01*
X425629D01*
X425096Y310264D01*
Y312396D01*
X413648Y312523D02*
X413115Y313057D01*
X412049D01*
X411515Y312523D01*
Y310391D01*
X412049Y309858D01*
X413115D01*
X413648Y310391D01*
X414714D02*
X415247Y309858D01*
X416314D01*
X416847Y310391D01*
Y312523D01*
X416314Y313057D01*
X415247D01*
X414714Y312523D01*
Y311990D01*
X415247Y311457D01*
X416847D01*
X362576Y328899D02*
X362042Y329432D01*
X360976D01*
X360443Y328899D01*
Y326766D01*
X360976Y326233D01*
X362042D01*
X362576Y326766D01*
X363642Y328899D02*
X364175Y329432D01*
X365242D01*
X365775Y328899D01*
Y328365D01*
X365242Y327832D01*
X365775Y327299D01*
Y326766D01*
X365242Y326233D01*
X364175D01*
X363642Y326766D01*
Y327299D01*
X364175Y327832D01*
X363642Y328365D01*
Y328899D01*
X364175Y327832D02*
X365242D01*
X410838Y270444D02*
X410305Y270977D01*
X409239D01*
X408706Y270444D01*
Y268312D01*
X409239Y267778D01*
X410305D01*
X410838Y268312D01*
X411905Y270977D02*
X414037D01*
Y270444D01*
X411905Y268312D01*
Y267778D01*
X355235Y277572D02*
X354702Y278105D01*
X353635D01*
X353102Y277572D01*
Y275439D01*
X353635Y274906D01*
X354702D01*
X355235Y275439D01*
X358434Y278105D02*
X357367Y277572D01*
X356301Y276505D01*
Y275439D01*
X356834Y274906D01*
X357901D01*
X358434Y275439D01*
Y275972D01*
X357901Y276505D01*
X356301D01*
X362718Y319844D02*
X362184Y320377D01*
X361118D01*
X360585Y319844D01*
Y317712D01*
X361118Y317179D01*
X362184D01*
X362718Y317712D01*
X365916Y320377D02*
X363784D01*
Y318778D01*
X364850Y319311D01*
X365383D01*
X365916Y318778D01*
Y317712D01*
X365383Y317179D01*
X364317D01*
X363784Y317712D01*
X382006Y188303D02*
X381473Y188836D01*
X380407D01*
X379874Y188303D01*
Y186170D01*
X380407Y185637D01*
X381473D01*
X382006Y186170D01*
X384672Y185637D02*
Y188836D01*
X383073Y187236D01*
X385205D01*
X440587Y285006D02*
X440054Y285540D01*
X438988D01*
X438455Y285006D01*
Y282874D01*
X438988Y282341D01*
X440054D01*
X440587Y282874D01*
X441654Y285006D02*
X442187Y285540D01*
X443253D01*
X443786Y285006D01*
Y284473D01*
X443253Y283940D01*
X442720D01*
X443253D01*
X443786Y283407D01*
Y282874D01*
X443253Y282341D01*
X442187D01*
X441654Y282874D01*
X354179Y214897D02*
X353646Y215431D01*
X352579D01*
X352046Y214897D01*
Y212765D01*
X352579Y212232D01*
X353646D01*
X354179Y212765D01*
X357378Y212232D02*
X355245D01*
X357378Y214364D01*
Y214897D01*
X356845Y215431D01*
X355778D01*
X355245Y214897D01*
X322784Y214818D02*
X322251Y215351D01*
X321185D01*
X320652Y214818D01*
Y212685D01*
X321185Y212152D01*
X322251D01*
X322784Y212685D01*
X323850Y212152D02*
X324917D01*
X324384D01*
Y215351D01*
X323850Y214818D01*
X437705Y323783D02*
Y320584D01*
X439304D01*
X439838Y321117D01*
Y323250D01*
X439304Y323783D01*
X437705D01*
X440904Y323250D02*
X441437Y323783D01*
X442503D01*
X443037Y323250D01*
Y322717D01*
X442503Y322184D01*
X441970D01*
X442503D01*
X443037Y321651D01*
Y321117D01*
X442503Y320584D01*
X441437D01*
X440904Y321117D01*
X332234Y326602D02*
Y323403D01*
X333833D01*
X334366Y323936D01*
Y326069D01*
X333833Y326602D01*
X332234D01*
X337032Y323403D02*
Y326602D01*
X335433Y325003D01*
X337565D01*
M02*
