G04*
G04 #@! TF.GenerationSoftware,Altium Limited,Altium Designer,24.2.2 (26)*
G04*
G04 Layer_Color=255*
%FSLAX25Y25*%
%MOIN*%
G70*
G04*
G04 #@! TF.SameCoordinates,AF2FB041-FD52-4B01-B4D8-7A83CE53158D*
G04*
G04*
G04 #@! TF.FilePolarity,Positive*
G04*
G01*
G75*
%ADD35C,0.03900*%
%ADD52C,0.05709*%
%ADD53R,0.05709X0.05709*%
%ADD56C,0.05000*%
%ADD57R,0.06400X0.06400*%
%ADD58C,0.06400*%
%ADD59C,0.09449*%
%ADD60R,0.09921X0.09921*%
%ADD61C,0.06496*%
%ADD62C,0.09350*%
%ADD63C,0.05512*%
%ADD64C,0.04331*%
%ADD65R,0.04331X0.04331*%
%ADD66C,0.07677*%
%ADD67R,0.07677X0.07677*%
%ADD68O,0.07795X0.02087*%
%ADD69R,0.07677X0.07677*%
D35*
X295046Y170520D02*
D03*
X265046Y166524D02*
D03*
Y174516D02*
D03*
D52*
X458575Y312785D02*
D03*
X315659Y313771D02*
D03*
D53*
X448575Y312785D02*
D03*
X325659Y313771D02*
D03*
D56*
X514961Y165197D02*
D03*
Y175197D02*
D03*
X377953Y164016D02*
D03*
Y174016D02*
D03*
D57*
X372034Y216535D02*
D03*
D58*
X382034D02*
D03*
X392034D02*
D03*
X402034D02*
D03*
X382034Y226535D02*
D03*
X392034D02*
D03*
X402034D02*
D03*
X372034D02*
D03*
D59*
X290945Y222835D02*
D03*
X229921D02*
D03*
Y275197D02*
D03*
X290945D02*
D03*
X537795Y222835D02*
D03*
X476772D02*
D03*
Y275197D02*
D03*
X537795D02*
D03*
D60*
X275590Y198819D02*
D03*
Y216535D02*
D03*
X245276Y198819D02*
D03*
Y216535D02*
D03*
X522441Y198819D02*
D03*
Y216535D02*
D03*
X492126Y198819D02*
D03*
Y216535D02*
D03*
D61*
X250590Y287402D02*
D03*
X260433D02*
D03*
X270276D02*
D03*
X298819Y258858D02*
D03*
Y249016D02*
D03*
Y239173D02*
D03*
X497441Y287402D02*
D03*
X507283D02*
D03*
X517126D02*
D03*
X545669Y258858D02*
D03*
Y249016D02*
D03*
Y239173D02*
D03*
D62*
X295046Y160520D02*
D03*
X272546D02*
D03*
X295046Y180520D02*
D03*
X272546D02*
D03*
D63*
X433270Y249222D02*
D03*
X443270D02*
D03*
X453270D02*
D03*
D64*
X488189Y177165D02*
D03*
D65*
Y163386D02*
D03*
D66*
X452756Y169291D02*
D03*
X475239Y355906D02*
D03*
X455554D02*
D03*
X541339Y334646D02*
D03*
Y354331D02*
D03*
X234449Y335434D02*
D03*
Y315749D02*
D03*
X298798Y355906D02*
D03*
X279114D02*
D03*
D67*
X433071Y169291D02*
D03*
X494924Y355906D02*
D03*
X318484D02*
D03*
D68*
X539370Y169291D02*
D03*
X236221D02*
D03*
X417323Y358268D02*
D03*
X358268D02*
D03*
D69*
X541339Y314961D02*
D03*
X234449Y355119D02*
D03*
M02*
