G04*
G04 #@! TF.GenerationSoftware,Altium Limited,Altium Designer,24.2.2 (26)*
G04*
G04 Layer_Color=128*
%FSLAX25Y25*%
%MOIN*%
G70*
G04*
G04 #@! TF.SameCoordinates,AF2FB041-FD52-4B01-B4D8-7A83CE53158D*
G04*
G04*
G04 #@! TF.FilePolarity,Positive*
G04*
G01*
G75*
%ADD17C,0.00500*%
D17*
X513461Y165197D02*
X516461D01*
X514961Y163697D02*
Y166697D01*
X513461Y175197D02*
X516461D01*
X514961Y173697D02*
Y176697D01*
X376453Y164016D02*
X379453D01*
X377953Y162516D02*
Y165516D01*
X376453Y174016D02*
X379453D01*
X377953Y172516D02*
Y175516D01*
X370034Y216535D02*
X374034D01*
X372034Y214535D02*
Y218535D01*
X380034Y216535D02*
X384034D01*
X382034Y214535D02*
Y218535D01*
X390034Y216535D02*
X394034D01*
X392034Y214535D02*
Y218535D01*
X400034Y216535D02*
X404034D01*
X402034Y214535D02*
Y218535D01*
X380034Y226535D02*
X384034D01*
X382034Y224535D02*
Y228535D01*
X390034Y226535D02*
X394034D01*
X392034Y224535D02*
Y228535D01*
X400034Y226535D02*
X404034D01*
X402034Y224535D02*
Y228535D01*
X370034Y226535D02*
X374034D01*
X372034Y224535D02*
Y228535D01*
X287795Y222835D02*
X294094D01*
X290945Y219685D02*
Y225984D01*
X226772Y222835D02*
X233071D01*
X229921Y219685D02*
Y225984D01*
X226772Y275197D02*
X233071D01*
X229921Y272047D02*
Y278346D01*
X287795Y275197D02*
X294094D01*
X290945Y272047D02*
Y278346D01*
X272284Y198819D02*
X278898D01*
X275590Y195512D02*
Y202126D01*
X272284Y216535D02*
X278898D01*
X275590Y213228D02*
Y219843D01*
X241968Y198819D02*
X248583D01*
X245276Y195512D02*
Y202126D01*
X241968Y216535D02*
X248583D01*
X245276Y213228D02*
Y219843D01*
X248425Y287402D02*
X252756D01*
X250590Y285236D02*
Y289567D01*
X258268Y287402D02*
X262598D01*
X260433Y285236D02*
Y289567D01*
X268110Y287402D02*
X272441D01*
X270276Y285236D02*
Y289567D01*
X296654Y258858D02*
X300984D01*
X298819Y256693D02*
Y261024D01*
X296654Y249016D02*
X300984D01*
X298819Y246850D02*
Y251181D01*
X296654Y239173D02*
X300984D01*
X298819Y237008D02*
Y241339D01*
X293096Y170520D02*
X296996D01*
X295046Y168570D02*
Y172470D01*
X263096Y166524D02*
X266996D01*
X265046Y164574D02*
Y168474D01*
X263096Y174516D02*
X266996D01*
X265046Y172566D02*
Y176466D01*
X290371Y160520D02*
X299721D01*
X295046Y155845D02*
Y165195D01*
X267871Y160520D02*
X277221D01*
X272546Y155845D02*
Y165195D01*
X290371Y180520D02*
X299721D01*
X295046Y175845D02*
Y185195D01*
X267871Y180520D02*
X277221D01*
X272546Y175845D02*
Y185195D01*
X431499Y249222D02*
X435042D01*
X433270Y247451D02*
Y250994D01*
X441499Y249222D02*
X445042D01*
X443270Y247451D02*
Y250994D01*
X451499Y249222D02*
X455042D01*
X453270Y247451D02*
Y250994D01*
X486811Y177165D02*
X489567D01*
X488189Y175787D02*
Y178543D01*
X486811Y163386D02*
X489567D01*
X488189Y162008D02*
Y164764D01*
X450197Y169291D02*
X455315D01*
X452756Y166732D02*
Y171850D01*
X430512Y169291D02*
X435630D01*
X433071Y166732D02*
Y171850D01*
X527559Y169291D02*
X551181D01*
X539370Y157480D02*
Y181102D01*
X224410Y169291D02*
X248031D01*
X236221Y157480D02*
Y181102D01*
X405512Y358268D02*
X429134D01*
X417323Y346457D02*
Y370079D01*
X346457Y358268D02*
X370079D01*
X358268Y346457D02*
Y370079D01*
X534646Y222835D02*
X540945D01*
X537795Y219685D02*
Y225984D01*
X473622Y222835D02*
X479921D01*
X476772Y219685D02*
Y225984D01*
X473622Y275197D02*
X479921D01*
X476772Y272047D02*
Y278346D01*
X534646Y275197D02*
X540945D01*
X537795Y272047D02*
Y278346D01*
X519134Y198819D02*
X525748D01*
X522441Y195512D02*
Y202126D01*
X519134Y216535D02*
X525748D01*
X522441Y213228D02*
Y219843D01*
X488819Y198819D02*
X495433D01*
X492126Y195512D02*
Y202126D01*
X488819Y216535D02*
X495433D01*
X492126Y213228D02*
Y219843D01*
X495276Y287402D02*
X499606D01*
X497441Y285236D02*
Y289567D01*
X505118Y287402D02*
X509449D01*
X507283Y285236D02*
Y289567D01*
X514961Y287402D02*
X519291D01*
X517126Y285236D02*
Y289567D01*
X543504Y258858D02*
X547835D01*
X545669Y256693D02*
Y261024D01*
X543504Y249016D02*
X547835D01*
X545669Y246850D02*
Y251181D01*
X543504Y239173D02*
X547835D01*
X545669Y237008D02*
Y241339D01*
X492365Y355906D02*
X497483D01*
X494924Y353346D02*
Y358465D01*
X472680Y355906D02*
X477798D01*
X475239Y353346D02*
Y358465D01*
X452995Y355906D02*
X458113D01*
X455554Y353346D02*
Y358465D01*
X538779Y314961D02*
X543898D01*
X541339Y312402D02*
Y317520D01*
X538779Y334646D02*
X543898D01*
X541339Y332087D02*
Y337205D01*
X538779Y354331D02*
X543898D01*
X541339Y351772D02*
Y356890D01*
X231890Y355119D02*
X237008D01*
X234449Y352560D02*
Y357678D01*
X231890Y335434D02*
X237008D01*
X234449Y332875D02*
Y337993D01*
X231890Y315749D02*
X237008D01*
X234449Y313190D02*
Y318308D01*
X315925Y355906D02*
X321043D01*
X318484Y353346D02*
Y358465D01*
X296239Y355906D02*
X301358D01*
X298798Y353346D02*
Y358465D01*
X276554Y355906D02*
X281673D01*
X279114Y353346D02*
Y358465D01*
X456705Y312785D02*
X460445D01*
X458575Y310915D02*
Y314655D01*
X446705Y312785D02*
X450445D01*
X448575Y310915D02*
Y314655D01*
X313789Y313771D02*
X317529D01*
X315659Y311901D02*
Y315641D01*
X323789Y313771D02*
X327529D01*
X325659Y311901D02*
Y315641D01*
X375787Y333422D02*
X376969D01*
X376378Y332832D02*
Y334013D01*
X430512Y305512D02*
X431693D01*
X431102Y304921D02*
Y306102D01*
X401772Y238189D02*
X402953D01*
X402362Y237598D02*
Y238779D01*
X402559Y254724D02*
X403740D01*
X403150Y254134D02*
Y255315D01*
X461614Y261417D02*
X462795D01*
X462205Y260827D02*
Y262008D01*
X397441Y255118D02*
X398622D01*
X398031Y254528D02*
Y255709D01*
X354134Y270472D02*
X355315D01*
X354724Y269882D02*
Y271063D01*
X433661Y276772D02*
X434842D01*
X434252Y276181D02*
Y277362D01*
X355315Y283465D02*
X356496D01*
X355906Y282874D02*
Y284055D01*
X300197Y195669D02*
X301378D01*
X300787Y195079D02*
Y196260D01*
X258071Y170866D02*
X259252D01*
X258661Y170276D02*
Y171457D01*
X476191Y315235D02*
X477373D01*
X476782Y314645D02*
Y315826D01*
X243504Y297244D02*
X244685D01*
X244094Y296654D02*
Y297835D01*
X314764Y270079D02*
X315945D01*
X315354Y269488D02*
Y270669D01*
X321063Y229134D02*
X322244D01*
X321654Y228543D02*
Y229724D01*
X298228Y212992D02*
X299410D01*
X298819Y212402D02*
Y213583D01*
X265551Y355906D02*
X266732D01*
X266142Y355315D02*
Y356496D01*
X342323Y356693D02*
X343504D01*
X342913Y356102D02*
Y357283D01*
X394685Y335433D02*
X395866D01*
X395276Y334842D02*
Y336024D01*
X389860Y303595D02*
X391041D01*
X390451Y303005D02*
Y304186D01*
X399410Y327953D02*
X400591D01*
X400000Y327362D02*
Y328543D01*
X414370Y246850D02*
X415551D01*
X414961Y246260D02*
Y247441D01*
X410433Y246850D02*
X411614D01*
X411024Y246260D02*
Y247441D01*
X408858Y294882D02*
X410039D01*
X409449Y294291D02*
Y295472D01*
X353779Y254685D02*
X354960D01*
X354370Y254095D02*
Y255276D01*
X352953Y248819D02*
X354134D01*
X353543Y248228D02*
Y249410D01*
X371457Y258661D02*
X372638D01*
X372047Y258071D02*
Y259252D01*
X367520Y258661D02*
X368701D01*
X368110Y258071D02*
Y259252D01*
X393898Y304331D02*
X395079D01*
X394488Y303740D02*
Y304921D01*
X393504Y283858D02*
X394685D01*
X394094Y283268D02*
Y284449D01*
X397047Y283858D02*
X398228D01*
X397638Y283268D02*
Y284449D01*
X389938Y267455D02*
X391119D01*
X390529Y266864D02*
Y268045D01*
X387205Y262598D02*
X388386D01*
X387795Y262008D02*
Y263189D01*
X381693Y260236D02*
X382874D01*
X382283Y259646D02*
Y260827D01*
X389961Y257480D02*
X391142D01*
X390551Y256890D02*
Y258071D01*
X386121Y268757D02*
X387302D01*
X386711Y268166D02*
Y269347D01*
X387662Y271615D02*
X388843D01*
X388253Y271024D02*
Y272205D01*
M02*
