M48
;Layer_Color=9474304
;FILE_FORMAT=2:4
INCH,TZ
;TYPE=PLATED
T01F00S00C0.0118
T02F00S00C0.0276
T03F00S00C0.0300
T04F00S00C0.0354
T05F00S00C0.0374
T06F00S00C0.0400
T07F00S00C0.0433
T08F00S00C0.0512
T09F00S00C0.0630
T11F00S00C0.2362
;TYPE=NON_PLATED
T12F00S00C0.0390
T13F00S00C0.0935
%
T01
X32165Y22913
X31535Y27008
X35472Y27047
X35591Y28346
X35437Y25469
X35354Y24882
X36811Y25866
X37205
X38228Y26024
X38780Y26260
X38671Y26876
X38825Y27161
X39053Y26745
X39055Y25748
X39803Y25512
X40315Y25472
X41102Y24685
X41496
X40236Y23819
X39764Y28386
X39409
X39449Y30433
X39045Y30360
X40945Y29488
X43110Y30551
X43425Y27677
X46220Y26142
X29882Y21299
X30079Y19567
X25866Y17087
X24409Y29724
X26614Y35591
X34291Y35669
X37638Y33342
X39528Y33543
X40000Y32795
X47678Y31524
T02
X48819Y16339
Y17717
T03
X51496Y16520
Y17520
X37795Y17402
Y16402
T04
X43327Y24922
X44327
X45327
T05
X31566Y31377
X32566
X44858Y31279
X45858
T06
X37203Y21654
X38203
X39203
X40203
Y22654
X39203
X38203
X37203
T07
X49744Y28740
X50728
X51713
X54567Y25886
Y24902
Y23917
X29882
Y24902
Y25886
X27028Y28740
X26043
X25059
T08
X43307Y16929
X45276
X29880Y35591
X27911
X23445Y35512
Y33543
Y31575
X31848Y35591
X45555
X47524
X49492
X54134Y35433
Y33465
Y31496
T09
X47677Y22283
Y27520
X53780
Y22283
X29094
Y27520
X22992
Y22283
T11
X53937Y16929
X23622
X35827Y35827
X41732
T12
X26505Y16652
Y17452
X29505Y17052
T13
X27255Y16052
Y18052
X29505
Y16052
M30
