G04*
G04 #@! TF.GenerationSoftware,Altium Limited,Altium Designer,24.2.2 (26)*
G04*
G04 Layer_Color=255*
%FSLAX25Y25*%
%MOIN*%
G70*
G04*
G04 #@! TF.SameCoordinates,AF2FB041-FD52-4B01-B4D8-7A83CE53158D*
G04*
G04*
G04 #@! TF.FilePolarity,Positive*
G04*
G01*
G75*
%ADD18R,0.05807X0.01181*%
%ADD19R,0.01181X0.05807*%
%ADD20R,0.03098X0.03402*%
%ADD21R,0.03402X0.03098*%
%ADD22R,0.03150X0.02756*%
%ADD23R,0.05512X0.08268*%
%ADD24R,0.01575X0.01083*%
%ADD25R,0.04331X0.07165*%
%ADD26R,0.17717X0.06890*%
%ADD35C,0.03900*%
%ADD52C,0.05709*%
%ADD53R,0.05709X0.05709*%
%ADD54C,0.03100*%
%ADD56C,0.05000*%
%ADD57R,0.06400X0.06400*%
%ADD58C,0.06400*%
%ADD59C,0.09449*%
%ADD60R,0.09921X0.09921*%
%ADD61C,0.06496*%
%ADD62C,0.09350*%
%ADD63C,0.05512*%
%ADD64C,0.04331*%
%ADD65R,0.04331X0.04331*%
%ADD66C,0.07677*%
%ADD67R,0.07677X0.07677*%
%ADD68O,0.07795X0.02087*%
%ADD69R,0.07677X0.07677*%
D18*
X404189Y283280D02*
D03*
Y285248D02*
D03*
Y287217D02*
D03*
Y289185D02*
D03*
Y291154D02*
D03*
Y293122D02*
D03*
Y295091D02*
D03*
Y297059D02*
D03*
Y299028D02*
D03*
Y300996D02*
D03*
Y302965D02*
D03*
Y304933D02*
D03*
X370819D02*
D03*
Y302965D02*
D03*
Y300996D02*
D03*
Y299028D02*
D03*
Y297059D02*
D03*
Y295091D02*
D03*
Y293122D02*
D03*
Y291154D02*
D03*
Y289185D02*
D03*
Y287217D02*
D03*
Y285248D02*
D03*
Y283280D02*
D03*
D19*
X398331Y310792D02*
D03*
X396362D02*
D03*
X394394D02*
D03*
X392425D02*
D03*
X390457D02*
D03*
X388488D02*
D03*
X386520D02*
D03*
X384551D02*
D03*
X382583D02*
D03*
X380614D02*
D03*
X378646D02*
D03*
X376677D02*
D03*
Y277422D02*
D03*
X378646D02*
D03*
X380614D02*
D03*
X382583D02*
D03*
X384551D02*
D03*
X386520D02*
D03*
X388488D02*
D03*
X390457D02*
D03*
X392425D02*
D03*
X394394D02*
D03*
X396362D02*
D03*
X398331D02*
D03*
D20*
X384362Y324409D02*
D03*
X390464D02*
D03*
X390551Y331890D02*
D03*
X384449D02*
D03*
X404524Y261500D02*
D03*
X398422D02*
D03*
X376690Y327321D02*
D03*
X370588D02*
D03*
X376636Y318690D02*
D03*
X370533D02*
D03*
X398390Y269402D02*
D03*
X404492D02*
D03*
X433811Y283730D02*
D03*
X427709D02*
D03*
X413908Y290930D02*
D03*
X420011D02*
D03*
X351546Y207530D02*
D03*
X357649D02*
D03*
X319804Y207776D02*
D03*
X325906D02*
D03*
X342763Y313774D02*
D03*
X336660D02*
D03*
X250787Y296850D02*
D03*
X256890D02*
D03*
X497507Y297350D02*
D03*
X503609D02*
D03*
X479160Y331773D02*
D03*
X473058D02*
D03*
X431595Y316142D02*
D03*
X437697D02*
D03*
D21*
X374511Y193030D02*
D03*
Y199132D02*
D03*
X382558D02*
D03*
Y193030D02*
D03*
X422078Y298968D02*
D03*
Y305071D02*
D03*
X414072Y299098D02*
D03*
Y305200D02*
D03*
X362968Y283372D02*
D03*
Y277270D02*
D03*
X443456Y295826D02*
D03*
Y289723D02*
D03*
X314030Y222114D02*
D03*
Y216012D02*
D03*
X345526Y222114D02*
D03*
Y216012D02*
D03*
X318484Y258634D02*
D03*
Y252532D02*
D03*
X328813Y258634D02*
D03*
Y252532D02*
D03*
X292912Y200402D02*
D03*
Y206504D02*
D03*
X230266Y206154D02*
D03*
Y200051D02*
D03*
X308801Y258634D02*
D03*
Y252532D02*
D03*
X547611Y283561D02*
D03*
Y289663D02*
D03*
X463234Y202493D02*
D03*
Y208595D02*
D03*
X474696D02*
D03*
Y202493D02*
D03*
X516180Y315235D02*
D03*
Y321338D02*
D03*
X259842Y355413D02*
D03*
Y349311D02*
D03*
X336221Y356201D02*
D03*
Y350098D02*
D03*
D22*
X433319Y294743D02*
D03*
X428201D02*
D03*
Y290806D02*
D03*
X433319D02*
D03*
D23*
X363189Y199016D02*
D03*
Y163189D02*
D03*
X345472Y199016D02*
D03*
Y163189D02*
D03*
X408715Y199016D02*
D03*
Y163189D02*
D03*
X390998Y199016D02*
D03*
Y163189D02*
D03*
X331693Y199016D02*
D03*
Y163189D02*
D03*
X313976Y199016D02*
D03*
Y163189D02*
D03*
D24*
X328761Y243347D02*
D03*
Y241276D02*
D03*
X318484Y243313D02*
D03*
Y241242D02*
D03*
D25*
X447587Y197175D02*
D03*
X436878D02*
D03*
X436915Y234330D02*
D03*
X447624D02*
D03*
D26*
X442176Y221684D02*
D03*
Y208889D02*
D03*
D35*
X295046Y170520D02*
D03*
X265046Y166524D02*
D03*
Y174516D02*
D03*
D52*
X458575Y312785D02*
D03*
X315659Y313771D02*
D03*
D53*
X448575Y312785D02*
D03*
X325659Y313771D02*
D03*
D54*
X290046Y173020D02*
D03*
X285046D02*
D03*
X280046D02*
D03*
X275046D02*
D03*
X270046D02*
D03*
Y168020D02*
D03*
X275046D02*
D03*
X280046D02*
D03*
X285046D02*
D03*
X290046D02*
D03*
D56*
X514961Y165197D02*
D03*
Y175197D02*
D03*
X377953Y164016D02*
D03*
Y174016D02*
D03*
D57*
X372034Y216535D02*
D03*
D58*
X382034D02*
D03*
X392034D02*
D03*
X402034D02*
D03*
X382034Y226535D02*
D03*
X392034D02*
D03*
X402034D02*
D03*
X372034D02*
D03*
D59*
X290945Y222835D02*
D03*
X229921D02*
D03*
Y275197D02*
D03*
X290945D02*
D03*
X537795Y222835D02*
D03*
X476772D02*
D03*
Y275197D02*
D03*
X537795D02*
D03*
D60*
X275590Y198819D02*
D03*
Y216535D02*
D03*
X245276Y198819D02*
D03*
Y216535D02*
D03*
X522441Y198819D02*
D03*
Y216535D02*
D03*
X492126Y198819D02*
D03*
Y216535D02*
D03*
D61*
X250590Y287402D02*
D03*
X260433D02*
D03*
X270276D02*
D03*
X298819Y258858D02*
D03*
Y249016D02*
D03*
Y239173D02*
D03*
X497441Y287402D02*
D03*
X507283D02*
D03*
X517126D02*
D03*
X545669Y258858D02*
D03*
Y249016D02*
D03*
Y239173D02*
D03*
D62*
X295046Y160520D02*
D03*
X272546D02*
D03*
X295046Y180520D02*
D03*
X272546D02*
D03*
D63*
X433270Y249222D02*
D03*
X443270D02*
D03*
X453270D02*
D03*
D64*
X488189Y177165D02*
D03*
D65*
Y163386D02*
D03*
D66*
X452756Y169291D02*
D03*
X475239Y355906D02*
D03*
X455554D02*
D03*
X541339Y334646D02*
D03*
Y354331D02*
D03*
X234449Y335434D02*
D03*
Y315749D02*
D03*
X298798Y355906D02*
D03*
X279114D02*
D03*
D67*
X433071Y169291D02*
D03*
X494924Y355906D02*
D03*
X318484D02*
D03*
D68*
X539370Y169291D02*
D03*
X236221D02*
D03*
X417323Y358268D02*
D03*
X358268D02*
D03*
D69*
X541339Y314961D02*
D03*
X234449Y355119D02*
D03*
M02*
