G04*
G04 #@! TF.GenerationSoftware,Altium Limited,Altium Designer,24.2.2 (26)*
G04*
G04 Layer_Physical_Order=1*
G04 Layer_Color=255*
%FSLAX25Y25*%
%MOIN*%
G70*
G04*
G04 #@! TF.SameCoordinates,AF2FB041-FD52-4B01-B4D8-7A83CE53158D*
G04*
G04*
G04 #@! TF.FilePolarity,Positive*
G04*
G01*
G75*
%ADD15C,0.01000*%
%ADD18R,0.05807X0.01181*%
%ADD19R,0.01181X0.05807*%
%ADD20R,0.03098X0.03402*%
%ADD21R,0.03402X0.03098*%
%ADD22R,0.03150X0.02756*%
%ADD23R,0.05512X0.08268*%
%ADD24R,0.01575X0.01083*%
%ADD25R,0.04331X0.07165*%
%ADD26R,0.17717X0.06890*%
%ADD35C,0.03900*%
%ADD52C,0.05709*%
%ADD53R,0.05709X0.05709*%
%ADD54C,0.03100*%
%ADD55C,0.03500*%
%ADD56C,0.05000*%
%ADD57R,0.06400X0.06400*%
%ADD58C,0.06400*%
%ADD59C,0.09449*%
%ADD60R,0.09921X0.09921*%
%ADD61C,0.06496*%
%ADD62C,0.09350*%
%ADD63C,0.05512*%
%ADD64C,0.04331*%
%ADD65R,0.04331X0.04331*%
%ADD66C,0.07677*%
%ADD67R,0.07677X0.07677*%
%ADD68O,0.07795X0.02087*%
%ADD69R,0.07677X0.07677*%
%ADD70C,0.02500*%
G36*
X559055Y149606D02*
X216535D01*
Y377953D01*
X559055D01*
Y149606D01*
D02*
G37*
%LPC*%
G36*
X456191Y360744D02*
X456054D01*
Y356405D01*
X460392D01*
Y356542D01*
X460063Y357773D01*
X459426Y358876D01*
X458525Y359777D01*
X457421Y360414D01*
X456191Y360744D01*
D02*
G37*
G36*
X279750D02*
X279613D01*
Y356405D01*
X283952D01*
Y356542D01*
X283622Y357773D01*
X282985Y358876D01*
X282084Y359777D01*
X280981Y360414D01*
X279750Y360744D01*
D02*
G37*
G36*
X455054D02*
X454917D01*
X453686Y360414D01*
X452583Y359777D01*
X451682Y358876D01*
X451045Y357773D01*
X450715Y356542D01*
Y356405D01*
X455054D01*
Y360744D01*
D02*
G37*
G36*
X278613D02*
X278477D01*
X277246Y360414D01*
X276143Y359777D01*
X275242Y358876D01*
X274605Y357773D01*
X274275Y356542D01*
Y356405D01*
X278613D01*
Y360744D01*
D02*
G37*
G36*
X541976Y359169D02*
X541839D01*
Y354831D01*
X546177D01*
Y354968D01*
X545847Y356198D01*
X545210Y357302D01*
X544310Y358203D01*
X543206Y358840D01*
X541976Y359169D01*
D02*
G37*
G36*
X540839D02*
X540702D01*
X539471Y358840D01*
X538368Y358203D01*
X537467Y357302D01*
X536830Y356198D01*
X536500Y354968D01*
Y354831D01*
X540839D01*
Y359169D01*
D02*
G37*
G36*
X323022Y360444D02*
X313945D01*
Y351367D01*
X323022D01*
Y354675D01*
X323035Y354677D01*
X323094Y354682D01*
X333745D01*
X333802Y354677D01*
X333820Y354674D01*
Y353952D01*
X338621D01*
Y355462D01*
X338634Y355464D01*
X338693Y355469D01*
X341171D01*
X341233Y355459D01*
X341288Y355446D01*
X341336Y355430D01*
X341378Y355413D01*
X341415Y355393D01*
X341448Y355371D01*
X341480Y355346D01*
X341533Y355297D01*
X341583Y355266D01*
X341809Y355040D01*
X342526Y354743D01*
X343301D01*
X344018Y355040D01*
X344566Y355588D01*
X344863Y356305D01*
Y357081D01*
X344566Y357798D01*
X344018Y358346D01*
X343301Y358643D01*
X342526D01*
X341809Y358346D01*
X341583Y358120D01*
X341533Y358089D01*
X341480Y358039D01*
X341448Y358015D01*
X341415Y357993D01*
X341378Y357973D01*
X341336Y357956D01*
X341288Y357940D01*
X341232Y357927D01*
X341171Y357916D01*
X338693D01*
X338634Y357922D01*
X338621Y357924D01*
Y358450D01*
X333820D01*
Y357137D01*
X333802Y357134D01*
X333745Y357129D01*
X323094D01*
X323035Y357134D01*
X323022Y357136D01*
Y360444D01*
D02*
G37*
G36*
X238987Y359658D02*
X229910D01*
Y350581D01*
X238987D01*
Y353889D01*
X239000Y353891D01*
X239059Y353896D01*
X257367D01*
X257424Y353891D01*
X257442Y353888D01*
Y353164D01*
X262243D01*
Y354675D01*
X262256Y354677D01*
X262315Y354682D01*
X264400D01*
X264461Y354672D01*
X264516Y354659D01*
X264564Y354643D01*
X264606Y354625D01*
X264643Y354606D01*
X264677Y354584D01*
X264708Y354559D01*
X264762Y354509D01*
X264811Y354479D01*
X265037Y354252D01*
X265754Y353956D01*
X266530D01*
X267246Y354252D01*
X267795Y354801D01*
X268092Y355518D01*
Y356293D01*
X267795Y357010D01*
X267246Y357559D01*
X266530Y357856D01*
X265754D01*
X265037Y357559D01*
X264811Y357332D01*
X264762Y357302D01*
X264708Y357252D01*
X264677Y357227D01*
X264643Y357206D01*
X264606Y357186D01*
X264564Y357168D01*
X264516Y357153D01*
X264461Y357139D01*
X264400Y357129D01*
X262315D01*
X262256Y357134D01*
X262243Y357136D01*
Y357663D01*
X257442D01*
Y356351D01*
X257424Y356348D01*
X257367Y356343D01*
X239059D01*
X239000Y356348D01*
X238987Y356350D01*
Y359658D01*
D02*
G37*
G36*
X460392Y355405D02*
X456054D01*
Y351067D01*
X456191D01*
X457421Y351397D01*
X458525Y352034D01*
X459426Y352935D01*
X460063Y354038D01*
X460392Y355269D01*
Y355405D01*
D02*
G37*
G36*
X455054D02*
X450715D01*
Y355269D01*
X451045Y354038D01*
X451682Y352935D01*
X452583Y352034D01*
X453686Y351397D01*
X454917Y351067D01*
X455054D01*
Y355405D01*
D02*
G37*
G36*
X283952D02*
X279613D01*
Y351067D01*
X279750D01*
X280981Y351397D01*
X282084Y352034D01*
X282985Y352935D01*
X283622Y354038D01*
X283952Y355269D01*
Y355405D01*
D02*
G37*
G36*
X278613D02*
X274275D01*
Y355269D01*
X274605Y354038D01*
X275242Y352935D01*
X276143Y352034D01*
X277246Y351397D01*
X278477Y351067D01*
X278613D01*
Y355405D01*
D02*
G37*
G36*
X338921Y352648D02*
X336720D01*
Y350599D01*
X338921D01*
Y352648D01*
D02*
G37*
G36*
X335720D02*
X333520D01*
Y350599D01*
X335720D01*
Y352648D01*
D02*
G37*
G36*
X262543Y351860D02*
X260343D01*
Y349811D01*
X262543D01*
Y351860D01*
D02*
G37*
G36*
X259343D02*
X257142D01*
Y349811D01*
X259343D01*
Y351860D01*
D02*
G37*
G36*
X546177Y353831D02*
X541839D01*
Y349492D01*
X541976D01*
X543206Y349822D01*
X544310Y350459D01*
X545210Y351360D01*
X545847Y352463D01*
X546177Y353694D01*
Y353831D01*
D02*
G37*
G36*
X540839D02*
X536500D01*
Y353694D01*
X536830Y352463D01*
X537467Y351360D01*
X538368Y350459D01*
X539471Y349822D01*
X540702Y349492D01*
X540839D01*
Y353831D01*
D02*
G37*
G36*
X338921Y349599D02*
X336720D01*
Y347549D01*
X338921D01*
Y349599D01*
D02*
G37*
G36*
X335720D02*
X333520D01*
Y347549D01*
X335720D01*
Y349599D01*
D02*
G37*
G36*
X262543Y348811D02*
X260343D01*
Y346762D01*
X262543D01*
Y348811D01*
D02*
G37*
G36*
X259343D02*
X257142D01*
Y346762D01*
X259343D01*
Y348811D01*
D02*
G37*
G36*
X418307Y370779D02*
X416338D01*
X414393Y370471D01*
X412520Y369862D01*
X410766Y368968D01*
X409172Y367811D01*
X407780Y366418D01*
X406622Y364825D01*
X405728Y363070D01*
X405120Y361197D01*
X404812Y359252D01*
Y357283D01*
X405120Y355338D01*
X405728Y353465D01*
X406622Y351711D01*
X407780Y350117D01*
X409172Y348725D01*
X410766Y347567D01*
X412520Y346673D01*
X414393Y346065D01*
X416338Y345757D01*
X418307D01*
X420253Y346065D01*
X422125Y346673D01*
X423880Y347567D01*
X425473Y348725D01*
X426866Y350117D01*
X428023Y351711D01*
X428917Y353465D01*
X429526Y355338D01*
X429834Y357283D01*
Y359252D01*
X429526Y361197D01*
X428917Y363070D01*
X428023Y364825D01*
X426866Y366418D01*
X425473Y367811D01*
X423880Y368968D01*
X422125Y369862D01*
X420253Y370471D01*
X418307Y370779D01*
D02*
G37*
G36*
X359252D02*
X357283D01*
X355338Y370471D01*
X353465Y369862D01*
X351711Y368968D01*
X350117Y367811D01*
X348725Y366418D01*
X347567Y364825D01*
X346673Y363070D01*
X346065Y361197D01*
X345757Y359252D01*
Y357283D01*
X346065Y355338D01*
X346673Y353465D01*
X347567Y351711D01*
X348725Y350117D01*
X350117Y348725D01*
X351711Y347567D01*
X353465Y346673D01*
X355338Y346065D01*
X357283Y345757D01*
X359252D01*
X361197Y346065D01*
X363070Y346673D01*
X364825Y347567D01*
X366418Y348725D01*
X367811Y350117D01*
X368968Y351711D01*
X369862Y353465D01*
X370471Y355338D01*
X370779Y357283D01*
Y359252D01*
X370471Y361197D01*
X369862Y363070D01*
X368968Y364825D01*
X367811Y366418D01*
X366418Y367811D01*
X364825Y368968D01*
X363070Y369862D01*
X361197Y370471D01*
X359252Y370779D01*
D02*
G37*
G36*
X499462Y360444D02*
X490385D01*
Y353502D01*
X490383Y353493D01*
X490385Y353485D01*
Y353163D01*
X490333Y353087D01*
X490100Y352812D01*
X478295Y341007D01*
X478030Y340610D01*
X477937Y340142D01*
Y334248D01*
X477932Y334192D01*
X477929Y334173D01*
X477031D01*
Y349993D01*
X477033Y350025D01*
X477073Y350195D01*
X477152Y350421D01*
X477272Y350695D01*
X477425Y350995D01*
X478510Y352674D01*
X478751Y352999D01*
X478870Y353119D01*
X479468Y354154D01*
X479777Y355308D01*
Y356503D01*
X479468Y357657D01*
X478870Y358692D01*
X478025Y359537D01*
X476991Y360135D01*
X475836Y360444D01*
X474641D01*
X473487Y360135D01*
X472452Y359537D01*
X471607Y358692D01*
X471009Y357657D01*
X470700Y356503D01*
Y355308D01*
X471009Y354154D01*
X471607Y353119D01*
X472452Y352274D01*
X472622Y352175D01*
X473359Y351594D01*
X473671Y351307D01*
X473940Y351028D01*
X474159Y350765D01*
X474329Y350521D01*
X474453Y350297D01*
X474534Y350097D01*
X474577Y349921D01*
X474583Y349850D01*
Y334473D01*
X473558D01*
Y331773D01*
Y329072D01*
X474583D01*
Y321196D01*
X463273Y309885D01*
X461779D01*
X461588Y310347D01*
X461660Y310419D01*
X462167Y311298D01*
X462430Y312278D01*
Y312285D01*
X454721D01*
Y312278D01*
X454984Y311298D01*
X455491Y310419D01*
X455563Y310347D01*
X455372Y309885D01*
X452130D01*
Y316340D01*
X445021D01*
Y315010D01*
X445008Y315008D01*
X444949Y315003D01*
X443420D01*
X441416Y317007D01*
X441019Y317272D01*
X440551Y317365D01*
X440018D01*
X439959Y317370D01*
X439946Y317372D01*
Y318543D01*
X435448D01*
Y313741D01*
X434973Y313679D01*
X434318D01*
X433844Y313741D01*
Y318543D01*
X429345D01*
Y317372D01*
X429332Y317370D01*
X429274Y317365D01*
X424522D01*
X422125Y319763D01*
X421728Y320028D01*
X421260Y320121D01*
X402426D01*
X402235Y320583D01*
X405321Y323670D01*
X405586Y324066D01*
X405679Y324535D01*
Y332946D01*
X405586Y333414D01*
X405321Y333811D01*
X397322Y341810D01*
X396925Y342075D01*
X396457Y342168D01*
X300507D01*
X300022Y342653D01*
Y349880D01*
X300027Y349936D01*
X300069Y350113D01*
X300151Y350329D01*
X300275Y350580D01*
X300445Y350863D01*
X300651Y351159D01*
X301595Y352261D01*
X301993Y352662D01*
X302030Y352718D01*
X302430Y353119D01*
X303028Y354154D01*
X303337Y355308D01*
Y356503D01*
X303028Y357657D01*
X302430Y358692D01*
X301585Y359537D01*
X300550Y360135D01*
X299396Y360444D01*
X298201D01*
X297047Y360135D01*
X296012Y359537D01*
X295167Y358692D01*
X294569Y357657D01*
X294260Y356503D01*
Y355308D01*
X294569Y354154D01*
X295167Y353119D01*
X295567Y352718D01*
X295604Y352662D01*
X296007Y352256D01*
X296679Y351503D01*
X296936Y351173D01*
X297152Y350863D01*
X297322Y350580D01*
X297446Y350329D01*
X297528Y350113D01*
X297570Y349936D01*
X297575Y349880D01*
Y342146D01*
X297668Y341678D01*
X297933Y341281D01*
X298553Y340662D01*
X298361Y340200D01*
X237991D01*
X237523Y340107D01*
X237126Y339842D01*
X237004Y339720D01*
X236921Y339656D01*
X236830Y339600D01*
X236749Y339563D01*
X236678Y339541D01*
X236613Y339530D01*
X236549Y339528D01*
X236480Y339535D01*
X236402Y339555D01*
X236364Y339569D01*
X236201Y339664D01*
X235046Y339973D01*
X233851D01*
X232697Y339664D01*
X231662Y339066D01*
X230817Y338221D01*
X230220Y337186D01*
X229910Y336032D01*
Y334837D01*
X230220Y333682D01*
X230817Y332647D01*
X231662Y331802D01*
X232697Y331205D01*
X233851Y330896D01*
X235046D01*
X236201Y331205D01*
X237236Y331802D01*
X238081Y332647D01*
X238678Y333682D01*
X238987Y334837D01*
Y336032D01*
X238678Y337186D01*
X238639Y337253D01*
X238759Y337590D01*
X238835Y337670D01*
X238949Y337753D01*
X321142D01*
X321349Y337253D01*
X288505Y304409D01*
X288240Y304012D01*
X288147Y303543D01*
Y283184D01*
X284926Y279964D01*
X262712D01*
X261657Y281019D01*
Y282341D01*
X261658Y282364D01*
X261691Y282512D01*
X261754Y282690D01*
X261850Y282896D01*
X261983Y283126D01*
X262152Y283378D01*
X262355Y283644D01*
X262892Y284254D01*
X263215Y284581D01*
X263251Y284637D01*
X263592Y284977D01*
X264112Y285878D01*
X264381Y286882D01*
Y287921D01*
X264112Y288926D01*
X263592Y289826D01*
X262857Y290561D01*
X261957Y291081D01*
X260953Y291350D01*
X259913D01*
X258909Y291081D01*
X258009Y290561D01*
X257274Y289826D01*
X256754Y288926D01*
X256485Y287921D01*
Y286882D01*
X256754Y285878D01*
X257274Y284977D01*
X257615Y284637D01*
X257652Y284581D01*
X257974Y284254D01*
X258511Y283644D01*
X258714Y283378D01*
X258883Y283126D01*
X259016Y282895D01*
X259112Y282690D01*
X259175Y282512D01*
X259208Y282364D01*
X259209Y282341D01*
Y280512D01*
X259303Y280044D01*
X259568Y279647D01*
X261340Y277875D01*
X261736Y277610D01*
X262205Y277517D01*
X285433D01*
X285455Y277521D01*
X285525Y277484D01*
X285836Y277087D01*
X285521Y275911D01*
Y274483D01*
X285890Y273103D01*
X286604Y271866D01*
X287614Y270856D01*
X288851Y270142D01*
X290231Y269772D01*
X291659D01*
X293039Y270142D01*
X294275Y270856D01*
X295286Y271866D01*
X296000Y273103D01*
X296369Y274483D01*
Y275911D01*
X296000Y277291D01*
X295286Y278527D01*
X294275Y279538D01*
X293039Y280252D01*
X291659Y280621D01*
X290231D01*
X289576Y280446D01*
X289317Y280894D01*
X290235Y281812D01*
X290500Y282209D01*
X290594Y282677D01*
Y303036D01*
X322948Y335391D01*
X374882D01*
X375089Y334891D01*
X374725Y334527D01*
X374428Y333810D01*
Y333034D01*
X374725Y332318D01*
X374951Y332091D01*
X374982Y332042D01*
X375031Y331989D01*
X375056Y331957D01*
X375078Y331924D01*
X375097Y331886D01*
X375115Y331844D01*
X375131Y331797D01*
X375144Y331741D01*
X375154Y331680D01*
Y329797D01*
X375149Y329740D01*
X375146Y329722D01*
X374441D01*
Y324921D01*
X375460D01*
X375462Y324908D01*
X375467Y324849D01*
Y321165D01*
X375462Y321109D01*
X375459Y321090D01*
X374387D01*
Y316289D01*
X375446D01*
X375448Y316276D01*
X375454Y316217D01*
Y314395D01*
X375387D01*
Y313692D01*
X375385Y313683D01*
X375387Y313675D01*
Y307188D01*
X377055D01*
Y306888D01*
X378146D01*
Y310792D01*
Y314695D01*
X377901D01*
Y316217D01*
X377906Y316276D01*
X377908Y316289D01*
X378885D01*
Y321090D01*
X377922D01*
X377919Y321109D01*
X377914Y321165D01*
Y324849D01*
X377919Y324908D01*
X377921Y324921D01*
X378940D01*
Y329722D01*
X377609D01*
X377607Y329740D01*
X377602Y329797D01*
Y331680D01*
X377612Y331741D01*
X377625Y331797D01*
X377641Y331844D01*
X377658Y331886D01*
X377678Y331924D01*
X377700Y331957D01*
X377725Y331989D01*
X377774Y332042D01*
X377805Y332091D01*
X378031Y332318D01*
X378328Y333034D01*
Y333810D01*
X378031Y334527D01*
X377667Y334891D01*
X377874Y335391D01*
X384533D01*
X385171Y334752D01*
X384979Y334291D01*
X382200D01*
Y329489D01*
X383131D01*
X383133Y329476D01*
X383138Y329417D01*
Y326881D01*
X383133Y326822D01*
X383131Y326810D01*
X382112D01*
Y322008D01*
X383020D01*
X383023Y321990D01*
X383029Y321933D01*
Y319798D01*
X379749Y316519D01*
X379484Y316122D01*
X379391Y315653D01*
Y314695D01*
X379146D01*
Y310792D01*
Y306888D01*
X380236D01*
Y307188D01*
X389250D01*
Y305349D01*
X389240Y305289D01*
X389226Y305235D01*
X389211Y305189D01*
X389194Y305149D01*
X389174Y305114D01*
X389153Y305082D01*
X389129Y305052D01*
X389079Y305000D01*
X389045Y304948D01*
X388797Y304700D01*
X388501Y303983D01*
Y303207D01*
X388797Y302491D01*
X389346Y301942D01*
X390063Y301645D01*
X390839D01*
X391555Y301942D01*
X392104Y302491D01*
X392351Y303088D01*
X392643Y303171D01*
X392745Y303184D01*
X392887Y303174D01*
X393384Y302678D01*
X394100Y302381D01*
X394876D01*
X395593Y302678D01*
X396141Y303226D01*
X396438Y303943D01*
Y304719D01*
X396141Y305435D01*
X395915Y305662D01*
X395884Y305711D01*
X395835Y305764D01*
X395810Y305796D01*
X395788Y305829D01*
X395769Y305866D01*
X395751Y305908D01*
X395735Y305956D01*
X395722Y306012D01*
X395712Y306073D01*
Y307081D01*
X396200Y307188D01*
X399621D01*
Y310764D01*
X399645Y310882D01*
Y313117D01*
X399654Y313129D01*
X399896Y313413D01*
X402456Y315974D01*
X420049D01*
X423582Y312441D01*
X423391Y311979D01*
X410011D01*
X409542Y311885D01*
X409494Y311853D01*
X409449D01*
X408981Y311760D01*
X408584Y311495D01*
X405727Y308639D01*
X405462Y308242D01*
X405369Y307773D01*
Y306299D01*
X405364Y306242D01*
X405361Y306224D01*
X400585D01*
Y303643D01*
Y298650D01*
X400285D01*
Y297559D01*
X404189D01*
Y296559D01*
X400285D01*
Y295469D01*
X400585D01*
Y293800D01*
Y289863D01*
Y285926D01*
Y281989D01*
X402958D01*
X402960Y281977D01*
X402965Y281918D01*
Y279105D01*
X402505Y278645D01*
X399693D01*
X399634Y278650D01*
X399621Y278652D01*
Y281025D01*
X397953D01*
Y281325D01*
X397870D01*
X397820Y281377D01*
X397671Y281774D01*
X397773Y281908D01*
X398026D01*
X398742Y282205D01*
X399291Y282754D01*
X399588Y283470D01*
Y284246D01*
X399291Y284963D01*
X398742Y285511D01*
X398026Y285808D01*
X397250D01*
X396533Y285511D01*
X396193Y285171D01*
X395866Y285018D01*
X395539Y285171D01*
X395199Y285511D01*
X394482Y285808D01*
X393707D01*
X392990Y285511D01*
X392441Y284963D01*
X392144Y284246D01*
Y283470D01*
X392179Y283386D01*
X392179Y283382D01*
X392176Y283366D01*
X392170Y283345D01*
X392159Y283318D01*
X392140Y283283D01*
X392111Y283242D01*
X391560Y282690D01*
X391295Y282293D01*
X391202Y281825D01*
Y281025D01*
X376528D01*
X376128Y281525D01*
X376146Y281613D01*
Y286336D01*
X376053Y286804D01*
X375787Y287201D01*
X374997Y287991D01*
X374600Y288257D01*
X374422Y288292D01*
Y293800D01*
Y297737D01*
Y301674D01*
Y306224D01*
X367936D01*
X367927Y306226D01*
X367919Y306224D01*
X367215D01*
Y306157D01*
X362109D01*
X353626Y314639D01*
X353230Y314904D01*
X352761Y314998D01*
X345084D01*
X345025Y315003D01*
X345012Y315005D01*
Y316175D01*
X340513D01*
Y311373D01*
X345012D01*
Y312543D01*
X345025Y312545D01*
X345084Y312551D01*
X352255D01*
X360155Y304650D01*
X359963Y304188D01*
X330918D01*
X330449Y304095D01*
X330052Y303830D01*
X291654Y265432D01*
X291389Y265035D01*
X291296Y264567D01*
Y253937D01*
X291389Y253469D01*
X291654Y253072D01*
X293888Y250838D01*
X293954Y250737D01*
X294035Y250589D01*
X294868Y248382D01*
X295029Y247861D01*
X295030Y247860D01*
X295030Y247858D01*
X295053Y247816D01*
X295140Y247492D01*
X295660Y246592D01*
X296395Y245856D01*
X297295Y245337D01*
X298299Y245068D01*
X299339D01*
X300343Y245337D01*
X301243Y245856D01*
X301978Y246592D01*
X302498Y247492D01*
X302767Y248496D01*
Y249535D01*
X302498Y250540D01*
X301978Y251440D01*
X301243Y252175D01*
X300343Y252695D01*
X299339Y252964D01*
X298299D01*
X297663Y252794D01*
X297611Y252789D01*
X297228Y252675D01*
X296893Y252598D01*
X296590Y252550D01*
X296321Y252530D01*
X296085Y252535D01*
X295883Y252562D01*
X295713Y252608D01*
X295570Y252668D01*
X295448Y252744D01*
X295415Y252772D01*
X293743Y254444D01*
Y264060D01*
X331424Y301741D01*
X367215D01*
Y297737D01*
Y293800D01*
Y290409D01*
X355327D01*
X354859Y290316D01*
X354462Y290051D01*
X349135Y284723D01*
X348870Y284327D01*
X348777Y283858D01*
Y265397D01*
X315153D01*
X314685Y265304D01*
X314288Y265038D01*
X313702Y264453D01*
X313437Y264056D01*
X313343Y263587D01*
Y233971D01*
X303466Y224094D01*
X303200Y223697D01*
X303107Y223228D01*
Y203886D01*
X300445Y201223D01*
X295388D01*
X295331Y201228D01*
X295313Y201232D01*
Y202651D01*
X290511D01*
Y201231D01*
X290498Y201229D01*
X290440Y201223D01*
X288494D01*
X283341Y206377D01*
X282944Y206642D01*
X282476Y206735D01*
X268898D01*
X268429Y206642D01*
X268033Y206377D01*
X261698Y200042D01*
X251008D01*
X250949Y200048D01*
X250936Y200050D01*
Y204480D01*
X239615D01*
Y199656D01*
X239602Y199654D01*
X239543Y199649D01*
X238696D01*
X237428Y200917D01*
X237031Y201182D01*
X236563Y201275D01*
X232738D01*
X232679Y201280D01*
X232666Y201282D01*
Y202301D01*
X227865D01*
Y197802D01*
X232666D01*
Y198821D01*
X232679Y198823D01*
X232738Y198828D01*
X236056D01*
X237324Y197560D01*
X237721Y197295D01*
X238189Y197202D01*
X239543D01*
X239602Y197197D01*
X239615Y197195D01*
Y193158D01*
X250936D01*
Y197588D01*
X250949Y197590D01*
X251008Y197595D01*
X262205D01*
X262673Y197688D01*
X263070Y197954D01*
X269404Y204288D01*
X269930D01*
Y193158D01*
X281251D01*
Y204288D01*
X281969D01*
X287122Y199135D01*
X287519Y198870D01*
X287987Y198776D01*
X290440D01*
X290498Y198771D01*
X290511Y198769D01*
Y198153D01*
X295313D01*
Y198768D01*
X295331Y198772D01*
X295388Y198776D01*
X300952D01*
X301420Y198870D01*
X301817Y199135D01*
X305196Y202514D01*
X305461Y202911D01*
X305554Y203379D01*
Y222722D01*
X315432Y232599D01*
X315697Y232996D01*
X315790Y233465D01*
Y249904D01*
X316083Y250283D01*
X316290Y250283D01*
X317253D01*
X317255Y250270D01*
X317260Y250211D01*
Y244554D01*
X316996D01*
Y243850D01*
X316995Y243842D01*
X316996Y243833D01*
Y242783D01*
X316696D01*
Y241742D01*
X318484D01*
X320271D01*
Y242783D01*
X319971D01*
Y243833D01*
X319973Y243842D01*
X319971Y243850D01*
Y244554D01*
X319708D01*
X319707Y244574D01*
Y250211D01*
X319712Y250270D01*
X319714Y250283D01*
X320884D01*
Y254781D01*
X316290D01*
X316083Y254781D01*
X315790Y255160D01*
Y256006D01*
X316083Y256385D01*
X320884D01*
Y260883D01*
X321207Y261250D01*
X326089D01*
X326412Y260883D01*
Y256385D01*
X331213D01*
Y259269D01*
X331333Y259406D01*
X353036D01*
X355626Y256817D01*
X355343Y256393D01*
X354758Y256635D01*
X353982D01*
X353265Y256338D01*
X352717Y255790D01*
X352420Y255073D01*
Y254297D01*
X352717Y253581D01*
X353265Y253032D01*
X353982Y252735D01*
X354050D01*
X354098Y252716D01*
X354154Y252689D01*
X354211Y252657D01*
X354271Y252620D01*
X354325Y252581D01*
X354400Y252519D01*
X354770Y252149D01*
Y250963D01*
X354270Y250629D01*
X353931Y250769D01*
X353155D01*
X352439Y250472D01*
X351890Y249923D01*
X351593Y249207D01*
Y248431D01*
X351890Y247714D01*
X352116Y247488D01*
X352147Y247439D01*
X352197Y247386D01*
X352221Y247354D01*
X352243Y247320D01*
X352263Y247283D01*
X352281Y247241D01*
X352296Y247193D01*
X352310Y247138D01*
X352320Y247077D01*
Y246964D01*
X322592Y217236D01*
X316502D01*
X316443Y217241D01*
X316431Y217243D01*
Y218261D01*
X311629D01*
Y213763D01*
X312799D01*
X312801Y213750D01*
X312806Y213691D01*
Y207541D01*
Y203921D01*
X312801Y203862D01*
X312799Y203850D01*
X310521D01*
Y194182D01*
X317432D01*
Y203850D01*
X315261D01*
X315259Y203862D01*
X315253Y203921D01*
Y206167D01*
X315264Y206225D01*
X315278Y206267D01*
X315286Y206282D01*
X315287Y206283D01*
X315289Y206285D01*
X315304Y206293D01*
X315346Y206307D01*
X315404Y206317D01*
X317483D01*
X317542Y206312D01*
X317555Y206310D01*
Y205375D01*
X322053D01*
Y210176D01*
X317555D01*
Y208771D01*
X317542Y208769D01*
X317483Y208764D01*
X315404D01*
X315346Y208774D01*
X315304Y208788D01*
X315289Y208797D01*
X315287Y208798D01*
X315286Y208800D01*
X315278Y208815D01*
X315264Y208857D01*
X315253Y208914D01*
Y213691D01*
X315259Y213750D01*
X315261Y213763D01*
X316431D01*
Y214781D01*
X316443Y214783D01*
X316502Y214789D01*
X323099D01*
X323567Y214882D01*
X323964Y215147D01*
X354270Y245453D01*
X354770Y245257D01*
Y226835D01*
X348389Y220454D01*
X347927Y220645D01*
Y224364D01*
X343125D01*
Y223673D01*
X343107Y223670D01*
X343050Y223664D01*
X340945D01*
X340477Y223571D01*
X340080Y223306D01*
X337132Y220358D01*
X336866Y219961D01*
X336773Y219493D01*
Y181689D01*
X336763Y181631D01*
X336749Y181589D01*
X336741Y181574D01*
X336740Y181572D01*
X336738Y181571D01*
X336723Y181563D01*
X336681Y181549D01*
X336623Y181538D01*
X303342D01*
X303284Y181549D01*
X303243Y181563D01*
X303227Y181571D01*
X303226Y181572D01*
X303224Y181574D01*
X303216Y181589D01*
X303202Y181631D01*
X303192Y181689D01*
Y192879D01*
X309133Y198820D01*
X309398Y199217D01*
X309491Y199685D01*
Y220753D01*
X309629Y220891D01*
X311554D01*
X311611Y220886D01*
X311629Y220883D01*
Y219865D01*
X316431D01*
Y222571D01*
X316478Y222639D01*
X316713Y222916D01*
X320983Y227186D01*
X321023Y227212D01*
X321054Y227229D01*
X321076Y227238D01*
X321090Y227242D01*
X321099Y227243D01*
X321107Y227244D01*
X321116Y227243D01*
X321131Y227240D01*
X321266Y227184D01*
X322041D01*
X322758Y227481D01*
X323307Y228029D01*
X323604Y228746D01*
Y229522D01*
X323307Y230238D01*
X322758Y230787D01*
X322041Y231084D01*
X321266D01*
X320549Y230787D01*
X320000Y230238D01*
X319704Y229522D01*
Y229484D01*
X319692Y229457D01*
X319668Y229409D01*
X319585Y229273D01*
X319550Y229225D01*
X319489Y229152D01*
X315025Y224688D01*
X314854Y224529D01*
X314714Y224417D01*
X314638Y224364D01*
X311629D01*
Y223346D01*
X311611Y223343D01*
X311554Y223338D01*
X309122D01*
X308654Y223245D01*
X308257Y222980D01*
X307403Y222125D01*
X307137Y221728D01*
X307044Y221260D01*
Y200192D01*
X303171Y196318D01*
X302581Y196435D01*
X302441Y196774D01*
X301892Y197322D01*
X301175Y197619D01*
X300399D01*
X299683Y197322D01*
X299457Y197096D01*
X299407Y197066D01*
X299354Y197016D01*
X299323Y196991D01*
X299289Y196969D01*
X299252Y196950D01*
X299210Y196932D01*
X299162Y196916D01*
X299107Y196903D01*
X299045Y196893D01*
X292126D01*
X291658Y196800D01*
X291261Y196534D01*
X284174Y189448D01*
X283909Y189051D01*
X283816Y188583D01*
Y175299D01*
X283811Y175250D01*
X283795Y175152D01*
X283774Y175066D01*
X283749Y174992D01*
X283721Y174929D01*
X283690Y174874D01*
X283657Y174827D01*
X283620Y174784D01*
X283552Y174719D01*
X283544Y174709D01*
X283534Y174703D01*
X283510Y174666D01*
X283138Y174294D01*
X282979Y173909D01*
X282437D01*
X282207Y174464D01*
X281490Y175181D01*
X280553Y175570D01*
X280546D01*
Y173020D01*
X279546D01*
Y175570D01*
X279538D01*
X278601Y175181D01*
X277884Y174464D01*
X277796Y174251D01*
X277296D01*
X277207Y174464D01*
X276490Y175181D01*
X275651Y175529D01*
X275522Y176032D01*
X275846Y176219D01*
X276847Y177219D01*
X277554Y178445D01*
X277921Y179812D01*
Y181227D01*
X277554Y182594D01*
X276847Y183820D01*
X275846Y184821D01*
X274620Y185528D01*
X273253Y185895D01*
X271838D01*
X270471Y185528D01*
X269245Y184821D01*
X268245Y183820D01*
X267537Y182594D01*
X267171Y181227D01*
Y179812D01*
X267537Y178445D01*
X268245Y177219D01*
X269245Y176219D01*
X270023Y175770D01*
X269889Y175270D01*
X269598D01*
X268771Y174927D01*
X268196Y174352D01*
X267925Y174396D01*
X267696Y174505D01*
Y174865D01*
X267515Y175539D01*
X267166Y176143D01*
X266673Y176636D01*
X266069Y176985D01*
X265395Y177166D01*
X264697D01*
X264023Y176985D01*
X263419Y176636D01*
X262925Y176143D01*
X262576Y175539D01*
X262396Y174865D01*
Y174167D01*
X262576Y173493D01*
X262925Y172889D01*
X263224Y172590D01*
X263017Y172090D01*
X260404D01*
X260342Y172100D01*
X260287Y172113D01*
X260239Y172129D01*
X260197Y172147D01*
X260160Y172166D01*
X260126Y172188D01*
X260095Y172213D01*
X260042Y172262D01*
X259992Y172293D01*
X259766Y172519D01*
X259049Y172816D01*
X258274D01*
X257557Y172519D01*
X257008Y171971D01*
X256711Y171254D01*
Y170478D01*
X257008Y169762D01*
X257557Y169213D01*
X258274Y168916D01*
X259049D01*
X259766Y169213D01*
X259992Y169439D01*
X260042Y169470D01*
X260095Y169520D01*
X260126Y169544D01*
X260160Y169566D01*
X260197Y169586D01*
X260239Y169603D01*
X260287Y169619D01*
X260342Y169632D01*
X260404Y169643D01*
X264515D01*
X264581Y169143D01*
X264023Y168993D01*
X263419Y168644D01*
X262925Y168151D01*
X262576Y167546D01*
X262396Y166873D01*
Y166175D01*
X262576Y165501D01*
X262925Y164897D01*
X263419Y164403D01*
X264023Y164054D01*
X264697Y163874D01*
X265395D01*
X266069Y164054D01*
X266673Y164403D01*
X267166Y164897D01*
X267515Y165501D01*
X267696Y166175D01*
Y166534D01*
X267925Y166644D01*
X268196Y166688D01*
X268771Y166112D01*
X269598Y165770D01*
X269889D01*
X270023Y165270D01*
X269245Y164821D01*
X268245Y163820D01*
X267537Y162594D01*
X267171Y161227D01*
Y159812D01*
X267537Y158445D01*
X268245Y157219D01*
X269245Y156219D01*
X270471Y155511D01*
X271838Y155145D01*
X273253D01*
X274620Y155511D01*
X275846Y156219D01*
X276847Y157219D01*
X277554Y158445D01*
X277921Y159812D01*
Y161227D01*
X277554Y162594D01*
X276847Y163820D01*
X275846Y164821D01*
X275068Y165270D01*
X275202Y165770D01*
X275493D01*
X276320Y166112D01*
X276700Y166492D01*
X276735Y166515D01*
X276741Y166525D01*
X276751Y166532D01*
X276815Y166601D01*
X276858Y166638D01*
X276905Y166671D01*
X276959Y166701D01*
X277022Y166729D01*
X277095Y166754D01*
X277180Y166775D01*
X277278Y166791D01*
X277328Y166796D01*
X277764D01*
X277813Y166791D01*
X277911Y166775D01*
X277996Y166754D01*
X278070Y166729D01*
X278133Y166701D01*
X278187Y166671D01*
X278234Y166638D01*
X278276Y166601D01*
X278340Y166532D01*
X278350Y166525D01*
X278357Y166515D01*
X278392Y166492D01*
X278771Y166112D01*
X279598Y165770D01*
X280135D01*
X280176Y165761D01*
X280188Y165764D01*
X280200Y165762D01*
X280293Y165765D01*
X280349Y165761D01*
X280406Y165751D01*
X280466Y165735D01*
X280531Y165710D01*
X280600Y165676D01*
X280675Y165630D01*
X280756Y165573D01*
X280794Y165541D01*
X281930Y164404D01*
X282328Y164139D01*
X282796Y164046D01*
X290298D01*
X290586Y163546D01*
X290037Y162594D01*
X289671Y161227D01*
Y159812D01*
X290037Y158445D01*
X290745Y157219D01*
X291745Y156219D01*
X292971Y155511D01*
X294338Y155145D01*
X295753D01*
X297120Y155511D01*
X298346Y156219D01*
X299347Y157219D01*
X300054Y158445D01*
X300421Y159812D01*
Y161227D01*
X300054Y162594D01*
X299347Y163820D01*
X298346Y164821D01*
X297120Y165528D01*
X296780Y165620D01*
X296724Y165932D01*
X296744Y166147D01*
X297088Y166377D01*
X302834Y172123D01*
X303099Y172520D01*
X303192Y172988D01*
Y178941D01*
X303202Y178999D01*
X303216Y179041D01*
X303224Y179056D01*
X303226Y179058D01*
X303227Y179059D01*
X303243Y179067D01*
X303284Y179081D01*
X303342Y179092D01*
X361795D01*
X362264Y179185D01*
X362661Y179450D01*
X370965Y187754D01*
X371230Y188151D01*
X371323Y188619D01*
Y191540D01*
X371333Y191598D01*
X371347Y191639D01*
X371355Y191655D01*
X371357Y191656D01*
X371358Y191657D01*
X371374Y191666D01*
X371415Y191680D01*
X371473Y191690D01*
X372038D01*
X372097Y191685D01*
X372110Y191683D01*
Y190781D01*
X376911D01*
Y195279D01*
X372110D01*
Y194144D01*
X372097Y194142D01*
X372038Y194137D01*
X371473D01*
X371415Y194147D01*
X371374Y194161D01*
X371358Y194169D01*
X371357Y194171D01*
X371355Y194172D01*
X371347Y194187D01*
X371333Y194229D01*
X371323Y194287D01*
Y203523D01*
X371230Y203991D01*
X370965Y204388D01*
X364216Y211137D01*
Y224296D01*
X365231Y225312D01*
X367052D01*
X367072Y225310D01*
X367218Y225278D01*
X367393Y225217D01*
X367595Y225123D01*
X367821Y224994D01*
X368068Y224828D01*
X368329Y224630D01*
X368927Y224104D01*
X369247Y223787D01*
X369303Y223750D01*
X369639Y223415D01*
X370529Y222901D01*
X371520Y222635D01*
X372547D01*
X373539Y222901D01*
X374429Y223415D01*
X375155Y224141D01*
X375668Y225030D01*
X375934Y226022D01*
Y226497D01*
X375947Y226563D01*
X375950Y227013D01*
X376001Y227808D01*
X376046Y228132D01*
X376103Y228424D01*
X376172Y228676D01*
X376248Y228885D01*
X376328Y229051D01*
X376409Y229178D01*
X376422Y229193D01*
X384194Y236965D01*
X400620D01*
X400681Y236955D01*
X400737Y236942D01*
X400784Y236926D01*
X400827Y236909D01*
X400864Y236889D01*
X400897Y236867D01*
X400929Y236842D01*
X400982Y236793D01*
X401031Y236762D01*
X401258Y236536D01*
X401974Y236239D01*
X402750D01*
X403467Y236536D01*
X404015Y237084D01*
X404312Y237801D01*
Y238577D01*
X404015Y239294D01*
X403467Y239842D01*
X402750Y240139D01*
X401974D01*
X401258Y239842D01*
X401031Y239616D01*
X400982Y239585D01*
X400929Y239536D01*
X400897Y239511D01*
X400864Y239489D01*
X400827Y239469D01*
X400784Y239452D01*
X400737Y239436D01*
X400681Y239423D01*
X400620Y239412D01*
X383687D01*
X383219Y239319D01*
X382822Y239054D01*
X374692Y230924D01*
X374676Y230910D01*
X374550Y230830D01*
X374383Y230749D01*
X374174Y230673D01*
X373923Y230605D01*
X373631Y230547D01*
X373306Y230503D01*
X372511Y230452D01*
X372061Y230449D01*
X371995Y230435D01*
X371520D01*
X370529Y230170D01*
X369639Y229656D01*
X369303Y229320D01*
X369247Y229283D01*
X368927Y228967D01*
X368329Y228441D01*
X368068Y228243D01*
X367821Y228077D01*
X367595Y227948D01*
X367393Y227854D01*
X367218Y227793D01*
X367072Y227761D01*
X367052Y227759D01*
X364724D01*
X364256Y227666D01*
X363859Y227401D01*
X362127Y225668D01*
X361862Y225271D01*
X361769Y224803D01*
Y210630D01*
X361862Y210162D01*
X362127Y209765D01*
X368876Y203016D01*
Y192913D01*
Y189126D01*
X361289Y181538D01*
X339370D01*
X339313Y181549D01*
X339271Y181563D01*
X339256Y181571D01*
X339254Y181572D01*
X339253Y181574D01*
X339245Y181589D01*
X339231Y181631D01*
X339220Y181689D01*
Y218986D01*
X341452Y221217D01*
X343050D01*
X343107Y221212D01*
X343125Y221209D01*
Y219865D01*
X347147D01*
X347339Y219403D01*
X346521Y218586D01*
X346350Y218426D01*
X346211Y218315D01*
X346135Y218261D01*
X343125D01*
Y213763D01*
X344295D01*
X344297Y213750D01*
X344303Y213691D01*
Y207541D01*
Y203921D01*
X344297Y203862D01*
X344295Y203850D01*
X342017D01*
Y194182D01*
X348928D01*
Y203850D01*
X346757D01*
X346755Y203862D01*
X346749Y203921D01*
Y206167D01*
X346760Y206225D01*
X346774Y206267D01*
X346782Y206282D01*
X346783Y206283D01*
X346785Y206285D01*
X346800Y206293D01*
X346842Y206307D01*
X346900Y206317D01*
X349225D01*
X349284Y206312D01*
X349297Y206310D01*
Y205129D01*
X353796D01*
Y209931D01*
X349297D01*
Y208771D01*
X349284Y208769D01*
X349225Y208764D01*
X346900D01*
X346842Y208774D01*
X346800Y208788D01*
X346785Y208797D01*
X346783Y208798D01*
X346782Y208800D01*
X346774Y208815D01*
X346760Y208857D01*
X346749Y208914D01*
Y213691D01*
X346755Y213750D01*
X346757Y213763D01*
X347927D01*
Y216469D01*
X347974Y216537D01*
X348209Y216813D01*
X356858Y225463D01*
X357124Y225860D01*
X357217Y226328D01*
Y252656D01*
X357124Y253124D01*
X356858Y253521D01*
X356337Y254043D01*
X356309Y254083D01*
X356292Y254116D01*
X356281Y254141D01*
X356276Y254159D01*
X356274Y254172D01*
X356273Y254183D01*
X356273Y254185D01*
X356320Y254297D01*
Y255073D01*
X356078Y255658D01*
X356501Y255942D01*
X365277Y247166D01*
X365673Y246901D01*
X366142Y246808D01*
X408268D01*
X408574Y246869D01*
X409074Y246571D01*
Y246462D01*
X409371Y245746D01*
X409597Y245520D01*
X409627Y245470D01*
X409677Y245417D01*
X409702Y245386D01*
X409724Y245352D01*
X409743Y245315D01*
X409761Y245273D01*
X409777Y245225D01*
X409790Y245169D01*
X409800Y245108D01*
Y213105D01*
X400568Y203873D01*
X393254D01*
X393136Y203850D01*
X387542D01*
Y200247D01*
X387524Y200244D01*
X387467Y200239D01*
X385030D01*
X384971Y200244D01*
X384959Y200247D01*
Y201381D01*
X380157D01*
Y200364D01*
X380139Y200361D01*
X380082Y200356D01*
X376986D01*
X376929Y200361D01*
X376911Y200364D01*
Y201381D01*
X372110D01*
Y196883D01*
X376911D01*
Y197901D01*
X376929Y197904D01*
X376986Y197909D01*
X380082D01*
X380139Y197904D01*
X380157Y197901D01*
Y196883D01*
X384959D01*
Y197785D01*
X384971Y197787D01*
X385030Y197792D01*
X387467D01*
X387524Y197787D01*
X387542Y197784D01*
Y194182D01*
X394454D01*
Y201419D01*
X394468Y201421D01*
X394527Y201426D01*
X401075D01*
X401543Y201519D01*
X401940Y201784D01*
X404567Y204412D01*
X404959Y204096D01*
X404959Y203672D01*
Y199516D01*
X408215D01*
Y204150D01*
X405456D01*
X405012Y204150D01*
X404696Y204541D01*
X411889Y211733D01*
X412154Y212130D01*
X412247Y212598D01*
Y245108D01*
X412257Y245170D01*
X412271Y245225D01*
X412286Y245273D01*
X412304Y245315D01*
X412324Y245352D01*
X412346Y245386D01*
X412370Y245417D01*
X412420Y245470D01*
X412451Y245520D01*
X412677Y245746D01*
X412721Y245854D01*
X413263D01*
X413308Y245746D01*
X413534Y245520D01*
X413564Y245470D01*
X413614Y245417D01*
X413639Y245386D01*
X413661Y245352D01*
X413680Y245315D01*
X413698Y245273D01*
X413714Y245225D01*
X413727Y245169D01*
X413737Y245108D01*
Y234899D01*
X413830Y234431D01*
X414095Y234034D01*
X432594Y215535D01*
Y211834D01*
X432617Y211715D01*
Y204744D01*
X444144D01*
X444259Y204731D01*
X444393Y204684D01*
X444512Y204604D01*
X444634Y204472D01*
X444760Y204266D01*
X444879Y203974D01*
X444981Y203594D01*
X445058Y203129D01*
X445089Y202782D01*
Y202566D01*
X445087Y202495D01*
X445026Y201698D01*
X444992Y201457D01*
X444721D01*
Y200754D01*
X444720Y200745D01*
X444721Y200737D01*
Y200728D01*
X444720Y200720D01*
X444721Y200715D01*
Y193613D01*
X444720Y193604D01*
X444720Y193601D01*
X444720Y193599D01*
X444721Y193590D01*
Y192892D01*
X445019D01*
X445140Y191170D01*
Y188189D01*
X445330Y187233D01*
X445871Y186423D01*
X450258Y182036D01*
Y174304D01*
X450217Y173994D01*
X450161Y173709D01*
X450091Y173451D01*
X450008Y173221D01*
X449913Y173017D01*
X449808Y172837D01*
X449694Y172680D01*
X449542Y172514D01*
X449514Y172468D01*
X449124Y172078D01*
X448527Y171043D01*
X448217Y169889D01*
Y168694D01*
X448527Y167540D01*
X449124Y166505D01*
X449969Y165660D01*
X451004Y165062D01*
X452158Y164753D01*
X453353D01*
X454508Y165062D01*
X455543Y165660D01*
X455933Y166050D01*
X455978Y166077D01*
X456145Y166229D01*
X456302Y166344D01*
X456481Y166449D01*
X456686Y166543D01*
X456916Y166626D01*
X457174Y166696D01*
X457448Y166750D01*
X457868Y166793D01*
X474950D01*
X480517Y161226D01*
X481327Y160684D01*
X482283Y160494D01*
X487795D01*
X487928Y160521D01*
X491054D01*
Y166251D01*
X486044D01*
X486036Y166253D01*
X486027Y166251D01*
X485324D01*
Y165740D01*
X485240Y165704D01*
X484999Y165637D01*
X484683Y165578D01*
X483520Y165490D01*
X483318D01*
X477751Y171058D01*
X476940Y171599D01*
X475984Y171789D01*
X457768D01*
X457458Y171830D01*
X457174Y171887D01*
X456916Y171957D01*
X456686Y172040D01*
X456481Y172134D01*
X456302Y172239D01*
X456145Y172354D01*
X455978Y172506D01*
X455973Y172509D01*
X455970Y172514D01*
X455818Y172680D01*
X455703Y172837D01*
X455599Y173017D01*
X455504Y173221D01*
X455421Y173451D01*
X455351Y173709D01*
X455297Y173984D01*
X455254Y174403D01*
Y183071D01*
X455064Y184027D01*
X454522Y184837D01*
X450136Y189224D01*
Y191904D01*
X450187Y192662D01*
X450215Y192892D01*
X450452D01*
Y193596D01*
X450454Y193604D01*
X450452Y193613D01*
Y200715D01*
X450453Y200720D01*
X450452Y200728D01*
Y200737D01*
X450454Y200745D01*
X450452Y200754D01*
Y201457D01*
X450187D01*
X450096Y202930D01*
X450113Y203129D01*
X450188Y203594D01*
X450286Y203975D01*
X450401Y204267D01*
X450523Y204473D01*
X450638Y204602D01*
X450746Y204677D01*
X450866Y204721D01*
X451076Y204744D01*
X451734D01*
Y205446D01*
X451736Y205455D01*
X451734Y205463D01*
Y213034D01*
X435049D01*
X435046Y213052D01*
X435041Y213109D01*
Y216042D01*
X434948Y216510D01*
X434683Y216907D01*
X434513Y217077D01*
X434704Y217539D01*
X451734D01*
Y225829D01*
X440469D01*
X440241Y225853D01*
X440107Y225900D01*
X439989Y225979D01*
X439867Y226110D01*
X439742Y226315D01*
X439623Y226606D01*
X439521Y226984D01*
X439444Y227447D01*
X439413Y227793D01*
Y228938D01*
X439415Y229010D01*
X439476Y229807D01*
X439510Y230047D01*
X439781D01*
Y230751D01*
X439782Y230759D01*
X439781Y230768D01*
Y230777D01*
X439782Y230785D01*
X439781Y230790D01*
Y238613D01*
X437883D01*
X437765Y238679D01*
X437513Y238851D01*
X436134Y240061D01*
X435569Y240626D01*
Y246265D01*
X435588Y246480D01*
X435606Y246605D01*
X435625Y246689D01*
X436036Y247100D01*
X436491Y247888D01*
X436726Y248767D01*
Y249677D01*
X436491Y250556D01*
X436036Y251344D01*
X435392Y251988D01*
X434604Y252443D01*
X433725Y252678D01*
X432815D01*
X431936Y252443D01*
X431148Y251988D01*
X430505Y251344D01*
X430050Y250556D01*
X429814Y249677D01*
Y248767D01*
X430050Y247888D01*
X430505Y247100D01*
X430529Y247076D01*
X430573Y246414D01*
Y239592D01*
X430763Y238636D01*
X431305Y237825D01*
X432895Y236235D01*
X433543Y235496D01*
X433800Y235167D01*
X433984Y234898D01*
X434050Y234780D01*
Y230790D01*
X434049Y230785D01*
X434050Y230777D01*
Y230768D01*
X434048Y230759D01*
X434050Y230751D01*
Y230047D01*
X434314D01*
X434417Y228390D01*
Y227793D01*
X434387Y227447D01*
X434309Y226984D01*
X434208Y226606D01*
X434089Y226315D01*
X433963Y226110D01*
X433842Y225979D01*
X433724Y225900D01*
X433590Y225853D01*
X433361Y225829D01*
X432617D01*
Y219626D01*
X432155Y219434D01*
X416184Y235406D01*
Y245108D01*
X416194Y245170D01*
X416208Y245225D01*
X416223Y245273D01*
X416241Y245315D01*
X416261Y245352D01*
X416283Y245386D01*
X416307Y245417D01*
X416357Y245470D01*
X416388Y245520D01*
X416614Y245746D01*
X416911Y246462D01*
Y247238D01*
X416614Y247955D01*
X416065Y248503D01*
X415348Y248800D01*
X414573D01*
X413856Y248503D01*
X413308Y247955D01*
X413263Y247847D01*
X412721D01*
X412677Y247955D01*
X412128Y248503D01*
X411456Y248782D01*
X411229Y249262D01*
X414251Y252285D01*
X414516Y252681D01*
X414609Y253150D01*
Y259385D01*
X415071Y259576D01*
X418820Y255828D01*
X419217Y255562D01*
X419685Y255469D01*
X454611D01*
X456650Y253430D01*
Y251279D01*
X456150Y251145D01*
X456036Y251344D01*
X455392Y251988D01*
X454604Y252443D01*
X453725Y252678D01*
X452815D01*
X451936Y252443D01*
X451148Y251988D01*
X450505Y251344D01*
X450050Y250556D01*
X449814Y249677D01*
Y248767D01*
X450050Y247888D01*
X450505Y247100D01*
X451148Y246457D01*
X451936Y246002D01*
X452815Y245766D01*
X453725D01*
X454604Y246002D01*
X455392Y246457D01*
X456036Y247100D01*
X456150Y247299D01*
X456650Y247165D01*
Y204331D01*
X456744Y203863D01*
X457009Y203466D01*
X458847Y201627D01*
X459244Y201362D01*
X459712Y201269D01*
X460761D01*
X460820Y201264D01*
X460833Y201262D01*
Y200243D01*
X465635D01*
Y201261D01*
X465653Y201264D01*
X465710Y201269D01*
X472220D01*
X472277Y201264D01*
X472295Y201261D01*
Y200243D01*
X477097D01*
Y201262D01*
X477109Y201264D01*
X477168Y201269D01*
X478103D01*
X481418Y197954D01*
X481815Y197688D01*
X482283Y197595D01*
X486394D01*
X486453Y197590D01*
X486465Y197588D01*
Y193158D01*
X497787D01*
Y204480D01*
X486465D01*
Y200050D01*
X486453Y200048D01*
X486394Y200042D01*
X482790D01*
X479475Y203358D01*
X479078Y203623D01*
X478610Y203716D01*
X477168D01*
X477109Y203721D01*
X477097Y203724D01*
Y204742D01*
X472295D01*
Y203724D01*
X472277Y203721D01*
X472220Y203716D01*
X465710D01*
X465653Y203721D01*
X465635Y203724D01*
Y204742D01*
X460833D01*
Y203724D01*
X460820Y203721D01*
X460761Y203716D01*
X460219D01*
X459097Y204837D01*
Y253937D01*
X459004Y254405D01*
X458739Y254802D01*
X455983Y257558D01*
X455586Y257823D01*
X455118Y257916D01*
X420192D01*
X416578Y261530D01*
Y282114D01*
X416485Y282582D01*
X416220Y282979D01*
X409730Y289468D01*
X409921Y289930D01*
X411587D01*
X411646Y289925D01*
X411659Y289923D01*
Y288529D01*
X416157D01*
Y293331D01*
X411659D01*
Y292385D01*
X411646Y292383D01*
X411587Y292377D01*
X407792D01*
Y293074D01*
X408292Y293281D01*
X408344Y293229D01*
X409061Y292932D01*
X409837D01*
X410553Y293229D01*
X411102Y293777D01*
X411399Y294494D01*
Y295270D01*
X411102Y295987D01*
X410553Y296535D01*
X409837Y296832D01*
X409061D01*
X408592Y296638D01*
X408092Y296936D01*
Y297804D01*
X411599D01*
X411658Y297799D01*
X411671Y297797D01*
Y296849D01*
X416472D01*
Y297866D01*
X416491Y297869D01*
X416547Y297874D01*
X419605D01*
X419664Y297869D01*
X419677Y297867D01*
Y296719D01*
X424479D01*
Y297737D01*
X424497Y297740D01*
X424554Y297745D01*
X441056D01*
Y297057D01*
X441037Y297054D01*
X440980Y297049D01*
X438739D01*
X438271Y296956D01*
X437874Y296691D01*
X437150Y295967D01*
X435666D01*
X435607Y295972D01*
X435594Y295974D01*
Y296821D01*
X431151Y296821D01*
X430776Y297121D01*
X430668Y297121D01*
X428701D01*
Y294743D01*
X428201D01*
Y294243D01*
X425626D01*
Y292365D01*
X425265Y292030D01*
X422331D01*
X422273Y292035D01*
X422260Y292037D01*
Y293331D01*
X417761D01*
Y288529D01*
X422260D01*
Y289575D01*
X422273Y289577D01*
X422331Y289582D01*
X425851D01*
X425908Y289577D01*
X425926Y289574D01*
Y288728D01*
X430476D01*
Y291919D01*
X430544Y291941D01*
X431044Y291573D01*
Y288728D01*
X432088D01*
X432090Y288715D01*
X432095Y288656D01*
Y286206D01*
X432091Y286149D01*
X432088Y286130D01*
X431562D01*
Y281329D01*
X433021D01*
X433023Y281316D01*
X433029Y281257D01*
Y278514D01*
X433018Y278452D01*
X433005Y278397D01*
X432989Y278349D01*
X432971Y278307D01*
X432952Y278270D01*
X432930Y278237D01*
X432905Y278205D01*
X432856Y278152D01*
X432825Y278102D01*
X432599Y277876D01*
X432302Y277160D01*
Y276384D01*
X432599Y275667D01*
X433147Y275118D01*
X433864Y274822D01*
X434640D01*
X435357Y275118D01*
X435905Y275667D01*
X436202Y276384D01*
Y277160D01*
X435905Y277876D01*
X435679Y278102D01*
X435648Y278152D01*
X435599Y278205D01*
X435574Y278237D01*
X435552Y278270D01*
X435532Y278307D01*
X435515Y278349D01*
X435499Y278397D01*
X435486Y278452D01*
X435475Y278514D01*
Y281257D01*
X435481Y281316D01*
X435483Y281329D01*
X436060D01*
Y286130D01*
X434551D01*
X434548Y286149D01*
X434543Y286206D01*
Y288656D01*
X434548Y288715D01*
X434550Y288728D01*
X435594D01*
Y289575D01*
X435607Y289577D01*
X435666Y289582D01*
X437034D01*
X438111Y288505D01*
X438508Y288240D01*
X438976Y288147D01*
X440980D01*
X441037Y288142D01*
X441056Y288139D01*
Y287474D01*
X445857D01*
Y288139D01*
X445870Y288141D01*
X445929Y288147D01*
X447839D01*
X448308Y288240D01*
X448705Y288505D01*
X449290Y289091D01*
X449556Y289488D01*
X449649Y289956D01*
Y298383D01*
X449556Y298851D01*
X449290Y299248D01*
X448705Y299834D01*
X448308Y300099D01*
X448183Y300124D01*
X448232Y300624D01*
X470229D01*
X522702Y248151D01*
X523099Y247885D01*
X523567Y247792D01*
X540608D01*
X540632Y247790D01*
X540780Y247757D01*
X540958Y247695D01*
X541163Y247599D01*
X541393Y247466D01*
X541646Y247297D01*
X541912Y247094D01*
X542521Y246557D01*
X542848Y246234D01*
X542904Y246197D01*
X543245Y245856D01*
X544145Y245337D01*
X545150Y245068D01*
X546189D01*
X547193Y245337D01*
X548093Y245856D01*
X548829Y246592D01*
X549348Y247492D01*
X549617Y248496D01*
Y249535D01*
X549348Y250540D01*
X548829Y251440D01*
X548093Y252175D01*
X547193Y252695D01*
X546189Y252964D01*
X545150D01*
X544145Y252695D01*
X543245Y252175D01*
X542904Y251834D01*
X542848Y251797D01*
X542521Y251475D01*
X541912Y250937D01*
X541646Y250735D01*
X541393Y250565D01*
X541163Y250433D01*
X540958Y250337D01*
X540780Y250274D01*
X540632Y250241D01*
X540608Y250239D01*
X524074D01*
X494935Y279379D01*
X495142Y279879D01*
X504724D01*
X505193Y279972D01*
X505590Y280237D01*
X507726Y282374D01*
X507992Y282771D01*
X508085Y283239D01*
Y283389D01*
X508090Y283429D01*
X508103Y283488D01*
X508115Y283522D01*
X508118Y283526D01*
X508175Y283543D01*
X508216Y283564D01*
X508807Y283723D01*
X509708Y284242D01*
X510443Y284977D01*
X510962Y285878D01*
X511232Y286882D01*
Y287921D01*
X510962Y288926D01*
X510443Y289826D01*
X509708Y290561D01*
X508807Y291081D01*
X507803Y291350D01*
X506764D01*
X505760Y291081D01*
X504859Y290561D01*
X504124Y289826D01*
X503605Y288926D01*
X503335Y287921D01*
Y286882D01*
X503605Y285878D01*
X504124Y284977D01*
X504859Y284242D01*
X505219Y284035D01*
X505344Y283547D01*
X505316Y283424D01*
X504218Y282326D01*
X494995D01*
X473759Y303562D01*
X473950Y304024D01*
X498458D01*
X498507Y303524D01*
X498351Y303493D01*
X497954Y303227D01*
X496641Y301915D01*
X496376Y301518D01*
X496283Y301050D01*
Y299822D01*
X496278Y299763D01*
X496276Y299751D01*
X495257D01*
Y294949D01*
X496209D01*
X496212Y294931D01*
X496217Y294874D01*
Y292463D01*
X496216Y292439D01*
X496183Y292291D01*
X496120Y292113D01*
X496024Y291908D01*
X495891Y291677D01*
X495722Y291425D01*
X495519Y291159D01*
X494982Y290549D01*
X494660Y290223D01*
X494623Y290166D01*
X494282Y289826D01*
X493762Y288926D01*
X493493Y287921D01*
Y286882D01*
X493762Y285878D01*
X494282Y284977D01*
X495017Y284242D01*
X495917Y283723D01*
X496921Y283453D01*
X497961D01*
X498965Y283723D01*
X499865Y284242D01*
X500600Y284977D01*
X501120Y285878D01*
X501389Y286882D01*
Y287921D01*
X501120Y288926D01*
X500600Y289826D01*
X500259Y290166D01*
X500222Y290223D01*
X499900Y290549D01*
X499363Y291159D01*
X499160Y291425D01*
X498991Y291677D01*
X498858Y291908D01*
X498762Y292113D01*
X498699Y292291D01*
X498666Y292439D01*
X498665Y292463D01*
Y294874D01*
X498669Y294931D01*
X498672Y294949D01*
X499756D01*
Y299751D01*
X498737D01*
X498735Y299763D01*
X498730Y299822D01*
Y300543D01*
X499326Y301139D01*
X528740D01*
X529208Y301232D01*
X529605Y301497D01*
X538201Y310093D01*
X538374Y310254D01*
X538512Y310364D01*
X538596Y310422D01*
X538918D01*
X538926Y310420D01*
X538935Y310422D01*
X540107D01*
X540110Y310404D01*
X540115Y310347D01*
Y289681D01*
X540208Y289213D01*
X540473Y288816D01*
X544886Y284404D01*
X545045Y284233D01*
X545157Y284093D01*
X545210Y284018D01*
Y281311D01*
X546380D01*
X546382Y281299D01*
X546387Y281240D01*
Y263271D01*
X546189Y262806D01*
X545150D01*
X544145Y262537D01*
X543245Y262017D01*
X542510Y261282D01*
X541990Y260382D01*
X541721Y259378D01*
Y258338D01*
X541990Y257334D01*
X542510Y256434D01*
X543245Y255699D01*
X544145Y255179D01*
X545150Y254910D01*
X546189D01*
X547193Y255179D01*
X548093Y255699D01*
X548829Y256434D01*
X549348Y257334D01*
X549617Y258338D01*
Y259378D01*
X549348Y260382D01*
X548829Y261282D01*
X548561Y261550D01*
X548741Y261819D01*
X548834Y262287D01*
Y281240D01*
X548840Y281299D01*
X548842Y281311D01*
X550012D01*
Y285810D01*
X547002D01*
X546934Y285858D01*
X546658Y286092D01*
X546098Y286652D01*
X546290Y287114D01*
X547111D01*
Y289163D01*
X544910D01*
Y288493D01*
X544448Y288302D01*
X542562Y290188D01*
Y310347D01*
X542567Y310404D01*
X542570Y310422D01*
X545877D01*
Y313730D01*
X545890Y313732D01*
X545949Y313737D01*
X546850D01*
X547319Y313830D01*
X547716Y314095D01*
X549290Y315670D01*
X549556Y316067D01*
X549649Y316535D01*
Y340158D01*
X549556Y340626D01*
X549290Y341023D01*
X546534Y343778D01*
X546138Y344044D01*
X545669Y344137D01*
X538583D01*
X538115Y344044D01*
X537717Y343778D01*
X534568Y340629D01*
X534303Y340232D01*
X534210Y339764D01*
Y326097D01*
X524571Y316459D01*
X518656D01*
X518599Y316464D01*
X518580Y316467D01*
Y317485D01*
X513779D01*
Y316466D01*
X513766Y316464D01*
X513707Y316459D01*
X480384D01*
Y329300D01*
X480389Y329359D01*
X480391Y329372D01*
X481409D01*
Y334173D01*
X480392D01*
X480389Y334192D01*
X480384Y334248D01*
Y339635D01*
X491786Y351038D01*
X491960Y351199D01*
X492097Y351309D01*
X492181Y351367D01*
X492503D01*
X492511Y351365D01*
X492520Y351367D01*
X499462D01*
Y360444D01*
D02*
G37*
G36*
X472558Y334473D02*
X470509D01*
Y332273D01*
X472558D01*
Y334473D01*
D02*
G37*
G36*
Y331273D02*
X470509D01*
Y329072D01*
X472558D01*
Y331273D01*
D02*
G37*
G36*
X373137Y330022D02*
X371088D01*
Y327821D01*
X373137D01*
Y330022D01*
D02*
G37*
G36*
X370088D02*
X368039D01*
Y327821D01*
X370088D01*
Y330022D01*
D02*
G37*
G36*
X373137Y326821D02*
X371088D01*
Y324621D01*
X373137D01*
Y326821D01*
D02*
G37*
G36*
X370088D02*
X368039D01*
Y324621D01*
X370088D01*
Y326821D01*
D02*
G37*
G36*
X518881Y323887D02*
X516680D01*
Y321838D01*
X518881D01*
Y323887D01*
D02*
G37*
G36*
X515680D02*
X513479D01*
Y321838D01*
X515680D01*
Y323887D01*
D02*
G37*
G36*
X373083Y321390D02*
X371034D01*
Y319190D01*
X373083D01*
Y321390D01*
D02*
G37*
G36*
X370034D02*
X367984D01*
Y319190D01*
X370034D01*
Y321390D01*
D02*
G37*
G36*
X518881Y320838D02*
X516680D01*
Y318789D01*
X518881D01*
Y320838D01*
D02*
G37*
G36*
X515680D02*
X513479D01*
Y318789D01*
X515680D01*
Y320838D01*
D02*
G37*
G36*
X235086Y320588D02*
X234949D01*
Y316249D01*
X239287D01*
Y316386D01*
X238958Y317617D01*
X238321Y318720D01*
X237420Y319621D01*
X236316Y320258D01*
X235086Y320588D01*
D02*
G37*
G36*
X233949D02*
X233812D01*
X232581Y320258D01*
X231478Y319621D01*
X230577Y318720D01*
X229940Y317617D01*
X229610Y316386D01*
Y316249D01*
X233949D01*
Y320588D01*
D02*
G37*
G36*
X373083Y318190D02*
X371034D01*
Y315989D01*
X373083D01*
Y318190D01*
D02*
G37*
G36*
X370034D02*
X367984D01*
Y315989D01*
X370034D01*
Y318190D01*
D02*
G37*
G36*
X316166Y317625D02*
X316159D01*
Y314271D01*
X319513D01*
Y314278D01*
X319250Y315259D01*
X318743Y316137D01*
X318025Y316855D01*
X317146Y317362D01*
X316166Y317625D01*
D02*
G37*
G36*
X315159D02*
X315151D01*
X314171Y317362D01*
X313292Y316855D01*
X312575Y316137D01*
X312067Y315259D01*
X311804Y314278D01*
Y314271D01*
X315159D01*
Y317625D01*
D02*
G37*
G36*
X459083Y316640D02*
X459075D01*
Y313285D01*
X462430D01*
Y313293D01*
X462167Y314273D01*
X461660Y315152D01*
X460942Y315870D01*
X460063Y316377D01*
X459083Y316640D01*
D02*
G37*
G36*
X458075D02*
X458068D01*
X457088Y316377D01*
X456209Y315870D01*
X455491Y315152D01*
X454984Y314273D01*
X454721Y313293D01*
Y313285D01*
X458075D01*
Y316640D01*
D02*
G37*
G36*
X329213Y317325D02*
X322104D01*
Y310216D01*
X329213D01*
Y312540D01*
X329226Y312542D01*
X329285Y312547D01*
X334339D01*
X334398Y312542D01*
X334411Y312540D01*
Y311373D01*
X338910D01*
Y316175D01*
X334411D01*
Y315002D01*
X334398Y315000D01*
X334339Y314994D01*
X329285D01*
X329226Y315000D01*
X329213Y315002D01*
Y317325D01*
D02*
G37*
G36*
X239287Y315249D02*
X234949D01*
Y310911D01*
X235086D01*
X236316Y311240D01*
X237420Y311877D01*
X238321Y312778D01*
X238958Y313882D01*
X239287Y315112D01*
Y315249D01*
D02*
G37*
G36*
X233949D02*
X229610D01*
Y315112D01*
X229940Y313882D01*
X230577Y312778D01*
X231478Y311877D01*
X232581Y311240D01*
X233812Y310911D01*
X233949D01*
Y315249D01*
D02*
G37*
G36*
X319513Y313271D02*
X316159D01*
Y309916D01*
X316166D01*
X317146Y310179D01*
X318025Y310687D01*
X318743Y311404D01*
X319250Y312283D01*
X319513Y313263D01*
Y313271D01*
D02*
G37*
G36*
X315159D02*
X311804D01*
Y313263D01*
X312067Y312283D01*
X312575Y311404D01*
X313292Y310687D01*
X314171Y310179D01*
X315151Y309916D01*
X315159D01*
Y313271D01*
D02*
G37*
G36*
X253037Y299251D02*
X248538D01*
Y298475D01*
X248525Y298473D01*
X248466Y298468D01*
X245837D01*
X245775Y298478D01*
X245720Y298491D01*
X245672Y298507D01*
X245630Y298524D01*
X245593Y298544D01*
X245559Y298566D01*
X245528Y298591D01*
X245475Y298640D01*
X245425Y298671D01*
X245199Y298897D01*
X244482Y299194D01*
X243707D01*
X242990Y298897D01*
X242441Y298349D01*
X242144Y297632D01*
Y296856D01*
X242441Y296140D01*
X242990Y295591D01*
X243707Y295294D01*
X244482D01*
X245199Y295591D01*
X245425Y295817D01*
X245475Y295848D01*
X245528Y295898D01*
X245559Y295922D01*
X245593Y295944D01*
X245630Y295964D01*
X245672Y295981D01*
X245720Y295997D01*
X245775Y296010D01*
X245837Y296021D01*
X248466D01*
X248525Y296015D01*
X248538Y296013D01*
Y294450D01*
X249359D01*
X249362Y294431D01*
X249367Y294375D01*
Y292463D01*
X249365Y292439D01*
X249332Y292291D01*
X249270Y292113D01*
X249173Y291908D01*
X249041Y291677D01*
X248871Y291425D01*
X248669Y291159D01*
X248132Y290549D01*
X247809Y290223D01*
X247772Y290166D01*
X247431Y289826D01*
X246912Y288926D01*
X246642Y287921D01*
Y286882D01*
X246912Y285878D01*
X247431Y284977D01*
X248166Y284242D01*
X249067Y283723D01*
X250071Y283453D01*
X251110D01*
X252114Y283723D01*
X253015Y284242D01*
X253750Y284977D01*
X254270Y285878D01*
X254539Y286882D01*
Y287921D01*
X254270Y288926D01*
X253750Y289826D01*
X253409Y290166D01*
X253372Y290223D01*
X253049Y290549D01*
X252512Y291159D01*
X252310Y291425D01*
X252140Y291677D01*
X252008Y291908D01*
X251911Y292113D01*
X251849Y292291D01*
X251816Y292439D01*
X251814Y292463D01*
Y294375D01*
X251819Y294431D01*
X251822Y294450D01*
X253037D01*
Y299251D01*
D02*
G37*
G36*
X506158Y300051D02*
X504109D01*
Y297850D01*
X506158D01*
Y300051D01*
D02*
G37*
G36*
X503109D02*
X501060D01*
Y297850D01*
X503109D01*
Y300051D01*
D02*
G37*
G36*
X259439Y299551D02*
X257390D01*
Y297350D01*
X259439D01*
Y299551D01*
D02*
G37*
G36*
X256390D02*
X254341D01*
Y297350D01*
X256390D01*
Y299551D01*
D02*
G37*
G36*
X427701Y297121D02*
X425626D01*
Y295243D01*
X427701D01*
Y297121D01*
D02*
G37*
G36*
X506158Y296850D02*
X504109D01*
Y294649D01*
X506158D01*
Y296850D01*
D02*
G37*
G36*
X503109D02*
X501060D01*
Y294649D01*
X503109D01*
Y296850D01*
D02*
G37*
G36*
X259439Y296350D02*
X257390D01*
Y294150D01*
X259439D01*
Y296350D01*
D02*
G37*
G36*
X256390D02*
X254341D01*
Y294150D01*
X256390D01*
Y296350D01*
D02*
G37*
G36*
X550312Y292212D02*
X548111D01*
Y290163D01*
X550312D01*
Y292212D01*
D02*
G37*
G36*
X547111D02*
X544910D01*
Y290163D01*
X547111D01*
Y292212D01*
D02*
G37*
G36*
X517685Y291650D02*
X517626D01*
Y287902D01*
X521374D01*
Y287961D01*
X521084Y289041D01*
X520525Y290010D01*
X519734Y290801D01*
X518766Y291360D01*
X517685Y291650D01*
D02*
G37*
G36*
X516626D02*
X516567D01*
X515486Y291360D01*
X514518Y290801D01*
X513727Y290010D01*
X513167Y289041D01*
X512878Y287961D01*
Y287902D01*
X516626D01*
Y291650D01*
D02*
G37*
G36*
X270835D02*
X270776D01*
Y287902D01*
X274524D01*
Y287961D01*
X274234Y289041D01*
X273675Y290010D01*
X272884Y290801D01*
X271915Y291360D01*
X270835Y291650D01*
D02*
G37*
G36*
X269776D02*
X269716D01*
X268636Y291360D01*
X267667Y290801D01*
X266876Y290010D01*
X266317Y289041D01*
X266028Y287961D01*
Y287902D01*
X269776D01*
Y291650D01*
D02*
G37*
G36*
X550312Y289163D02*
X548111D01*
Y287114D01*
X550312D01*
Y289163D01*
D02*
G37*
G36*
X430258Y286431D02*
X428209D01*
Y284230D01*
X430258D01*
Y286431D01*
D02*
G37*
G36*
X427209D02*
X425160D01*
Y284230D01*
X427209D01*
Y286431D01*
D02*
G37*
G36*
X521374Y286902D02*
X517626D01*
Y283154D01*
X517685D01*
X518766Y283443D01*
X519734Y284002D01*
X520525Y284793D01*
X521084Y285762D01*
X521374Y286842D01*
Y286902D01*
D02*
G37*
G36*
X516626D02*
X512878D01*
Y286842D01*
X513167Y285762D01*
X513727Y284793D01*
X514518Y284002D01*
X515486Y283443D01*
X516567Y283154D01*
X516626D01*
Y286902D01*
D02*
G37*
G36*
X274524D02*
X270776D01*
Y283154D01*
X270835D01*
X271915Y283443D01*
X272884Y284002D01*
X273675Y284793D01*
X274234Y285762D01*
X274524Y286842D01*
Y286902D01*
D02*
G37*
G36*
X269776D02*
X266028D01*
Y286842D01*
X266317Y285762D01*
X266876Y284793D01*
X267667Y284002D01*
X268636Y283443D01*
X269716Y283154D01*
X269776D01*
Y286902D01*
D02*
G37*
G36*
X430258Y283230D02*
X428209D01*
Y281029D01*
X430258D01*
Y283230D01*
D02*
G37*
G36*
X427209D02*
X425160D01*
Y281029D01*
X427209D01*
Y283230D01*
D02*
G37*
G36*
X538509Y280621D02*
X537081D01*
X535702Y280252D01*
X534465Y279538D01*
X533455Y278527D01*
X532740Y277291D01*
X532371Y275911D01*
Y274483D01*
X532740Y273103D01*
X533455Y271866D01*
X534465Y270856D01*
X535702Y270142D01*
X537081Y269772D01*
X538509D01*
X539889Y270142D01*
X541126Y270856D01*
X542136Y271866D01*
X542850Y273103D01*
X543220Y274483D01*
Y275911D01*
X542850Y277291D01*
X542136Y278527D01*
X541126Y279538D01*
X539889Y280252D01*
X538509Y280621D01*
D02*
G37*
G36*
X477486D02*
X476057D01*
X474678Y280252D01*
X473441Y279538D01*
X472431Y278527D01*
X471717Y277291D01*
X471347Y275911D01*
Y274483D01*
X471717Y273103D01*
X472431Y271866D01*
X473441Y270856D01*
X474678Y270142D01*
X476057Y269772D01*
X477486D01*
X478865Y270142D01*
X480102Y270856D01*
X481112Y271866D01*
X481826Y273103D01*
X482196Y274483D01*
Y275911D01*
X481826Y277291D01*
X481112Y278527D01*
X480102Y279538D01*
X478865Y280252D01*
X477486Y280621D01*
D02*
G37*
G36*
X230635D02*
X229207D01*
X227828Y280252D01*
X226591Y279538D01*
X225581Y278527D01*
X224867Y277291D01*
X224497Y275911D01*
Y274483D01*
X224867Y273103D01*
X225581Y271866D01*
X226591Y270856D01*
X227828Y270142D01*
X229207Y269772D01*
X230635D01*
X232015Y270142D01*
X233252Y270856D01*
X234262Y271866D01*
X234976Y273103D01*
X235346Y274483D01*
Y275911D01*
X234976Y277291D01*
X234262Y278527D01*
X233252Y279538D01*
X232015Y280252D01*
X230635Y280621D01*
D02*
G37*
G36*
X315742Y272029D02*
X314966D01*
X314250Y271732D01*
X314024Y271506D01*
X313974Y271475D01*
X313921Y271425D01*
X313889Y271401D01*
X313856Y271379D01*
X313819Y271359D01*
X313777Y271341D01*
X313729Y271326D01*
X313673Y271312D01*
X313612Y271302D01*
X312205D01*
X311736Y271209D01*
X311340Y270944D01*
X307936Y267541D01*
X307671Y267144D01*
X307578Y266675D01*
Y260955D01*
X307573Y260896D01*
X307571Y260883D01*
X306401D01*
Y260090D01*
X306382Y260087D01*
X306326Y260082D01*
X303880D01*
X303856Y260084D01*
X303708Y260117D01*
X303530Y260179D01*
X303325Y260276D01*
X303095Y260408D01*
X302843Y260577D01*
X302577Y260780D01*
X301967Y261317D01*
X301640Y261640D01*
X301584Y261677D01*
X301243Y262017D01*
X300343Y262537D01*
X299339Y262806D01*
X298299D01*
X297295Y262537D01*
X296395Y262017D01*
X295660Y261282D01*
X295140Y260382D01*
X294871Y259378D01*
Y258338D01*
X295140Y257334D01*
X295660Y256434D01*
X296395Y255699D01*
X297295Y255179D01*
X298299Y254910D01*
X299339D01*
X300343Y255179D01*
X301243Y255699D01*
X301584Y256040D01*
X301640Y256077D01*
X301967Y256399D01*
X302577Y256937D01*
X302843Y257139D01*
X303095Y257309D01*
X303325Y257441D01*
X303530Y257537D01*
X303708Y257600D01*
X303856Y257633D01*
X303880Y257635D01*
X306326D01*
X306382Y257630D01*
X306401Y257627D01*
Y256385D01*
X311202D01*
Y260883D01*
X310032D01*
X310030Y260896D01*
X310025Y260955D01*
Y266169D01*
X312712Y268855D01*
X313612D01*
X313673Y268845D01*
X313729Y268832D01*
X313777Y268816D01*
X313819Y268798D01*
X313856Y268779D01*
X313889Y268757D01*
X313921Y268732D01*
X313974Y268683D01*
X314024Y268652D01*
X314250Y268426D01*
X314966Y268129D01*
X315742D01*
X316459Y268426D01*
X317007Y268974D01*
X317304Y269691D01*
Y270467D01*
X317007Y271183D01*
X316459Y271732D01*
X315742Y272029D01*
D02*
G37*
G36*
X311502Y255081D02*
X309301D01*
Y253032D01*
X311502D01*
Y255081D01*
D02*
G37*
G36*
X308301D02*
X306101D01*
Y253032D01*
X308301D01*
Y255081D01*
D02*
G37*
G36*
X311502Y252032D02*
X309301D01*
Y249983D01*
X311502D01*
Y252032D01*
D02*
G37*
G36*
X308301D02*
X306101D01*
Y249983D01*
X308301D01*
Y252032D01*
D02*
G37*
G36*
X443770Y252977D02*
Y249722D01*
X447025D01*
X446770Y250672D01*
X446276Y251529D01*
X445576Y252228D01*
X444720Y252722D01*
X443770Y252977D01*
D02*
G37*
G36*
X442770D02*
X441821Y252722D01*
X440964Y252228D01*
X440265Y251529D01*
X439770Y250672D01*
X439516Y249722D01*
X442770D01*
Y252977D01*
D02*
G37*
G36*
X447025Y248722D02*
X443770D01*
Y245468D01*
X444720Y245722D01*
X445576Y246217D01*
X446276Y246916D01*
X446770Y247773D01*
X447025Y248722D01*
D02*
G37*
G36*
X442770D02*
X439516D01*
X439770Y247773D01*
X440265Y246916D01*
X440964Y246217D01*
X441821Y245722D01*
X442770Y245468D01*
Y248722D01*
D02*
G37*
G36*
X331213Y254781D02*
X326412D01*
Y250283D01*
X327530D01*
X327533Y250270D01*
X327538Y250211D01*
Y244588D01*
X327274D01*
Y243885D01*
X327272Y243876D01*
X327274Y243867D01*
Y242817D01*
X326974D01*
Y241776D01*
X328761D01*
X330549D01*
Y242817D01*
X330248D01*
Y243867D01*
X330250Y243876D01*
X330248Y243885D01*
Y244588D01*
X329986D01*
X329985Y244608D01*
Y250211D01*
X329990Y250270D01*
X329992Y250283D01*
X331213D01*
Y254781D01*
D02*
G37*
G36*
X330549Y240776D02*
X329261D01*
Y239735D01*
X330549D01*
Y240776D01*
D02*
G37*
G36*
X328261D02*
X326974D01*
Y239735D01*
X328261D01*
Y240776D01*
D02*
G37*
G36*
X320271Y240742D02*
X318984D01*
Y239700D01*
X320271D01*
Y240742D01*
D02*
G37*
G36*
X317984D02*
X316696D01*
Y239700D01*
X317984D01*
Y240742D01*
D02*
G37*
G36*
X546229Y243421D02*
X546169D01*
Y239673D01*
X549917D01*
Y239733D01*
X549628Y240813D01*
X549069Y241782D01*
X548278Y242572D01*
X547309Y243132D01*
X546229Y243421D01*
D02*
G37*
G36*
X545169D02*
X545110D01*
X544030Y243132D01*
X543061Y242572D01*
X542270Y241782D01*
X541711Y240813D01*
X541421Y239733D01*
Y239673D01*
X545169D01*
Y243421D01*
D02*
G37*
G36*
X299378D02*
X299319D01*
Y239673D01*
X303067D01*
Y239733D01*
X302777Y240813D01*
X302218Y241782D01*
X301427Y242572D01*
X300459Y243132D01*
X299378Y243421D01*
D02*
G37*
G36*
X298319D02*
X298260D01*
X297179Y243132D01*
X296211Y242572D01*
X295420Y241782D01*
X294860Y240813D01*
X294571Y239733D01*
Y239673D01*
X298319D01*
Y243421D01*
D02*
G37*
G36*
X549917Y238673D02*
X546169D01*
Y234925D01*
X546229D01*
X547309Y235215D01*
X548278Y235774D01*
X549069Y236565D01*
X549628Y237534D01*
X549917Y238614D01*
Y238673D01*
D02*
G37*
G36*
X545169D02*
X541421D01*
Y238614D01*
X541711Y237534D01*
X542270Y236565D01*
X543061Y235774D01*
X544030Y235215D01*
X545110Y234925D01*
X545169D01*
Y238673D01*
D02*
G37*
G36*
X303067D02*
X299319D01*
Y234925D01*
X299378D01*
X300459Y235215D01*
X301427Y235774D01*
X302218Y236565D01*
X302777Y237534D01*
X303067Y238614D01*
Y238673D01*
D02*
G37*
G36*
X298319D02*
X294571D01*
Y238614D01*
X294860Y237534D01*
X295420Y236565D01*
X296211Y235774D01*
X297179Y235215D01*
X298260Y234925D01*
X298319D01*
Y238673D01*
D02*
G37*
G36*
X450789Y238913D02*
X448124D01*
Y234830D01*
X450789D01*
Y238913D01*
D02*
G37*
G36*
X447124D02*
X444458D01*
Y234830D01*
X447124D01*
Y238913D01*
D02*
G37*
G36*
X450789Y233830D02*
X448124D01*
Y229747D01*
X450789D01*
Y233830D01*
D02*
G37*
G36*
X447124D02*
X444458D01*
Y229747D01*
X447124D01*
Y233830D01*
D02*
G37*
G36*
X402547Y230435D02*
X401520D01*
X400529Y230170D01*
X399639Y229656D01*
X398913Y228930D01*
X398400Y228041D01*
X398134Y227049D01*
Y226022D01*
X398400Y225030D01*
X398913Y224141D01*
X399639Y223415D01*
X400529Y222901D01*
X401520Y222635D01*
X402547D01*
X403539Y222901D01*
X404429Y223415D01*
X405155Y224141D01*
X405668Y225030D01*
X405934Y226022D01*
Y227049D01*
X405668Y228041D01*
X405155Y228930D01*
X404429Y229656D01*
X403539Y230170D01*
X402547Y230435D01*
D02*
G37*
G36*
X392547D02*
X391521D01*
X390529Y230170D01*
X389639Y229656D01*
X388913Y228930D01*
X388400Y228041D01*
X388134Y227049D01*
Y226022D01*
X388400Y225030D01*
X388913Y224141D01*
X389639Y223415D01*
X390529Y222901D01*
X391521Y222635D01*
X392547D01*
X393539Y222901D01*
X394429Y223415D01*
X395155Y224141D01*
X395668Y225030D01*
X395934Y226022D01*
Y227049D01*
X395668Y228041D01*
X395155Y228930D01*
X394429Y229656D01*
X393539Y230170D01*
X392547Y230435D01*
D02*
G37*
G36*
X382547D02*
X381521D01*
X380529Y230170D01*
X379639Y229656D01*
X378913Y228930D01*
X378400Y228041D01*
X378134Y227049D01*
Y226022D01*
X378400Y225030D01*
X378913Y224141D01*
X379639Y223415D01*
X380529Y222901D01*
X381521Y222635D01*
X382547D01*
X383539Y222901D01*
X384429Y223415D01*
X385155Y224141D01*
X385668Y225030D01*
X385934Y226022D01*
Y227049D01*
X385668Y228041D01*
X385155Y228930D01*
X384429Y229656D01*
X383539Y230170D01*
X382547Y230435D01*
D02*
G37*
G36*
X538509Y228259D02*
X537081D01*
X535702Y227889D01*
X534465Y227175D01*
X533455Y226165D01*
X532740Y224928D01*
X532371Y223549D01*
Y222120D01*
X532740Y220741D01*
X533455Y219504D01*
X534465Y218494D01*
X535702Y217780D01*
X537081Y217410D01*
X538509D01*
X539889Y217780D01*
X541126Y218494D01*
X542136Y219504D01*
X542850Y220741D01*
X543220Y222120D01*
Y223549D01*
X542850Y224928D01*
X542136Y226165D01*
X541126Y227175D01*
X539889Y227889D01*
X538509Y228259D01*
D02*
G37*
G36*
X477486D02*
X476057D01*
X474678Y227889D01*
X473441Y227175D01*
X472431Y226165D01*
X471717Y224928D01*
X471347Y223549D01*
Y222120D01*
X471717Y220741D01*
X472431Y219504D01*
X473441Y218494D01*
X474678Y217780D01*
X476057Y217410D01*
X477486D01*
X478865Y217780D01*
X480102Y218494D01*
X481112Y219504D01*
X481826Y220741D01*
X482196Y222120D01*
Y223549D01*
X481826Y224928D01*
X481112Y226165D01*
X480102Y227175D01*
X478865Y227889D01*
X477486Y228259D01*
D02*
G37*
G36*
X291659D02*
X290231D01*
X288851Y227889D01*
X287614Y227175D01*
X286604Y226165D01*
X285890Y224928D01*
X285521Y223549D01*
Y222120D01*
X285890Y220741D01*
X286604Y219504D01*
X287614Y218494D01*
X288851Y217780D01*
X290231Y217410D01*
X291659D01*
X293039Y217780D01*
X294275Y218494D01*
X295286Y219504D01*
X296000Y220741D01*
X296369Y222120D01*
Y223549D01*
X296000Y224928D01*
X295286Y226165D01*
X294275Y227175D01*
X293039Y227889D01*
X291659Y228259D01*
D02*
G37*
G36*
X230635D02*
X229207D01*
X227828Y227889D01*
X226591Y227175D01*
X225581Y226165D01*
X224867Y224928D01*
X224497Y223549D01*
Y222120D01*
X224867Y220741D01*
X225581Y219504D01*
X226591Y218494D01*
X227828Y217780D01*
X229207Y217410D01*
X230635D01*
X232015Y217780D01*
X233252Y218494D01*
X234262Y219504D01*
X234976Y220741D01*
X235346Y222120D01*
Y223549D01*
X234976Y224928D01*
X234262Y226165D01*
X233252Y227175D01*
X232015Y227889D01*
X230635Y228259D01*
D02*
G37*
G36*
X498087Y222496D02*
X492626D01*
Y217035D01*
X498087D01*
Y222496D01*
D02*
G37*
G36*
X491626D02*
X486165D01*
Y217035D01*
X491626D01*
Y222496D01*
D02*
G37*
G36*
X376234Y220735D02*
X372534D01*
Y217035D01*
X376234D01*
Y220735D01*
D02*
G37*
G36*
X371534D02*
X367834D01*
Y217035D01*
X371534D01*
Y220735D01*
D02*
G37*
G36*
X251236Y222496D02*
X245776D01*
Y217035D01*
X251236D01*
Y222496D01*
D02*
G37*
G36*
X244776D02*
X239315D01*
Y217035D01*
X244776D01*
Y222496D01*
D02*
G37*
G36*
X402547Y220435D02*
X401520D01*
X400529Y220170D01*
X399639Y219656D01*
X398913Y218930D01*
X398400Y218041D01*
X398134Y217049D01*
Y216022D01*
X398400Y215030D01*
X398913Y214141D01*
X399639Y213415D01*
X400529Y212901D01*
X401520Y212635D01*
X402547D01*
X403539Y212901D01*
X404429Y213415D01*
X405155Y214141D01*
X405668Y215030D01*
X405934Y216022D01*
Y217049D01*
X405668Y218041D01*
X405155Y218930D01*
X404429Y219656D01*
X403539Y220170D01*
X402547Y220435D01*
D02*
G37*
G36*
X392547D02*
X391521D01*
X390529Y220170D01*
X389639Y219656D01*
X388913Y218930D01*
X388400Y218041D01*
X388134Y217049D01*
Y216022D01*
X388400Y215030D01*
X388913Y214141D01*
X389639Y213415D01*
X390529Y212901D01*
X391521Y212635D01*
X392547D01*
X393539Y212901D01*
X394429Y213415D01*
X395155Y214141D01*
X395668Y215030D01*
X395934Y216022D01*
Y217049D01*
X395668Y218041D01*
X395155Y218930D01*
X394429Y219656D01*
X393539Y220170D01*
X392547Y220435D01*
D02*
G37*
G36*
X382547D02*
X381521D01*
X380529Y220170D01*
X379639Y219656D01*
X378913Y218930D01*
X378400Y218041D01*
X378134Y217049D01*
Y216022D01*
X378400Y215030D01*
X378913Y214141D01*
X379639Y213415D01*
X380529Y212901D01*
X381521Y212635D01*
X382547D01*
X383539Y212901D01*
X384429Y213415D01*
X385155Y214141D01*
X385668Y215030D01*
X385934Y216022D01*
Y217049D01*
X385668Y218041D01*
X385155Y218930D01*
X384429Y219656D01*
X383539Y220170D01*
X382547Y220435D01*
D02*
G37*
G36*
X376234Y216035D02*
X372534D01*
Y212335D01*
X376234D01*
Y216035D01*
D02*
G37*
G36*
X371534D02*
X367834D01*
Y212335D01*
X371534D01*
Y216035D01*
D02*
G37*
G36*
X528102Y222196D02*
X516780D01*
Y210875D01*
X528102D01*
Y222196D01*
D02*
G37*
G36*
X281251D02*
X269930D01*
Y210875D01*
X281251D01*
Y222196D01*
D02*
G37*
G36*
X498087Y216035D02*
X492626D01*
Y210575D01*
X498087D01*
Y216035D01*
D02*
G37*
G36*
X491626D02*
X486165D01*
Y210575D01*
X491626D01*
Y216035D01*
D02*
G37*
G36*
X251236D02*
X245776D01*
Y210575D01*
X251236D01*
Y216035D01*
D02*
G37*
G36*
X244776D02*
X239315D01*
Y210575D01*
X244776D01*
Y216035D01*
D02*
G37*
G36*
X477396Y211144D02*
X475196D01*
Y209095D01*
X477396D01*
Y211144D01*
D02*
G37*
G36*
X474196D02*
X471995D01*
Y209095D01*
X474196D01*
Y211144D01*
D02*
G37*
G36*
X328456Y210476D02*
X326406D01*
Y208276D01*
X328456D01*
Y210476D01*
D02*
G37*
G36*
X325406D02*
X323357D01*
Y208276D01*
X325406D01*
Y210476D01*
D02*
G37*
G36*
X360198Y210231D02*
X358149D01*
Y208030D01*
X360198D01*
Y210231D01*
D02*
G37*
G36*
X357149D02*
X355100D01*
Y208030D01*
X357149D01*
Y210231D01*
D02*
G37*
G36*
X232966Y208703D02*
X230766D01*
Y206654D01*
X232966D01*
Y208703D01*
D02*
G37*
G36*
X229766D02*
X227565D01*
Y206654D01*
X229766D01*
Y208703D01*
D02*
G37*
G36*
X477396Y208095D02*
X475196D01*
Y206046D01*
X477396D01*
Y208095D01*
D02*
G37*
G36*
X474196D02*
X471995D01*
Y206046D01*
X474196D01*
Y208095D01*
D02*
G37*
G36*
X328456Y207276D02*
X326406D01*
Y205075D01*
X328456D01*
Y207276D01*
D02*
G37*
G36*
X325406D02*
X323357D01*
Y205075D01*
X325406D01*
Y207276D01*
D02*
G37*
G36*
X360198Y207030D02*
X358149D01*
Y204829D01*
X360198D01*
Y207030D01*
D02*
G37*
G36*
X357149D02*
X355100D01*
Y204829D01*
X357149D01*
Y207030D01*
D02*
G37*
G36*
X299207Y214942D02*
X298431D01*
X297714Y214645D01*
X297166Y214097D01*
X296869Y213380D01*
Y212604D01*
X296955Y212397D01*
X296957Y212370D01*
X296970Y212326D01*
X296970Y212326D01*
X296964Y212311D01*
X296951Y212286D01*
X296927Y212249D01*
X293988Y209311D01*
X293609Y208977D01*
X293441Y208848D01*
X293301Y208755D01*
X293299Y208753D01*
X290511D01*
Y204255D01*
X295313D01*
Y207120D01*
X295344Y207164D01*
X295586Y207449D01*
X298992Y210854D01*
X299112Y210950D01*
X299162Y210985D01*
X299295Y211065D01*
X299343Y211089D01*
X299395Y211112D01*
X299465Y211138D01*
X299521Y211172D01*
X299923Y211339D01*
X300472Y211888D01*
X300769Y212604D01*
Y213380D01*
X300472Y214097D01*
X299923Y214645D01*
X299207Y214942D01*
D02*
G37*
G36*
X232966Y205654D02*
X230766D01*
Y203605D01*
X232966D01*
Y205654D01*
D02*
G37*
G36*
X229766D02*
X227565D01*
Y203605D01*
X229766D01*
Y205654D01*
D02*
G37*
G36*
X409215Y204150D02*
Y199516D01*
X412471D01*
Y204150D01*
X409215D01*
D02*
G37*
G36*
X335449D02*
X332193D01*
Y199516D01*
X335449D01*
Y204150D01*
D02*
G37*
G36*
X331193D02*
X327937D01*
Y199516D01*
X331193D01*
Y204150D01*
D02*
G37*
G36*
X366945D02*
X363689D01*
Y199516D01*
X366945D01*
Y204150D01*
D02*
G37*
G36*
X362689D02*
X359433D01*
Y199516D01*
X362689D01*
Y204150D01*
D02*
G37*
G36*
X440043Y201757D02*
X437378D01*
Y197675D01*
X440043D01*
Y201757D01*
D02*
G37*
G36*
X436378D02*
X433713D01*
Y197675D01*
X436378D01*
Y201757D01*
D02*
G37*
G36*
X412471Y198516D02*
X409215D01*
Y193882D01*
X412471D01*
Y198516D01*
D02*
G37*
G36*
X408215D02*
X404959D01*
Y193882D01*
X408215D01*
Y198516D01*
D02*
G37*
G36*
X366945Y198516D02*
X363689D01*
Y193882D01*
X366945D01*
Y198516D01*
D02*
G37*
G36*
X362689D02*
X359433D01*
Y193882D01*
X362689D01*
Y198516D01*
D02*
G37*
G36*
X335449Y198516D02*
X332193D01*
Y193882D01*
X335449D01*
Y198516D01*
D02*
G37*
G36*
X331193D02*
X327937D01*
Y193882D01*
X331193D01*
Y198516D01*
D02*
G37*
G36*
X385259Y195579D02*
X383058D01*
Y193530D01*
X385259D01*
Y195579D01*
D02*
G37*
G36*
X382058D02*
X379857D01*
Y193530D01*
X382058D01*
Y195579D01*
D02*
G37*
G36*
X528102Y204480D02*
X516780D01*
Y193158D01*
X528102D01*
Y204480D01*
D02*
G37*
G36*
X440043Y196675D02*
X437378D01*
Y192592D01*
X440043D01*
Y196675D01*
D02*
G37*
G36*
X436378D02*
X433713D01*
Y192592D01*
X436378D01*
Y196675D01*
D02*
G37*
G36*
X385259Y192530D02*
X383058D01*
Y190481D01*
X385259D01*
Y192530D01*
D02*
G37*
G36*
X382058D02*
X379857D01*
Y190481D01*
X382058D01*
Y192530D01*
D02*
G37*
G36*
X488689Y180308D02*
Y177665D01*
X491332D01*
X491139Y178387D01*
X490722Y179109D01*
X490133Y179698D01*
X489411Y180115D01*
X488689Y180308D01*
D02*
G37*
G36*
X487689Y180308D02*
X486967Y180115D01*
X486245Y179698D01*
X485656Y179109D01*
X485239Y178387D01*
X485046Y177665D01*
X487689D01*
Y180308D01*
D02*
G37*
G36*
Y176665D02*
X485046D01*
X485239Y175944D01*
X485656Y175222D01*
X486245Y174632D01*
X486967Y174216D01*
X487689Y174022D01*
Y176665D01*
D02*
G37*
G36*
X491332D02*
X488689D01*
Y174022D01*
X489411Y174216D01*
X490133Y174632D01*
X490722Y175222D01*
X491139Y175944D01*
X491332Y176665D01*
D02*
G37*
G36*
X462593Y263367D02*
X461817D01*
X461100Y263070D01*
X460552Y262522D01*
X460255Y261805D01*
Y261029D01*
X460552Y260313D01*
X460778Y260087D01*
X460808Y260037D01*
X460858Y259984D01*
X460883Y259952D01*
X460905Y259919D01*
X460924Y259882D01*
X460942Y259840D01*
X460958Y259792D01*
X460971Y259736D01*
X460981Y259675D01*
Y213779D01*
X461074Y213311D01*
X461340Y212914D01*
X462162Y212092D01*
Y210916D01*
X462157Y210857D01*
X462155Y210844D01*
X460833D01*
Y206346D01*
X465635D01*
Y207371D01*
X466075D01*
X466544Y207465D01*
X466940Y207730D01*
X470979Y211769D01*
X479515D01*
X485456Y205828D01*
X485853Y205562D01*
X486321Y205469D01*
X501855D01*
X513737Y193588D01*
Y178182D01*
X513726Y178179D01*
X512996Y177758D01*
X512400Y177162D01*
X511979Y176432D01*
X511761Y175618D01*
Y174776D01*
X511979Y173962D01*
X512400Y173232D01*
X512996Y172636D01*
X513726Y172215D01*
X514539Y171997D01*
X515382D01*
X516196Y172215D01*
X516925Y172636D01*
X517521Y173232D01*
X517943Y173962D01*
X518161Y174776D01*
Y175618D01*
X517943Y176432D01*
X517521Y177162D01*
X516925Y177758D01*
X516196Y178179D01*
X516184Y178182D01*
Y194095D01*
X516091Y194563D01*
X515826Y194960D01*
X503227Y207558D01*
X502830Y207823D01*
X502362Y207916D01*
X486828D01*
X480887Y213857D01*
X480490Y214123D01*
X480022Y214216D01*
X470472D01*
X470004Y214123D01*
X469607Y213857D01*
X466097Y210347D01*
X465635Y210538D01*
Y210844D01*
X464617D01*
X464614Y210857D01*
X464609Y210916D01*
Y212598D01*
X464516Y213067D01*
X464251Y213464D01*
X463428Y214286D01*
Y259675D01*
X463438Y259736D01*
X463452Y259792D01*
X463467Y259840D01*
X463485Y259882D01*
X463505Y259919D01*
X463527Y259952D01*
X463551Y259984D01*
X463601Y260037D01*
X463632Y260087D01*
X463858Y260313D01*
X464155Y261029D01*
Y261805D01*
X463858Y262522D01*
X463309Y263070D01*
X462593Y263367D01*
D02*
G37*
G36*
X378374Y177216D02*
X377532D01*
X376718Y176998D01*
X375988Y176576D01*
X375392Y175981D01*
X374971Y175251D01*
X374753Y174437D01*
Y173594D01*
X374971Y172781D01*
X375392Y172051D01*
X375988Y171455D01*
X376718Y171034D01*
X377532Y170816D01*
X378374D01*
X379188Y171034D01*
X379918Y171455D01*
X380513Y172051D01*
X380935Y172781D01*
X381153Y173594D01*
Y174437D01*
X380935Y175251D01*
X380513Y175981D01*
X379918Y176576D01*
X379188Y176998D01*
X378374Y177216D01*
D02*
G37*
G36*
X437910Y174130D02*
X433571D01*
Y169791D01*
X437910D01*
Y174130D01*
D02*
G37*
G36*
X432571D02*
X428232D01*
Y169791D01*
X432571D01*
Y174130D01*
D02*
G37*
G36*
X515461Y168686D02*
Y165697D01*
X518450D01*
X518222Y166548D01*
X517761Y167346D01*
X517110Y167998D01*
X516312Y168458D01*
X515461Y168686D01*
D02*
G37*
G36*
X514461D02*
X513610Y168458D01*
X512812Y167998D01*
X512160Y167346D01*
X511699Y166548D01*
X511471Y165697D01*
X514461D01*
Y168686D01*
D02*
G37*
G36*
X437910Y168791D02*
X433571D01*
Y164453D01*
X437910D01*
Y168791D01*
D02*
G37*
G36*
X432571D02*
X428232D01*
Y164453D01*
X432571D01*
Y168791D01*
D02*
G37*
G36*
X518450Y164697D02*
X515461D01*
Y161707D01*
X516312Y161935D01*
X517110Y162396D01*
X517761Y163048D01*
X518222Y163846D01*
X518450Y164697D01*
D02*
G37*
G36*
X514461D02*
X511471D01*
X511699Y163846D01*
X512160Y163048D01*
X512812Y162396D01*
X513610Y161935D01*
X514461Y161707D01*
Y164697D01*
D02*
G37*
G36*
X378374Y167216D02*
X377532D01*
X376718Y166998D01*
X375988Y166576D01*
X375392Y165981D01*
X374971Y165251D01*
X374753Y164437D01*
Y163594D01*
X374971Y162781D01*
X375392Y162051D01*
X375988Y161455D01*
X376718Y161034D01*
X377532Y160816D01*
X378374D01*
X379188Y161034D01*
X379918Y161455D01*
X380513Y162051D01*
X380935Y162781D01*
X381153Y163594D01*
Y164437D01*
X380935Y165251D01*
X380513Y165981D01*
X379918Y166576D01*
X379188Y166998D01*
X378374Y167216D01*
D02*
G37*
G36*
X412171Y168023D02*
X405259D01*
Y158355D01*
X412171D01*
Y168023D01*
D02*
G37*
G36*
X394454D02*
X387542D01*
Y158355D01*
X394454D01*
Y168023D01*
D02*
G37*
G36*
X366645D02*
X359733D01*
Y158355D01*
X366645D01*
Y168023D01*
D02*
G37*
G36*
X348928D02*
X342017D01*
Y158355D01*
X348928D01*
Y168023D01*
D02*
G37*
G36*
X335149D02*
X328237D01*
Y158355D01*
X335149D01*
Y168023D01*
D02*
G37*
G36*
X317432D02*
X310521D01*
Y158355D01*
X317432D01*
Y168023D01*
D02*
G37*
G36*
X540355Y181802D02*
X538385D01*
X536440Y181494D01*
X534567Y180886D01*
X532813Y179992D01*
X531220Y178834D01*
X529827Y177442D01*
X528670Y175849D01*
X527776Y174094D01*
X527167Y172221D01*
X526859Y170276D01*
Y168307D01*
X527167Y166362D01*
X527776Y164489D01*
X528670Y162734D01*
X529827Y161141D01*
X531220Y159748D01*
X532813Y158591D01*
X534567Y157697D01*
X536440Y157088D01*
X538385Y156780D01*
X540355D01*
X542300Y157088D01*
X544173Y157697D01*
X545927Y158591D01*
X547520Y159748D01*
X548913Y161141D01*
X550070Y162734D01*
X550964Y164489D01*
X551573Y166362D01*
X551881Y168307D01*
Y170276D01*
X551573Y172221D01*
X550964Y174094D01*
X550070Y175849D01*
X548913Y177442D01*
X547520Y178834D01*
X545927Y179992D01*
X544173Y180886D01*
X542300Y181494D01*
X540355Y181802D01*
D02*
G37*
G36*
X237205D02*
X235236D01*
X233291Y181494D01*
X231418Y180886D01*
X229663Y179992D01*
X228070Y178834D01*
X226678Y177442D01*
X225520Y175849D01*
X224626Y174094D01*
X224018Y172221D01*
X223710Y170276D01*
Y168307D01*
X224018Y166362D01*
X224626Y164489D01*
X225520Y162734D01*
X226678Y161141D01*
X228070Y159748D01*
X229663Y158591D01*
X231418Y157697D01*
X233291Y157088D01*
X235236Y156780D01*
X237205D01*
X239150Y157088D01*
X241023Y157697D01*
X242778Y158591D01*
X244371Y159748D01*
X245763Y161141D01*
X246921Y162734D01*
X247815Y164489D01*
X248423Y166362D01*
X248731Y168307D01*
Y170276D01*
X248423Y172221D01*
X247815Y174094D01*
X246921Y175849D01*
X245763Y177442D01*
X244371Y178834D01*
X242778Y179992D01*
X241023Y180886D01*
X239150Y181494D01*
X237205Y181802D01*
D02*
G37*
%LPD*%
G36*
X342021Y355818D02*
X341945Y355889D01*
X341863Y355953D01*
X341776Y356009D01*
X341684Y356058D01*
X341586Y356099D01*
X341483Y356133D01*
X341375Y356159D01*
X341261Y356178D01*
X341142Y356189D01*
X341018Y356193D01*
Y357193D01*
X341142Y357197D01*
X341261Y357208D01*
X341375Y357227D01*
X341483Y357253D01*
X341586Y357287D01*
X341684Y357328D01*
X341776Y357377D01*
X341863Y357433D01*
X341945Y357497D01*
X342021Y357568D01*
Y355818D01*
D02*
G37*
G36*
X337907Y357598D02*
X337938Y357513D01*
X337988Y357438D01*
X338059Y357373D01*
X338150Y357318D01*
X338262Y357273D01*
X338393Y357238D01*
X338545Y357213D01*
X338717Y357198D01*
X338909Y357193D01*
Y356193D01*
X338717Y356188D01*
X338545Y356173D01*
X338393Y356148D01*
X338262Y356113D01*
X338150Y356068D01*
X338059Y356013D01*
X337988Y355948D01*
X337938Y355873D01*
X337907Y355788D01*
X337897Y355693D01*
Y357693D01*
X337907Y357598D01*
D02*
G37*
G36*
X334532Y354906D02*
X334522Y355000D01*
X334492Y355085D01*
X334442Y355160D01*
X334372Y355225D01*
X334282Y355280D01*
X334172Y355326D01*
X334042Y355361D01*
X333892Y355385D01*
X333722Y355400D01*
X333532Y355405D01*
Y356405D01*
X333722Y356411D01*
X333892Y356425D01*
X334042Y356451D01*
X334172Y356486D01*
X334282Y356530D01*
X334372Y356586D01*
X334442Y356650D01*
X334492Y356726D01*
X334522Y356810D01*
X334532Y356906D01*
Y354906D01*
D02*
G37*
G36*
X322308Y356810D02*
X322339Y356726D01*
X322389Y356650D01*
X322460Y356586D01*
X322551Y356530D01*
X322662Y356486D01*
X322794Y356451D01*
X322946Y356425D01*
X323118Y356411D01*
X323310Y356405D01*
Y355405D01*
X323118Y355400D01*
X322946Y355385D01*
X322794Y355361D01*
X322662Y355326D01*
X322551Y355280D01*
X322460Y355225D01*
X322389Y355160D01*
X322339Y355085D01*
X322308Y355000D01*
X322298Y354906D01*
Y356906D01*
X322308Y356810D01*
D02*
G37*
G36*
X265249Y355030D02*
X265173Y355102D01*
X265091Y355166D01*
X265004Y355222D01*
X264912Y355271D01*
X264814Y355312D01*
X264711Y355346D01*
X264603Y355372D01*
X264490Y355391D01*
X264370Y355402D01*
X264246Y355405D01*
Y356405D01*
X264370Y356409D01*
X264490Y356420D01*
X264603Y356439D01*
X264711Y356466D01*
X264814Y356499D01*
X264912Y356540D01*
X265004Y356589D01*
X265091Y356645D01*
X265173Y356709D01*
X265249Y356781D01*
Y355030D01*
D02*
G37*
G36*
X261529Y356810D02*
X261560Y356726D01*
X261610Y356650D01*
X261681Y356586D01*
X261772Y356530D01*
X261884Y356486D01*
X262015Y356451D01*
X262167Y356425D01*
X262339Y356411D01*
X262531Y356405D01*
Y355405D01*
X262339Y355400D01*
X262167Y355385D01*
X262015Y355361D01*
X261884Y355326D01*
X261772Y355280D01*
X261681Y355225D01*
X261610Y355160D01*
X261560Y355085D01*
X261529Y355000D01*
X261519Y354906D01*
Y356906D01*
X261529Y356810D01*
D02*
G37*
G36*
X258154Y354119D02*
X258144Y354214D01*
X258114Y354299D01*
X258064Y354374D01*
X257994Y354439D01*
X257904Y354494D01*
X257794Y354539D01*
X257664Y354574D01*
X257514Y354599D01*
X257344Y354614D01*
X257154Y354619D01*
Y355619D01*
X257344Y355624D01*
X257514Y355639D01*
X257664Y355664D01*
X257794Y355699D01*
X257904Y355744D01*
X257994Y355799D01*
X258064Y355864D01*
X258114Y355939D01*
X258144Y356024D01*
X258154Y356119D01*
Y354119D01*
D02*
G37*
G36*
X238274Y356024D02*
X238304Y355939D01*
X238354Y355864D01*
X238425Y355799D01*
X238516Y355744D01*
X238628Y355699D01*
X238759Y355664D01*
X238911Y355639D01*
X239083Y355624D01*
X239275Y355619D01*
Y354619D01*
X239083Y354614D01*
X238911Y354599D01*
X238759Y354574D01*
X238628Y354539D01*
X238516Y354494D01*
X238425Y354439D01*
X238354Y354374D01*
X238304Y354299D01*
X238274Y354214D01*
X238263Y354119D01*
Y356119D01*
X238274Y356024D01*
D02*
G37*
G36*
X492511Y352079D02*
X492434Y352135D01*
X492342Y352164D01*
X492236D01*
X492115Y352135D01*
X491981Y352079D01*
X491833Y351994D01*
X491670Y351881D01*
X491493Y351740D01*
X491097Y351372D01*
X490390Y352079D01*
X490588Y352284D01*
X490899Y352652D01*
X491012Y352814D01*
X491097Y352963D01*
X491154Y353097D01*
X491182Y353217D01*
Y353323D01*
X491154Y353415D01*
X491097Y353493D01*
X492511Y352079D01*
D02*
G37*
G36*
X301070Y352745D02*
X300086Y351596D01*
X299845Y351250D01*
X299648Y350923D01*
X299495Y350614D01*
X299386Y350323D01*
X299320Y350050D01*
X299299Y349797D01*
X298299D01*
X298277Y350050D01*
X298211Y350323D01*
X298102Y350614D01*
X297949Y350923D01*
X297752Y351250D01*
X297511Y351596D01*
X297227Y351961D01*
X296527Y352745D01*
X296111Y353164D01*
X301485D01*
X301070Y352745D01*
D02*
G37*
G36*
X477923Y353080D02*
X476806Y351352D01*
X476626Y351001D01*
X476486Y350681D01*
X476387Y350394D01*
X476327Y350138D01*
X476307Y349915D01*
X475307Y349764D01*
X475284Y350038D01*
X475214Y350318D01*
X475098Y350605D01*
X474936Y350899D01*
X474727Y351199D01*
X474472Y351505D01*
X474170Y351818D01*
X473822Y352138D01*
X472987Y352797D01*
X478302Y353592D01*
X477923Y353080D01*
D02*
G37*
G36*
X238345Y338623D02*
X238202Y338468D01*
X238082Y338311D01*
X237985Y338153D01*
X237911Y337993D01*
X237860Y337832D01*
X237832Y337670D01*
X237827Y337506D01*
X237846Y337340D01*
X237887Y337173D01*
X237951Y337005D01*
X236020Y338937D01*
X236188Y338872D01*
X236355Y338831D01*
X236520Y338813D01*
X236684Y338818D01*
X236847Y338845D01*
X237008Y338896D01*
X237167Y338970D01*
X237326Y339067D01*
X237482Y339187D01*
X237637Y339330D01*
X238345Y338623D01*
D02*
G37*
G36*
X479665Y334271D02*
X479680Y334101D01*
X479705Y333951D01*
X479740Y333821D01*
X479785Y333711D01*
X479840Y333621D01*
X479905Y333551D01*
X479980Y333501D01*
X480065Y333471D01*
X480160Y333461D01*
X478160D01*
X478255Y333471D01*
X478340Y333501D01*
X478415Y333551D01*
X478480Y333621D01*
X478535Y333711D01*
X478580Y333821D01*
X478615Y333951D01*
X478640Y334101D01*
X478655Y334271D01*
X478660Y334461D01*
X479660D01*
X479665Y334271D01*
D02*
G37*
G36*
X395776Y333205D02*
X396550Y333526D01*
X397183Y334159D01*
X397437Y334771D01*
X397988Y334928D01*
X401532Y331383D01*
Y329831D01*
X401032Y329636D01*
X400388Y329903D01*
X399612D01*
X398895Y329606D01*
X398347Y329057D01*
X398050Y328341D01*
Y328021D01*
X398037Y327964D01*
X398034Y327891D01*
X398029Y327852D01*
X398021Y327812D01*
X398009Y327772D01*
X397991Y327730D01*
X397969Y327685D01*
X397939Y327637D01*
X397903Y327586D01*
X395950Y325633D01*
X392785D01*
X392726Y325638D01*
X392713Y325640D01*
Y326810D01*
X388651D01*
Y329189D01*
X390051D01*
Y331890D01*
X390551D01*
Y332390D01*
X393100D01*
Y333719D01*
X393600Y333926D01*
X394001Y333526D01*
X394776Y333205D01*
Y335433D01*
X395776D01*
Y333205D01*
D02*
G37*
G36*
X377182Y332453D02*
X377118Y332372D01*
X377062Y332285D01*
X377013Y332193D01*
X376972Y332095D01*
X376938Y331992D01*
X376912Y331884D01*
X376893Y331770D01*
X376882Y331651D01*
X376878Y331526D01*
X375878D01*
X375874Y331651D01*
X375863Y331770D01*
X375844Y331884D01*
X375818Y331992D01*
X375784Y332095D01*
X375743Y332193D01*
X375694Y332285D01*
X375638Y332372D01*
X375574Y332453D01*
X375503Y332529D01*
X377253D01*
X377182Y332453D01*
D02*
G37*
G36*
X385266Y330203D02*
X385181Y330172D01*
X385106Y330122D01*
X385041Y330051D01*
X384986Y329960D01*
X384942Y329849D01*
X384907Y329717D01*
X384881Y329565D01*
X384866Y329393D01*
X384861Y329201D01*
X383861D01*
X383857Y329393D01*
X383841Y329565D01*
X383817Y329717D01*
X383782Y329849D01*
X383736Y329960D01*
X383682Y330051D01*
X383616Y330122D01*
X383541Y330172D01*
X383456Y330203D01*
X383362Y330213D01*
X385362D01*
X385266Y330203D01*
D02*
G37*
G36*
X480065Y330086D02*
X479980Y330055D01*
X479905Y330005D01*
X479840Y329934D01*
X479785Y329843D01*
X479740Y329732D01*
X479705Y329600D01*
X479680Y329448D01*
X479665Y329276D01*
X479660Y329084D01*
X478660D01*
X478655Y329276D01*
X478640Y329448D01*
X478615Y329600D01*
X478580Y329732D01*
X478535Y329843D01*
X478480Y329934D01*
X478415Y330005D01*
X478340Y330055D01*
X478255Y330086D01*
X478160Y330096D01*
X480160D01*
X480065Y330086D01*
D02*
G37*
G36*
X376883Y329820D02*
X376898Y329650D01*
X376923Y329500D01*
X376958Y329370D01*
X377003Y329260D01*
X377058Y329170D01*
X377123Y329100D01*
X377198Y329050D01*
X377283Y329020D01*
X377378Y329010D01*
X375378D01*
X375473Y329020D01*
X375558Y329050D01*
X375633Y329100D01*
X375698Y329170D01*
X375753Y329260D01*
X375798Y329370D01*
X375833Y329500D01*
X375858Y329650D01*
X375873Y329820D01*
X375878Y330010D01*
X376878D01*
X376883Y329820D01*
D02*
G37*
G36*
X543610Y331485D02*
X542626Y330337D01*
X542385Y329991D01*
X542189Y329663D01*
X542035Y329354D01*
X541926Y329063D01*
X541860Y328791D01*
X541839Y328537D01*
X540839D01*
X540817Y328791D01*
X540751Y329063D01*
X540642Y329354D01*
X540489Y329663D01*
X540292Y329991D01*
X540051Y330337D01*
X539767Y330701D01*
X539067Y331485D01*
X538652Y331904D01*
X544026D01*
X543610Y331485D01*
D02*
G37*
G36*
X399988Y326703D02*
X399883Y326699D01*
X399781Y326687D01*
X399679Y326665D01*
X399580Y326634D01*
X399481Y326594D01*
X399385Y326546D01*
X399289Y326487D01*
X399196Y326420D01*
X399104Y326344D01*
X399013Y326259D01*
X398306Y326966D01*
X398391Y327057D01*
X398468Y327149D01*
X398535Y327242D01*
X398593Y327337D01*
X398642Y327434D01*
X398681Y327532D01*
X398712Y327632D01*
X398734Y327733D01*
X398747Y327836D01*
X398750Y327940D01*
X399988Y326703D01*
D02*
G37*
G36*
X384866Y326905D02*
X384881Y326733D01*
X384907Y326582D01*
X384942Y326450D01*
X384986Y326339D01*
X385041Y326248D01*
X385106Y326177D01*
X385181Y326126D01*
X385266Y326096D01*
X385362Y326086D01*
X383362D01*
X383456Y326096D01*
X383541Y326126D01*
X383616Y326177D01*
X383682Y326248D01*
X383736Y326339D01*
X383782Y326450D01*
X383817Y326582D01*
X383841Y326733D01*
X383857Y326905D01*
X383861Y327098D01*
X384861D01*
X384866Y326905D01*
D02*
G37*
G36*
X377595Y325634D02*
X377510Y325604D01*
X377435Y325553D01*
X377370Y325483D01*
X377315Y325392D01*
X377270Y325280D01*
X377235Y325149D01*
X377210Y324997D01*
X377195Y324825D01*
X377190Y324633D01*
X376190D01*
X376185Y324825D01*
X376170Y324997D01*
X376145Y325149D01*
X376110Y325280D01*
X376065Y325392D01*
X376010Y325483D01*
X375945Y325553D01*
X375870Y325604D01*
X375785Y325634D01*
X375690Y325645D01*
X377690D01*
X377595Y325634D01*
D02*
G37*
G36*
X391999Y325314D02*
X392030Y325229D01*
X392080Y325154D01*
X392151Y325089D01*
X392242Y325034D01*
X392353Y324989D01*
X392485Y324954D01*
X392637Y324929D01*
X392809Y324914D01*
X393001Y324909D01*
Y323909D01*
X392809Y323904D01*
X392637Y323889D01*
X392485Y323864D01*
X392353Y323829D01*
X392242Y323784D01*
X392151Y323729D01*
X392080Y323664D01*
X392030Y323589D01*
X391999Y323504D01*
X391989Y323410D01*
Y325410D01*
X391999Y325314D01*
D02*
G37*
G36*
X385157Y322710D02*
X385072Y322680D01*
X384997Y322630D01*
X384932Y322560D01*
X384877Y322470D01*
X384832Y322360D01*
X384797Y322230D01*
X384772Y322080D01*
X384757Y321910D01*
X384752Y321720D01*
X383752D01*
X383747Y321910D01*
X383732Y322080D01*
X383707Y322230D01*
X383672Y322360D01*
X383627Y322470D01*
X383572Y322560D01*
X383507Y322630D01*
X383432Y322680D01*
X383347Y322710D01*
X383252Y322720D01*
X385252D01*
X385157Y322710D01*
D02*
G37*
G36*
X377195Y321188D02*
X377210Y321018D01*
X377235Y320868D01*
X377270Y320738D01*
X377315Y320628D01*
X377370Y320538D01*
X377435Y320468D01*
X377510Y320418D01*
X377595Y320388D01*
X377690Y320378D01*
X375690D01*
X375785Y320388D01*
X375870Y320418D01*
X375945Y320468D01*
X376010Y320538D01*
X376065Y320628D01*
X376110Y320738D01*
X376145Y320868D01*
X376170Y321018D01*
X376185Y321188D01*
X376190Y321378D01*
X377190D01*
X377195Y321188D01*
D02*
G37*
G36*
X537707Y331859D02*
X538107Y331459D01*
X538144Y331402D01*
X538547Y330996D01*
X539219Y330243D01*
X539477Y329913D01*
X539692Y329603D01*
X539862Y329320D01*
X539986Y329069D01*
X540068Y328853D01*
X540110Y328676D01*
X540115Y328620D01*
Y326885D01*
X519701Y306471D01*
X444866D01*
X444389Y306948D01*
X444431Y307155D01*
X444606Y307438D01*
X463779D01*
X464248Y307531D01*
X464645Y307796D01*
X476672Y319824D01*
X476937Y320221D01*
X477031Y320689D01*
Y329372D01*
X477929D01*
X477931Y329359D01*
X477937Y329300D01*
Y317409D01*
X477437Y317075D01*
X477170Y317185D01*
X476394D01*
X475677Y316888D01*
X475129Y316340D01*
X474832Y315623D01*
Y314847D01*
X475129Y314131D01*
X475677Y313582D01*
X476394Y313285D01*
X477170D01*
X477886Y313582D01*
X478113Y313808D01*
X478162Y313839D01*
X478215Y313889D01*
X478247Y313913D01*
X478281Y313935D01*
X478318Y313955D01*
X478360Y313973D01*
X478408Y313988D01*
X478463Y314002D01*
X478524Y314012D01*
X513707D01*
X513766Y314007D01*
X513779Y314005D01*
Y312986D01*
X518580D01*
Y314004D01*
X518599Y314007D01*
X518656Y314012D01*
X525078D01*
X525546Y314105D01*
X525943Y314370D01*
X536298Y324725D01*
X536563Y325122D01*
X536657Y325590D01*
Y332725D01*
X536861Y332801D01*
X537157Y332812D01*
X537707Y331859D01*
D02*
G37*
G36*
X401351Y325935D02*
X401396Y325609D01*
X393605Y317819D01*
X391069D01*
X390601Y317726D01*
X390204Y317460D01*
X389151Y316408D01*
X388651Y316615D01*
Y322008D01*
X392713D01*
Y323179D01*
X392726Y323181D01*
X392785Y323186D01*
X396457D01*
X396925Y323279D01*
X397322Y323544D01*
X399633Y325856D01*
X399684Y325892D01*
X399732Y325922D01*
X399777Y325944D01*
X399819Y325961D01*
X399860Y325974D01*
X399899Y325982D01*
X399939Y325987D01*
X400011Y325990D01*
X400068Y326003D01*
X400388D01*
X400852Y326195D01*
X401351Y325935D01*
D02*
G37*
G36*
X547202Y339651D02*
Y317042D01*
X546377Y316218D01*
X545877Y316265D01*
Y319499D01*
X536897D01*
X536613Y319921D01*
X542204Y325513D01*
X542469Y325910D01*
X542562Y326378D01*
Y328620D01*
X542567Y328676D01*
X542610Y328853D01*
X542691Y329069D01*
X542815Y329320D01*
X542985Y329603D01*
X543191Y329900D01*
X544135Y331001D01*
X544533Y331402D01*
X544570Y331459D01*
X544970Y331859D01*
X545568Y332894D01*
X545877Y334048D01*
Y335243D01*
X545568Y336398D01*
X544970Y337432D01*
X544125Y338277D01*
X543090Y338875D01*
X541936Y339184D01*
X540741D01*
X539587Y338875D01*
X538552Y338277D01*
X537707Y337432D01*
X537157Y336479D01*
X536861Y336490D01*
X536657Y336566D01*
Y339257D01*
X539089Y341690D01*
X545162D01*
X547202Y339651D01*
D02*
G37*
G36*
X377582Y317003D02*
X377497Y316972D01*
X377422Y316922D01*
X377357Y316851D01*
X377302Y316760D01*
X377257Y316649D01*
X377222Y316517D01*
X377197Y316365D01*
X377182Y316193D01*
X377177Y316001D01*
X376177D01*
X376172Y316193D01*
X376157Y316365D01*
X376132Y316517D01*
X376097Y316649D01*
X376052Y316760D01*
X375997Y316851D01*
X375932Y316922D01*
X375857Y316972D01*
X375772Y317003D01*
X375677Y317013D01*
X377677D01*
X377582Y317003D01*
D02*
G37*
G36*
X439232Y317047D02*
X439262Y316962D01*
X439313Y316887D01*
X439384Y316822D01*
X439475Y316767D01*
X439586Y316722D01*
X439718Y316687D01*
X439870Y316662D01*
X440042Y316647D01*
X440234Y316642D01*
Y315642D01*
X440042Y315637D01*
X439870Y315622D01*
X439718Y315597D01*
X439586Y315562D01*
X439475Y315517D01*
X439384Y315462D01*
X439313Y315397D01*
X439262Y315322D01*
X439232Y315237D01*
X439222Y315142D01*
Y317142D01*
X439232Y317047D01*
D02*
G37*
G36*
X430069Y315142D02*
X430059Y315237D01*
X430029Y315322D01*
X429978Y315397D01*
X429907Y315462D01*
X429816Y315517D01*
X429705Y315562D01*
X429573Y315597D01*
X429422Y315622D01*
X429250Y315637D01*
X429057Y315642D01*
Y316642D01*
X429250Y316647D01*
X429422Y316662D01*
X429573Y316687D01*
X429705Y316722D01*
X429816Y316767D01*
X429907Y316822D01*
X429978Y316887D01*
X430029Y316962D01*
X430059Y317047D01*
X430069Y317142D01*
Y315142D01*
D02*
G37*
G36*
X477751Y316039D02*
X477832Y315975D01*
X477919Y315919D01*
X478012Y315870D01*
X478109Y315829D01*
X478212Y315795D01*
X478321Y315769D01*
X478434Y315750D01*
X478553Y315739D01*
X478678Y315735D01*
Y314735D01*
X478553Y314732D01*
X478434Y314720D01*
X478321Y314702D01*
X478212Y314675D01*
X478109Y314642D01*
X478012Y314600D01*
X477919Y314552D01*
X477832Y314495D01*
X477751Y314432D01*
X477675Y314360D01*
Y316110D01*
X477751Y316039D01*
D02*
G37*
G36*
X517878Y316140D02*
X517908Y316055D01*
X517958Y315980D01*
X518028Y315915D01*
X518118Y315860D01*
X518228Y315815D01*
X518359Y315780D01*
X518508Y315755D01*
X518679Y315740D01*
X518868Y315735D01*
Y314735D01*
X518679Y314730D01*
X518508Y314715D01*
X518359Y314690D01*
X518228Y314655D01*
X518118Y314610D01*
X518028Y314555D01*
X517958Y314490D01*
X517908Y314415D01*
X517878Y314330D01*
X517869Y314235D01*
Y316235D01*
X517878Y316140D01*
D02*
G37*
G36*
X514503Y314235D02*
X514493Y314330D01*
X514463Y314415D01*
X514412Y314490D01*
X514341Y314555D01*
X514250Y314610D01*
X514139Y314655D01*
X514007Y314690D01*
X513855Y314715D01*
X513683Y314730D01*
X513491Y314735D01*
Y315735D01*
X513683Y315740D01*
X513855Y315755D01*
X514007Y315780D01*
X514139Y315815D01*
X514250Y315860D01*
X514341Y315915D01*
X514412Y315980D01*
X514463Y316055D01*
X514493Y316140D01*
X514503Y316235D01*
Y314235D01*
D02*
G37*
G36*
X545163Y315866D02*
X545194Y315781D01*
X545244Y315706D01*
X545315Y315641D01*
X545406Y315586D01*
X545517Y315541D01*
X545649Y315506D01*
X545801Y315481D01*
X545973Y315466D01*
X546165Y315461D01*
Y314461D01*
X545973Y314456D01*
X545801Y314441D01*
X545649Y314416D01*
X545517Y314381D01*
X545406Y314336D01*
X545315Y314281D01*
X545244Y314216D01*
X545194Y314141D01*
X545163Y314056D01*
X545153Y313961D01*
Y315961D01*
X545163Y315866D01*
D02*
G37*
G36*
X387020Y314493D02*
X387070Y313723D01*
X387083Y313693D01*
X387098Y313683D01*
X385941D01*
X385956Y313693D01*
X385969Y313723D01*
X385981Y313773D01*
X385991Y313843D01*
X386007Y314043D01*
X386020Y314683D01*
X387020D01*
X387020Y314493D01*
D02*
G37*
G36*
X381115D02*
X381164Y313723D01*
X381178Y313693D01*
X381193Y313683D01*
X380035D01*
X380050Y313693D01*
X380064Y313723D01*
X380076Y313773D01*
X380086Y313843D01*
X380101Y314043D01*
X380114Y314683D01*
X381114D01*
X381115Y314493D01*
D02*
G37*
G36*
X377178D02*
X377227Y313723D01*
X377241Y313693D01*
X377256Y313683D01*
X376098D01*
X376113Y313693D01*
X376127Y313723D01*
X376139Y313773D01*
X376149Y313843D01*
X376165Y314043D01*
X376177Y314683D01*
X377177D01*
X377178Y314493D01*
D02*
G37*
G36*
X445745Y312779D02*
X445735Y312875D01*
X445705Y312960D01*
X445654Y313035D01*
X445583Y313100D01*
X445492Y313155D01*
X445381Y313199D01*
X445249Y313234D01*
X445097Y313260D01*
X444925Y313275D01*
X444733Y313280D01*
Y314280D01*
X444925Y314284D01*
X445097Y314300D01*
X445249Y314324D01*
X445381Y314359D01*
X445492Y314405D01*
X445583Y314459D01*
X445654Y314525D01*
X445705Y314599D01*
X445735Y314685D01*
X445745Y314779D01*
Y312779D01*
D02*
G37*
G36*
X344298Y314679D02*
X344328Y314594D01*
X344379Y314519D01*
X344450Y314454D01*
X344541Y314399D01*
X344652Y314354D01*
X344784Y314319D01*
X344936Y314294D01*
X345108Y314279D01*
X345300Y314274D01*
Y313274D01*
X345108Y313269D01*
X344936Y313254D01*
X344784Y313229D01*
X344652Y313194D01*
X344541Y313149D01*
X344450Y313094D01*
X344379Y313029D01*
X344328Y312954D01*
X344298Y312869D01*
X344288Y312774D01*
Y314774D01*
X344298Y314679D01*
D02*
G37*
G36*
X399616Y314157D02*
X399411Y313945D01*
X399089Y313568D01*
X398973Y313403D01*
X398886Y313253D01*
X398829Y313120D01*
X398802Y313002D01*
X398804Y312900D01*
X398836Y312813D01*
X398897Y312743D01*
X397752Y313683D01*
X397758Y313694D01*
X397786Y313726D01*
X398250Y314203D01*
X398789Y314744D01*
X399616Y314157D01*
D02*
G37*
G36*
X538926Y311134D02*
X538848Y311191D01*
X538757Y311219D01*
X538650D01*
X538530Y311191D01*
X538396Y311134D01*
X538247Y311049D01*
X538085Y310936D01*
X537908Y310795D01*
X537512Y310427D01*
X536805Y311134D01*
X537003Y311339D01*
X537314Y311707D01*
X537427Y311869D01*
X537512Y312018D01*
X537569Y312152D01*
X537597Y312273D01*
Y312379D01*
X537569Y312471D01*
X537512Y312548D01*
X538926Y311134D01*
D02*
G37*
G36*
X542244Y311124D02*
X542159Y311094D01*
X542084Y311044D01*
X542019Y310974D01*
X541964Y310884D01*
X541919Y310774D01*
X541884Y310644D01*
X541859Y310494D01*
X541844Y310324D01*
X541839Y310134D01*
X540839D01*
X540834Y310324D01*
X540819Y310494D01*
X540794Y310644D01*
X540759Y310774D01*
X540714Y310884D01*
X540659Y310974D01*
X540594Y311044D01*
X540519Y311094D01*
X540434Y311124D01*
X540339Y311134D01*
X542339D01*
X542244Y311124D01*
D02*
G37*
G36*
X394974Y307892D02*
X394976Y307868D01*
X394981Y307696D01*
X394984Y307085D01*
X393984D01*
X393983Y307240D01*
X393957Y307607D01*
X393942Y307696D01*
X393923Y307770D01*
X393901Y307827D01*
X393876Y307868D01*
X393847Y307892D01*
X393815Y307900D01*
X394972D01*
X394974Y307892D01*
D02*
G37*
G36*
X391023Y307890D02*
X391013Y307860D01*
X391004Y307810D01*
X390996Y307740D01*
X390983Y307540D01*
X390973Y306900D01*
X389973D01*
X389972Y307090D01*
X389927Y307810D01*
X389912Y307860D01*
X389896Y307890D01*
X389878Y307900D01*
X391035D01*
X391023Y307890D01*
D02*
G37*
G36*
X407080Y305512D02*
X405592D01*
X405687Y305522D01*
X405772Y305552D01*
X405847Y305602D01*
X405912Y305672D01*
X405967Y305762D01*
X406012Y305872D01*
X406047Y306002D01*
X406072Y306152D01*
X406087Y306322D01*
X406092Y306512D01*
X407092D01*
X407080Y305512D01*
D02*
G37*
G36*
X394992Y306102D02*
X395003Y305983D01*
X395022Y305869D01*
X395048Y305761D01*
X395082Y305658D01*
X395123Y305560D01*
X395172Y305468D01*
X395228Y305381D01*
X395292Y305300D01*
X395363Y305223D01*
X393613D01*
X393684Y305300D01*
X393748Y305381D01*
X393804Y305468D01*
X393853Y305560D01*
X393894Y305658D01*
X393928Y305761D01*
X393954Y305869D01*
X393973Y305983D01*
X393984Y306102D01*
X393988Y306226D01*
X394988D01*
X394992Y306102D01*
D02*
G37*
G36*
X390973Y305481D02*
X390977Y305357D01*
X390988Y305238D01*
X391006Y305124D01*
X391032Y305015D01*
X391065Y304911D01*
X391106Y304813D01*
X391154Y304720D01*
X391209Y304632D01*
X391272Y304550D01*
X391342Y304472D01*
X389592Y304504D01*
X389664Y304579D01*
X389729Y304659D01*
X389786Y304745D01*
X389836Y304836D01*
X389878Y304933D01*
X389912Y305036D01*
X389939Y305144D01*
X389958Y305257D01*
X389969Y305376D01*
X389973Y305501D01*
X390973Y305481D01*
D02*
G37*
G36*
X367927Y304355D02*
X367917Y304370D01*
X367887Y304383D01*
X367837Y304395D01*
X367767Y304405D01*
X367567Y304421D01*
X366927Y304433D01*
Y305433D01*
X367117Y305434D01*
X367887Y305484D01*
X367917Y305497D01*
X367927Y305512D01*
Y304355D01*
D02*
G37*
G36*
X420401Y304200D02*
X420391Y304295D01*
X420361Y304380D01*
X420310Y304455D01*
X420239Y304520D01*
X420148Y304575D01*
X420037Y304620D01*
X419905Y304655D01*
X419754Y304680D01*
X419581Y304695D01*
X419389Y304700D01*
Y305700D01*
X419581Y305705D01*
X419754Y305720D01*
X419905Y305745D01*
X420037Y305780D01*
X420148Y305825D01*
X420239Y305880D01*
X420310Y305945D01*
X420361Y306020D01*
X420391Y306105D01*
X420401Y306200D01*
Y304200D01*
D02*
G37*
G36*
X415770Y306105D02*
X415801Y306020D01*
X415850Y305945D01*
X415920Y305880D01*
X416011Y305825D01*
X416120Y305780D01*
X416251Y305745D01*
X416400Y305720D01*
X416571Y305705D01*
X416760Y305700D01*
Y304700D01*
X416571Y304695D01*
X416400Y304680D01*
X416251Y304655D01*
X416120Y304620D01*
X416011Y304575D01*
X415920Y304520D01*
X415850Y304455D01*
X415801Y304380D01*
X415770Y304295D01*
X415761Y304200D01*
Y306200D01*
X415770Y306105D01*
D02*
G37*
G36*
X536800Y319402D02*
Y312557D01*
X536798Y312548D01*
X536800Y312540D01*
Y312218D01*
X536747Y312142D01*
X536515Y311867D01*
X528233Y303586D01*
X520569D01*
X520520Y304086D01*
X520676Y304117D01*
X521073Y304382D01*
X536378Y319687D01*
X536800Y319402D01*
D02*
G37*
G36*
X441587Y303533D02*
X441396Y303071D01*
X432395D01*
X432296Y303571D01*
X432377Y303604D01*
X433010Y304237D01*
X433331Y305012D01*
X431102D01*
Y306012D01*
X433331D01*
X433010Y306786D01*
X432465Y307332D01*
X432567Y307745D01*
X432618Y307832D01*
X437289D01*
X441587Y303533D01*
D02*
G37*
G36*
X407090Y303528D02*
X407120Y303515D01*
X407170Y303503D01*
X407240Y303493D01*
X407440Y303477D01*
X408080Y303465D01*
Y302465D01*
X407890Y302464D01*
X407120Y302415D01*
X407090Y302401D01*
X407080Y302386D01*
Y303543D01*
X407090Y303528D01*
D02*
G37*
G36*
X367927Y302386D02*
X367917Y302401D01*
X367887Y302415D01*
X367837Y302426D01*
X367767Y302437D01*
X367567Y302452D01*
X366927Y302465D01*
Y303465D01*
X367117Y303466D01*
X367887Y303515D01*
X367917Y303528D01*
X367927Y303543D01*
Y302386D01*
D02*
G37*
G36*
X407090Y301560D02*
X407120Y301547D01*
X407170Y301535D01*
X407240Y301525D01*
X407440Y301509D01*
X408080Y301496D01*
Y300496D01*
X407890Y300496D01*
X407120Y300446D01*
X407090Y300433D01*
X407080Y300418D01*
Y301575D01*
X407090Y301560D01*
D02*
G37*
G36*
X498011Y299846D02*
X498027Y299674D01*
X498052Y299522D01*
X498087Y299391D01*
X498132Y299280D01*
X498186Y299188D01*
X498251Y299118D01*
X498326Y299067D01*
X498412Y299037D01*
X498506Y299027D01*
X496507D01*
X496601Y299037D01*
X496687Y299067D01*
X496762Y299118D01*
X496827Y299188D01*
X496881Y299280D01*
X496926Y299391D01*
X496961Y299522D01*
X496986Y299674D01*
X497002Y299846D01*
X497007Y300039D01*
X498006D01*
X498011Y299846D01*
D02*
G37*
G36*
X407090Y299591D02*
X407120Y299578D01*
X407170Y299566D01*
X407240Y299556D01*
X407440Y299540D01*
X408080Y299528D01*
Y298528D01*
X407890Y298527D01*
X407120Y298478D01*
X407090Y298464D01*
X407080Y298449D01*
Y299606D01*
X407090Y299591D01*
D02*
G37*
G36*
X420401Y298098D02*
X420391Y298193D01*
X420361Y298278D01*
X420310Y298353D01*
X420239Y298418D01*
X420148Y298473D01*
X420037Y298518D01*
X419905Y298553D01*
X419754Y298578D01*
X419581Y298593D01*
X419389Y298598D01*
Y299598D01*
X419581Y299603D01*
X419754Y299618D01*
X419905Y299643D01*
X420037Y299678D01*
X420148Y299723D01*
X420239Y299778D01*
X420310Y299843D01*
X420361Y299918D01*
X420391Y300003D01*
X420401Y300098D01*
Y298098D01*
D02*
G37*
G36*
X415770Y300003D02*
X415801Y299918D01*
X415850Y299843D01*
X415920Y299778D01*
X416011Y299723D01*
X416120Y299678D01*
X416251Y299643D01*
X416400Y299618D01*
X416571Y299603D01*
X416760Y299598D01*
Y298598D01*
X416571Y298593D01*
X416400Y298578D01*
X416251Y298553D01*
X416120Y298518D01*
X416011Y298473D01*
X415920Y298418D01*
X415850Y298353D01*
X415801Y298278D01*
X415770Y298193D01*
X415761Y298098D01*
Y300098D01*
X415770Y300003D01*
D02*
G37*
G36*
X412395Y298028D02*
X412385Y298123D01*
X412354Y298208D01*
X412304Y298283D01*
X412233Y298348D01*
X412142Y298403D01*
X412031Y298448D01*
X411899Y298483D01*
X411747Y298508D01*
X411575Y298523D01*
X411383Y298528D01*
Y299528D01*
X411575Y299533D01*
X411747Y299548D01*
X411899Y299573D01*
X412031Y299608D01*
X412142Y299653D01*
X412233Y299708D01*
X412304Y299773D01*
X412354Y299848D01*
X412385Y299933D01*
X412395Y300028D01*
Y298028D01*
D02*
G37*
G36*
X423777Y299873D02*
X423807Y299788D01*
X423857Y299713D01*
X423927Y299648D01*
X424017Y299593D01*
X424127Y299548D01*
X424257Y299513D01*
X424407Y299488D01*
X424577Y299473D01*
X424767Y299468D01*
Y298468D01*
X424577Y298463D01*
X424407Y298448D01*
X424257Y298423D01*
X424127Y298388D01*
X424017Y298343D01*
X423927Y298288D01*
X423857Y298223D01*
X423807Y298148D01*
X423777Y298063D01*
X423767Y297968D01*
Y299968D01*
X423777Y299873D01*
D02*
G37*
G36*
X408477Y294095D02*
X408409Y294172D01*
X408334Y294241D01*
X408252Y294302D01*
X408165Y294355D01*
X408071Y294399D01*
X407971Y294436D01*
X407865Y294464D01*
X407752Y294484D01*
X407634Y294496D01*
X407509Y294500D01*
X407509Y294507D01*
X407080Y294512D01*
Y295669D01*
X407090Y295637D01*
X407120Y295608D01*
X407170Y295583D01*
X407240Y295561D01*
X407330Y295543D01*
X407440Y295527D01*
X407720Y295507D01*
X407766Y295506D01*
X407856Y295514D01*
X407970Y295531D01*
X408080Y295554D01*
X408185Y295585D01*
X408286Y295622D01*
X408382Y295666D01*
X408474Y295716D01*
X408561Y295774D01*
X408643Y295837D01*
X408477Y294095D01*
D02*
G37*
G36*
X441768Y294826D02*
X441758Y294921D01*
X441728Y295006D01*
X441678Y295081D01*
X441608Y295146D01*
X441518Y295201D01*
X441408Y295246D01*
X441278Y295281D01*
X441128Y295306D01*
X440958Y295321D01*
X440768Y295326D01*
Y296326D01*
X440958Y296331D01*
X441128Y296346D01*
X441278Y296371D01*
X441408Y296406D01*
X441518Y296451D01*
X441608Y296506D01*
X441678Y296571D01*
X441728Y296646D01*
X441758Y296731D01*
X441768Y296826D01*
Y294826D01*
D02*
G37*
G36*
X498346Y295651D02*
X498261Y295621D01*
X498186Y295571D01*
X498121Y295501D01*
X498066Y295411D01*
X498021Y295301D01*
X497986Y295171D01*
X497961Y295021D01*
X497946Y294851D01*
X497941Y294661D01*
X496941D01*
X496936Y294851D01*
X496921Y295021D01*
X496896Y295171D01*
X496861Y295301D01*
X496816Y295411D01*
X496761Y295501D01*
X496696Y295571D01*
X496621Y295621D01*
X496536Y295651D01*
X496441Y295661D01*
X498441D01*
X498346Y295651D01*
D02*
G37*
G36*
X434880Y295648D02*
X434910Y295563D01*
X434961Y295488D01*
X435032Y295423D01*
X435123Y295368D01*
X435234Y295323D01*
X435366Y295288D01*
X435518Y295263D01*
X435690Y295248D01*
X435882Y295243D01*
Y294243D01*
X435690Y294238D01*
X435518Y294223D01*
X435366Y294198D01*
X435234Y294163D01*
X435123Y294118D01*
X435032Y294063D01*
X434961Y293998D01*
X434910Y293923D01*
X434880Y293838D01*
X434870Y293743D01*
Y295743D01*
X434880Y295648D01*
D02*
G37*
G36*
X447202Y290594D02*
X445929D01*
X445870Y290599D01*
X445857Y290601D01*
Y291972D01*
X441056D01*
Y290602D01*
X441037Y290599D01*
X440980Y290594D01*
X439483D01*
X438406Y291671D01*
X438009Y291936D01*
X437540Y292030D01*
X435666D01*
X435607Y292035D01*
X435594Y292037D01*
Y292665D01*
Y293512D01*
X435607Y293514D01*
X435666Y293519D01*
X437656D01*
X438125Y293613D01*
X438521Y293878D01*
X439246Y294602D01*
X440980D01*
X441037Y294597D01*
X441056Y294594D01*
Y293576D01*
X445857D01*
Y297745D01*
X447202D01*
Y290594D01*
D02*
G37*
G36*
X407090Y291718D02*
X407120Y291704D01*
X407170Y291692D01*
X407240Y291682D01*
X407440Y291666D01*
X408080Y291654D01*
Y290654D01*
X407890Y290653D01*
X407120Y290604D01*
X407090Y290590D01*
X407080Y290575D01*
Y291732D01*
X407090Y291718D01*
D02*
G37*
G36*
X412383Y290154D02*
X412373Y290249D01*
X412343Y290334D01*
X412292Y290409D01*
X412221Y290474D01*
X412130Y290529D01*
X412019Y290574D01*
X411887Y290609D01*
X411735Y290634D01*
X411563Y290649D01*
X411371Y290654D01*
Y291654D01*
X411563Y291659D01*
X411735Y291674D01*
X411887Y291699D01*
X412019Y291734D01*
X412130Y291779D01*
X412221Y291834D01*
X412292Y291899D01*
X412343Y291974D01*
X412373Y292059D01*
X412383Y292154D01*
Y290154D01*
D02*
G37*
G36*
X434880Y291711D02*
X434910Y291626D01*
X434961Y291551D01*
X435032Y291486D01*
X435123Y291431D01*
X435234Y291386D01*
X435366Y291351D01*
X435518Y291326D01*
X435690Y291311D01*
X435882Y291306D01*
Y290306D01*
X435690Y290301D01*
X435518Y290286D01*
X435366Y290261D01*
X435234Y290226D01*
X435123Y290181D01*
X435032Y290126D01*
X434961Y290061D01*
X434910Y289986D01*
X434880Y289901D01*
X434870Y289806D01*
Y291806D01*
X434880Y291711D01*
D02*
G37*
G36*
X426638Y289806D02*
X426628Y289901D01*
X426598Y289986D01*
X426548Y290061D01*
X426478Y290126D01*
X426388Y290181D01*
X426278Y290226D01*
X426148Y290261D01*
X425998Y290286D01*
X425828Y290301D01*
X425638Y290306D01*
Y291306D01*
X425828Y291311D01*
X425998Y291326D01*
X426148Y291351D01*
X426278Y291386D01*
X426388Y291431D01*
X426478Y291486D01*
X426548Y291551D01*
X426598Y291626D01*
X426628Y291711D01*
X426638Y291806D01*
Y289806D01*
D02*
G37*
G36*
X421546Y291711D02*
X421576Y291626D01*
X421627Y291551D01*
X421698Y291486D01*
X421789Y291431D01*
X421900Y291386D01*
X422032Y291351D01*
X422184Y291326D01*
X422356Y291311D01*
X422548Y291306D01*
Y290306D01*
X422356Y290301D01*
X422184Y290286D01*
X422032Y290261D01*
X421900Y290226D01*
X421789Y290181D01*
X421698Y290126D01*
X421627Y290061D01*
X421576Y289986D01*
X421546Y289901D01*
X421536Y289806D01*
Y291806D01*
X421546Y291711D01*
D02*
G37*
G36*
X497959Y292333D02*
X498012Y292094D01*
X498101Y291842D01*
X498225Y291578D01*
X498384Y291300D01*
X498579Y291010D01*
X498810Y290707D01*
X499378Y290062D01*
X499715Y289721D01*
X495167D01*
X495504Y290062D01*
X496072Y290707D01*
X496302Y291010D01*
X496497Y291300D01*
X496657Y291578D01*
X496781Y291842D01*
X496870Y292094D01*
X496923Y292333D01*
X496941Y292560D01*
X497941D01*
X497959Y292333D01*
D02*
G37*
G36*
X407090Y289749D02*
X407120Y289736D01*
X407170Y289724D01*
X407240Y289714D01*
X407440Y289698D01*
X408080Y289685D01*
Y288685D01*
X407890Y288685D01*
X407120Y288635D01*
X407090Y288622D01*
X407080Y288607D01*
Y289764D01*
X407090Y289749D01*
D02*
G37*
G36*
X367927Y288607D02*
X367917Y288622D01*
X367887Y288635D01*
X367837Y288647D01*
X367767Y288657D01*
X367567Y288673D01*
X366927Y288685D01*
Y289685D01*
X367117Y289686D01*
X367887Y289736D01*
X367917Y289749D01*
X367927Y289764D01*
Y288607D01*
D02*
G37*
G36*
X434224Y289442D02*
X434139Y289411D01*
X434064Y289361D01*
X433999Y289290D01*
X433944Y289199D01*
X433899Y289088D01*
X433864Y288956D01*
X433839Y288804D01*
X433824Y288632D01*
X433819Y288440D01*
X432819D01*
X432814Y288632D01*
X432799Y288804D01*
X432774Y288956D01*
X432739Y289088D01*
X432694Y289199D01*
X432639Y289290D01*
X432574Y289361D01*
X432499Y289411D01*
X432414Y289442D01*
X432319Y289452D01*
X434319D01*
X434224Y289442D01*
D02*
G37*
G36*
X445143Y290275D02*
X445174Y290190D01*
X445224Y290115D01*
X445295Y290050D01*
X445386Y289995D01*
X445498Y289950D01*
X445629Y289915D01*
X445781Y289890D01*
X445953Y289875D01*
X446145Y289870D01*
Y288870D01*
X445953Y288865D01*
X445781Y288850D01*
X445629Y288825D01*
X445498Y288790D01*
X445386Y288745D01*
X445295Y288690D01*
X445224Y288625D01*
X445174Y288550D01*
X445143Y288465D01*
X445133Y288370D01*
Y290370D01*
X445143Y290275D01*
D02*
G37*
G36*
X441768Y288370D02*
X441758Y288465D01*
X441728Y288550D01*
X441678Y288625D01*
X441608Y288690D01*
X441518Y288745D01*
X441408Y288790D01*
X441278Y288825D01*
X441128Y288850D01*
X440958Y288865D01*
X440768Y288870D01*
Y289870D01*
X440958Y289875D01*
X441128Y289890D01*
X441278Y289915D01*
X441408Y289950D01*
X441518Y289995D01*
X441608Y290050D01*
X441678Y290115D01*
X441728Y290190D01*
X441758Y290275D01*
X441768Y290370D01*
Y288370D01*
D02*
G37*
G36*
X407089Y287763D02*
X407115Y287735D01*
X407158Y287709D01*
X407218Y287687D01*
X407295Y287669D01*
X407389Y287653D01*
X407501Y287642D01*
X407775Y287628D01*
X407938Y287626D01*
Y286626D01*
X407080Y286638D01*
Y287795D01*
X407089Y287763D01*
D02*
G37*
G36*
X433824Y286228D02*
X433839Y286058D01*
X433864Y285909D01*
X433899Y285778D01*
X433944Y285668D01*
X433999Y285578D01*
X434064Y285508D01*
X434139Y285458D01*
X434224Y285429D01*
X434319Y285419D01*
X432319D01*
X432414Y285429D01*
X432499Y285458D01*
X432574Y285508D01*
X432639Y285578D01*
X432694Y285668D01*
X432739Y285778D01*
X432774Y285909D01*
X432799Y286058D01*
X432814Y286228D01*
X432819Y286419D01*
X433819D01*
X433824Y286228D01*
D02*
G37*
G36*
X367215Y286839D02*
X366915D01*
Y285748D01*
X370819D01*
Y284748D01*
X366915D01*
Y284503D01*
X365440D01*
X365381Y284508D01*
X365369Y284511D01*
Y285621D01*
X360567D01*
Y284696D01*
X360549Y284693D01*
X360492Y284688D01*
X357648D01*
X357586Y284698D01*
X357531Y284712D01*
X357483Y284727D01*
X357441Y284745D01*
X357404Y284765D01*
X357370Y284787D01*
X357339Y284811D01*
X357286Y284861D01*
X357236Y284892D01*
X357010Y285118D01*
X356293Y285415D01*
X355518D01*
X354801Y285118D01*
X354252Y284569D01*
X353956Y283852D01*
Y283077D01*
X354252Y282360D01*
X354801Y281811D01*
X355518Y281515D01*
X356293D01*
X357010Y281811D01*
X357236Y282038D01*
X357286Y282068D01*
X357339Y282118D01*
X357370Y282143D01*
X357404Y282165D01*
X357441Y282184D01*
X357483Y282202D01*
X357531Y282218D01*
X357586Y282231D01*
X357648Y282241D01*
X360492D01*
X360549Y282236D01*
X360567Y282233D01*
Y281123D01*
X365369D01*
Y282049D01*
X365381Y282051D01*
X365440Y282056D01*
X367215D01*
Y281989D01*
X367919D01*
X367927Y281988D01*
X367936Y281989D01*
X372959D01*
X373137Y281756D01*
X373263Y281489D01*
X373186Y281101D01*
Y276885D01*
X368820Y272519D01*
X368555Y272122D01*
X368461Y271654D01*
Y261149D01*
X368141Y260828D01*
X368065Y260765D01*
X368011Y260727D01*
X367952Y260689D01*
X367894Y260657D01*
X367838Y260631D01*
X367791Y260611D01*
X367722D01*
X367006Y260315D01*
X366457Y259766D01*
X366160Y259049D01*
Y258274D01*
X366457Y257557D01*
X367006Y257008D01*
X367722Y256711D01*
X368498D01*
X369215Y257008D01*
X369763Y257557D01*
X369808Y257665D01*
X370349D01*
X370394Y257557D01*
X370943Y257008D01*
X371659Y256711D01*
X372435D01*
X373152Y257008D01*
X373700Y257557D01*
X373986Y258246D01*
X374016Y258268D01*
X374093Y258301D01*
X374497Y258418D01*
X376300Y256615D01*
X376697Y256350D01*
X377165Y256257D01*
X388809D01*
X388870Y256247D01*
X388926Y256233D01*
X388973Y256218D01*
X389016Y256200D01*
X389053Y256180D01*
X389086Y256158D01*
X389118Y256134D01*
X389171Y256084D01*
X389220Y256053D01*
X389447Y255827D01*
X390163Y255530D01*
X390939D01*
X391656Y255827D01*
X392204Y256376D01*
X392501Y257092D01*
Y257868D01*
X392204Y258585D01*
X391656Y259133D01*
X390939Y259430D01*
X390163D01*
X389447Y259133D01*
X389220Y258907D01*
X389171Y258877D01*
X389118Y258827D01*
X389086Y258802D01*
X389053Y258780D01*
X389016Y258761D01*
X388973Y258743D01*
X388926Y258727D01*
X388870Y258714D01*
X388809Y258704D01*
X384162D01*
X383966Y259204D01*
X384233Y259848D01*
Y260624D01*
X384167Y260785D01*
X384571Y261117D01*
X384571Y261116D01*
X385039Y261023D01*
X385365Y261088D01*
X386242D01*
X386340Y261079D01*
X386405Y261068D01*
X386473Y261052D01*
X386537Y261034D01*
X386595Y261014D01*
X386642Y260994D01*
X386691Y260945D01*
X387407Y260648D01*
X388183D01*
X388900Y260945D01*
X389448Y261494D01*
X389745Y262211D01*
Y262986D01*
X389448Y263703D01*
X389127Y264024D01*
X389334Y264525D01*
X390551D01*
X391019Y264618D01*
X391416Y264883D01*
X391584Y265133D01*
X392084Y264982D01*
Y262086D01*
X392177Y261618D01*
X392442Y261221D01*
X393028Y260635D01*
X393425Y260370D01*
X393893Y260277D01*
X396101D01*
X396160Y260272D01*
X396173Y260270D01*
Y259100D01*
X400671D01*
Y263901D01*
X396173D01*
Y262731D01*
X396160Y262729D01*
X396101Y262724D01*
X394531D01*
Y270025D01*
X394438Y270494D01*
X394172Y270891D01*
X391745Y273318D01*
X391836Y273818D01*
X394772D01*
Y273518D01*
X395862D01*
Y277422D01*
X396862D01*
Y273518D01*
X397107D01*
Y271875D01*
X397102Y271816D01*
X397100Y271803D01*
X396141D01*
Y267001D01*
X400639D01*
Y271803D01*
X399561D01*
X399559Y271816D01*
X399554Y271875D01*
Y273818D01*
X399621D01*
Y274521D01*
X399623Y274530D01*
X399621Y274539D01*
Y276191D01*
X399634Y276193D01*
X399693Y276198D01*
X403012D01*
X403480Y276291D01*
X403545Y276335D01*
X407130Y272750D01*
X407059Y272114D01*
X407042Y272103D01*
X406938Y272103D01*
X404992D01*
Y269402D01*
Y266701D01*
X406938D01*
X407042Y266701D01*
X407438Y266451D01*
Y264529D01*
X407073Y264201D01*
X406938Y264201D01*
X405024D01*
Y261500D01*
Y258800D01*
X406938D01*
X407073Y258800D01*
X407427Y258482D01*
X407434Y257983D01*
X405399Y255948D01*
X404892D01*
X404830Y255958D01*
X404775Y255971D01*
X404727Y255987D01*
X404685Y256005D01*
X404648Y256024D01*
X404614Y256046D01*
X404583Y256071D01*
X404530Y256121D01*
X404480Y256151D01*
X404254Y256378D01*
X403538Y256674D01*
X402762D01*
X402045Y256378D01*
X401497Y255829D01*
X401200Y255112D01*
Y254337D01*
X401497Y253620D01*
X402045Y253071D01*
X402762Y252774D01*
X403538D01*
X404254Y253071D01*
X404480Y253297D01*
X404530Y253328D01*
X404583Y253378D01*
X404614Y253402D01*
X404648Y253424D01*
X404685Y253444D01*
X404727Y253462D01*
X404775Y253477D01*
X404831Y253491D01*
X404892Y253501D01*
X405905D01*
X406374Y253594D01*
X406771Y253859D01*
X409527Y256615D01*
X409694Y256865D01*
X410194Y256714D01*
Y255231D01*
X406580Y251617D01*
X368223D01*
X356502Y263338D01*
X356105Y263604D01*
X355637Y263697D01*
X351335D01*
X351067Y264197D01*
X351130Y264291D01*
X351223Y264759D01*
Y283351D01*
X355834Y287962D01*
X367215D01*
Y286839D01*
D02*
G37*
G36*
X546128Y285606D02*
X546497Y285292D01*
X546660Y285178D01*
X546809Y285092D01*
X546943Y285034D01*
X547063Y285005D01*
X547168Y285003D01*
X547260Y285031D01*
X547336Y285086D01*
X545934Y283684D01*
X545989Y283760D01*
X546017Y283851D01*
X546015Y283957D01*
X545986Y284077D01*
X545928Y284211D01*
X545842Y284360D01*
X545728Y284523D01*
X545585Y284700D01*
X545215Y285098D01*
X545922Y285805D01*
X546128Y285606D01*
D02*
G37*
G36*
X507976Y284228D02*
X507859Y284194D01*
X507755Y284146D01*
X507662Y284083D01*
X507583Y284006D01*
X507515Y283914D01*
X507460Y283808D01*
X507417Y283687D01*
X507386Y283552D01*
X507368Y283403D01*
X507361Y283239D01*
X506361D01*
X506356Y283429D01*
X506339Y283605D01*
X506311Y283767D01*
X506271Y283915D01*
X506220Y284050D01*
X506158Y284170D01*
X506085Y284277D01*
X506000Y284370D01*
X505904Y284449D01*
X505797Y284514D01*
X507976Y284228D01*
D02*
G37*
G36*
X367927Y282701D02*
X367917Y282716D01*
X367887Y282730D01*
X367837Y282741D01*
X367767Y282751D01*
X367567Y282767D01*
X366927Y282780D01*
Y283780D01*
X367117Y283781D01*
X367887Y283830D01*
X367917Y283843D01*
X367927Y283858D01*
Y282701D01*
D02*
G37*
G36*
X356874Y284268D02*
X356956Y284205D01*
X357043Y284148D01*
X357135Y284100D01*
X357233Y284058D01*
X357336Y284025D01*
X357444Y283998D01*
X357558Y283980D01*
X357677Y283968D01*
X357801Y283965D01*
Y282965D01*
X357677Y282961D01*
X357558Y282950D01*
X357444Y282931D01*
X357336Y282905D01*
X357233Y282871D01*
X357135Y282830D01*
X357043Y282781D01*
X356956Y282725D01*
X356874Y282661D01*
X356798Y282590D01*
Y284340D01*
X356874Y284268D01*
D02*
G37*
G36*
X361279Y282465D02*
X361269Y282560D01*
X361239Y282645D01*
X361189Y282720D01*
X361119Y282785D01*
X361029Y282840D01*
X360919Y282885D01*
X360789Y282920D01*
X360639Y282945D01*
X360469Y282960D01*
X360279Y282965D01*
Y283965D01*
X360469Y283970D01*
X360639Y283985D01*
X360789Y284010D01*
X360919Y284045D01*
X361029Y284090D01*
X361119Y284145D01*
X361189Y284210D01*
X361239Y284285D01*
X361269Y284370D01*
X361279Y284465D01*
Y282465D01*
D02*
G37*
G36*
X364655Y284185D02*
X364685Y284100D01*
X364736Y284025D01*
X364806Y283960D01*
X364897Y283905D01*
X365009Y283860D01*
X365140Y283825D01*
X365292Y283800D01*
X365464Y283785D01*
X365656Y283780D01*
Y282780D01*
X365464Y282775D01*
X365292Y282760D01*
X365140Y282735D01*
X365009Y282700D01*
X364897Y282655D01*
X364806Y282600D01*
X364736Y282535D01*
X364685Y282460D01*
X364655Y282375D01*
X364645Y282280D01*
Y284280D01*
X364655Y284185D01*
D02*
G37*
G36*
X262370Y284741D02*
X261802Y284096D01*
X261572Y283793D01*
X261377Y283503D01*
X261217Y283226D01*
X261093Y282961D01*
X261004Y282709D01*
X260951Y282470D01*
X260933Y282243D01*
X259933D01*
X259915Y282470D01*
X259862Y282709D01*
X259773Y282961D01*
X259649Y283226D01*
X259490Y283503D01*
X259295Y283793D01*
X259064Y284096D01*
X258496Y284741D01*
X258159Y285082D01*
X262707D01*
X262370Y284741D01*
D02*
G37*
G36*
X397604Y282609D02*
X397500Y282607D01*
X397397Y282596D01*
X397296Y282575D01*
X397196Y282546D01*
X397098Y282507D01*
X397001Y282459D01*
X396906Y282401D01*
X396812Y282334D01*
X396720Y282258D01*
X396630Y282173D01*
X395936Y282893D01*
X396021Y282984D01*
X396097Y283076D01*
X396165Y283169D01*
X396223Y283264D01*
X396273Y283361D01*
X396314Y283459D01*
X396346Y283559D01*
X396369Y283660D01*
X396383Y283763D01*
X396388Y283867D01*
X397604Y282609D01*
D02*
G37*
G36*
X394339Y282632D02*
X394240Y282609D01*
X394142Y282579D01*
X394045Y282542D01*
X393949Y282498D01*
X393854Y282447D01*
X393760Y282389D01*
X393668Y282324D01*
X393576Y282253D01*
X393396Y282089D01*
X392525Y282633D01*
X392611Y282725D01*
X392686Y282818D01*
X392749Y282911D01*
X392801Y283006D01*
X392842Y283101D01*
X392871Y283197D01*
X392889Y283294D01*
X392895Y283391D01*
X392890Y283490D01*
X392874Y283589D01*
X394339Y282632D01*
D02*
G37*
G36*
X405094Y282703D02*
X405009Y282673D01*
X404934Y282622D01*
X404869Y282551D01*
X404814Y282460D01*
X404769Y282349D01*
X404734Y282217D01*
X404709Y282066D01*
X404694Y281894D01*
X404689Y281701D01*
X403689D01*
X403684Y281894D01*
X403669Y282066D01*
X403644Y282217D01*
X403609Y282349D01*
X403564Y282460D01*
X403509Y282551D01*
X403444Y282622D01*
X403369Y282673D01*
X403284Y282703D01*
X403189Y282713D01*
X405189D01*
X405094Y282703D01*
D02*
G37*
G36*
X435157Y282043D02*
X435072Y282013D01*
X434997Y281962D01*
X434932Y281891D01*
X434877Y281800D01*
X434832Y281689D01*
X434797Y281557D01*
X434772Y281405D01*
X434757Y281233D01*
X434752Y281041D01*
X433752D01*
X433747Y281233D01*
X433732Y281405D01*
X433707Y281557D01*
X433672Y281689D01*
X433627Y281800D01*
X433572Y281891D01*
X433507Y281962D01*
X433432Y282013D01*
X433347Y282043D01*
X433252Y282053D01*
X435252D01*
X435157Y282043D01*
D02*
G37*
G36*
X548516Y282025D02*
X548431Y281995D01*
X548356Y281944D01*
X548291Y281873D01*
X548236Y281782D01*
X548191Y281671D01*
X548156Y281540D01*
X548131Y281388D01*
X548116Y281216D01*
X548111Y281023D01*
X547111D01*
X547106Y281216D01*
X547091Y281388D01*
X547066Y281540D01*
X547031Y281671D01*
X546986Y281782D01*
X546931Y281873D01*
X546866Y281944D01*
X546791Y281995D01*
X546706Y282025D01*
X546611Y282035D01*
X548611D01*
X548516Y282025D01*
D02*
G37*
G36*
X392926Y281123D02*
X392975Y280353D01*
X392989Y280323D01*
X393004Y280313D01*
X391846D01*
X391862Y280323D01*
X391875Y280353D01*
X391887Y280403D01*
X391897Y280473D01*
X391913Y280673D01*
X391925Y281313D01*
X392925D01*
X392926Y281123D01*
D02*
G37*
G36*
X434756Y278543D02*
X434767Y278424D01*
X434786Y278310D01*
X434812Y278202D01*
X434846Y278099D01*
X434887Y278001D01*
X434936Y277909D01*
X434992Y277822D01*
X435056Y277741D01*
X435127Y277664D01*
X433377D01*
X433448Y277741D01*
X433512Y277822D01*
X433568Y277909D01*
X433617Y278001D01*
X433658Y278099D01*
X433692Y278202D01*
X433718Y278310D01*
X433737Y278424D01*
X433748Y278543D01*
X433752Y278667D01*
X434752D01*
X434756Y278543D01*
D02*
G37*
G36*
X398907Y278327D02*
X398938Y278242D01*
X398988Y278167D01*
X399059Y278102D01*
X399150Y278047D01*
X399261Y278002D01*
X399393Y277967D01*
X399545Y277942D01*
X399717Y277927D01*
X399909Y277922D01*
Y276922D01*
X399717Y276917D01*
X399545Y276902D01*
X399393Y276877D01*
X399261Y276842D01*
X399150Y276797D01*
X399059Y276742D01*
X398988Y276677D01*
X398938Y276602D01*
X398907Y276517D01*
X398897Y276422D01*
Y278422D01*
X398907Y278327D01*
D02*
G37*
G36*
X377256Y274530D02*
X377163Y274523D01*
X377065Y274502D01*
X376962Y274466D01*
X376854Y274417D01*
X376741Y274353D01*
X376623Y274275D01*
X376500Y274184D01*
X376237Y273957D01*
X376098Y273823D01*
X375391Y274530D01*
X375583Y274729D01*
X375886Y275088D01*
X375997Y275248D01*
X376081Y275396D01*
X376138Y275531D01*
X376168Y275654D01*
X376172Y275763D01*
X376149Y275860D01*
X376098Y275944D01*
X377256Y274530D01*
D02*
G37*
G36*
X385098Y274522D02*
X385069Y274497D01*
X385043Y274454D01*
X385021Y274396D01*
X385003Y274320D01*
X384988Y274228D01*
X384976Y274119D01*
X384962Y273851D01*
X384961Y273691D01*
X383961D01*
X383973Y274530D01*
X385130D01*
X385098Y274522D01*
D02*
G37*
G36*
X410194Y280736D02*
Y273716D01*
X409694Y273564D01*
X409527Y273814D01*
X405276Y278065D01*
X405319Y278130D01*
X405412Y278598D01*
Y281918D01*
X405417Y281977D01*
X405420Y281989D01*
X407792D01*
Y282484D01*
X408254Y282675D01*
X410194Y280736D01*
D02*
G37*
G36*
X389035Y274520D02*
X389006Y274490D01*
X388980Y274440D01*
X388958Y274370D01*
X388940Y274280D01*
X388925Y274170D01*
X388904Y273890D01*
X388897Y273530D01*
X388158D01*
X388897Y273436D01*
X388901Y273312D01*
X388911Y273193D01*
X388927Y273078D01*
X388950Y272968D01*
X388980Y272862D01*
X389016Y272761D01*
X389058Y272664D01*
X389107Y272571D01*
X389163Y272484D01*
X389225Y272400D01*
X387487Y272603D01*
X387565Y272670D01*
X387635Y272743D01*
X387696Y272823D01*
X387750Y272909D01*
X387795Y273002D01*
X387832Y273101D01*
X387861Y273207D01*
X387881Y273319D01*
X387893Y273438D01*
X387897Y273563D01*
X387898Y273563D01*
X387910Y274530D01*
X389067D01*
X389035Y274520D01*
D02*
G37*
G36*
X398894D02*
X398881Y274490D01*
X398869Y274440D01*
X398859Y274370D01*
X398843Y274170D01*
X398831Y273530D01*
X397831D01*
X397830Y273720D01*
X397780Y274490D01*
X397767Y274520D01*
X397752Y274530D01*
X398909D01*
X398894Y274520D01*
D02*
G37*
G36*
X391020D02*
X391007Y274490D01*
X390995Y274440D01*
X390985Y274370D01*
X390969Y274170D01*
X390957Y273530D01*
X389957D01*
X389956Y273720D01*
X389906Y274490D01*
X389893Y274520D01*
X389878Y274530D01*
X391035D01*
X391020Y274520D01*
D02*
G37*
G36*
X387066D02*
X387037Y274490D01*
X387012Y274440D01*
X386990Y274370D01*
X386971Y274280D01*
X386956Y274170D01*
X386936Y273890D01*
X386929Y273530D01*
X385929D01*
X385941Y274530D01*
X387098D01*
X387066Y274520D01*
D02*
G37*
G36*
X398836Y271899D02*
X398851Y271727D01*
X398876Y271575D01*
X398911Y271443D01*
X398956Y271332D01*
X399011Y271241D01*
X399076Y271170D01*
X399151Y271119D01*
X399236Y271089D01*
X399331Y271079D01*
X397331D01*
X397426Y271089D01*
X397511Y271119D01*
X397586Y271170D01*
X397651Y271241D01*
X397706Y271332D01*
X397751Y271443D01*
X397786Y271575D01*
X397811Y271727D01*
X397826Y271899D01*
X397831Y272091D01*
X398831D01*
X398836Y271899D01*
D02*
G37*
G36*
X391076Y266325D02*
X391071Y266306D01*
X391066Y266275D01*
X391062Y266233D01*
X391054Y266040D01*
X391051Y265748D01*
X390051D01*
X390051Y265853D01*
X390023Y266306D01*
X390016Y266315D01*
X391082Y266334D01*
X391076Y266325D01*
D02*
G37*
G36*
X547964Y261933D02*
X547889Y261854D01*
X547827Y261777D01*
X547778Y261705D01*
X547743Y261636D01*
X547721Y261571D01*
X547712Y261510D01*
X547716Y261452D01*
X547733Y261399D01*
X547764Y261349D01*
X547808Y261303D01*
X546291Y262046D01*
X546356Y262041D01*
X546429Y262051D01*
X546509Y262074D01*
X546595Y262112D01*
X546688Y262164D01*
X546788Y262231D01*
X546895Y262312D01*
X547130Y262517D01*
X547257Y262641D01*
X547964Y261933D01*
D02*
G37*
G36*
X387127Y261542D02*
X387040Y261593D01*
X386949Y261639D01*
X386854Y261679D01*
X386754Y261714D01*
X386651Y261744D01*
X386543Y261768D01*
X386432Y261787D01*
X386197Y261809D01*
X386074Y261811D01*
X385814Y262811D01*
X385940Y262816D01*
X386058Y262829D01*
X386169Y262850D01*
X386271Y262881D01*
X386367Y262920D01*
X386454Y262967D01*
X386533Y263024D01*
X386605Y263089D01*
X386669Y263163D01*
X386726Y263245D01*
X387127Y261542D01*
D02*
G37*
G36*
X381179Y271945D02*
Y264883D01*
X381273Y264415D01*
X381538Y264018D01*
X381833Y263723D01*
X381833Y263723D01*
X382939Y262616D01*
X382688Y262212D01*
X382662Y262186D01*
X381896D01*
X381179Y261889D01*
X380953Y261663D01*
X380903Y261632D01*
X380850Y261583D01*
X380819Y261558D01*
X380785Y261536D01*
X380748Y261517D01*
X380706Y261499D01*
X380658Y261483D01*
X380603Y261470D01*
X380541Y261460D01*
X378460D01*
X378162Y261758D01*
Y269581D01*
X380717Y272136D01*
X381179Y271945D01*
D02*
G37*
G36*
X396897Y260500D02*
X396887Y260595D01*
X396856Y260680D01*
X396806Y260755D01*
X396735Y260820D01*
X396644Y260875D01*
X396533Y260920D01*
X396401Y260955D01*
X396249Y260980D01*
X396077Y260995D01*
X395885Y261000D01*
Y262000D01*
X396077Y262005D01*
X396249Y262020D01*
X396401Y262045D01*
X396533Y262080D01*
X396644Y262125D01*
X396735Y262180D01*
X396806Y262245D01*
X396856Y262320D01*
X396887Y262405D01*
X396897Y262500D01*
Y260500D01*
D02*
G37*
G36*
X319009Y260979D02*
X319024Y260807D01*
X319049Y260655D01*
X319084Y260524D01*
X319129Y260413D01*
X319184Y260321D01*
X319249Y260251D01*
X319324Y260200D01*
X319409Y260170D01*
X319504Y260159D01*
X317504D01*
X317599Y260170D01*
X317684Y260200D01*
X317759Y260251D01*
X317824Y260321D01*
X317879Y260413D01*
X317924Y260524D01*
X317959Y260655D01*
X317984Y260807D01*
X317999Y260979D01*
X318004Y261172D01*
X319004D01*
X319009Y260979D01*
D02*
G37*
G36*
X331162Y260276D02*
X331013Y260126D01*
X330541Y259585D01*
X330501Y259519D01*
X330479Y259467D01*
X330475Y259430D01*
X330489Y259406D01*
X329433Y260159D01*
X329464Y260153D01*
X329511Y260166D01*
X329573Y260199D01*
X329652Y260252D01*
X329746Y260324D01*
X329982Y260529D01*
X330455Y260983D01*
X331162Y260276D01*
D02*
G37*
G36*
X372551Y260433D02*
X372562Y260314D01*
X372581Y260200D01*
X372607Y260092D01*
X372641Y259989D01*
X372682Y259891D01*
X372731Y259799D01*
X372787Y259712D01*
X372851Y259630D01*
X372922Y259554D01*
X371172D01*
X371244Y259630D01*
X371307Y259712D01*
X371363Y259799D01*
X371412Y259891D01*
X371453Y259989D01*
X371487Y260092D01*
X371514Y260200D01*
X371532Y260314D01*
X371544Y260433D01*
X371547Y260557D01*
X372547D01*
X372551Y260433D01*
D02*
G37*
G36*
X381391Y259361D02*
X381315Y259433D01*
X381233Y259496D01*
X381146Y259553D01*
X381054Y259601D01*
X380956Y259643D01*
X380853Y259676D01*
X380745Y259702D01*
X380631Y259721D01*
X380512Y259733D01*
X380388Y259736D01*
Y260736D01*
X380512Y260740D01*
X380631Y260751D01*
X380745Y260770D01*
X380853Y260796D01*
X380956Y260830D01*
X381054Y260871D01*
X381146Y260920D01*
X381233Y260976D01*
X381315Y261040D01*
X381391Y261111D01*
Y259361D01*
D02*
G37*
G36*
X369662Y259912D02*
X369576Y259820D01*
X369502Y259727D01*
X369439Y259633D01*
X369388Y259539D01*
X369348Y259444D01*
X369320Y259349D01*
X369303Y259253D01*
X369299Y259156D01*
X369305Y259059D01*
X369324Y258961D01*
X367835Y259881D01*
X367933Y259906D01*
X368030Y259939D01*
X368126Y259977D01*
X368221Y260023D01*
X368315Y260075D01*
X368408Y260134D01*
X368500Y260199D01*
X368682Y260350D01*
X368771Y260435D01*
X369662Y259912D01*
D02*
G37*
G36*
X389658Y256605D02*
X389582Y256677D01*
X389501Y256740D01*
X389414Y256797D01*
X389322Y256845D01*
X389224Y256887D01*
X389121Y256920D01*
X389013Y256947D01*
X388899Y256965D01*
X388780Y256977D01*
X388655Y256980D01*
Y257980D01*
X388780Y257984D01*
X388899Y257995D01*
X389013Y258014D01*
X389121Y258040D01*
X389224Y258074D01*
X389322Y258115D01*
X389414Y258164D01*
X389501Y258220D01*
X389582Y258284D01*
X389658Y258355D01*
Y256605D01*
D02*
G37*
G36*
X404118Y255528D02*
X404200Y255464D01*
X404287Y255408D01*
X404379Y255359D01*
X404477Y255318D01*
X404580Y255284D01*
X404688Y255258D01*
X404802Y255239D01*
X404921Y255228D01*
X405045Y255224D01*
Y254224D01*
X404921Y254221D01*
X404802Y254209D01*
X404688Y254191D01*
X404580Y254164D01*
X404477Y254131D01*
X404379Y254089D01*
X404287Y254041D01*
X404200Y253984D01*
X404118Y253921D01*
X404042Y253849D01*
Y255599D01*
X404118Y255528D01*
D02*
G37*
G36*
X355565Y254288D02*
X355558Y254190D01*
X355563Y254094D01*
X355579Y253998D01*
X355608Y253902D01*
X355647Y253807D01*
X355698Y253713D01*
X355761Y253620D01*
X355836Y253527D01*
X355922Y253434D01*
X355030Y252912D01*
X354941Y252997D01*
X354760Y253148D01*
X354668Y253213D01*
X354575Y253272D01*
X354481Y253324D01*
X354386Y253369D01*
X354290Y253408D01*
X354193Y253440D01*
X354095Y253466D01*
X355584Y254386D01*
X355565Y254288D01*
D02*
G37*
G36*
X319389Y250997D02*
X319304Y250966D01*
X319229Y250916D01*
X319164Y250845D01*
X319109Y250754D01*
X319064Y250642D01*
X319029Y250511D01*
X319004Y250359D01*
X318989Y250187D01*
X318984Y249995D01*
X317984D01*
X317979Y250187D01*
X317964Y250359D01*
X317939Y250511D01*
X317904Y250642D01*
X317859Y250754D01*
X317804Y250845D01*
X317739Y250916D01*
X317664Y250966D01*
X317579Y250997D01*
X317484Y251007D01*
X319484D01*
X319389Y250997D01*
D02*
G37*
G36*
X295026Y252166D02*
X295241Y252033D01*
X295481Y251931D01*
X295743Y251861D01*
X296030Y251823D01*
X296339Y251816D01*
X296673Y251841D01*
X297029Y251897D01*
X297410Y251985D01*
X297814Y252104D01*
X295711Y248072D01*
X295543Y248614D01*
X294685Y250887D01*
X294567Y251104D01*
X294456Y251274D01*
X294352Y251398D01*
X294833Y252330D01*
X295026Y252166D01*
D02*
G37*
G36*
X354347Y247850D02*
X354283Y247768D01*
X354227Y247682D01*
X354178Y247589D01*
X354137Y247492D01*
X354103Y247389D01*
X354077Y247280D01*
X354058Y247167D01*
X354047Y247048D01*
X354043Y246923D01*
X353043D01*
X353040Y247048D01*
X353028Y247167D01*
X353010Y247280D01*
X352983Y247389D01*
X352950Y247492D01*
X352908Y247589D01*
X352860Y247682D01*
X352803Y247768D01*
X352740Y247850D01*
X352668Y247926D01*
X354418D01*
X354347Y247850D01*
D02*
G37*
G36*
X543350Y246742D02*
X543008Y247079D01*
X542364Y247647D01*
X542061Y247877D01*
X541771Y248072D01*
X541493Y248232D01*
X541229Y248356D01*
X540977Y248445D01*
X540738Y248498D01*
X540511Y248516D01*
Y249516D01*
X540738Y249534D01*
X540977Y249587D01*
X541229Y249675D01*
X541493Y249799D01*
X541771Y249959D01*
X542061Y250154D01*
X542364Y250385D01*
X543008Y250952D01*
X543350Y251289D01*
Y246742D01*
D02*
G37*
G36*
X435052Y247120D02*
X435008Y247066D01*
X434969Y246984D01*
X434934Y246873D01*
X434904Y246733D01*
X434879Y246565D01*
X434842Y246141D01*
X434823Y245603D01*
X434821Y245290D01*
X431321Y245621D01*
X431320Y245935D01*
X431226Y247357D01*
X431204Y247399D01*
X435052Y247120D01*
D02*
G37*
G36*
X415764Y245882D02*
X415701Y245800D01*
X415644Y245713D01*
X415596Y245621D01*
X415554Y245523D01*
X415521Y245420D01*
X415494Y245312D01*
X415476Y245198D01*
X415464Y245079D01*
X415461Y244955D01*
X414461D01*
X414457Y245079D01*
X414446Y245198D01*
X414427Y245312D01*
X414401Y245420D01*
X414367Y245523D01*
X414326Y245621D01*
X414277Y245713D01*
X414221Y245800D01*
X414157Y245882D01*
X414086Y245958D01*
X415836D01*
X415764Y245882D01*
D02*
G37*
G36*
X411827D02*
X411764Y245800D01*
X411707Y245713D01*
X411659Y245621D01*
X411617Y245523D01*
X411584Y245420D01*
X411557Y245312D01*
X411539Y245198D01*
X411527Y245079D01*
X411524Y244955D01*
X410524D01*
X410520Y245079D01*
X410509Y245198D01*
X410490Y245312D01*
X410464Y245420D01*
X410430Y245523D01*
X410389Y245621D01*
X410340Y245713D01*
X410284Y245800D01*
X410220Y245882D01*
X410149Y245958D01*
X411899D01*
X411827Y245882D01*
D02*
G37*
G36*
X318986Y244652D02*
X319008Y244332D01*
X319028Y244202D01*
X319052Y244092D01*
X319083Y244002D01*
X319118Y243932D01*
X319160Y243882D01*
X319207Y243852D01*
X319259Y243842D01*
X317708D01*
X317760Y243852D01*
X317807Y243882D01*
X317849Y243932D01*
X317884Y244002D01*
X317915Y244092D01*
X317939Y244202D01*
X317959Y244332D01*
X317972Y244482D01*
X317984Y244842D01*
X318984D01*
X318986Y244652D01*
D02*
G37*
G36*
X401470Y237314D02*
X401393Y237385D01*
X401312Y237449D01*
X401225Y237505D01*
X401133Y237554D01*
X401035Y237595D01*
X400932Y237629D01*
X400824Y237655D01*
X400710Y237674D01*
X400591Y237685D01*
X400467Y237689D01*
Y238689D01*
X400591Y238693D01*
X400710Y238704D01*
X400824Y238723D01*
X400932Y238749D01*
X401035Y238783D01*
X401133Y238824D01*
X401225Y238873D01*
X401312Y238929D01*
X401393Y238993D01*
X401470Y239064D01*
Y237314D01*
D02*
G37*
G36*
X435324Y239823D02*
X437075Y238287D01*
X437388Y238072D01*
X437651Y237925D01*
X437865Y237845D01*
X438029Y237833D01*
X438144Y237889D01*
X434774Y234519D01*
X434830Y234633D01*
X434818Y234797D01*
X434738Y235011D01*
X434591Y235275D01*
X434376Y235588D01*
X434093Y235951D01*
X433325Y236826D01*
X432287Y237901D01*
X434762Y240376D01*
X435324Y239823D01*
D02*
G37*
G36*
X321321Y227929D02*
X321225Y227950D01*
X321128Y227958D01*
X321033Y227956D01*
X320937Y227941D01*
X320843Y227914D01*
X320748Y227875D01*
X320654Y227825D01*
X320561Y227762D01*
X320468Y227688D01*
X320376Y227602D01*
X319876Y228516D01*
X319962Y228605D01*
X320113Y228786D01*
X320180Y228877D01*
X320293Y229062D01*
X320340Y229156D01*
X320380Y229251D01*
X320414Y229346D01*
X320442Y229442D01*
X321321Y227929D01*
D02*
G37*
G36*
X375980Y229774D02*
X375834Y229604D01*
X375704Y229400D01*
X375589Y229162D01*
X375491Y228891D01*
X375408Y228587D01*
X375342Y228250D01*
X375291Y227879D01*
X375237Y227038D01*
X375234Y226567D01*
X372066Y229735D01*
X372536Y229738D01*
X373378Y229792D01*
X373748Y229843D01*
X374086Y229910D01*
X374390Y229992D01*
X374661Y230091D01*
X374898Y230205D01*
X375102Y230335D01*
X375273Y230482D01*
X375980Y229774D01*
D02*
G37*
G36*
X438992Y230724D02*
X438923Y230619D01*
X438863Y230444D01*
X438810Y230199D01*
X438766Y229884D01*
X438701Y229044D01*
X438681Y228025D01*
X438683Y227952D01*
X438735Y227357D01*
X438823Y226832D01*
X438945Y226377D01*
X439103Y225992D01*
X439295Y225677D01*
X439523Y225432D01*
X439785Y225257D01*
X440083Y225152D01*
X440415Y225117D01*
X433415D01*
X433748Y225152D01*
X434045Y225257D01*
X434308Y225432D01*
X434535Y225677D01*
X434728Y225992D01*
X434885Y226377D01*
X435008Y226832D01*
X435095Y227357D01*
X435148Y227952D01*
X435151Y228085D01*
X435020Y230199D01*
X434968Y230444D01*
X434907Y230619D01*
X434838Y230724D01*
X434762Y230759D01*
X439069D01*
X438992Y230724D01*
D02*
G37*
G36*
X369749Y224295D02*
X369414Y224626D01*
X368781Y225183D01*
X368483Y225409D01*
X368197Y225600D01*
X367924Y225757D01*
X367663Y225879D01*
X367414Y225966D01*
X367177Y226018D01*
X366953Y226035D01*
Y227035D01*
X367177Y227053D01*
X367414Y227105D01*
X367663Y227192D01*
X367924Y227314D01*
X368197Y227470D01*
X368483Y227662D01*
X368781Y227888D01*
X369414Y228445D01*
X369749Y228775D01*
Y224295D01*
D02*
G37*
G36*
X316426Y223652D02*
X316227Y223446D01*
X315913Y223076D01*
X315799Y222913D01*
X315713Y222765D01*
X315655Y222631D01*
X315626Y222511D01*
X315624Y222405D01*
X315651Y222314D01*
X315707Y222237D01*
X314304Y223640D01*
X314381Y223584D01*
X314472Y223557D01*
X314578Y223558D01*
X314698Y223588D01*
X314832Y223646D01*
X314980Y223732D01*
X315143Y223846D01*
X315321Y223989D01*
X315719Y224359D01*
X316426Y223652D01*
D02*
G37*
G36*
X343837Y221441D02*
X343827Y221536D01*
X343797Y221621D01*
X343747Y221696D01*
X343677Y221761D01*
X343587Y221816D01*
X343477Y221861D01*
X343347Y221896D01*
X343197Y221921D01*
X343027Y221936D01*
X342837Y221941D01*
Y222941D01*
X343027Y222946D01*
X343197Y222961D01*
X343347Y222986D01*
X343477Y223021D01*
X343587Y223066D01*
X343677Y223121D01*
X343747Y223186D01*
X343797Y223261D01*
X343827Y223346D01*
X343837Y223441D01*
Y221441D01*
D02*
G37*
G36*
X312341Y221114D02*
X312331Y221210D01*
X312301Y221294D01*
X312251Y221370D01*
X312181Y221434D01*
X312091Y221490D01*
X311981Y221534D01*
X311851Y221569D01*
X311701Y221595D01*
X311531Y221609D01*
X311341Y221615D01*
Y222615D01*
X311531Y222620D01*
X311701Y222635D01*
X311851Y222659D01*
X311981Y222694D01*
X312091Y222740D01*
X312181Y222795D01*
X312251Y222860D01*
X312301Y222935D01*
X312331Y223020D01*
X312341Y223114D01*
Y221114D01*
D02*
G37*
G36*
X347922Y217549D02*
X347723Y217343D01*
X347409Y216974D01*
X347295Y216811D01*
X347209Y216662D01*
X347151Y216528D01*
X347122Y216408D01*
X347120Y216303D01*
X347147Y216212D01*
X347203Y216135D01*
X345801Y217537D01*
X345877Y217482D01*
X345968Y217455D01*
X346074Y217456D01*
X346194Y217485D01*
X346328Y217543D01*
X346477Y217629D01*
X346639Y217744D01*
X346817Y217886D01*
X347215Y218256D01*
X347922Y217549D01*
D02*
G37*
G36*
X315717Y216917D02*
X315747Y216832D01*
X315798Y216757D01*
X315869Y216692D01*
X315960Y216637D01*
X316071Y216592D01*
X316203Y216557D01*
X316354Y216532D01*
X316526Y216517D01*
X316719Y216512D01*
Y215512D01*
X316526Y215507D01*
X316354Y215492D01*
X316203Y215467D01*
X316071Y215432D01*
X315960Y215387D01*
X315869Y215332D01*
X315798Y215267D01*
X315747Y215192D01*
X315717Y215107D01*
X315707Y215012D01*
Y217012D01*
X315717Y216917D01*
D02*
G37*
G36*
X346431Y214477D02*
X346346Y214446D01*
X346271Y214396D01*
X346206Y214325D01*
X346151Y214234D01*
X346106Y214123D01*
X346071Y213991D01*
X346046Y213839D01*
X346031Y213667D01*
X346026Y213475D01*
X345026D01*
X345021Y213667D01*
X345006Y213839D01*
X344981Y213991D01*
X344946Y214123D01*
X344901Y214234D01*
X344846Y214325D01*
X344781Y214396D01*
X344706Y214446D01*
X344621Y214477D01*
X344526Y214487D01*
X346526D01*
X346431Y214477D01*
D02*
G37*
G36*
X314935D02*
X314850Y214446D01*
X314775Y214396D01*
X314710Y214325D01*
X314655Y214234D01*
X314610Y214123D01*
X314575Y213991D01*
X314550Y213839D01*
X314535Y213667D01*
X314530Y213475D01*
X313530D01*
X313525Y213667D01*
X313510Y213839D01*
X313485Y213991D01*
X313450Y214123D01*
X313405Y214234D01*
X313350Y214325D01*
X313285Y214396D01*
X313210Y214446D01*
X313125Y214477D01*
X313030Y214487D01*
X315030D01*
X314935Y214477D01*
D02*
G37*
G36*
X434322Y213132D02*
X434337Y212962D01*
X434362Y212812D01*
X434397Y212682D01*
X434442Y212572D01*
X434497Y212482D01*
X434562Y212412D01*
X434637Y212362D01*
X434722Y212332D01*
X434817Y212322D01*
X433329D01*
X433327Y212332D01*
X433325Y212362D01*
X433318Y212812D01*
X433317Y213322D01*
X434317D01*
X434322Y213132D01*
D02*
G37*
G36*
X440939Y207650D02*
X440766Y207791D01*
X440545Y207916D01*
X440274Y208027D01*
X439954Y208123D01*
X439584Y208204D01*
X439166Y208271D01*
X438181Y208359D01*
X436999Y208389D01*
Y209389D01*
X437614Y209396D01*
X439166Y209507D01*
X439584Y209573D01*
X439954Y209654D01*
X440274Y209750D01*
X440545Y209861D01*
X440766Y209987D01*
X440939Y210127D01*
Y207650D01*
D02*
G37*
G36*
X350021Y206541D02*
X350011Y206636D01*
X349981Y206721D01*
X349930Y206796D01*
X349859Y206861D01*
X349768Y206916D01*
X349657Y206961D01*
X349525Y206996D01*
X349374Y207021D01*
X349201Y207036D01*
X349009Y207041D01*
Y208041D01*
X349201Y208046D01*
X349374Y208061D01*
X349525Y208086D01*
X349657Y208121D01*
X349768Y208166D01*
X349859Y208221D01*
X349930Y208286D01*
X349981Y208361D01*
X350011Y208446D01*
X350021Y208541D01*
Y206541D01*
D02*
G37*
G36*
X318279Y206541D02*
X318269Y206636D01*
X318238Y206721D01*
X318188Y206796D01*
X318117Y206861D01*
X318026Y206916D01*
X317915Y206961D01*
X317783Y206996D01*
X317631Y207021D01*
X317459Y207036D01*
X317267Y207041D01*
Y208041D01*
X317459Y208046D01*
X317631Y208061D01*
X317783Y208086D01*
X317915Y208121D01*
X318026Y208166D01*
X318117Y208221D01*
X318188Y208286D01*
X318238Y208361D01*
X318269Y208446D01*
X318279Y208541D01*
Y206541D01*
D02*
G37*
G36*
X346036Y208851D02*
X346066Y208681D01*
X346116Y208531D01*
X346186Y208401D01*
X346276Y208291D01*
X346386Y208201D01*
X346516Y208131D01*
X346666Y208081D01*
X346836Y208051D01*
X347026Y208041D01*
Y207041D01*
X346836Y207031D01*
X346666Y207001D01*
X346516Y206951D01*
X346386Y206881D01*
X346276Y206791D01*
X346186Y206681D01*
X346116Y206551D01*
X346066Y206401D01*
X346036Y206231D01*
X346026Y206041D01*
X345026Y207541D01*
X346026Y209041D01*
X346036Y208851D01*
D02*
G37*
G36*
X314540Y208851D02*
X314570Y208681D01*
X314620Y208531D01*
X314690Y208401D01*
X314780Y208291D01*
X314890Y208201D01*
X315020Y208131D01*
X315170Y208081D01*
X315340Y208051D01*
X315530Y208041D01*
Y207041D01*
X315340Y207031D01*
X315170Y207001D01*
X315020Y206951D01*
X314890Y206881D01*
X314780Y206791D01*
X314690Y206681D01*
X314620Y206551D01*
X314570Y206401D01*
X314540Y206231D01*
X314530Y206041D01*
X313530Y207541D01*
X314530Y209041D01*
X314540Y208851D01*
D02*
G37*
G36*
X346031Y203945D02*
X346046Y203773D01*
X346071Y203622D01*
X346106Y203490D01*
X346151Y203379D01*
X346206Y203288D01*
X346271Y203217D01*
X346346Y203166D01*
X346431Y203136D01*
X346526Y203126D01*
X344526D01*
X344621Y203136D01*
X344706Y203166D01*
X344781Y203217D01*
X344846Y203288D01*
X344901Y203379D01*
X344946Y203490D01*
X344981Y203622D01*
X345006Y203773D01*
X345021Y203945D01*
X345026Y204138D01*
X346026D01*
X346031Y203945D01*
D02*
G37*
G36*
X314535D02*
X314550Y203773D01*
X314575Y203622D01*
X314610Y203490D01*
X314655Y203379D01*
X314710Y203288D01*
X314775Y203217D01*
X314850Y203166D01*
X314935Y203136D01*
X315030Y203126D01*
X313030D01*
X313125Y203136D01*
X313210Y203166D01*
X313285Y203217D01*
X313350Y203288D01*
X313405Y203379D01*
X313450Y203490D01*
X313485Y203622D01*
X313510Y203773D01*
X313525Y203945D01*
X313530Y204138D01*
X314530D01*
X314535Y203945D01*
D02*
G37*
G36*
X394742Y202150D02*
X394550Y202145D01*
X394379Y202130D01*
X394228Y202105D01*
X394096Y202070D01*
X393985Y202025D01*
X393894Y201970D01*
X393823Y201905D01*
X393772Y201830D01*
X393741Y201745D01*
X393730Y201650D01*
X393742Y203138D01*
X393752Y203140D01*
X393782Y203142D01*
X394232Y203149D01*
X394742Y203150D01*
Y202150D01*
D02*
G37*
G36*
X476383Y203398D02*
X476413Y203313D01*
X476464Y203238D01*
X476534Y203173D01*
X476625Y203118D01*
X476737Y203073D01*
X476868Y203038D01*
X477020Y203013D01*
X477192Y202998D01*
X477385Y202993D01*
Y201993D01*
X477192Y201988D01*
X477020Y201973D01*
X476868Y201948D01*
X476737Y201913D01*
X476625Y201868D01*
X476534Y201813D01*
X476464Y201748D01*
X476413Y201673D01*
X476383Y201588D01*
X476372Y201493D01*
Y203493D01*
X476383Y203398D01*
D02*
G37*
G36*
X473007Y201493D02*
X472997Y201588D01*
X472967Y201673D01*
X472917Y201748D01*
X472847Y201813D01*
X472757Y201868D01*
X472647Y201913D01*
X472517Y201948D01*
X472367Y201973D01*
X472197Y201988D01*
X472007Y201993D01*
Y202993D01*
X472197Y202998D01*
X472367Y203013D01*
X472517Y203038D01*
X472647Y203073D01*
X472757Y203118D01*
X472847Y203173D01*
X472917Y203238D01*
X472967Y203313D01*
X472997Y203398D01*
X473007Y203493D01*
Y201493D01*
D02*
G37*
G36*
X464933Y203398D02*
X464963Y203313D01*
X465013Y203238D01*
X465083Y203173D01*
X465173Y203118D01*
X465283Y203073D01*
X465413Y203038D01*
X465563Y203013D01*
X465733Y202998D01*
X465923Y202993D01*
Y201993D01*
X465733Y201988D01*
X465563Y201973D01*
X465413Y201948D01*
X465283Y201913D01*
X465173Y201868D01*
X465083Y201813D01*
X465013Y201748D01*
X464963Y201673D01*
X464933Y201588D01*
X464923Y201493D01*
Y203493D01*
X464933Y203398D01*
D02*
G37*
G36*
X461557Y201493D02*
X461547Y201588D01*
X461517Y201673D01*
X461466Y201748D01*
X461395Y201813D01*
X461304Y201868D01*
X461193Y201913D01*
X461061Y201948D01*
X460909Y201973D01*
X460737Y201988D01*
X460545Y201993D01*
Y202993D01*
X460737Y202998D01*
X460909Y203013D01*
X461061Y203038D01*
X461193Y203073D01*
X461304Y203118D01*
X461395Y203173D01*
X461466Y203238D01*
X461517Y203313D01*
X461547Y203398D01*
X461557Y203493D01*
Y201493D01*
D02*
G37*
G36*
X451022Y205456D02*
X450702Y205421D01*
X450415Y205316D01*
X450162Y205141D01*
X449943Y204896D01*
X449758Y204581D01*
X449606Y204196D01*
X449488Y203741D01*
X449404Y203216D01*
X449380Y202939D01*
X449482Y201305D01*
X449534Y201060D01*
X449595Y200885D01*
X449663Y200780D01*
X449740Y200745D01*
X445433D01*
X445510Y200780D01*
X445578Y200885D01*
X445639Y201060D01*
X445691Y201305D01*
X445736Y201620D01*
X445800Y202460D01*
X445807Y202766D01*
X445767Y203219D01*
X445679Y203746D01*
X445557Y204202D01*
X445399Y204588D01*
X445207Y204905D01*
X444979Y205151D01*
X444717Y205326D01*
X444419Y205432D01*
X444087Y205468D01*
X451022Y205456D01*
D02*
G37*
G36*
X231953Y200956D02*
X231983Y200871D01*
X232033Y200796D01*
X232104Y200731D01*
X232195Y200676D01*
X232307Y200631D01*
X232438Y200596D01*
X232590Y200571D01*
X232762Y200556D01*
X232954Y200551D01*
Y199551D01*
X232762Y199546D01*
X232590Y199531D01*
X232438Y199506D01*
X232307Y199471D01*
X232195Y199426D01*
X232104Y199371D01*
X232033Y199306D01*
X231983Y199231D01*
X231953Y199146D01*
X231942Y199051D01*
Y201051D01*
X231953Y200956D01*
D02*
G37*
G36*
X294611Y200905D02*
X294641Y200820D01*
X294691Y200745D01*
X294761Y200680D01*
X294851Y200625D01*
X294961Y200580D01*
X295091Y200545D01*
X295241Y200520D01*
X295411Y200505D01*
X295601Y200500D01*
Y199500D01*
X295411Y199495D01*
X295241Y199480D01*
X295091Y199455D01*
X294961Y199420D01*
X294851Y199375D01*
X294761Y199320D01*
X294691Y199255D01*
X294641Y199180D01*
X294611Y199095D01*
X294601Y199000D01*
Y201000D01*
X294611Y200905D01*
D02*
G37*
G36*
X291235Y199000D02*
X291225Y199095D01*
X291195Y199180D01*
X291144Y199255D01*
X291073Y199320D01*
X290982Y199375D01*
X290871Y199420D01*
X290739Y199455D01*
X290587Y199480D01*
X290416Y199495D01*
X290223Y199500D01*
Y200500D01*
X290416Y200505D01*
X290587Y200520D01*
X290739Y200545D01*
X290871Y200580D01*
X290982Y200625D01*
X291073Y200680D01*
X291144Y200745D01*
X291195Y200820D01*
X291225Y200905D01*
X291235Y201000D01*
Y199000D01*
D02*
G37*
G36*
X380869Y198132D02*
X380859Y198227D01*
X380829Y198312D01*
X380779Y198387D01*
X380709Y198452D01*
X380619Y198507D01*
X380509Y198552D01*
X380379Y198587D01*
X380229Y198612D01*
X380059Y198627D01*
X379869Y198632D01*
Y199632D01*
X380059Y199637D01*
X380229Y199652D01*
X380379Y199677D01*
X380509Y199712D01*
X380619Y199757D01*
X380709Y199812D01*
X380779Y199877D01*
X380829Y199952D01*
X380859Y200037D01*
X380869Y200132D01*
Y198132D01*
D02*
G37*
G36*
X376209Y200037D02*
X376239Y199952D01*
X376289Y199877D01*
X376359Y199812D01*
X376449Y199757D01*
X376559Y199712D01*
X376689Y199677D01*
X376839Y199652D01*
X377009Y199637D01*
X377199Y199632D01*
Y198632D01*
X377009Y198627D01*
X376839Y198612D01*
X376689Y198587D01*
X376559Y198552D01*
X376449Y198507D01*
X376359Y198452D01*
X376289Y198387D01*
X376239Y198312D01*
X376209Y198227D01*
X376199Y198132D01*
Y200132D01*
X376209Y200037D01*
D02*
G37*
G36*
X388254Y198016D02*
X388244Y198111D01*
X388214Y198196D01*
X388164Y198271D01*
X388094Y198336D01*
X388004Y198391D01*
X387894Y198436D01*
X387764Y198471D01*
X387614Y198496D01*
X387444Y198511D01*
X387254Y198516D01*
Y199516D01*
X387444Y199521D01*
X387614Y199536D01*
X387764Y199561D01*
X387894Y199596D01*
X388004Y199641D01*
X388094Y199696D01*
X388164Y199761D01*
X388214Y199836D01*
X388244Y199921D01*
X388254Y200016D01*
Y198016D01*
D02*
G37*
G36*
X384245Y199921D02*
X384275Y199836D01*
X384326Y199761D01*
X384397Y199696D01*
X384488Y199641D01*
X384599Y199596D01*
X384731Y199561D01*
X384882Y199536D01*
X385054Y199521D01*
X385247Y199516D01*
Y198516D01*
X385054Y198511D01*
X384882Y198496D01*
X384731Y198471D01*
X384599Y198436D01*
X384488Y198391D01*
X384397Y198336D01*
X384326Y198271D01*
X384275Y198196D01*
X384245Y198111D01*
X384235Y198016D01*
Y200016D01*
X384245Y199921D01*
D02*
G37*
G36*
X487189Y197819D02*
X487179Y197914D01*
X487149Y197999D01*
X487098Y198074D01*
X487027Y198139D01*
X486936Y198194D01*
X486825Y198239D01*
X486693Y198274D01*
X486542Y198299D01*
X486370Y198314D01*
X486177Y198319D01*
Y199319D01*
X486370Y199324D01*
X486542Y199339D01*
X486693Y199364D01*
X486825Y199399D01*
X486936Y199444D01*
X487027Y199499D01*
X487098Y199564D01*
X487149Y199639D01*
X487179Y199724D01*
X487189Y199819D01*
Y197819D01*
D02*
G37*
G36*
X250222Y199724D02*
X250253Y199639D01*
X250303Y199564D01*
X250374Y199499D01*
X250465Y199444D01*
X250576Y199399D01*
X250708Y199364D01*
X250860Y199339D01*
X251032Y199324D01*
X251224Y199319D01*
Y198319D01*
X251032Y198314D01*
X250860Y198299D01*
X250708Y198274D01*
X250576Y198239D01*
X250465Y198194D01*
X250374Y198139D01*
X250303Y198074D01*
X250253Y197999D01*
X250222Y197914D01*
X250212Y197819D01*
Y199819D01*
X250222Y199724D01*
D02*
G37*
G36*
X240339Y197425D02*
X240329Y197520D01*
X240299Y197605D01*
X240248Y197680D01*
X240177Y197745D01*
X240086Y197800D01*
X239975Y197845D01*
X239843Y197880D01*
X239691Y197905D01*
X239519Y197920D01*
X239327Y197925D01*
Y198925D01*
X239519Y198930D01*
X239691Y198945D01*
X239843Y198970D01*
X239975Y199005D01*
X240086Y199050D01*
X240177Y199105D01*
X240248Y199170D01*
X240299Y199245D01*
X240329Y199330D01*
X240339Y199425D01*
Y197425D01*
D02*
G37*
G36*
X299895Y194794D02*
X299818Y194866D01*
X299737Y194929D01*
X299650Y194985D01*
X299558Y195034D01*
X299460Y195076D01*
X299357Y195109D01*
X299249Y195135D01*
X299135Y195154D01*
X299016Y195166D01*
X298892Y195169D01*
Y196169D01*
X299016Y196173D01*
X299135Y196184D01*
X299249Y196203D01*
X299357Y196229D01*
X299460Y196263D01*
X299558Y196304D01*
X299650Y196353D01*
X299737Y196409D01*
X299818Y196473D01*
X299895Y196544D01*
Y194794D01*
D02*
G37*
G36*
X372834Y191913D02*
X372824Y192008D01*
X372793Y192093D01*
X372743Y192168D01*
X372672Y192233D01*
X372581Y192288D01*
X372469Y192333D01*
X372338Y192368D01*
X372186Y192393D01*
X372014Y192408D01*
X371822Y192413D01*
Y193413D01*
X372014Y193418D01*
X372186Y193433D01*
X372338Y193458D01*
X372469Y193493D01*
X372581Y193538D01*
X372672Y193593D01*
X372743Y193658D01*
X372793Y193733D01*
X372824Y193818D01*
X372834Y193913D01*
Y191913D01*
D02*
G37*
G36*
X370609Y194223D02*
X370639Y194053D01*
X370689Y193903D01*
X370759Y193773D01*
X370849Y193663D01*
X370959Y193573D01*
X371089Y193503D01*
X371239Y193453D01*
X371409Y193423D01*
X371599Y193413D01*
Y192413D01*
X371409Y192403D01*
X371239Y192373D01*
X371089Y192323D01*
X370959Y192253D01*
X370849Y192163D01*
X370759Y192053D01*
X370689Y191923D01*
X370639Y191773D01*
X370609Y191603D01*
X370599Y191413D01*
X369599Y192913D01*
X370599Y194413D01*
X370609Y194223D01*
D02*
G37*
G36*
X449673Y193569D02*
X449613Y193464D01*
X449560Y193289D01*
X449515Y193044D01*
X449476Y192729D01*
X449419Y191889D01*
X449388Y190104D01*
X445888D01*
X445883Y190769D01*
X445724Y193044D01*
X445665Y193289D01*
X445597Y193464D01*
X445520Y193569D01*
X445433Y193604D01*
X449740D01*
X449673Y193569D01*
D02*
G37*
G36*
X299107Y194436D02*
X299162Y194422D01*
X299210Y194407D01*
X299252Y194389D01*
X299289Y194369D01*
X299323Y194347D01*
X299354Y194323D01*
X299407Y194273D01*
X299457Y194242D01*
X299683Y194016D01*
X300399Y193719D01*
X300471D01*
X300745Y193386D01*
Y181949D01*
X300245Y181883D01*
X300054Y182594D01*
X299347Y183820D01*
X298346Y184821D01*
X297120Y185528D01*
X295753Y185895D01*
X294338D01*
X292971Y185528D01*
X291745Y184821D01*
X290745Y183820D01*
X290037Y182594D01*
X289671Y181227D01*
Y179812D01*
X290037Y178445D01*
X290745Y177219D01*
X291745Y176219D01*
X292971Y175511D01*
X294338Y175145D01*
X295753D01*
X297120Y175511D01*
X298346Y176219D01*
X299347Y177219D01*
X300054Y178445D01*
X300245Y179156D01*
X300745Y179090D01*
Y173495D01*
X298168Y170918D01*
X297636Y171092D01*
X297515Y171543D01*
X297166Y172147D01*
X296673Y172640D01*
X296069Y172989D01*
X295395Y173170D01*
X294697D01*
X294023Y172989D01*
X293419Y172640D01*
X292925Y172147D01*
X292576Y171543D01*
X292396Y170869D01*
Y170171D01*
X292576Y169497D01*
X292763Y169173D01*
X292637Y168674D01*
X292130Y168868D01*
X291953Y169294D01*
X291320Y169927D01*
X290493Y170270D01*
X289598D01*
X288771Y169927D01*
X288138Y169294D01*
X287796Y168467D01*
Y167572D01*
X288026Y167015D01*
X287769Y166607D01*
X287323D01*
X287065Y167015D01*
X287296Y167572D01*
Y168467D01*
X286953Y169294D01*
X286320Y169927D01*
X285493Y170270D01*
X284598D01*
X283771Y169927D01*
X283138Y169294D01*
X282840Y168574D01*
X282334Y168350D01*
X282296Y168383D01*
Y168467D01*
X281953Y169294D01*
X281320Y169927D01*
X280935Y170087D01*
Y170628D01*
X281490Y170858D01*
X282207Y171575D01*
X282437Y172130D01*
X282979D01*
X283138Y171745D01*
X283771Y171112D01*
X284598Y170770D01*
X285493D01*
X286320Y171112D01*
X286953Y171745D01*
X287296Y172572D01*
Y173467D01*
X286953Y174294D01*
X286566Y174681D01*
X286543Y174715D01*
X286533Y174722D01*
X286526Y174731D01*
X286458Y174795D01*
X286421Y174837D01*
X286388Y174883D01*
X286358Y174937D01*
X286330Y174999D01*
X286305Y175072D01*
X286284Y175157D01*
X286268Y175255D01*
X286263Y175304D01*
Y188076D01*
X292633Y194446D01*
X299045D01*
X299107Y194436D01*
D02*
G37*
G36*
X338507Y181625D02*
X338537Y181455D01*
X338587Y181305D01*
X338657Y181175D01*
X338747Y181065D01*
X338857Y180975D01*
X338987Y180905D01*
X339137Y180855D01*
X339307Y180825D01*
X339497Y180815D01*
X337997Y179815D01*
X336497Y180815D01*
X336687Y180825D01*
X336857Y180855D01*
X337007Y180905D01*
X337137Y180975D01*
X337247Y181065D01*
X337337Y181175D01*
X337407Y181305D01*
X337457Y181455D01*
X337487Y181625D01*
X337497Y181815D01*
X338497D01*
X338507Y181625D01*
D02*
G37*
G36*
X302479D02*
X302508Y181455D01*
X302558Y181305D01*
X302628Y181175D01*
X302718Y181065D01*
X302829Y180975D01*
X302958Y180905D01*
X303109Y180855D01*
X303278Y180825D01*
X303468Y180815D01*
Y179815D01*
X303278Y179805D01*
X303109Y179775D01*
X302958Y179725D01*
X302829Y179655D01*
X302718Y179565D01*
X302628Y179455D01*
X302558Y179325D01*
X302508Y179175D01*
X302479Y179005D01*
X302468Y178815D01*
X301468Y180315D01*
X302468Y181815D01*
X302479Y181625D01*
D02*
G37*
G36*
X285544Y175321D02*
X285559Y175162D01*
X285584Y175012D01*
X285620Y174871D01*
X285665Y174738D01*
X285720Y174615D01*
X285785Y174500D01*
X285860Y174394D01*
X285946Y174296D01*
X286041Y174208D01*
X284041Y174200D01*
X284136Y174289D01*
X284220Y174387D01*
X284295Y174494D01*
X284360Y174609D01*
X284415Y174733D01*
X284460Y174866D01*
X284494Y175008D01*
X284519Y175158D01*
X284534Y175317D01*
X284539Y175485D01*
X285539Y175489D01*
X285544Y175321D01*
D02*
G37*
G36*
X454515Y174610D02*
X454590Y173878D01*
X454656Y173546D01*
X454740Y173236D01*
X454843Y172950D01*
X454965Y172686D01*
X455106Y172446D01*
X455265Y172228D01*
X455443Y172033D01*
X450069D01*
X450247Y172228D01*
X450406Y172446D01*
X450547Y172686D01*
X450669Y172950D01*
X450772Y173236D01*
X450856Y173546D01*
X450922Y173878D01*
X450968Y174233D01*
X450996Y174610D01*
X451006Y175011D01*
X454506D01*
X454515Y174610D01*
D02*
G37*
G36*
X259630Y171670D02*
X259712Y171606D01*
X259799Y171550D01*
X259891Y171501D01*
X259989Y171460D01*
X260092Y171426D01*
X260200Y171400D01*
X260314Y171381D01*
X260433Y171370D01*
X260557Y171366D01*
Y170366D01*
X260433Y170362D01*
X260314Y170351D01*
X260200Y170332D01*
X260092Y170306D01*
X259989Y170272D01*
X259891Y170231D01*
X259799Y170182D01*
X259712Y170126D01*
X259630Y170062D01*
X259554Y169991D01*
Y171741D01*
X259630Y171670D01*
D02*
G37*
G36*
X268777Y170003D02*
X268900Y169901D01*
X269024Y169812D01*
X269148Y169737D01*
X269274Y169675D01*
X269401Y169626D01*
X269528Y169591D01*
X269656Y169569D01*
X269785Y169560D01*
X269915Y169564D01*
X268501Y168150D01*
X268506Y168280D01*
X268497Y168409D01*
X268475Y168537D01*
X268439Y168665D01*
X268390Y168791D01*
X268328Y168917D01*
X268253Y169042D01*
X268164Y169166D01*
X268063Y169289D01*
X267948Y169411D01*
X268655Y170118D01*
X268777Y170003D01*
D02*
G37*
G36*
X278861Y167020D02*
X278773Y167115D01*
X278675Y167200D01*
X278569Y167275D01*
X278453Y167340D01*
X278330Y167395D01*
X278197Y167440D01*
X278056Y167475D01*
X277905Y167500D01*
X277746Y167515D01*
X277579Y167520D01*
Y168520D01*
X277746Y168525D01*
X277905Y168540D01*
X278056Y168565D01*
X278197Y168600D01*
X278330Y168645D01*
X278453Y168700D01*
X278569Y168765D01*
X278675Y168840D01*
X278773Y168925D01*
X278861Y169020D01*
Y167020D01*
D02*
G37*
G36*
X276319Y168925D02*
X276416Y168840D01*
X276523Y168765D01*
X276638Y168700D01*
X276762Y168645D01*
X276894Y168600D01*
X277036Y168565D01*
X277186Y168540D01*
X277345Y168525D01*
X277513Y168520D01*
Y167520D01*
X277345Y167515D01*
X277186Y167500D01*
X277036Y167475D01*
X276894Y167440D01*
X276762Y167395D01*
X276638Y167340D01*
X276523Y167275D01*
X276416Y167200D01*
X276319Y167115D01*
X276230Y167020D01*
Y169020D01*
X276319Y168925D01*
D02*
G37*
G36*
X455692Y171800D02*
X455910Y171641D01*
X456151Y171501D01*
X456415Y171379D01*
X456701Y171276D01*
X457010Y171191D01*
X457342Y171126D01*
X457697Y171079D01*
X458075Y171051D01*
X458475Y171041D01*
Y167541D01*
X458075Y167532D01*
X457342Y167457D01*
X457010Y167391D01*
X456701Y167307D01*
X456415Y167204D01*
X456151Y167082D01*
X455910Y166942D01*
X455692Y166782D01*
X455497Y166604D01*
Y171978D01*
X455692Y171800D01*
D02*
G37*
G36*
X281586Y167759D02*
X281595Y167630D01*
X281617Y167502D01*
X281652Y167375D01*
X281701Y167248D01*
X281763Y167122D01*
X281838Y166998D01*
X281927Y166874D01*
X282029Y166751D01*
X282144Y166629D01*
X281437Y165922D01*
X281314Y166037D01*
X281191Y166139D01*
X281068Y166227D01*
X280943Y166302D01*
X280817Y166364D01*
X280691Y166413D01*
X280563Y166448D01*
X280435Y166471D01*
X280306Y166480D01*
X280176Y166475D01*
X281590Y167889D01*
X281586Y167759D01*
D02*
G37*
G36*
X486036Y161232D02*
X482536Y161242D01*
Y164742D01*
X483201Y164750D01*
X484776Y164870D01*
X485161Y164941D01*
X485476Y165029D01*
X485721Y165133D01*
X485896Y165252D01*
X486001Y165388D01*
X486036Y165539D01*
Y161232D01*
D02*
G37*
%LPC*%
G36*
X393100Y331390D02*
X391051D01*
Y329189D01*
X393100D01*
Y331390D01*
D02*
G37*
G36*
X365669Y279819D02*
X363468D01*
Y277769D01*
X365669D01*
Y279819D01*
D02*
G37*
G36*
X362468D02*
X360267D01*
Y277769D01*
X362468D01*
Y279819D01*
D02*
G37*
G36*
X365669Y276769D02*
X363468D01*
Y274720D01*
X365669D01*
Y276769D01*
D02*
G37*
G36*
X362468D02*
X360267D01*
Y274720D01*
X362468D01*
Y276769D01*
D02*
G37*
G36*
X355224Y272701D02*
Y270972D01*
X356953D01*
X356632Y271747D01*
X355999Y272380D01*
X355224Y272701D01*
D02*
G37*
G36*
X354224D02*
X353450Y272380D01*
X352817Y271747D01*
X352496Y270972D01*
X354224D01*
Y272701D01*
D02*
G37*
G36*
X403992Y272103D02*
X401943D01*
Y269902D01*
X403992D01*
Y272103D01*
D02*
G37*
G36*
X356953Y269972D02*
X355224D01*
Y268244D01*
X355999Y268565D01*
X356632Y269198D01*
X356953Y269972D01*
D02*
G37*
G36*
X354224D02*
X352496D01*
X352817Y269198D01*
X353450Y268565D01*
X354224Y268244D01*
Y269972D01*
D02*
G37*
G36*
X403992Y268902D02*
X401943D01*
Y266701D01*
X403992D01*
Y268902D01*
D02*
G37*
G36*
X404024Y264201D02*
X401975D01*
Y262000D01*
X404024D01*
Y264201D01*
D02*
G37*
G36*
Y261000D02*
X401975D01*
Y258800D01*
X404024D01*
Y261000D01*
D02*
G37*
G36*
X398532Y257346D02*
Y255618D01*
X400260D01*
X399939Y256393D01*
X399306Y257026D01*
X398532Y257346D01*
D02*
G37*
G36*
X397532D02*
X396757Y257026D01*
X396124Y256393D01*
X395803Y255618D01*
X397532D01*
Y257346D01*
D02*
G37*
G36*
X400260Y254618D02*
X398532D01*
Y252890D01*
X399306Y253211D01*
X399939Y253844D01*
X400260Y254618D01*
D02*
G37*
G36*
X397532D02*
X395803D01*
X396124Y253844D01*
X396757Y253211D01*
X397532Y252890D01*
Y254618D01*
D02*
G37*
G36*
X290493Y175270D02*
X289598D01*
X288771Y174927D01*
X288138Y174294D01*
X287796Y173467D01*
Y172572D01*
X288138Y171745D01*
X288771Y171112D01*
X289598Y170770D01*
X290493D01*
X291320Y171112D01*
X291953Y171745D01*
X292296Y172572D01*
Y173467D01*
X291953Y174294D01*
X291320Y174927D01*
X290493Y175270D01*
D02*
G37*
%LPD*%
G36*
X335135Y312771D02*
X335125Y312866D01*
X335095Y312951D01*
X335044Y313026D01*
X334973Y313091D01*
X334882Y313146D01*
X334771Y313191D01*
X334639Y313226D01*
X334487Y313251D01*
X334315Y313266D01*
X334123Y313271D01*
Y314271D01*
X334315Y314276D01*
X334487Y314291D01*
X334639Y314316D01*
X334771Y314351D01*
X334882Y314396D01*
X334973Y314451D01*
X335044Y314516D01*
X335095Y314591D01*
X335125Y314676D01*
X335135Y314771D01*
Y312771D01*
D02*
G37*
G36*
X328499Y314676D02*
X328530Y314591D01*
X328580Y314516D01*
X328651Y314451D01*
X328742Y314396D01*
X328853Y314351D01*
X328985Y314316D01*
X329137Y314291D01*
X329309Y314276D01*
X329501Y314271D01*
Y313271D01*
X329309Y313266D01*
X329137Y313251D01*
X328985Y313226D01*
X328853Y313191D01*
X328742Y313146D01*
X328651Y313091D01*
X328580Y313026D01*
X328530Y312951D01*
X328499Y312866D01*
X328489Y312771D01*
Y314771D01*
X328499Y314676D01*
D02*
G37*
G36*
X245063Y298048D02*
X245145Y297984D01*
X245232Y297928D01*
X245324Y297879D01*
X245422Y297838D01*
X245525Y297804D01*
X245633Y297778D01*
X245747Y297759D01*
X245866Y297748D01*
X245990Y297744D01*
Y296744D01*
X245866Y296740D01*
X245747Y296729D01*
X245633Y296710D01*
X245525Y296684D01*
X245422Y296650D01*
X245324Y296609D01*
X245232Y296560D01*
X245145Y296504D01*
X245063Y296440D01*
X244987Y296369D01*
Y298119D01*
X245063Y298048D01*
D02*
G37*
G36*
X249262Y296244D02*
X249252Y296339D01*
X249222Y296424D01*
X249171Y296499D01*
X249100Y296564D01*
X249009Y296619D01*
X248898Y296664D01*
X248766Y296699D01*
X248615Y296724D01*
X248443Y296739D01*
X248250Y296744D01*
Y297744D01*
X248443Y297749D01*
X248615Y297764D01*
X248766Y297789D01*
X248898Y297824D01*
X249009Y297869D01*
X249100Y297924D01*
X249171Y297989D01*
X249222Y298064D01*
X249252Y298149D01*
X249262Y298244D01*
Y296244D01*
D02*
G37*
G36*
X251496Y295152D02*
X251411Y295122D01*
X251336Y295072D01*
X251271Y295002D01*
X251216Y294912D01*
X251170Y294802D01*
X251135Y294672D01*
X251111Y294522D01*
X251096Y294352D01*
X251091Y294162D01*
X250091D01*
X250085Y294352D01*
X250071Y294522D01*
X250045Y294672D01*
X250010Y294802D01*
X249966Y294912D01*
X249910Y295002D01*
X249846Y295072D01*
X249770Y295122D01*
X249686Y295152D01*
X249590Y295162D01*
X251590D01*
X251496Y295152D01*
D02*
G37*
G36*
X251108Y292333D02*
X251162Y292094D01*
X251250Y291842D01*
X251374Y291578D01*
X251534Y291300D01*
X251729Y291010D01*
X251960Y290707D01*
X252527Y290062D01*
X252864Y289721D01*
X248317D01*
X248654Y290062D01*
X249221Y290707D01*
X249452Y291010D01*
X249647Y291300D01*
X249807Y291578D01*
X249931Y291842D01*
X250020Y292094D01*
X250073Y292333D01*
X250091Y292560D01*
X251091D01*
X251108Y292333D01*
D02*
G37*
G36*
X314462Y269204D02*
X314386Y269275D01*
X314304Y269339D01*
X314217Y269395D01*
X314125Y269444D01*
X314027Y269485D01*
X313924Y269519D01*
X313816Y269545D01*
X313702Y269564D01*
X313583Y269575D01*
X313459Y269579D01*
Y270579D01*
X313583Y270583D01*
X313702Y270594D01*
X313816Y270613D01*
X313924Y270639D01*
X314027Y270672D01*
X314125Y270714D01*
X314217Y270762D01*
X314304Y270819D01*
X314386Y270883D01*
X314462Y270954D01*
Y269204D01*
D02*
G37*
G36*
X309306Y260979D02*
X309321Y260807D01*
X309346Y260655D01*
X309381Y260524D01*
X309426Y260413D01*
X309481Y260321D01*
X309546Y260251D01*
X309621Y260200D01*
X309706Y260170D01*
X309801Y260159D01*
X307801D01*
X307896Y260170D01*
X307981Y260200D01*
X308056Y260251D01*
X308121Y260321D01*
X308176Y260413D01*
X308221Y260524D01*
X308256Y260655D01*
X308281Y260807D01*
X308296Y260979D01*
X308301Y261172D01*
X309301D01*
X309306Y260979D01*
D02*
G37*
G36*
X307113Y257858D02*
X307103Y257953D01*
X307073Y258038D01*
X307023Y258113D01*
X306953Y258178D01*
X306863Y258233D01*
X306753Y258278D01*
X306623Y258313D01*
X306473Y258338D01*
X306303Y258353D01*
X306113Y258358D01*
Y259358D01*
X306303Y259363D01*
X306473Y259378D01*
X306623Y259403D01*
X306753Y259438D01*
X306863Y259483D01*
X306953Y259538D01*
X307023Y259603D01*
X307073Y259678D01*
X307103Y259763D01*
X307113Y259858D01*
Y257858D01*
D02*
G37*
G36*
X301480Y260795D02*
X302124Y260227D01*
X302427Y259997D01*
X302717Y259802D01*
X302995Y259642D01*
X303259Y259518D01*
X303512Y259429D01*
X303751Y259376D01*
X303977Y259358D01*
Y258358D01*
X303751Y258341D01*
X303512Y258287D01*
X303259Y258199D01*
X302995Y258074D01*
X302717Y257915D01*
X302427Y257720D01*
X302124Y257489D01*
X301480Y256922D01*
X301138Y256585D01*
Y261132D01*
X301480Y260795D01*
D02*
G37*
G36*
X329666Y250997D02*
X329581Y250966D01*
X329506Y250916D01*
X329441Y250845D01*
X329386Y250754D01*
X329341Y250642D01*
X329306Y250511D01*
X329281Y250359D01*
X329266Y250187D01*
X329261Y249995D01*
X328261D01*
X328256Y250187D01*
X328241Y250359D01*
X328216Y250511D01*
X328181Y250642D01*
X328136Y250754D01*
X328081Y250845D01*
X328016Y250916D01*
X327941Y250966D01*
X327856Y250997D01*
X327761Y251007D01*
X329761D01*
X329666Y250997D01*
D02*
G37*
G36*
X329264Y244686D02*
X329286Y244366D01*
X329305Y244236D01*
X329330Y244126D01*
X329360Y244036D01*
X329396Y243966D01*
X329437Y243916D01*
X329484Y243886D01*
X329537Y243876D01*
X327986D01*
X328038Y243886D01*
X328085Y243916D01*
X328126Y243966D01*
X328162Y244036D01*
X328192Y244126D01*
X328217Y244236D01*
X328236Y244366D01*
X328250Y244516D01*
X328261Y244876D01*
X329261D01*
X329264Y244686D01*
D02*
G37*
G36*
X299218Y211807D02*
X299129Y211774D01*
X299040Y211736D01*
X298951Y211691D01*
X298772Y211584D01*
X298683Y211521D01*
X298505Y211379D01*
X298416Y211298D01*
X298327Y211212D01*
X297344Y211643D01*
X297430Y211736D01*
X297504Y211829D01*
X297566Y211922D01*
X297615Y212014D01*
X297651Y212107D01*
X297674Y212200D01*
X297685Y212292D01*
X297684Y212385D01*
X297669Y212477D01*
X297642Y212569D01*
X299218Y211807D01*
D02*
G37*
G36*
X295308Y208193D02*
X295102Y207980D01*
X294779Y207602D01*
X294663Y207437D01*
X294576Y207287D01*
X294519Y207154D01*
X294492Y207036D01*
X294494Y206935D01*
X294527Y206849D01*
X294589Y206779D01*
X293035Y208030D01*
X293122Y207984D01*
X293229Y207973D01*
X293356Y207996D01*
X293503Y208052D01*
X293670Y208143D01*
X293856Y208267D01*
X294063Y208425D01*
X294536Y208842D01*
X294803Y209102D01*
X295308Y208193D01*
D02*
G37*
G36*
X463008Y260449D02*
X462945Y260367D01*
X462888Y260280D01*
X462840Y260188D01*
X462799Y260090D01*
X462765Y259987D01*
X462739Y259879D01*
X462720Y259765D01*
X462709Y259646D01*
X462705Y259522D01*
X461705D01*
X461701Y259646D01*
X461690Y259765D01*
X461671Y259879D01*
X461645Y259987D01*
X461611Y260090D01*
X461570Y260188D01*
X461521Y260280D01*
X461465Y260367D01*
X461401Y260449D01*
X461330Y260525D01*
X463080D01*
X463008Y260449D01*
D02*
G37*
G36*
X463891Y210940D02*
X463906Y210768D01*
X463931Y210616D01*
X463966Y210485D01*
X464011Y210373D01*
X464066Y210282D01*
X464131Y210211D01*
X464206Y210161D01*
X464291Y210130D01*
X464386Y210120D01*
X462386D01*
X462481Y210130D01*
X462566Y210161D01*
X462641Y210211D01*
X462706Y210282D01*
X462761Y210373D01*
X462806Y210485D01*
X462841Y210616D01*
X462866Y210768D01*
X462881Y210940D01*
X462886Y211132D01*
X463886D01*
X463891Y210940D01*
D02*
G37*
D15*
X502362Y206693D02*
X514961Y194095D01*
Y175197D02*
Y194095D01*
X486321Y206693D02*
X502362D01*
X438976Y289370D02*
X447839D01*
X480022Y212992D02*
X486321Y206693D01*
X470472Y212992D02*
X480022D01*
X463234Y208595D02*
X466075D01*
X470472Y212992D01*
X275046Y173020D02*
X280046D01*
X422078Y305071D02*
X422519Y305512D01*
X431102D01*
X337997Y180315D02*
Y219493D01*
X370099Y192913D02*
Y203523D01*
Y188619D02*
Y192913D01*
X374394D02*
X374511Y193030D01*
X370099Y192913D02*
X374394D01*
X361795Y180315D02*
X370099Y188619D01*
X374359Y193030D02*
X374511D01*
X362992Y210630D02*
X370099Y203523D01*
X337997Y180315D02*
X361795D01*
X340945Y222441D02*
X345199D01*
X337997Y219493D02*
X340945Y222441D01*
X301969Y180315D02*
X337997D01*
X301969D02*
Y193386D01*
Y172988D02*
Y180315D01*
X345199Y222441D02*
X345526Y222114D01*
X362992Y210630D02*
Y224803D01*
X364724Y226535D01*
X372034D01*
X376378Y327634D02*
X376690Y327321D01*
X376378Y327634D02*
Y333422D01*
X443303Y303547D02*
X472043D01*
X410715Y309055D02*
X437795D01*
X443303Y303547D01*
X425298Y312455D02*
X440695D01*
X438851Y310755D02*
X444359Y305247D01*
X410011Y310755D02*
X438851D01*
X444359Y305247D02*
X520208D01*
X440695Y312455D02*
X444488Y308661D01*
X463779D01*
X421948Y305200D02*
X422078Y305071D01*
X414072Y305200D02*
X421948D01*
X383687Y238189D02*
X402362D01*
X372034Y226535D02*
X383687Y238189D01*
X403601Y278010D02*
X404189Y278598D01*
X403012Y277422D02*
X403601Y278010D01*
X403150Y254724D02*
X405905D01*
X408661Y257480D01*
Y272949D01*
X403601Y278010D02*
X408661Y272949D01*
X463234Y208595D02*
X463386Y208747D01*
Y212598D01*
X462205Y213779D02*
X463386Y212598D01*
X462205Y213779D02*
Y261417D01*
X404189Y278598D02*
Y283280D01*
X398331Y277422D02*
X403012D01*
X448425Y289956D02*
Y298383D01*
X447839Y289370D02*
X448425Y289956D01*
X447839Y298968D02*
X448425Y298383D01*
X422078Y298968D02*
X447839D01*
X433811Y283730D02*
X434252Y283289D01*
X433319Y284222D02*
X433811Y283730D01*
X434252Y276772D02*
Y283289D01*
X355906Y283465D02*
X362875D01*
X362968Y283372D01*
X355327Y289185D02*
X370819D01*
X350000Y264759D02*
Y283858D01*
X355327Y289185D01*
X315153Y264173D02*
X349414D01*
X350000Y264759D01*
X309122Y222114D02*
X314030D01*
X308268Y221260D02*
X309122Y222114D01*
X308268Y199685D02*
Y221260D01*
X304331Y203379D02*
Y223228D01*
X301969Y193386D02*
X308268Y199685D01*
X300952Y200000D02*
X304331Y203379D01*
X293314Y200000D02*
X300952D01*
X296223Y167242D02*
X301969Y172988D01*
X293460Y167242D02*
X296223D01*
X282796Y165270D02*
X291487D01*
X293460Y167242D01*
X280046Y168020D02*
X282796Y165270D01*
X275046Y168020D02*
X280046D01*
X292126Y195669D02*
X300787D01*
X258661Y170866D02*
X267199D01*
X298819Y212411D02*
Y212992D01*
X476782Y315235D02*
X516180D01*
X336221Y356201D02*
X336713Y356693D01*
X335925Y355906D02*
X336221Y356201D01*
X336713Y356693D02*
X342913D01*
X259842Y355413D02*
X260335Y355906D01*
X259548Y355119D02*
X259842Y355413D01*
X260335Y355906D02*
X266142D01*
X244094Y297244D02*
X250394D01*
X250787Y296850D01*
X312205Y270079D02*
X315354D01*
X308801Y266675D02*
X312205Y270079D01*
X308801Y258634D02*
Y266675D01*
X314181Y222114D02*
X320914Y228847D01*
X321367D01*
X314030Y222114D02*
X314181D01*
X321367Y228847D02*
X321654Y229134D01*
X294113Y207554D02*
Y207705D01*
X298819Y212411D01*
X292912Y206504D02*
X293064D01*
X294113Y207554D01*
X528740Y302362D02*
X541339Y314961D01*
X498819Y302362D02*
X528740D01*
X497507Y301050D02*
X498819Y302362D01*
X497507Y297350D02*
Y301050D01*
X541339Y289681D02*
Y314961D01*
X547459Y283561D02*
X547611D01*
X541339Y289681D02*
X547459Y283561D01*
X497441Y287402D02*
Y297284D01*
X497507Y297350D01*
X547611Y262287D02*
Y283561D01*
X545669Y260346D02*
X547611Y262287D01*
X545669Y258858D02*
Y260346D01*
X479160Y315354D02*
Y331773D01*
X390473Y303618D02*
Y310775D01*
X390451Y303595D02*
X390473Y303618D01*
X390457Y310792D02*
X390473Y310775D01*
X396457Y340945D02*
X404456Y332946D01*
X396457Y324410D02*
X400000Y327953D01*
X395669Y338976D02*
X402756Y331890D01*
Y325239D02*
Y331890D01*
X404456Y324535D02*
Y332946D01*
X398421Y310882D02*
Y313669D01*
X401950Y317198D01*
X394816Y314895D02*
X404456Y324535D01*
X394112Y316595D02*
X402756Y325239D01*
X398331Y310792D02*
X398421Y310882D01*
X396453Y314105D02*
X401245Y318898D01*
X421260D01*
X401950Y317198D02*
X420556D01*
X390464Y324410D02*
X396457D01*
X393306Y314895D02*
X394816D01*
X541339Y314961D02*
X546850D01*
X548425Y316535D01*
Y340158D01*
X545669Y342913D02*
X548425Y340158D01*
X538583Y342913D02*
X545669D01*
X535433Y339764D02*
X538583Y342913D01*
X535433Y325590D02*
Y339764D01*
X516180Y315235D02*
X525078D01*
X535433Y325590D01*
X479160Y331773D02*
Y340142D01*
X494924Y355906D01*
X392516Y310882D02*
Y314105D01*
X393306Y314895D01*
X390464Y324409D02*
X390464Y324410D01*
X433817Y211834D02*
Y216042D01*
X414961Y234899D02*
X433817Y216042D01*
X436762Y208889D02*
X442176D01*
X433817Y211834D02*
X436762Y208889D01*
X414961Y234899D02*
Y246850D01*
X413386Y253150D02*
Y281678D01*
X408268Y248031D02*
X413386Y253150D01*
X411417Y254724D02*
Y281242D01*
X407087Y250394D02*
X411417Y254724D01*
X404279Y295000D02*
X409330D01*
X409449Y294882D01*
X404189Y295091D02*
X404279Y295000D01*
X411024Y212598D02*
Y246850D01*
X401075Y202650D02*
X411024Y212598D01*
X390998Y199016D02*
Y200394D01*
X393254Y202650D01*
X401075D01*
X354370Y254279D02*
Y254685D01*
Y254279D02*
X355993Y252656D01*
X323099Y216012D02*
X353543Y246457D01*
Y248819D01*
X355993Y226328D02*
Y252656D01*
X345526Y216012D02*
X345678D01*
X355993Y226328D01*
X353543Y260630D02*
X366142Y248031D01*
X355637Y262473D02*
X367717Y250394D01*
X368110Y258661D02*
Y259067D01*
X367717Y250394D02*
X407087D01*
X372047Y258661D02*
Y270479D01*
X366142Y248031D02*
X408268D01*
X394488Y304331D02*
Y307081D01*
X394394Y310792D02*
X394484Y310701D01*
Y307085D02*
Y310701D01*
Y307085D02*
X394488Y307081D01*
X314030Y216012D02*
X323099D01*
X345526Y207541D02*
X351536D01*
X351546Y207530D01*
X345526Y207541D02*
Y216012D01*
Y199069D02*
Y207541D01*
X345472Y199016D02*
X345526Y199069D01*
X314030Y207541D02*
Y216012D01*
Y199069D02*
Y207541D01*
X319569D01*
X319804Y207776D01*
X313976Y199016D02*
X314030Y199069D01*
X308577Y258858D02*
X308801Y258634D01*
X298819Y258858D02*
X308577D01*
X250590Y287402D02*
Y296654D01*
X250787Y296850D01*
X318484Y355906D02*
X335925D01*
X234449Y355119D02*
X259548D01*
X520208Y305247D02*
X541339Y326378D01*
Y334646D01*
X463779Y308661D02*
X475807Y320689D01*
Y355337D01*
X472043Y303547D02*
X494488Y281102D01*
X411874Y301847D02*
X470736D01*
X523567Y249016D01*
X409885Y310630D02*
X410011Y310755D01*
X409449Y310630D02*
X409885D01*
X420556Y317198D02*
X425298Y312455D01*
X409449Y307789D02*
X410715Y309055D01*
X406502Y304933D02*
X406592Y305024D01*
X409449Y303551D02*
Y307789D01*
X404189Y304933D02*
X406502D01*
X406592Y305024D02*
Y307773D01*
X409449Y310630D01*
X404189Y302965D02*
X408863D01*
X409449Y303551D01*
X442913Y313779D02*
X447581D01*
X440551Y316142D02*
X442913Y313779D01*
X447581D02*
X448575Y312785D01*
X437697Y316142D02*
X440551D01*
X424016D02*
X431595D01*
X475239Y355906D02*
X475807Y355337D01*
X421260Y318898D02*
X424016Y316142D01*
X237991Y338976D02*
X395669D01*
X300000Y340945D02*
X396457D01*
X391069Y316595D02*
X394112D01*
X388666Y314192D02*
X391069Y316595D01*
X388666Y313757D02*
Y314192D01*
X388579Y313669D02*
X388666Y313757D01*
X388579Y310882D02*
Y313669D01*
X392425Y310792D02*
X392516Y310882D01*
X298798Y342146D02*
X300000Y340945D01*
X298798Y342146D02*
Y355906D01*
X386520Y315497D02*
X387428Y316406D01*
Y334226D01*
X386520Y310792D02*
Y315497D01*
X385039Y336614D02*
X387428Y334226D01*
X384362Y324409D02*
Y331803D01*
X384449Y331890D01*
X384252Y324299D02*
X384362Y324409D01*
X380614Y315653D02*
X384252Y319291D01*
Y324299D01*
X380614Y310792D02*
Y315653D01*
X322441Y336614D02*
X385039D01*
X289370Y303543D02*
X322441Y336614D01*
X234449Y335434D02*
X237991Y338976D01*
X388488Y310792D02*
X388579Y310882D01*
X504724Y281102D02*
X506861Y283239D01*
Y286980D02*
X507283Y287402D01*
X494488Y281102D02*
X504724D01*
X506861Y283239D02*
Y286980D01*
X411023Y300996D02*
X411874Y301847D01*
X404189Y300996D02*
X411023D01*
X523567Y249016D02*
X545669D01*
X457874Y204331D02*
X459712Y202493D01*
X455118Y256693D02*
X457874Y253937D01*
Y204331D02*
Y253937D01*
X459712Y202493D02*
X463234D01*
X474696D01*
X419685Y256693D02*
X455118D01*
X415354Y261024D02*
X419685Y256693D01*
X407502Y285158D02*
X411417Y281242D01*
X415354Y261024D02*
Y282114D01*
X408283Y289185D02*
X415354Y282114D01*
X404189Y287217D02*
X404279Y287126D01*
Y285158D02*
X407502D01*
X404189Y285248D02*
X404279Y285158D01*
X404189Y289185D02*
X408283D01*
X404279Y287126D02*
X407938D01*
X413386Y281678D01*
X314567Y263587D02*
X315153Y264173D01*
X314567Y233465D02*
Y263587D01*
X474696Y202493D02*
X478610D01*
X482283Y198819D01*
X492126D01*
X396362Y310792D02*
X396453Y310882D01*
Y314105D01*
X289370Y282677D02*
Y303543D01*
X260433Y280512D02*
X262205Y278740D01*
X260433Y280512D02*
Y287402D01*
X262205Y278740D02*
X285433D01*
X289370Y282677D01*
X292520Y253937D02*
Y264567D01*
X330918Y302965D02*
X370819D01*
X292520Y264567D02*
X330918Y302965D01*
X297441Y249016D02*
X298819D01*
X292520Y253937D02*
X297441Y249016D01*
X352761Y313774D02*
X361602Y304933D01*
X370819D01*
X342763Y313774D02*
X352761D01*
X292912Y200402D02*
X293314Y200000D01*
X304331Y223228D02*
X314567Y233465D01*
X318504Y258655D02*
Y261887D01*
X319090Y262473D01*
X355637D01*
X330808Y260630D02*
X353543D01*
X282476Y205512D02*
X287987Y200000D01*
X268898Y205512D02*
X282476D01*
X292510Y200000D02*
X292912Y200402D01*
X287987Y200000D02*
X292510D01*
X245276Y198819D02*
X262205D01*
X268898Y205512D01*
X244882Y198425D02*
X245276Y198819D01*
X238189Y198425D02*
X244882D01*
X230266Y200051D02*
X236563D01*
X238189Y198425D01*
X285039Y173026D02*
X285046Y173020D01*
X285039Y173026D02*
Y188583D01*
X292126Y195669D01*
X368110Y259067D02*
X369685Y260642D01*
Y271654D02*
X374410Y276378D01*
X369685Y260642D02*
Y271654D01*
X372047Y270479D02*
X376677Y275109D01*
X374410Y281101D02*
X374922Y281613D01*
Y286336D01*
X374132Y287126D02*
X374922Y286336D01*
X370909Y287126D02*
X374132D01*
X374410Y276378D02*
Y281101D01*
X370819Y287217D02*
X370909Y287126D01*
X375238Y270792D02*
X378468Y274021D01*
X376938Y261251D02*
Y270087D01*
X375238Y259407D02*
Y270792D01*
X376938Y270087D02*
X380436Y273585D01*
X376677Y275109D02*
Y277422D01*
X267199Y170866D02*
X270046Y168020D01*
X336657Y313771D02*
X336660Y313774D01*
X325659Y313771D02*
X336657D01*
X330013Y259835D02*
X330808Y260630D01*
X328813Y258634D02*
X328964D01*
X330013Y259683D01*
Y259835D01*
X318484Y258634D02*
X318504Y258655D01*
X375238Y259407D02*
X377165Y257480D01*
X389764D01*
X328761Y252481D02*
X328813Y252532D01*
X328761Y243347D02*
Y252481D01*
X318484Y243313D02*
Y252532D01*
X392425Y277422D02*
Y281825D01*
X394094Y283494D01*
Y283858D01*
X394484Y280735D02*
X397608Y283858D01*
X394394Y277422D02*
X394484Y277512D01*
Y280735D01*
X397608Y283858D02*
X397638D01*
X390533Y267473D02*
X390551Y267455D01*
Y265748D02*
Y267455D01*
X385433Y265748D02*
X390551D01*
X384103Y267078D02*
X385433Y265748D01*
X393893Y261500D02*
X398422D01*
X390457Y272876D02*
X393307Y270025D01*
Y262086D02*
X393893Y261500D01*
X393307Y262086D02*
Y270025D01*
X385104Y262311D02*
X387508D01*
X387795Y262598D01*
X377953Y260236D02*
X382283D01*
X376938Y261251D02*
X377953Y260236D01*
X380523Y274544D02*
Y277331D01*
X380436Y273585D02*
Y274457D01*
X380523Y277331D02*
X380614Y277422D01*
X380436Y274457D02*
X380523Y274544D01*
X378555D02*
Y277331D01*
X378468Y274021D02*
Y274457D01*
X378555Y277331D02*
X378646Y277422D01*
X378468Y274457D02*
X378555Y274544D01*
X384103Y267078D02*
Y273334D01*
X388398Y271759D02*
Y277331D01*
X382698Y264588D02*
X385039Y262247D01*
X382492Y274127D02*
Y277331D01*
X388398D02*
X388488Y277422D01*
X382403Y264883D02*
X382698Y264588D01*
X385803Y269660D02*
Y272630D01*
X388253Y271615D02*
X388398Y271759D01*
X385803Y272630D02*
X386429Y273256D01*
Y277331D01*
X390457Y272876D02*
Y277422D01*
X385803Y269660D02*
X386553Y268910D01*
X382492Y277331D02*
X382583Y277422D01*
X384460Y273691D02*
Y277331D01*
X382403Y274038D02*
X382492Y274127D01*
X382698Y264588D02*
Y264588D01*
X382403Y264883D02*
Y274038D01*
X386553Y268504D02*
Y268910D01*
X384103Y273334D02*
X384460Y273691D01*
Y277331D02*
X384551Y277422D01*
X386429Y277331D02*
X386520Y277422D01*
X382558Y199132D02*
X382674Y199016D01*
X390998D01*
X374511Y199132D02*
X382558D01*
X433319Y284222D02*
Y290806D01*
X438739Y295826D02*
X443456D01*
X437656Y294743D02*
X438739Y295826D01*
X433319Y294743D02*
X437656D01*
X437540Y290806D02*
X438976Y289370D01*
X433319Y290806D02*
X437540D01*
X420134D02*
X428201D01*
X420011Y290930D02*
X420134Y290806D01*
X404189Y291154D02*
X413684D01*
X413908Y290930D01*
X421948Y299098D02*
X422078Y298968D01*
X414072Y299098D02*
X421948D01*
X414002Y299028D02*
X414072Y299098D01*
X404189Y299028D02*
X414002D01*
X362968Y283372D02*
X363060Y283280D01*
X370819D01*
X398331Y269462D02*
Y277422D01*
Y269462D02*
X398390Y269402D01*
X376636Y318690D02*
X376690Y318744D01*
Y327321D01*
X376636Y318690D02*
X376677Y318648D01*
Y310792D02*
Y318648D01*
D18*
X404189Y283280D02*
D03*
Y285248D02*
D03*
Y287217D02*
D03*
Y289185D02*
D03*
Y291154D02*
D03*
Y293122D02*
D03*
Y295091D02*
D03*
Y297059D02*
D03*
Y299028D02*
D03*
Y300996D02*
D03*
Y302965D02*
D03*
Y304933D02*
D03*
X370819D02*
D03*
Y302965D02*
D03*
Y300996D02*
D03*
Y299028D02*
D03*
Y297059D02*
D03*
Y295091D02*
D03*
Y293122D02*
D03*
Y291154D02*
D03*
Y289185D02*
D03*
Y287217D02*
D03*
Y285248D02*
D03*
Y283280D02*
D03*
D19*
X398331Y310792D02*
D03*
X396362D02*
D03*
X394394D02*
D03*
X392425D02*
D03*
X390457D02*
D03*
X388488D02*
D03*
X386520D02*
D03*
X384551D02*
D03*
X382583D02*
D03*
X380614D02*
D03*
X378646D02*
D03*
X376677D02*
D03*
Y277422D02*
D03*
X378646D02*
D03*
X380614D02*
D03*
X382583D02*
D03*
X384551D02*
D03*
X386520D02*
D03*
X388488D02*
D03*
X390457D02*
D03*
X392425D02*
D03*
X394394D02*
D03*
X396362D02*
D03*
X398331D02*
D03*
D20*
X384362Y324409D02*
D03*
X390464D02*
D03*
X390551Y331890D02*
D03*
X384449D02*
D03*
X404524Y261500D02*
D03*
X398422D02*
D03*
X376690Y327321D02*
D03*
X370588D02*
D03*
X376636Y318690D02*
D03*
X370533D02*
D03*
X398390Y269402D02*
D03*
X404492D02*
D03*
X433811Y283730D02*
D03*
X427709D02*
D03*
X413908Y290930D02*
D03*
X420011D02*
D03*
X351546Y207530D02*
D03*
X357649D02*
D03*
X319804Y207776D02*
D03*
X325906D02*
D03*
X342763Y313774D02*
D03*
X336660D02*
D03*
X250787Y296850D02*
D03*
X256890D02*
D03*
X497507Y297350D02*
D03*
X503609D02*
D03*
X479160Y331773D02*
D03*
X473058D02*
D03*
X431595Y316142D02*
D03*
X437697D02*
D03*
D21*
X374511Y193030D02*
D03*
Y199132D02*
D03*
X382558D02*
D03*
Y193030D02*
D03*
X422078Y298968D02*
D03*
Y305071D02*
D03*
X414072Y299098D02*
D03*
Y305200D02*
D03*
X362968Y283372D02*
D03*
Y277270D02*
D03*
X443456Y295826D02*
D03*
Y289723D02*
D03*
X314030Y222114D02*
D03*
Y216012D02*
D03*
X345526Y222114D02*
D03*
Y216012D02*
D03*
X318484Y258634D02*
D03*
Y252532D02*
D03*
X328813Y258634D02*
D03*
Y252532D02*
D03*
X292912Y200402D02*
D03*
Y206504D02*
D03*
X230266Y206154D02*
D03*
Y200051D02*
D03*
X308801Y258634D02*
D03*
Y252532D02*
D03*
X547611Y283561D02*
D03*
Y289663D02*
D03*
X463234Y202493D02*
D03*
Y208595D02*
D03*
X474696D02*
D03*
Y202493D02*
D03*
X516180Y315235D02*
D03*
Y321338D02*
D03*
X259842Y355413D02*
D03*
Y349311D02*
D03*
X336221Y356201D02*
D03*
Y350098D02*
D03*
D22*
X433319Y294743D02*
D03*
X428201D02*
D03*
Y290806D02*
D03*
X433319D02*
D03*
D23*
X363189Y199016D02*
D03*
Y163189D02*
D03*
X345472Y199016D02*
D03*
Y163189D02*
D03*
X408715Y199016D02*
D03*
Y163189D02*
D03*
X390998Y199016D02*
D03*
Y163189D02*
D03*
X331693Y199016D02*
D03*
Y163189D02*
D03*
X313976Y199016D02*
D03*
Y163189D02*
D03*
D24*
X328761Y243347D02*
D03*
Y241276D02*
D03*
X318484Y243313D02*
D03*
Y241242D02*
D03*
D25*
X447587Y197175D02*
D03*
X436878D02*
D03*
X436915Y234330D02*
D03*
X447624D02*
D03*
D26*
X442176Y221684D02*
D03*
Y208889D02*
D03*
D35*
X295046Y170520D02*
D03*
X265046Y166524D02*
D03*
Y174516D02*
D03*
D52*
X458575Y312785D02*
D03*
X315659Y313771D02*
D03*
D53*
X448575Y312785D02*
D03*
X325659Y313771D02*
D03*
D54*
X290046Y173020D02*
D03*
X285046D02*
D03*
X280046D02*
D03*
X275046D02*
D03*
X270046D02*
D03*
Y168020D02*
D03*
X275046D02*
D03*
X280046D02*
D03*
X285046D02*
D03*
X290046D02*
D03*
D55*
X433071Y249023D02*
X433270Y249222D01*
X433071Y239592D02*
Y249023D01*
X436915Y234330D02*
Y235747D01*
X433071Y239592D02*
X436915Y235747D01*
X438610Y221684D02*
X442176D01*
X436915Y223379D02*
X438610Y221684D01*
X436915Y223379D02*
Y234330D01*
X442176Y208889D02*
X445892D01*
X447587Y197175D02*
Y207194D01*
X445892Y208889D02*
X447587Y207194D01*
X447638Y188189D02*
Y197124D01*
X447587Y197175D02*
X447638Y197124D01*
Y188189D02*
X452756Y183071D01*
Y169291D02*
Y183071D01*
X482283Y162992D02*
X487795D01*
X488189Y163386D01*
X452756Y169291D02*
X475984D01*
X482283Y162992D01*
D56*
X514961Y165197D02*
D03*
Y175197D02*
D03*
X377953Y164016D02*
D03*
Y174016D02*
D03*
D57*
X372034Y216535D02*
D03*
D58*
X382034D02*
D03*
X392034D02*
D03*
X402034D02*
D03*
X382034Y226535D02*
D03*
X392034D02*
D03*
X402034D02*
D03*
X372034D02*
D03*
D59*
X290945Y222835D02*
D03*
X229921D02*
D03*
Y275197D02*
D03*
X290945D02*
D03*
X537795Y222835D02*
D03*
X476772D02*
D03*
Y275197D02*
D03*
X537795D02*
D03*
D60*
X275590Y198819D02*
D03*
Y216535D02*
D03*
X245276Y198819D02*
D03*
Y216535D02*
D03*
X522441Y198819D02*
D03*
Y216535D02*
D03*
X492126Y198819D02*
D03*
Y216535D02*
D03*
D61*
X250590Y287402D02*
D03*
X260433D02*
D03*
X270276D02*
D03*
X298819Y258858D02*
D03*
Y249016D02*
D03*
Y239173D02*
D03*
X497441Y287402D02*
D03*
X507283D02*
D03*
X517126D02*
D03*
X545669Y258858D02*
D03*
Y249016D02*
D03*
Y239173D02*
D03*
D62*
X295046Y160520D02*
D03*
X272546D02*
D03*
X295046Y180520D02*
D03*
X272546D02*
D03*
D63*
X433270Y249222D02*
D03*
X443270D02*
D03*
X453270D02*
D03*
D64*
X488189Y177165D02*
D03*
D65*
Y163386D02*
D03*
D66*
X452756Y169291D02*
D03*
X475239Y355906D02*
D03*
X455554D02*
D03*
X541339Y334646D02*
D03*
Y354331D02*
D03*
X234449Y335434D02*
D03*
Y315749D02*
D03*
X298798Y355906D02*
D03*
X279114D02*
D03*
D67*
X433071Y169291D02*
D03*
X494924Y355906D02*
D03*
X318484D02*
D03*
D68*
X539370Y169291D02*
D03*
X236221D02*
D03*
X417323Y358268D02*
D03*
X358268D02*
D03*
D69*
X541339Y314961D02*
D03*
X234449Y355119D02*
D03*
D70*
X376378Y333422D02*
D03*
X431102Y305512D02*
D03*
X402362Y238189D02*
D03*
X403150Y254724D02*
D03*
X462205Y261417D02*
D03*
X398031Y255118D02*
D03*
X354724Y270472D02*
D03*
X434252Y276772D02*
D03*
X355906Y283465D02*
D03*
X300787Y195669D02*
D03*
X258661Y170866D02*
D03*
X476782Y315235D02*
D03*
X244094Y297244D02*
D03*
X315354Y270079D02*
D03*
X321654Y229134D02*
D03*
X298819Y212992D02*
D03*
X266142Y355906D02*
D03*
X342913Y356693D02*
D03*
X395276Y335433D02*
D03*
X390451Y303595D02*
D03*
X400000Y327953D02*
D03*
X414961Y246850D02*
D03*
X411024D02*
D03*
X409449Y294882D02*
D03*
X354370Y254685D02*
D03*
X353543Y248819D02*
D03*
X372047Y258661D02*
D03*
X368110D02*
D03*
X394488Y304331D02*
D03*
X394094Y283858D02*
D03*
X397638D02*
D03*
X390529Y267455D02*
D03*
X387795Y262598D02*
D03*
X382283Y260236D02*
D03*
X390551Y257480D02*
D03*
X386711Y268757D02*
D03*
X388253Y271615D02*
D03*
M02*
