G04*
G04 #@! TF.GenerationSoftware,Altium Limited,Altium Designer,24.2.2 (26)*
G04*
G04 Layer_Physical_Order=2*
G04 Layer_Color=16711680*
%FSLAX25Y25*%
%MOIN*%
G70*
G04*
G04 #@! TF.SameCoordinates,1A1EAA83-3352-477D-9F2F-1BB8837AECD5*
G04*
G04*
G04 #@! TF.FilePolarity,Positive*
G04*
G01*
G75*
%ADD16C,0.01000*%
%ADD43C,0.03900*%
%ADD69C,0.01500*%
%ADD72C,0.02000*%
%ADD73C,0.04000*%
%ADD74C,0.03200*%
%ADD75C,0.05000*%
%ADD76R,0.07677X0.07677*%
%ADD77C,0.07677*%
%ADD78R,0.06400X0.06400*%
%ADD79C,0.06400*%
%ADD80O,0.07795X0.02087*%
%ADD81R,0.07677X0.07677*%
%ADD82R,0.08209X0.08209*%
%ADD83C,0.08209*%
%ADD84C,0.09350*%
%ADD85C,0.04331*%
%ADD86R,0.04331X0.04331*%
%ADD87C,0.05512*%
%ADD88R,0.08209X0.08209*%
%ADD89C,0.05465*%
%ADD90R,0.05465X0.05465*%
%ADD91C,0.02500*%
%ADD92R,0.03937X0.03937*%
%ADD93R,0.02000X0.05500*%
G36*
X504060Y752080D02*
X503939Y751941D01*
X503825Y751773D01*
X503716Y751575D01*
X503615Y751347D01*
X503519Y751090D01*
X503430Y750803D01*
X503271Y750140D01*
X503138Y749360D01*
X500876Y752444D01*
X501231Y752395D01*
X501566Y752366D01*
X501878Y752359D01*
X502170Y752372D01*
X502439Y752407D01*
X502687Y752463D01*
X502914Y752540D01*
X503119Y752638D01*
X503302Y752758D01*
X503464Y752898D01*
X504060Y752080D01*
D02*
G37*
G36*
X354768Y750000D02*
X355003Y748961D01*
X355093Y748673D01*
X355190Y748416D01*
X355292Y748189D01*
X355400Y747991D01*
X355515Y747823D01*
X355635Y747685D01*
X355044Y746862D01*
X354881Y747003D01*
X354698Y747122D01*
X354493Y747220D01*
X354267Y747296D01*
X354019Y747352D01*
X353750Y747386D01*
X353460Y747398D01*
X353148Y747389D01*
X352815Y747359D01*
X352460Y747307D01*
X354702Y750406D01*
X354768Y750000D01*
D02*
G37*
G36*
X299617Y749590D02*
X299667Y748901D01*
X299713Y748595D01*
X299774Y748314D01*
X299849Y748059D01*
X299939Y747830D01*
X300043Y747626D01*
X300161Y747448D01*
X300294Y747295D01*
X299587Y746588D01*
X299434Y746721D01*
X299256Y746839D01*
X299052Y746943D01*
X298823Y747032D01*
X298568Y747108D01*
X298287Y747168D01*
X297981Y747215D01*
X297649Y747247D01*
X296909Y747268D01*
X299614Y749973D01*
X299617Y749590D01*
D02*
G37*
G36*
X448050Y749338D02*
X448100Y748649D01*
X448146Y748343D01*
X448207Y748062D01*
X448282Y747807D01*
X448372Y747578D01*
X448476Y747374D01*
X448594Y747196D01*
X448727Y747043D01*
X448020Y746336D01*
X447867Y746469D01*
X447689Y746587D01*
X447485Y746691D01*
X447256Y746781D01*
X447001Y746856D01*
X446720Y746917D01*
X446414Y746963D01*
X446082Y746995D01*
X445342Y747016D01*
X448047Y749721D01*
X448050Y749338D01*
D02*
G37*
G36*
X448000Y763000D02*
X497000D01*
Y753000D01*
X496933D01*
Y745748D01*
X487933D01*
Y748609D01*
X488117Y749296D01*
Y750200D01*
X487933Y750887D01*
Y753000D01*
X485810D01*
X485137Y753180D01*
X484233D01*
X483560Y753000D01*
X477936D01*
X477263Y753180D01*
X476359D01*
X475686Y753000D01*
X470062D01*
X469389Y753180D01*
X468485D01*
X467812Y753000D01*
X462188D01*
X461515Y753180D01*
X460611D01*
X459938Y753000D01*
X454314D01*
X453641Y753180D01*
X452737D01*
X452064Y753000D01*
X446440D01*
X445767Y753180D01*
X444863D01*
X444190Y753000D01*
X441815D01*
Y745748D01*
X432815D01*
Y748609D01*
X432999Y749296D01*
Y750200D01*
X432815Y750887D01*
Y753000D01*
X430692D01*
X430019Y753180D01*
X429115D01*
X428442Y753000D01*
X422818D01*
X422145Y753180D01*
X421241D01*
X420568Y753000D01*
X418000D01*
Y737432D01*
X414324D01*
Y730568D01*
X418000D01*
Y583500D01*
X487267D01*
Y532500D01*
X487399Y531837D01*
X487774Y531274D01*
X490500Y528549D01*
Y521816D01*
X486342Y517658D01*
X485833Y516897D01*
X485655Y516000D01*
Y502675D01*
X485833Y501778D01*
X486342Y501017D01*
X488840Y498519D01*
Y453365D01*
X488820Y453345D01*
X482680D01*
X482465Y453561D01*
X481735Y453982D01*
X480921Y454200D01*
X480079D01*
X479265Y453982D01*
X478535Y453561D01*
X477939Y452965D01*
X477518Y452235D01*
X477300Y451421D01*
Y450579D01*
X477518Y449765D01*
X477939Y449035D01*
X478535Y448439D01*
X479265Y448018D01*
X480079Y447800D01*
X480921D01*
X481735Y448018D01*
X482465Y448439D01*
X482680Y448655D01*
X488820D01*
X489035Y448439D01*
X489765Y448018D01*
X490500Y447821D01*
Y444500D01*
X534500D01*
Y427000D01*
X519000D01*
Y434000D01*
X465000D01*
Y448420D01*
X464824Y448419D01*
X463682Y448347D01*
X463585Y448325D01*
X463515Y448299D01*
X463473Y448271D01*
Y451771D01*
X463515Y451742D01*
X463585Y451717D01*
X463682Y451694D01*
X463805Y451675D01*
X464132Y451645D01*
X464824Y451622D01*
X465000Y451621D01*
Y485673D01*
X470401Y491074D01*
X470461D01*
X471339Y491309D01*
X472127Y491764D01*
X472771Y492408D01*
X473226Y493196D01*
X473461Y494075D01*
Y494985D01*
X473226Y495864D01*
X472771Y496652D01*
X472127Y497295D01*
X471339Y497750D01*
X470461Y497986D01*
X469551D01*
X468672Y497750D01*
X467883Y497295D01*
X467240Y496652D01*
X466785Y495864D01*
X466550Y494985D01*
Y494925D01*
X465462Y493838D01*
X465000Y494029D01*
Y537500D01*
X452000Y550500D01*
X382000D01*
Y753000D01*
X361542D01*
X361199Y753198D01*
X360326Y753432D01*
X359422D01*
X358549Y753198D01*
X358206Y753000D01*
X353668D01*
X353325Y753198D01*
X352452Y753432D01*
X351548D01*
X350675Y753198D01*
X350332Y753000D01*
X348500D01*
Y746000D01*
X339500D01*
Y748861D01*
X339684Y749548D01*
Y750452D01*
X339500Y751139D01*
Y753000D01*
X337920D01*
X337577Y753198D01*
X336704Y753432D01*
X335800D01*
X334927Y753198D01*
X334584Y753000D01*
X330046D01*
X329703Y753198D01*
X328830Y753432D01*
X327926D01*
X327053Y753198D01*
X326710Y753000D01*
X322172D01*
X321829Y753198D01*
X320956Y753432D01*
X320052D01*
X319179Y753198D01*
X318835Y753000D01*
X314298D01*
X313955Y753198D01*
X313082Y753432D01*
X312178D01*
X311305Y753198D01*
X310962Y753000D01*
X306424D01*
X306081Y753198D01*
X305208Y753432D01*
X304304D01*
X303431Y753198D01*
X303087Y753000D01*
X298550D01*
X298207Y753198D01*
X297334Y753432D01*
X296430D01*
X295557Y753198D01*
X295214Y753000D01*
X293000D01*
Y746000D01*
X284500D01*
Y749301D01*
X284566Y749548D01*
Y750452D01*
X284500Y750699D01*
Y753000D01*
Y763000D01*
X390750D01*
X391000Y763250D01*
Y806500D01*
X448000D01*
Y763000D01*
D02*
G37*
G36*
X420472Y733311D02*
X420494Y733171D01*
X420531Y733030D01*
X420581Y732889D01*
X420646Y732748D01*
X420725Y732607D01*
X420818Y732465D01*
X420926Y732323D01*
X421047Y732180D01*
X421183Y732037D01*
Y730623D01*
X420476Y731280D01*
X420464Y733451D01*
X420472Y733311D01*
D02*
G37*
G36*
X512217Y731268D02*
X511834Y731265D01*
X511145Y731215D01*
X510839Y731169D01*
X510558Y731108D01*
X510303Y731033D01*
X510074Y730943D01*
X509870Y730839D01*
X509692Y730721D01*
X509539Y730588D01*
X508832Y731295D01*
X508965Y731448D01*
X509083Y731626D01*
X509187Y731830D01*
X509277Y732059D01*
X509352Y732314D01*
X509413Y732595D01*
X509459Y732901D01*
X509491Y733233D01*
X509512Y733973D01*
X512217Y731268D01*
D02*
G37*
G36*
X451987Y733590D02*
X452037Y732901D01*
X452083Y732595D01*
X452144Y732314D01*
X452219Y732059D01*
X452309Y731830D01*
X452413Y731626D01*
X452531Y731448D01*
X452664Y731295D01*
X451957Y730588D01*
X451804Y730721D01*
X451626Y730839D01*
X451422Y730943D01*
X451193Y731033D01*
X450938Y731108D01*
X450657Y731169D01*
X450351Y731215D01*
X450019Y731247D01*
X449279Y731268D01*
X451984Y733973D01*
X451987Y733590D01*
D02*
G37*
G36*
X365527Y732082D02*
X365084Y731539D01*
X364904Y731282D01*
X364752Y731035D01*
X364627Y730798D01*
X364530Y730570D01*
X364461Y730352D01*
X364419Y730144D01*
X364405Y729946D01*
X363405Y729911D01*
X363391Y730116D01*
X363348Y730327D01*
X363276Y730544D01*
X363175Y730767D01*
X363046Y730997D01*
X362888Y731232D01*
X362701Y731474D01*
X362485Y731722D01*
X361967Y732236D01*
X365790Y732368D01*
X365527Y732082D01*
D02*
G37*
G36*
X375504Y707771D02*
X375515Y707652D01*
X375534Y707539D01*
X375560Y707430D01*
X375594Y707327D01*
X375635Y707230D01*
X375684Y707137D01*
X375740Y707050D01*
X375804Y706969D01*
X375875Y706893D01*
X374125D01*
X374196Y706969D01*
X374260Y707050D01*
X374316Y707137D01*
X374365Y707230D01*
X374406Y707327D01*
X374440Y707430D01*
X374466Y707539D01*
X374485Y707652D01*
X374496Y707771D01*
X374500Y707896D01*
X375500D01*
X375504Y707771D01*
D02*
G37*
G36*
X466004Y703771D02*
X466015Y703652D01*
X466034Y703539D01*
X466060Y703430D01*
X466094Y703327D01*
X466135Y703230D01*
X466184Y703137D01*
X466240Y703050D01*
X466304Y702969D01*
X466375Y702893D01*
X464625D01*
X464696Y702969D01*
X464760Y703050D01*
X464816Y703137D01*
X464865Y703230D01*
X464906Y703327D01*
X464940Y703430D01*
X464966Y703539D01*
X464985Y703652D01*
X464996Y703771D01*
X465000Y703896D01*
X466000D01*
X466004Y703771D01*
D02*
G37*
G36*
X370004Y702271D02*
X370015Y702152D01*
X370034Y702038D01*
X370060Y701930D01*
X370094Y701827D01*
X370135Y701730D01*
X370184Y701637D01*
X370240Y701550D01*
X370304Y701469D01*
X370375Y701393D01*
X368625D01*
X368696Y701469D01*
X368760Y701550D01*
X368816Y701637D01*
X368865Y701730D01*
X368906Y701827D01*
X368940Y701930D01*
X368966Y702038D01*
X368985Y702152D01*
X368996Y702271D01*
X369000Y702396D01*
X370000D01*
X370004Y702271D01*
D02*
G37*
G36*
X471100Y698347D02*
X471103Y698223D01*
X471114Y698104D01*
X471131Y697989D01*
X471155Y697879D01*
X471186Y697774D01*
X471224Y697674D01*
X471268Y697578D01*
X471320Y697487D01*
X471378Y697401D01*
X471444Y697320D01*
X469699Y697460D01*
X469775Y697530D01*
X469843Y697606D01*
X469904Y697688D01*
X469956Y697776D01*
X470000Y697871D01*
X470036Y697971D01*
X470064Y698078D01*
X470084Y698190D01*
X470096Y698309D01*
X470100Y698434D01*
X471100Y698347D01*
D02*
G37*
G36*
X364409Y696807D02*
X364422Y696689D01*
X364441Y696576D01*
X364469Y696469D01*
X364505Y696369D01*
X364549Y696274D01*
X364601Y696185D01*
X364661Y696103D01*
X364729Y696027D01*
X364805Y695956D01*
X363060Y695824D01*
X363126Y695905D01*
X363184Y695991D01*
X363236Y696082D01*
X363281Y696177D01*
X363319Y696277D01*
X363350Y696382D01*
X363374Y696492D01*
X363392Y696606D01*
X363402Y696726D01*
X363405Y696850D01*
X364405Y696932D01*
X364409Y696807D01*
D02*
G37*
G36*
X476004Y693771D02*
X476015Y693652D01*
X476034Y693539D01*
X476060Y693430D01*
X476094Y693327D01*
X476135Y693230D01*
X476184Y693137D01*
X476240Y693050D01*
X476304Y692969D01*
X476375Y692893D01*
X474625D01*
X474696Y692969D01*
X474760Y693050D01*
X474816Y693137D01*
X474865Y693230D01*
X474906Y693327D01*
X474940Y693430D01*
X474966Y693539D01*
X474985Y693652D01*
X474996Y693771D01*
X475000Y693896D01*
X476000D01*
X476004Y693771D01*
D02*
G37*
G36*
X481500Y688710D02*
X481503Y688587D01*
X481524Y688352D01*
X481542Y688241D01*
X481566Y688134D01*
X481595Y688030D01*
X481629Y687931D01*
X481669Y687835D01*
X481714Y687744D01*
X481764Y687657D01*
X480065Y688077D01*
X480148Y688132D01*
X480222Y688195D01*
X480287Y688266D01*
X480343Y688345D01*
X480391Y688432D01*
X480430Y688526D01*
X480461Y688629D01*
X480483Y688739D01*
X480496Y688858D01*
X480500Y688984D01*
X481500Y688710D01*
D02*
G37*
G36*
X487004Y684271D02*
X487015Y684152D01*
X487034Y684038D01*
X487060Y683930D01*
X487094Y683827D01*
X487135Y683730D01*
X487184Y683637D01*
X487240Y683550D01*
X487304Y683469D01*
X487375Y683393D01*
X485625D01*
X485696Y683469D01*
X485760Y683550D01*
X485816Y683637D01*
X485865Y683730D01*
X485906Y683827D01*
X485940Y683930D01*
X485966Y684038D01*
X485985Y684152D01*
X485996Y684271D01*
X486000Y684396D01*
X487000D01*
X487004Y684271D01*
D02*
G37*
G36*
X570000Y553000D02*
X554730D01*
X554346Y553500D01*
X554539Y554217D01*
Y555412D01*
X554229Y556567D01*
X553632Y557602D01*
X552787Y558447D01*
X551752Y559044D01*
X550597Y559353D01*
X549403D01*
X548248Y559044D01*
X547213Y558447D01*
X546368Y557602D01*
X545771Y556567D01*
X545461Y555412D01*
Y554217D01*
X545654Y553500D01*
X545270Y553000D01*
X501086D01*
X500804Y553368D01*
Y554633D01*
X500477Y555854D01*
X499844Y556950D01*
X498950Y557844D01*
X497854Y558477D01*
X497448Y558586D01*
Y559103D01*
X497970Y559243D01*
X499134Y559915D01*
X500084Y560866D01*
X500757Y562030D01*
X501104Y563328D01*
Y563500D01*
X496000D01*
Y564000D01*
X495500D01*
Y569104D01*
X495328D01*
X494030Y568756D01*
X492866Y568084D01*
X491916Y567134D01*
X491244Y565970D01*
X491233Y565932D01*
X490733Y565998D01*
Y613105D01*
X491196Y613196D01*
X491233Y613196D01*
X500804D01*
Y622804D01*
X497104D01*
X497038Y623304D01*
X497854Y623523D01*
X498950Y624156D01*
X499844Y625050D01*
X500477Y626146D01*
X500804Y627367D01*
Y628632D01*
X500477Y629854D01*
X499844Y630950D01*
X498950Y631844D01*
X497854Y632477D01*
X497448Y632586D01*
Y633104D01*
X497970Y633244D01*
X499134Y633916D01*
X500084Y634866D01*
X500757Y636030D01*
X501104Y637328D01*
Y637500D01*
X496000D01*
Y638000D01*
X495500D01*
Y643104D01*
X495328D01*
X494030Y642757D01*
X492866Y642085D01*
X491916Y641134D01*
X491244Y639970D01*
X491233Y639932D01*
X490733Y639998D01*
Y656782D01*
X516226Y682274D01*
X516601Y682837D01*
X516733Y683500D01*
Y704306D01*
X516965Y704439D01*
X517561Y705035D01*
X517982Y705765D01*
X518200Y706579D01*
Y707421D01*
X517982Y708235D01*
X517561Y708965D01*
X516965Y709561D01*
X516235Y709982D01*
X515421Y710200D01*
X514579D01*
X513765Y709982D01*
X513035Y709561D01*
X512439Y708965D01*
X512018Y708235D01*
X511800Y707421D01*
Y706579D01*
X512018Y705765D01*
X512439Y705035D01*
X513035Y704439D01*
X513267Y704306D01*
Y684218D01*
X487774Y658726D01*
X487399Y658163D01*
X487267Y657500D01*
Y584214D01*
X418714D01*
Y730568D01*
X420194D01*
X420493Y730290D01*
X422680Y728103D01*
X423077Y727837D01*
X423546Y727744D01*
X448262D01*
X464277Y711730D01*
Y703742D01*
X464266Y703681D01*
X464253Y703626D01*
X464237Y703578D01*
X464220Y703536D01*
X464200Y703499D01*
X464178Y703465D01*
X464153Y703433D01*
X464104Y703380D01*
X464073Y703331D01*
X463847Y703105D01*
X463550Y702388D01*
Y701612D01*
X463847Y700895D01*
X464395Y700347D01*
X465112Y700050D01*
X465888D01*
X466605Y700347D01*
X467153Y700895D01*
X467450Y701612D01*
Y702388D01*
X467153Y703105D01*
X466927Y703331D01*
X466896Y703380D01*
X466847Y703433D01*
X466822Y703465D01*
X466800Y703499D01*
X466781Y703536D01*
X466763Y703578D01*
X466747Y703626D01*
X466734Y703681D01*
X466723Y703742D01*
Y712236D01*
X466630Y712705D01*
X466365Y713102D01*
X449634Y729833D01*
X449305Y730053D01*
X449312Y730319D01*
X449391Y730551D01*
X449975Y730534D01*
X450263Y730506D01*
X450528Y730466D01*
X450761Y730416D01*
X450961Y730357D01*
X451129Y730291D01*
X451265Y730222D01*
X451368Y730153D01*
X469377Y712145D01*
Y698288D01*
X469366Y698231D01*
X469354Y698183D01*
X469339Y698143D01*
X469324Y698109D01*
X469307Y698081D01*
X469288Y698056D01*
X469267Y698032D01*
X469216Y697986D01*
X469186Y697943D01*
X468847Y697605D01*
X468550Y696888D01*
Y696112D01*
X468847Y695395D01*
X469395Y694847D01*
X470112Y694550D01*
X470888D01*
X471605Y694847D01*
X472153Y695395D01*
X472450Y696112D01*
Y696888D01*
X472153Y697605D01*
X472010Y697748D01*
X472001Y697766D01*
X471953Y697825D01*
X471927Y697864D01*
X471903Y697906D01*
X471882Y697951D01*
X471863Y698001D01*
X471847Y698057D01*
X471833Y698118D01*
X471824Y698183D01*
Y712652D01*
X471730Y713120D01*
X471465Y713517D01*
X453099Y731884D01*
X453030Y731987D01*
X452961Y732123D01*
X452895Y732291D01*
X452836Y732491D01*
X452786Y732724D01*
X452747Y732980D01*
X452701Y733619D01*
X452698Y733979D01*
X452684Y734044D01*
Y734452D01*
X452450Y735325D01*
X451999Y736107D01*
X451359Y736747D01*
X450577Y737198D01*
X449704Y737432D01*
X448800D01*
X447927Y737198D01*
X447145Y736747D01*
X446505Y736107D01*
X446054Y735325D01*
X445820Y734452D01*
Y733548D01*
X446054Y732675D01*
X446505Y731892D01*
X447145Y731253D01*
X447927Y730802D01*
X448339Y730691D01*
X448273Y730191D01*
X442357D01*
X442291Y730691D01*
X442703Y730802D01*
X443485Y731253D01*
X444125Y731892D01*
X444576Y732675D01*
X444810Y733548D01*
Y734452D01*
X444576Y735325D01*
X444125Y736107D01*
X443485Y736747D01*
X442703Y737198D01*
X441830Y737432D01*
X440926D01*
X440053Y737198D01*
X439270Y736747D01*
X438631Y736107D01*
X438180Y735325D01*
X437946Y734452D01*
Y733548D01*
X438180Y732675D01*
X438631Y731892D01*
X439270Y731253D01*
X440053Y730802D01*
X440465Y730691D01*
X440399Y730191D01*
X434483D01*
X434417Y730691D01*
X434829Y730802D01*
X435611Y731253D01*
X436250Y731892D01*
X436702Y732675D01*
X436936Y733548D01*
Y734452D01*
X436702Y735325D01*
X436250Y736107D01*
X435611Y736747D01*
X434829Y737198D01*
X433956Y737432D01*
X433052D01*
X432179Y737198D01*
X431396Y736747D01*
X430757Y736107D01*
X430306Y735325D01*
X430072Y734452D01*
Y733548D01*
X430306Y732675D01*
X430757Y731892D01*
X431396Y731253D01*
X432179Y730802D01*
X432591Y730691D01*
X432525Y730191D01*
X426609D01*
X426543Y730691D01*
X426955Y730802D01*
X427737Y731253D01*
X428376Y731892D01*
X428828Y732675D01*
X429062Y733548D01*
Y734452D01*
X428828Y735325D01*
X428376Y736107D01*
X427737Y736747D01*
X426955Y737198D01*
X426082Y737432D01*
X425178D01*
X424305Y737198D01*
X423523Y736747D01*
X422883Y736107D01*
X422432Y735325D01*
X422198Y734452D01*
Y733548D01*
X422432Y732675D01*
X422645Y732306D01*
X422245Y731999D01*
X421532Y732712D01*
X421482Y732770D01*
X421402Y732876D01*
X421336Y732977D01*
X421283Y733071D01*
X421243Y733159D01*
X421213Y733241D01*
X421194Y733316D01*
X421188Y733352D01*
Y737432D01*
X418714D01*
Y747166D01*
X419214Y747373D01*
X419586Y747002D01*
X420368Y746550D01*
X421241Y746316D01*
X422145D01*
X423018Y746550D01*
X423800Y747002D01*
X424439Y747641D01*
X424891Y748423D01*
X425125Y749296D01*
Y750200D01*
X424891Y751073D01*
X424479Y751786D01*
X424637Y752286D01*
X426623D01*
X426781Y751786D01*
X426369Y751073D01*
X426135Y750200D01*
Y749296D01*
X426369Y748423D01*
X426820Y747641D01*
X427459Y747002D01*
X428242Y746550D01*
X429115Y746316D01*
X430019D01*
X430892Y746550D01*
X431601Y746959D01*
X432101Y746799D01*
Y745748D01*
X432156Y745475D01*
X432310Y745243D01*
X432542Y745089D01*
X432815Y745034D01*
X441815D01*
X442088Y745089D01*
X442320Y745243D01*
X442474Y745475D01*
X442529Y745748D01*
Y746973D01*
X443029Y747180D01*
X443208Y747002D01*
X443990Y746550D01*
X444863Y746316D01*
X445264D01*
X445322Y746303D01*
X446038Y746282D01*
X446326Y746254D01*
X446591Y746214D01*
X446824Y746164D01*
X447024Y746105D01*
X447192Y746039D01*
X447328Y745970D01*
X447431Y745901D01*
X451498Y741834D01*
X451895Y741569D01*
X452363Y741476D01*
X510154D01*
X514245Y737385D01*
X513938Y736985D01*
X513569Y737198D01*
X512696Y737432D01*
X511792D01*
X510919Y737198D01*
X510137Y736747D01*
X509498Y736107D01*
X509046Y735325D01*
X508812Y734452D01*
Y734051D01*
X508799Y733993D01*
X508778Y733277D01*
X508750Y732989D01*
X508710Y732724D01*
X508660Y732491D01*
X508601Y732290D01*
X508535Y732123D01*
X508466Y731987D01*
X508397Y731884D01*
X502737Y726224D01*
X487500D01*
X487032Y726130D01*
X486635Y725865D01*
X474635Y713865D01*
X474370Y713468D01*
X474276Y713000D01*
Y693742D01*
X474266Y693681D01*
X474253Y693626D01*
X474237Y693578D01*
X474220Y693536D01*
X474200Y693499D01*
X474178Y693465D01*
X474153Y693433D01*
X474104Y693380D01*
X474073Y693331D01*
X473847Y693105D01*
X473550Y692388D01*
Y691612D01*
X473847Y690895D01*
X474395Y690347D01*
X475112Y690050D01*
X475888D01*
X476605Y690347D01*
X477153Y690895D01*
X477450Y691612D01*
Y692388D01*
X477153Y693105D01*
X476927Y693331D01*
X476896Y693380D01*
X476847Y693433D01*
X476822Y693465D01*
X476800Y693499D01*
X476781Y693536D01*
X476763Y693578D01*
X476747Y693626D01*
X476734Y693681D01*
X476723Y693742D01*
Y712493D01*
X488007Y723776D01*
X503244D01*
X503712Y723870D01*
X504109Y724135D01*
X510128Y730153D01*
X510231Y730222D01*
X510367Y730291D01*
X510535Y730357D01*
X510735Y730416D01*
X510968Y730466D01*
X511224Y730505D01*
X511863Y730551D01*
X512223Y730554D01*
X512288Y730568D01*
X512696D01*
X513569Y730802D01*
X514352Y731253D01*
X514991Y731892D01*
X515443Y732675D01*
X515676Y733548D01*
Y734452D01*
X515443Y735325D01*
X515229Y735694D01*
X515629Y736001D01*
X516277Y735354D01*
Y731507D01*
X506493Y721724D01*
X488515D01*
X488047Y721630D01*
X487650Y721365D01*
X480135Y713850D01*
X479870Y713453D01*
X479776Y712985D01*
Y688848D01*
X479767Y688800D01*
X479757Y688765D01*
X479747Y688741D01*
X479739Y688727D01*
X479732Y688717D01*
X479725Y688710D01*
X479719Y688704D01*
X479595Y688653D01*
X479047Y688105D01*
X478750Y687388D01*
Y686612D01*
X479047Y685895D01*
X479595Y685347D01*
X480312Y685050D01*
X481088D01*
X481805Y685347D01*
X482353Y685895D01*
X482650Y686612D01*
Y687388D01*
X482353Y688105D01*
X482313Y688144D01*
X482297Y688184D01*
X482276Y688243D01*
X482259Y688307D01*
X482243Y688377D01*
X482232Y688443D01*
X482224Y688540D01*
Y712478D01*
X489022Y719277D01*
X507000D01*
X507468Y719370D01*
X507865Y719635D01*
X518365Y730135D01*
X518630Y730532D01*
X518723Y731000D01*
Y735861D01*
X518630Y736329D01*
X518365Y736726D01*
X511526Y743565D01*
X511130Y743830D01*
X510661Y743923D01*
X452870D01*
X449162Y747632D01*
X449093Y747735D01*
X449024Y747870D01*
X448958Y748038D01*
X448899Y748239D01*
X448849Y748472D01*
X448810Y748728D01*
X448764Y749367D01*
X448761Y749727D01*
X448747Y749792D01*
Y750200D01*
X448513Y751073D01*
X448101Y751786D01*
X448259Y752286D01*
X450245D01*
X450402Y751786D01*
X449991Y751073D01*
X449757Y750200D01*
Y749296D01*
X449991Y748423D01*
X450443Y747641D01*
X451082Y747002D01*
X451864Y746550D01*
X452737Y746316D01*
X453641D01*
X454514Y746550D01*
X455297Y747002D01*
X455935Y747641D01*
X456387Y748423D01*
X456621Y749296D01*
Y750200D01*
X456387Y751073D01*
X455975Y751786D01*
X456133Y752286D01*
X458119D01*
X458277Y751786D01*
X457865Y751073D01*
X457631Y750200D01*
Y749296D01*
X457865Y748423D01*
X458317Y747641D01*
X458955Y747002D01*
X459738Y746550D01*
X460611Y746316D01*
X461515D01*
X462388Y746550D01*
X463170Y747002D01*
X463809Y747641D01*
X464261Y748423D01*
X464495Y749296D01*
Y750200D01*
X464261Y751073D01*
X463849Y751786D01*
X464007Y752286D01*
X465993D01*
X466151Y751786D01*
X465739Y751073D01*
X465505Y750200D01*
Y749296D01*
X465739Y748423D01*
X466190Y747641D01*
X466829Y747002D01*
X467612Y746550D01*
X468485Y746316D01*
X469389D01*
X470262Y746550D01*
X471044Y747002D01*
X471684Y747641D01*
X472135Y748423D01*
X472369Y749296D01*
Y750200D01*
X472135Y751073D01*
X471724Y751786D01*
X471881Y752286D01*
X473867D01*
X474025Y751786D01*
X473613Y751073D01*
X473379Y750200D01*
Y749296D01*
X473613Y748423D01*
X474064Y747641D01*
X474704Y747002D01*
X475486Y746550D01*
X476359Y746316D01*
X477263D01*
X478136Y746550D01*
X478919Y747002D01*
X479558Y747641D01*
X480009Y748423D01*
X480243Y749296D01*
Y750200D01*
X480009Y751073D01*
X479598Y751786D01*
X479755Y752286D01*
X481741D01*
X481899Y751786D01*
X481487Y751073D01*
X481253Y750200D01*
Y749296D01*
X481487Y748423D01*
X481939Y747641D01*
X482578Y747002D01*
X483360Y746550D01*
X484233Y746316D01*
X485137D01*
X486010Y746550D01*
X486719Y746959D01*
X487219Y746799D01*
Y745748D01*
X487274Y745475D01*
X487428Y745243D01*
X487660Y745089D01*
X487933Y745034D01*
X496933D01*
X497206Y745089D01*
X497438Y745243D01*
X497592Y745475D01*
X497647Y745748D01*
Y746973D01*
X498147Y747180D01*
X498326Y747002D01*
X499108Y746550D01*
X499981Y746316D01*
X500885D01*
X501758Y746550D01*
X502540Y747002D01*
X503180Y747641D01*
X503631Y748423D01*
X503865Y749296D01*
Y749381D01*
X503971Y749997D01*
X504119Y750614D01*
X504195Y750859D01*
X504276Y751077D01*
X504356Y751257D01*
X504434Y751400D01*
X504500Y751497D01*
X505203Y752200D01*
X505561Y751856D01*
X505109Y751073D01*
X504875Y750200D01*
Y749296D01*
X505109Y748423D01*
X505561Y747641D01*
X506200Y747002D01*
X506982Y746550D01*
X507855Y746316D01*
X508759D01*
X509632Y746550D01*
X510415Y747002D01*
X511054Y747641D01*
X511506Y748423D01*
X511739Y749296D01*
Y750200D01*
X511506Y751073D01*
X511292Y751442D01*
X511692Y751749D01*
X520177Y743265D01*
Y727907D01*
X509493Y717224D01*
X489531D01*
X489063Y717130D01*
X488666Y716865D01*
X485635Y713834D01*
X485370Y713437D01*
X485277Y712969D01*
Y684242D01*
X485266Y684181D01*
X485253Y684126D01*
X485237Y684078D01*
X485219Y684036D01*
X485200Y683999D01*
X485178Y683965D01*
X485153Y683933D01*
X485104Y683880D01*
X485073Y683831D01*
X484847Y683605D01*
X484550Y682888D01*
Y682112D01*
X484847Y681395D01*
X485395Y680847D01*
X486112Y680550D01*
X486888D01*
X487605Y680847D01*
X488153Y681395D01*
X488450Y682112D01*
Y682888D01*
X488153Y683605D01*
X487927Y683831D01*
X487896Y683880D01*
X487847Y683933D01*
X487822Y683965D01*
X487800Y683999D01*
X487781Y684036D01*
X487763Y684078D01*
X487747Y684126D01*
X487734Y684181D01*
X487723Y684242D01*
Y712462D01*
X490038Y714777D01*
X510000D01*
X510468Y714870D01*
X510865Y715135D01*
X522265Y726535D01*
X522530Y726932D01*
X522623Y727400D01*
Y743772D01*
X522530Y744240D01*
X522265Y744637D01*
X511257Y755646D01*
X510860Y755911D01*
X510392Y756004D01*
X506053D01*
X505585Y755911D01*
X505188Y755646D01*
X502872Y753329D01*
X502871Y753329D01*
X502768Y753262D01*
X502644Y753202D01*
X502493Y753151D01*
X502315Y753111D01*
X502107Y753084D01*
X501870Y753073D01*
X501605Y753079D01*
X501311Y753104D01*
X501015Y753145D01*
X500885Y753180D01*
X499981D01*
X499108Y752946D01*
X498326Y752494D01*
X497769Y752611D01*
X497659Y752727D01*
X497714Y753000D01*
Y763000D01*
X497659Y763273D01*
X497505Y763505D01*
X497273Y763659D01*
X497000Y763714D01*
X448714D01*
Y806500D01*
X448659Y806773D01*
X448505Y807005D01*
X448273Y807159D01*
X448000Y807214D01*
X391000D01*
X390727Y807159D01*
X390495Y807005D01*
X390341Y806773D01*
X390286Y806500D01*
Y763714D01*
X284500D01*
X284227Y763659D01*
X283995Y763505D01*
X283841Y763273D01*
X283786Y763000D01*
Y754000D01*
Y752855D01*
X283324Y752664D01*
X283241Y752746D01*
X282459Y753198D01*
X281586Y753432D01*
X280682D01*
X279809Y753198D01*
X279026Y752746D01*
X278387Y752107D01*
X277936Y751325D01*
X277702Y750452D01*
Y749548D01*
X277936Y748675D01*
X278387Y747893D01*
X279026Y747254D01*
X279809Y746802D01*
X280682Y746568D01*
X281586D01*
X282459Y746802D01*
X283241Y747254D01*
X283324Y747336D01*
X283786Y747145D01*
Y746000D01*
X283841Y745727D01*
X283995Y745495D01*
X284227Y745341D01*
X284500Y745286D01*
X293000D01*
X293273Y745341D01*
X293505Y745495D01*
X293659Y745727D01*
X293714Y746000D01*
Y747703D01*
X294214Y747814D01*
X294774Y747254D01*
X295557Y746802D01*
X296430Y746568D01*
X296831D01*
X296889Y746554D01*
X297605Y746534D01*
X297893Y746506D01*
X298158Y746466D01*
X298391Y746416D01*
X298591Y746357D01*
X298759Y746291D01*
X298895Y746222D01*
X298998Y746153D01*
X303065Y742086D01*
X303065Y742086D01*
X306733Y738419D01*
X307129Y738154D01*
X307598Y738061D01*
X339210D01*
X339276Y737561D01*
X338864Y737450D01*
X338082Y736999D01*
X337442Y736359D01*
X336991Y735577D01*
X336757Y734704D01*
Y733800D01*
X336991Y732927D01*
X337442Y732144D01*
X338082Y731505D01*
X338864Y731054D01*
X339737Y730820D01*
X340641D01*
X341514Y731054D01*
X342296Y731505D01*
X342935Y732144D01*
X343387Y732927D01*
X343621Y733800D01*
Y734704D01*
X343387Y735577D01*
X342935Y736359D01*
X342296Y736999D01*
X341514Y737450D01*
X341102Y737561D01*
X341168Y738061D01*
X347084D01*
X347150Y737561D01*
X346738Y737450D01*
X345955Y736999D01*
X345317Y736359D01*
X344865Y735577D01*
X344631Y734704D01*
Y733800D01*
X344865Y732927D01*
X345317Y732144D01*
X345955Y731505D01*
X346738Y731054D01*
X347611Y730820D01*
X348515D01*
X349388Y731054D01*
X350170Y731505D01*
X350810Y732144D01*
X351261Y732927D01*
X351495Y733800D01*
Y734704D01*
X351261Y735577D01*
X350810Y736359D01*
X350170Y736999D01*
X349388Y737450D01*
X348976Y737561D01*
X349042Y738061D01*
X354958D01*
X355024Y737561D01*
X354612Y737450D01*
X353830Y736999D01*
X353190Y736359D01*
X352739Y735577D01*
X352505Y734704D01*
Y733800D01*
X352739Y732927D01*
X353190Y732144D01*
X353830Y731505D01*
X354612Y731054D01*
X355485Y730820D01*
X356389D01*
X357262Y731054D01*
X358045Y731505D01*
X358683Y732144D01*
X359135Y732927D01*
X359369Y733800D01*
Y734704D01*
X359135Y735577D01*
X358683Y736359D01*
X358045Y736999D01*
X357262Y737450D01*
X356850Y737561D01*
X356916Y738061D01*
X362832D01*
X362898Y737561D01*
X362486Y737450D01*
X361703Y736999D01*
X361065Y736359D01*
X360613Y735577D01*
X360379Y734704D01*
Y733800D01*
X360613Y732927D01*
X361065Y732144D01*
X361432Y731777D01*
X361464Y731729D01*
X361964Y731234D01*
X362149Y731021D01*
X362309Y730814D01*
X362438Y730622D01*
X362538Y730444D01*
X362610Y730284D01*
X362657Y730142D01*
X362682Y730021D01*
Y696687D01*
X362672Y696622D01*
X362659Y696561D01*
X362642Y696506D01*
X362624Y696456D01*
X362602Y696411D01*
X362579Y696370D01*
X362553Y696332D01*
X362505Y696273D01*
X362494Y696252D01*
X362347Y696105D01*
X362050Y695388D01*
Y694612D01*
X362347Y693895D01*
X362895Y693347D01*
X363612Y693050D01*
X364388D01*
X365105Y693347D01*
X365653Y693895D01*
X365950Y694612D01*
Y695388D01*
X365653Y696105D01*
X365322Y696436D01*
X365290Y696480D01*
X365239Y696527D01*
X365218Y696551D01*
X365199Y696577D01*
X365182Y696606D01*
X365166Y696639D01*
X365152Y696680D01*
X365139Y696729D01*
X365129Y696786D01*
Y730054D01*
X365153Y730174D01*
X365200Y730322D01*
X365272Y730492D01*
X365372Y730682D01*
X365500Y730890D01*
X365653Y731108D01*
X366066Y731614D01*
X366315Y731885D01*
X366342Y731929D01*
X366558Y732144D01*
X367009Y732927D01*
X367243Y733800D01*
Y734704D01*
X367009Y735577D01*
X366796Y735946D01*
X367196Y736253D01*
X368277Y735173D01*
Y702242D01*
X368266Y702181D01*
X368253Y702126D01*
X368237Y702078D01*
X368219Y702036D01*
X368200Y701999D01*
X368178Y701965D01*
X368153Y701933D01*
X368104Y701880D01*
X368073Y701831D01*
X367847Y701605D01*
X367550Y700888D01*
Y700112D01*
X367847Y699395D01*
X368395Y698847D01*
X369112Y698550D01*
X369888D01*
X370605Y698847D01*
X371153Y699395D01*
X371450Y700112D01*
Y700888D01*
X371153Y701605D01*
X370927Y701831D01*
X370896Y701880D01*
X370847Y701933D01*
X370822Y701965D01*
X370800Y701999D01*
X370780Y702036D01*
X370763Y702078D01*
X370747Y702126D01*
X370734Y702181D01*
X370724Y702242D01*
Y735680D01*
X370630Y736148D01*
X370365Y736545D01*
X366761Y740149D01*
X366364Y740415D01*
X365895Y740508D01*
X308104D01*
X304796Y743817D01*
X304796Y743817D01*
X300729Y747884D01*
X300660Y747987D01*
X300591Y748123D01*
X300525Y748290D01*
X300466Y748491D01*
X300416Y748724D01*
X300377Y748980D01*
X300331Y749619D01*
X300328Y749979D01*
X300314Y750044D01*
Y750452D01*
X300080Y751325D01*
X299814Y751786D01*
X300102Y752286D01*
X301535D01*
X301824Y751786D01*
X301557Y751325D01*
X301324Y750452D01*
Y749548D01*
X301557Y748675D01*
X302009Y747893D01*
X302648Y747254D01*
X303431Y746802D01*
X304304Y746568D01*
X305208D01*
X306081Y746802D01*
X306863Y747254D01*
X307502Y747893D01*
X307954Y748675D01*
X308188Y749548D01*
Y750452D01*
X307954Y751325D01*
X307688Y751786D01*
X307977Y752286D01*
X309409D01*
X309698Y751786D01*
X309432Y751325D01*
X309198Y750452D01*
Y749548D01*
X309432Y748675D01*
X309883Y747893D01*
X310522Y747254D01*
X311305Y746802D01*
X312178Y746568D01*
X313082D01*
X313955Y746802D01*
X314737Y747254D01*
X315376Y747893D01*
X315828Y748675D01*
X316062Y749548D01*
Y750452D01*
X315828Y751325D01*
X315562Y751786D01*
X315850Y752286D01*
X317283D01*
X317572Y751786D01*
X317305Y751325D01*
X317072Y750452D01*
Y749548D01*
X317305Y748675D01*
X317757Y747893D01*
X318396Y747254D01*
X319179Y746802D01*
X320052Y746568D01*
X320956D01*
X321829Y746802D01*
X322611Y747254D01*
X323250Y747893D01*
X323702Y748675D01*
X323936Y749548D01*
Y750452D01*
X323702Y751325D01*
X323436Y751786D01*
X323725Y752286D01*
X325157D01*
X325446Y751786D01*
X325180Y751325D01*
X324946Y750452D01*
Y749548D01*
X325180Y748675D01*
X325631Y747893D01*
X326271Y747254D01*
X327053Y746802D01*
X327926Y746568D01*
X328830D01*
X329703Y746802D01*
X330485Y747254D01*
X331124Y747893D01*
X331576Y748675D01*
X331810Y749548D01*
Y750452D01*
X331576Y751325D01*
X331310Y751786D01*
X331599Y752286D01*
X333031D01*
X333320Y751786D01*
X333054Y751325D01*
X332820Y750452D01*
Y749548D01*
X333054Y748675D01*
X333506Y747893D01*
X334144Y747254D01*
X334927Y746802D01*
X335800Y746568D01*
X336704D01*
X337577Y746802D01*
X338286Y747211D01*
X338786Y747051D01*
Y746000D01*
X338841Y745727D01*
X338995Y745495D01*
X339227Y745341D01*
X339500Y745286D01*
X348500D01*
X348773Y745341D01*
X349005Y745495D01*
X349159Y745727D01*
X349214Y746000D01*
Y747225D01*
X349714Y747432D01*
X349892Y747254D01*
X350675Y746802D01*
X351548Y746568D01*
X352452D01*
X352588Y746604D01*
X352899Y746650D01*
X353191Y746676D01*
X353455Y746684D01*
X353691Y746674D01*
X353897Y746648D01*
X354075Y746608D01*
X354224Y746558D01*
X354348Y746498D01*
X354451Y746431D01*
X354452Y746431D01*
X354896Y745986D01*
X355293Y745721D01*
X355309Y745718D01*
X357392Y743635D01*
X357789Y743370D01*
X358257Y743277D01*
X368493D01*
X373777Y737993D01*
Y707742D01*
X373766Y707681D01*
X373753Y707626D01*
X373737Y707578D01*
X373720Y707536D01*
X373700Y707499D01*
X373678Y707465D01*
X373653Y707433D01*
X373604Y707380D01*
X373573Y707331D01*
X373347Y707105D01*
X373050Y706388D01*
Y705612D01*
X373347Y704895D01*
X373895Y704347D01*
X374612Y704050D01*
X375388D01*
X376105Y704347D01*
X376653Y704895D01*
X376950Y705612D01*
Y706388D01*
X376653Y707105D01*
X376427Y707331D01*
X376396Y707380D01*
X376347Y707433D01*
X376322Y707465D01*
X376300Y707499D01*
X376280Y707536D01*
X376263Y707578D01*
X376247Y707626D01*
X376234Y707681D01*
X376223Y707742D01*
Y738500D01*
X376130Y738968D01*
X375865Y739365D01*
X369865Y745365D01*
X369468Y745630D01*
X369000Y745723D01*
X358764D01*
X357873Y746615D01*
X358180Y747015D01*
X358549Y746802D01*
X359422Y746568D01*
X360326D01*
X361199Y746802D01*
X361982Y747254D01*
X362620Y747893D01*
X363072Y748675D01*
X363306Y749548D01*
Y750452D01*
X363072Y751325D01*
X362806Y751786D01*
X363095Y752286D01*
X381286D01*
Y553000D01*
X369908D01*
Y554784D01*
X368447D01*
X368444Y554789D01*
X368213Y554944D01*
X367939Y554998D01*
X366939D01*
X365939D01*
X365666Y554944D01*
X365435Y554789D01*
X365431Y554784D01*
X363971D01*
Y553000D01*
X307500D01*
X302000Y547500D01*
Y524000D01*
X200000D01*
Y820000D01*
X570000D01*
Y553000D01*
D02*
G37*
G36*
X367517Y532830D02*
X367551Y532566D01*
X367599Y532314D01*
X367662Y532075D01*
X367739Y531849D01*
X367830Y531636D01*
X367935Y531435D01*
X368056Y531247D01*
X368190Y531072D01*
X368339Y530909D01*
X367337Y529790D01*
X367171Y529941D01*
X366993Y530075D01*
X366804Y530191D01*
X366603Y530289D01*
X366391Y530370D01*
X366167Y530432D01*
X365932Y530477D01*
X365686Y530504D01*
X365427Y530513D01*
X365158Y530505D01*
X367498Y533108D01*
X367517Y532830D01*
D02*
G37*
G36*
X570000Y360000D02*
X200000D01*
Y521000D01*
X305500D01*
Y546000D01*
X309500Y550000D01*
X321327D01*
X321425Y549509D01*
X320200Y548801D01*
X319199Y547800D01*
X318491Y546575D01*
X318125Y545208D01*
Y543792D01*
X318491Y542425D01*
X319199Y541200D01*
X320200Y540199D01*
X321425Y539491D01*
X322792Y539125D01*
X324208D01*
X325575Y539491D01*
X326800Y540199D01*
X327801Y541200D01*
X328509Y542425D01*
X328875Y543792D01*
Y545208D01*
X328509Y546575D01*
X327801Y547800D01*
X326800Y548801D01*
X325575Y549509D01*
X325673Y550000D01*
X343827D01*
X343925Y549509D01*
X342700Y548801D01*
X341699Y547800D01*
X340991Y546575D01*
X340625Y545208D01*
Y543792D01*
X340991Y542425D01*
X341699Y541200D01*
X342700Y540199D01*
X343925Y539491D01*
X345292Y539125D01*
X346708D01*
X348075Y539491D01*
X349300Y540199D01*
X350301Y541200D01*
X351009Y542425D01*
X351375Y543792D01*
Y545208D01*
X351009Y546575D01*
X350301Y547800D01*
X349300Y548801D01*
X348075Y549509D01*
X348173Y550000D01*
X363971D01*
Y548284D01*
X365431D01*
X365435Y548279D01*
X365666Y548125D01*
X365939Y548070D01*
X366939D01*
X367939D01*
X368213Y548125D01*
X368444Y548279D01*
X368447Y548284D01*
X369908D01*
Y550000D01*
X381492D01*
X381495Y549995D01*
X381727Y549841D01*
X382000Y549786D01*
X451704D01*
X464286Y537204D01*
Y528723D01*
X463007D01*
X461365Y530365D01*
X460968Y530630D01*
X460500Y530723D01*
X430340D01*
X430235Y530744D01*
X430105Y530784D01*
X429958Y530846D01*
X429795Y530931D01*
X429619Y531042D01*
X429436Y531174D01*
X429010Y531539D01*
X428785Y531760D01*
X428730Y531796D01*
X428465Y532061D01*
X427735Y532482D01*
X426921Y532700D01*
X426079D01*
X425265Y532482D01*
X424535Y532061D01*
X423939Y531465D01*
X423518Y530735D01*
X423300Y529921D01*
Y529079D01*
X423387Y528755D01*
X422961Y528414D01*
X422860Y528466D01*
X422808Y528637D01*
X422766Y528822D01*
X422736Y529021D01*
X422718Y529237D01*
X422714Y529489D01*
X422700Y529550D01*
Y529921D01*
X422482Y530735D01*
X422061Y531465D01*
X421465Y532061D01*
X420735Y532482D01*
X419921Y532700D01*
X419079D01*
X418265Y532482D01*
X417535Y532061D01*
X417273Y531798D01*
X417220Y531764D01*
X417038Y531590D01*
X416874Y531450D01*
X416711Y531329D01*
X416551Y531228D01*
X416393Y531145D01*
X416237Y531079D01*
X416083Y531028D01*
X415929Y530993D01*
X415824Y530978D01*
X369300D01*
X368704Y531574D01*
X368640Y531657D01*
X368553Y531794D01*
X368475Y531943D01*
X368406Y532104D01*
X368346Y532281D01*
X368296Y532472D01*
X368256Y532678D01*
X368228Y532901D01*
X368210Y533157D01*
X368200Y533193D01*
Y533421D01*
X367982Y534235D01*
X367561Y534965D01*
X366965Y535561D01*
X366235Y535982D01*
X365421Y536200D01*
X364579D01*
X363765Y535982D01*
X363035Y535561D01*
X362439Y534965D01*
X362018Y534235D01*
X361800Y533421D01*
Y532579D01*
X362018Y531765D01*
X362439Y531035D01*
X363035Y530439D01*
X363765Y530018D01*
X364579Y529800D01*
X365130D01*
X365180Y529792D01*
X365426Y529799D01*
X365634Y529792D01*
X365826Y529771D01*
X366004Y529737D01*
X366168Y529691D01*
X366319Y529634D01*
X366460Y529565D01*
X366591Y529484D01*
X366677Y529420D01*
X367642Y528455D01*
X368122Y528134D01*
X368688Y528022D01*
X415824D01*
X415929Y528007D01*
X416083Y527972D01*
X416237Y527921D01*
X416393Y527855D01*
X416551Y527772D01*
X416711Y527670D01*
X416874Y527550D01*
X417038Y527410D01*
X417220Y527236D01*
X417273Y527202D01*
X417535Y526939D01*
X418265Y526518D01*
X419079Y526300D01*
X419450D01*
X419511Y526287D01*
X419763Y526282D01*
X419979Y526264D01*
X420179Y526234D01*
X420364Y526192D01*
X420534Y526140D01*
X420691Y526077D01*
X420836Y526003D01*
X420970Y525919D01*
X421054Y525855D01*
X422955Y523955D01*
X423434Y523634D01*
X424000Y523522D01*
X450323D01*
X450429Y523507D01*
X450583Y523472D01*
X450737Y523421D01*
X450893Y523355D01*
X451051Y523272D01*
X451211Y523171D01*
X451373Y523050D01*
X451538Y522910D01*
X451720Y522736D01*
X451773Y522702D01*
X452035Y522439D01*
X452765Y522018D01*
X453579Y521800D01*
X454421D01*
X455235Y522018D01*
X455965Y522439D01*
X456561Y523035D01*
X456982Y523765D01*
X457200Y524579D01*
Y525421D01*
X456982Y526235D01*
X456561Y526965D01*
X455965Y527561D01*
X455591Y527776D01*
X455725Y528276D01*
X459993D01*
X461635Y526635D01*
X462032Y526370D01*
X462500Y526276D01*
X464286D01*
Y494029D01*
X464341Y493756D01*
X464495Y493524D01*
X464727Y493370D01*
X465189Y493178D01*
X465462Y493124D01*
X465735Y493178D01*
X465927Y493307D01*
X466111Y493317D01*
X466468Y493222D01*
X466505Y493080D01*
X467000Y492224D01*
X467699Y491524D01*
X468556Y491030D01*
X468697Y490992D01*
X468827Y490509D01*
X464495Y486178D01*
X464341Y485946D01*
X464286Y485673D01*
Y452782D01*
X464189Y452683D01*
X463652Y452581D01*
X462922Y453003D01*
X462109Y453221D01*
X461266D01*
X460452Y453003D01*
X459722Y452581D01*
X459127Y451986D01*
X458705Y451256D01*
X458487Y450442D01*
Y449599D01*
X458705Y448786D01*
X459127Y448056D01*
X459722Y447460D01*
X460452Y447039D01*
X461266Y446821D01*
X462109D01*
X462922Y447039D01*
X463652Y447460D01*
X463786Y447594D01*
X464010Y447564D01*
X464286Y447305D01*
Y434000D01*
X464341Y433727D01*
X464495Y433495D01*
X464727Y433341D01*
X465000Y433286D01*
X518286D01*
Y427000D01*
X518341Y426727D01*
X518495Y426495D01*
X518727Y426341D01*
X519000Y426286D01*
X534500D01*
X534773Y426341D01*
X535005Y426495D01*
X535159Y426727D01*
X535214Y427000D01*
Y444500D01*
X535159Y444773D01*
X535005Y445005D01*
X534773Y445159D01*
X534500Y445214D01*
X491214D01*
Y447800D01*
X491421D01*
X492235Y448018D01*
X492965Y448439D01*
X493561Y449035D01*
X493982Y449765D01*
X494200Y450579D01*
Y451421D01*
X493982Y452235D01*
X493561Y452965D01*
X493530Y452995D01*
Y479369D01*
X494030Y479521D01*
X494041Y479505D01*
X498910Y474635D01*
X499307Y474370D01*
X499776Y474276D01*
X537466D01*
X537895Y473847D01*
X538612Y473550D01*
X539388D01*
X540105Y473847D01*
X540653Y474395D01*
X540950Y475112D01*
Y475888D01*
X540653Y476605D01*
X540105Y477153D01*
X539388Y477450D01*
X538612D01*
X537895Y477153D01*
X537466Y476723D01*
X500282D01*
X496129Y480876D01*
Y483386D01*
X496629Y483582D01*
X497077Y483135D01*
X497473Y482870D01*
X497942Y482776D01*
X515000D01*
X515003Y482777D01*
X515705Y482869D01*
X516362Y483142D01*
X516926Y483574D01*
X517358Y484138D01*
X517631Y484795D01*
X517723Y485497D01*
X517724Y485500D01*
Y488064D01*
X518197Y488251D01*
X518277Y488182D01*
Y485500D01*
X518277Y485497D01*
X518369Y484795D01*
X518642Y484138D01*
X519074Y483574D01*
X519638Y483142D01*
X520295Y482869D01*
X520997Y482777D01*
X521000Y482776D01*
X537466D01*
X537895Y482347D01*
X538612Y482050D01*
X539388D01*
X540105Y482347D01*
X540653Y482895D01*
X540950Y483612D01*
Y484388D01*
X540653Y485105D01*
X540105Y485653D01*
X539388Y485950D01*
X538612D01*
X537895Y485653D01*
X537466Y485223D01*
X521000D01*
Y485229D01*
X520809Y485309D01*
X520729Y485500D01*
X520724D01*
Y488649D01*
X520723Y488652D01*
X520631Y489354D01*
X520359Y490011D01*
X519926Y490575D01*
X519362Y491008D01*
X518705Y491280D01*
X518000Y491372D01*
X517295Y491280D01*
X516638Y491008D01*
X516074Y490575D01*
X515642Y490011D01*
X515370Y489354D01*
X515277Y488652D01*
X515276Y488649D01*
Y485500D01*
X515271D01*
X515191Y485309D01*
X515000Y485229D01*
Y485223D01*
X498579D01*
Y494974D01*
X499079Y495154D01*
X499751Y494875D01*
X500527D01*
X501244Y495172D01*
X501792Y495721D01*
X502089Y496438D01*
Y497213D01*
X501792Y497930D01*
X501493Y498229D01*
X501458Y498280D01*
X501407Y498328D01*
X501385Y498354D01*
X501365Y498383D01*
X501347Y498414D01*
X501331Y498450D01*
X501316Y498492D01*
X501303Y498543D01*
X501293Y498601D01*
Y504297D01*
X501303Y504361D01*
X501317Y504421D01*
X501333Y504474D01*
X501351Y504522D01*
X501372Y504565D01*
X501396Y504604D01*
X501421Y504641D01*
X501470Y504698D01*
X501487Y504729D01*
X501653Y504895D01*
X501950Y505612D01*
Y506388D01*
X501653Y507105D01*
X501105Y507653D01*
X500807Y507776D01*
X500906Y508277D01*
X504277D01*
Y493586D01*
X504370Y493118D01*
X504635Y492721D01*
X505221Y492135D01*
X505618Y491870D01*
X506086Y491777D01*
X515000D01*
X515003Y491777D01*
X515705Y491869D01*
X516362Y492142D01*
X516926Y492574D01*
X517358Y493138D01*
X517631Y493795D01*
X517723Y494497D01*
X517724Y494500D01*
Y497869D01*
X518197Y498057D01*
X518277Y497988D01*
Y494500D01*
X518277Y494497D01*
X518369Y493795D01*
X518642Y493138D01*
X519074Y492574D01*
X519638Y492142D01*
X520295Y491869D01*
X520997Y491777D01*
X521000Y491777D01*
X537466D01*
X537895Y491347D01*
X538612Y491050D01*
X539388D01*
X540105Y491347D01*
X540653Y491895D01*
X540950Y492612D01*
Y493388D01*
X540653Y494105D01*
X540105Y494653D01*
X539388Y494950D01*
X538612D01*
X537895Y494653D01*
X537466Y494223D01*
X521000D01*
Y494229D01*
X520809Y494309D01*
X520729Y494500D01*
X520724D01*
Y498454D01*
X520723Y498458D01*
X520631Y499159D01*
X520359Y499816D01*
X519926Y500380D01*
X519362Y500813D01*
X518705Y501085D01*
X518000Y501178D01*
X517295Y501085D01*
X516638Y500813D01*
X516074Y500380D01*
X515642Y499816D01*
X515370Y499159D01*
X515277Y498458D01*
X515276Y498454D01*
Y494500D01*
X515271D01*
X515191Y494309D01*
X515000Y494229D01*
Y494223D01*
X506723D01*
Y508914D01*
X506630Y509382D01*
X506365Y509779D01*
X505779Y510365D01*
X505382Y510630D01*
X504914Y510723D01*
X497242D01*
X497181Y510734D01*
X497126Y510747D01*
X497078Y510763D01*
X497036Y510780D01*
X496999Y510800D01*
X496965Y510822D01*
X496933Y510847D01*
X496880Y510896D01*
X496831Y510927D01*
X496605Y511153D01*
X495888Y511450D01*
X495112D01*
X494395Y511153D01*
X493847Y510605D01*
X493550Y509888D01*
Y509112D01*
X493847Y508395D01*
X494018Y508224D01*
X493945Y507653D01*
X493397Y507105D01*
X493100Y506388D01*
Y505612D01*
X493397Y504895D01*
X493945Y504347D01*
X494429Y504147D01*
X494430Y504137D01*
X494379Y503626D01*
X493801Y503387D01*
X493253Y502838D01*
X492956Y502122D01*
Y501743D01*
X492456Y501536D01*
X490345Y503646D01*
Y515029D01*
X493471Y518155D01*
X518000D01*
X518897Y518333D01*
X519658Y518842D01*
X524158Y523342D01*
X524667Y524103D01*
X524845Y525000D01*
X524845Y525000D01*
Y550000D01*
X570000D01*
Y360000D01*
D02*
G37*
G36*
X428527Y531012D02*
X428995Y530613D01*
X429220Y530450D01*
X429439Y530312D01*
X429653Y530200D01*
X429860Y530113D01*
X430062Y530050D01*
X430259Y530013D01*
X430449Y530000D01*
Y529000D01*
X430259Y528988D01*
X430062Y528950D01*
X429860Y528888D01*
X429653Y528800D01*
X429439Y528687D01*
X429220Y528550D01*
X428995Y528387D01*
X428764Y528200D01*
X428285Y527750D01*
Y531250D01*
X428527Y531012D01*
D02*
G37*
G36*
X417715Y527750D02*
X417517Y527940D01*
X417317Y528110D01*
X417114Y528260D01*
X416908Y528390D01*
X416700Y528500D01*
X416488Y528590D01*
X416274Y528660D01*
X416057Y528710D01*
X415838Y528740D01*
X415615Y528750D01*
Y530250D01*
X415838Y530260D01*
X416057Y530290D01*
X416274Y530340D01*
X416488Y530410D01*
X416700Y530500D01*
X416908Y530610D01*
X417114Y530740D01*
X417317Y530890D01*
X417517Y531060D01*
X417715Y531250D01*
Y527750D01*
D02*
G37*
G36*
X508215Y526750D02*
X508062Y526893D01*
X507899Y527020D01*
X507725Y527133D01*
X507541Y527230D01*
X507346Y527313D01*
X507140Y527380D01*
X506923Y527432D01*
X506696Y527470D01*
X506458Y527493D01*
X506209Y527500D01*
Y529500D01*
X506458Y529507D01*
X506696Y529530D01*
X506923Y529567D01*
X507140Y529620D01*
X507346Y529688D01*
X507541Y529770D01*
X507725Y529868D01*
X507899Y529980D01*
X508062Y530107D01*
X508215Y530250D01*
Y526750D01*
D02*
G37*
G36*
X452409Y527776D02*
X452035Y527561D01*
X451773Y527298D01*
X451720Y527264D01*
X451538Y527090D01*
X451373Y526950D01*
X451211Y526829D01*
X451051Y526728D01*
X450893Y526645D01*
X450737Y526579D01*
X450583Y526528D01*
X450429Y526493D01*
X450323Y526478D01*
X428666D01*
X428523Y526807D01*
X428504Y526978D01*
X428724Y527199D01*
X428774Y527230D01*
X429234Y527662D01*
X429429Y527821D01*
X429619Y527958D01*
X429795Y528069D01*
X429958Y528154D01*
X430105Y528216D01*
X430235Y528256D01*
X430340Y528276D01*
X452275D01*
X452409Y527776D01*
D02*
G37*
G36*
X422005Y529201D02*
X422026Y528939D01*
X422064Y528690D01*
X422118Y528452D01*
X422187Y528227D01*
X422273Y528014D01*
X422375Y527813D01*
X422493Y527624D01*
X422627Y527448D01*
X422777Y527283D01*
X421717Y526223D01*
X421552Y526373D01*
X421376Y526507D01*
X421187Y526625D01*
X420986Y526727D01*
X420773Y526813D01*
X420548Y526882D01*
X420310Y526936D01*
X420061Y526973D01*
X419799Y526995D01*
X419525Y527000D01*
X422000Y529475D01*
X422005Y529201D01*
D02*
G37*
G36*
X520155Y525971D02*
X517029Y522845D01*
X492500D01*
X492500Y522845D01*
X491714Y522689D01*
X491352Y522887D01*
X491214Y523008D01*
Y527182D01*
X491676Y527373D01*
X491774Y527274D01*
X491774Y527274D01*
X492337Y526899D01*
X493000Y526767D01*
X506552D01*
X506604Y526762D01*
X506781Y526733D01*
X506944Y526693D01*
X507095Y526644D01*
X507235Y526585D01*
X507364Y526516D01*
X507485Y526438D01*
X507598Y526350D01*
X507727Y526229D01*
X507776Y526198D01*
X508035Y525939D01*
X508765Y525518D01*
X509579Y525300D01*
X510421D01*
X511235Y525518D01*
X511965Y525939D01*
X512561Y526535D01*
X512982Y527265D01*
X513200Y528079D01*
Y528921D01*
X512982Y529735D01*
X512561Y530465D01*
X511965Y531061D01*
X511235Y531482D01*
X510421Y531700D01*
X509579D01*
X508765Y531482D01*
X508035Y531061D01*
X507776Y530802D01*
X507727Y530771D01*
X507598Y530650D01*
X507485Y530562D01*
X507364Y530484D01*
X507235Y530415D01*
X507095Y530357D01*
X506944Y530307D01*
X506781Y530267D01*
X506604Y530238D01*
X506552Y530233D01*
X493718D01*
X493229Y530722D01*
X493229Y530723D01*
X490733Y533218D01*
Y539105D01*
X491196Y539196D01*
X491233Y539196D01*
X500804D01*
Y548804D01*
X497104D01*
X497038Y549304D01*
X497854Y549523D01*
X498680Y550000D01*
X520155D01*
Y525971D01*
D02*
G37*
G36*
X452215Y523250D02*
X452017Y523440D01*
X451817Y523610D01*
X451614Y523760D01*
X451408Y523890D01*
X451200Y524000D01*
X450988Y524090D01*
X450774Y524160D01*
X450557Y524210D01*
X450338Y524240D01*
X450115Y524250D01*
Y525750D01*
X450338Y525760D01*
X450557Y525790D01*
X450774Y525840D01*
X450988Y525910D01*
X451200Y526000D01*
X451408Y526110D01*
X451614Y526240D01*
X451817Y526390D01*
X452017Y526560D01*
X452215Y526750D01*
Y523250D01*
D02*
G37*
G36*
X496469Y510304D02*
X496550Y510240D01*
X496637Y510184D01*
X496730Y510135D01*
X496827Y510094D01*
X496930Y510060D01*
X497039Y510034D01*
X497152Y510015D01*
X497271Y510004D01*
X497396Y510000D01*
Y509000D01*
X497271Y508996D01*
X497152Y508985D01*
X497039Y508966D01*
X496930Y508940D01*
X496827Y508906D01*
X496730Y508865D01*
X496637Y508816D01*
X496550Y508760D01*
X496469Y508696D01*
X496393Y508625D01*
Y510375D01*
X496469Y510304D01*
D02*
G37*
G36*
X500856Y505078D02*
X500796Y504993D01*
X500743Y504903D01*
X500697Y504808D01*
X500658Y504709D01*
X500626Y504604D01*
X500601Y504495D01*
X500584Y504381D01*
X500573Y504261D01*
X500570Y504137D01*
X499570Y504076D01*
X499566Y504201D01*
X499554Y504320D01*
X499534Y504433D01*
X499507Y504540D01*
X499471Y504642D01*
X499428Y504737D01*
X499377Y504827D01*
X499318Y504910D01*
X499251Y504988D01*
X499176Y505060D01*
X500923Y505158D01*
X500856Y505078D01*
D02*
G37*
G36*
X495710Y500765D02*
X495646Y500683D01*
X495590Y500596D01*
X495541Y500504D01*
X495500Y500407D01*
X495466Y500304D01*
X495440Y500195D01*
X495421Y500081D01*
X495410Y499962D01*
X495406Y499838D01*
X494406D01*
X494402Y499962D01*
X494391Y500081D01*
X494372Y500195D01*
X494346Y500304D01*
X494312Y500407D01*
X494271Y500504D01*
X494222Y500596D01*
X494166Y500683D01*
X494102Y500765D01*
X494031Y500841D01*
X495781D01*
X495710Y500765D01*
D02*
G37*
G36*
X500574Y498624D02*
X500585Y498505D01*
X500605Y498392D01*
X500633Y498285D01*
X500668Y498184D01*
X500711Y498088D01*
X500763Y497999D01*
X500821Y497915D01*
X500888Y497837D01*
X500963Y497765D01*
X499216Y497668D01*
X499283Y497748D01*
X499343Y497833D01*
X499396Y497923D01*
X499442Y498017D01*
X499481Y498117D01*
X499513Y498221D01*
X499538Y498331D01*
X499555Y498445D01*
X499566Y498564D01*
X499570Y498688D01*
X500570Y498749D01*
X500574Y498624D01*
D02*
G37*
%LPC*%
G36*
X480461Y497986D02*
X479551D01*
X478672Y497750D01*
X477883Y497295D01*
X477240Y496652D01*
X476785Y495864D01*
X476550Y494985D01*
Y494075D01*
X476785Y493196D01*
X477240Y492408D01*
X477883Y491764D01*
X478672Y491309D01*
X479551Y491074D01*
X480461D01*
X481339Y491309D01*
X482128Y491764D01*
X482771Y492408D01*
X483226Y493196D01*
X483461Y494075D01*
Y494985D01*
X483226Y495864D01*
X482771Y496652D01*
X482128Y497295D01*
X481339Y497750D01*
X480461Y497986D01*
D02*
G37*
G36*
X562039Y802539D02*
X552961D01*
Y793461D01*
X562039D01*
Y802539D01*
D02*
G37*
G36*
X215412D02*
X214217D01*
X213063Y802229D01*
X212028Y801632D01*
X211183Y800787D01*
X210586Y799752D01*
X210276Y798597D01*
Y797402D01*
X210586Y796248D01*
X211183Y795213D01*
X212028Y794368D01*
X213063Y793771D01*
X214217Y793461D01*
X215412D01*
X216567Y793771D01*
X217602Y794368D01*
X218447Y795213D01*
X219044Y796248D01*
X219354Y797402D01*
Y798597D01*
X219044Y799752D01*
X218447Y800787D01*
X217602Y801632D01*
X216567Y802229D01*
X215412Y802539D01*
D02*
G37*
G36*
X546000Y803714D02*
X510000D01*
X509727Y803659D01*
X509495Y803505D01*
X509341Y803273D01*
X509286Y803000D01*
Y793000D01*
X509341Y792727D01*
X509495Y792495D01*
X509727Y792341D01*
X510000Y792286D01*
X546000D01*
X546273Y792341D01*
X546505Y792495D01*
X546659Y792727D01*
X546714Y793000D01*
Y803000D01*
X546659Y803273D01*
X546505Y803505D01*
X546273Y803659D01*
X546000Y803714D01*
D02*
G37*
G36*
X269000D02*
X228750D01*
X228477Y803659D01*
X228245Y803505D01*
X228091Y803273D01*
X228036Y803000D01*
Y793000D01*
X228091Y792727D01*
X228245Y792495D01*
X228477Y792341D01*
X228750Y792286D01*
X269000D01*
X269273Y792341D01*
X269505Y792495D01*
X269659Y792727D01*
X269714Y793000D01*
Y803000D01*
X269659Y803273D01*
X269505Y803505D01*
X269273Y803659D01*
X269000Y803714D01*
D02*
G37*
G36*
X273712Y753432D02*
X272808D01*
X271935Y753198D01*
X271152Y752746D01*
X270513Y752107D01*
X270061Y751325D01*
X269828Y750452D01*
Y749548D01*
X270061Y748675D01*
X270513Y747893D01*
X271152Y747254D01*
X271935Y746802D01*
X272808Y746568D01*
X273712D01*
X274585Y746802D01*
X275367Y747254D01*
X276006Y747893D01*
X276458Y748675D01*
X276692Y749548D01*
Y750452D01*
X276458Y751325D01*
X276006Y752107D01*
X275367Y752746D01*
X274585Y753198D01*
X273712Y753432D01*
D02*
G37*
G36*
X293397Y737684D02*
X292493D01*
X291620Y737450D01*
X290837Y736999D01*
X290198Y736359D01*
X289746Y735577D01*
X289513Y734704D01*
Y733800D01*
X289746Y732927D01*
X290198Y732144D01*
X290837Y731505D01*
X291620Y731054D01*
X292493Y730820D01*
X293397D01*
X294270Y731054D01*
X295052Y731505D01*
X295691Y732144D01*
X296143Y732927D01*
X296377Y733800D01*
Y734704D01*
X296143Y735577D01*
X295691Y736359D01*
X295052Y736999D01*
X294270Y737450D01*
X293397Y737684D01*
D02*
G37*
G36*
X285523D02*
X284619D01*
X283746Y737450D01*
X282963Y736999D01*
X282324Y736359D01*
X281873Y735577D01*
X281639Y734704D01*
Y733800D01*
X281873Y732927D01*
X282324Y732144D01*
X282963Y731505D01*
X283746Y731054D01*
X284619Y730820D01*
X285523D01*
X286396Y731054D01*
X287178Y731505D01*
X287817Y732144D01*
X288269Y732927D01*
X288503Y733800D01*
Y734704D01*
X288269Y735577D01*
X287817Y736359D01*
X287178Y736999D01*
X286396Y737450D01*
X285523Y737684D01*
D02*
G37*
G36*
X277649D02*
X276745D01*
X275872Y737450D01*
X275089Y736999D01*
X274450Y736359D01*
X273998Y735577D01*
X273765Y734704D01*
Y733800D01*
X273998Y732927D01*
X274450Y732144D01*
X275089Y731505D01*
X275872Y731054D01*
X276745Y730820D01*
X277649D01*
X278522Y731054D01*
X279304Y731505D01*
X279943Y732144D01*
X280395Y732927D01*
X280629Y733800D01*
Y734704D01*
X280395Y735577D01*
X279943Y736359D01*
X279304Y736999D01*
X278522Y737450D01*
X277649Y737684D01*
D02*
G37*
G36*
X504822Y737432D02*
X503918D01*
X503045Y737198D01*
X502263Y736747D01*
X501624Y736107D01*
X501172Y735325D01*
X500938Y734452D01*
Y733548D01*
X501172Y732675D01*
X501624Y731892D01*
X502263Y731253D01*
X503045Y730802D01*
X503918Y730568D01*
X504822D01*
X505695Y730802D01*
X506477Y731253D01*
X507117Y731892D01*
X507569Y732675D01*
X507802Y733548D01*
Y734452D01*
X507569Y735325D01*
X507117Y736107D01*
X506477Y736747D01*
X505695Y737198D01*
X504822Y737432D01*
D02*
G37*
G36*
X496948D02*
X496044D01*
X495171Y737198D01*
X494389Y736747D01*
X493750Y736107D01*
X493298Y735325D01*
X493064Y734452D01*
Y733548D01*
X493298Y732675D01*
X493750Y731892D01*
X494389Y731253D01*
X495171Y730802D01*
X496044Y730568D01*
X496948D01*
X497821Y730802D01*
X498603Y731253D01*
X499243Y731892D01*
X499694Y732675D01*
X499928Y733548D01*
Y734452D01*
X499694Y735325D01*
X499243Y736107D01*
X498603Y736747D01*
X497821Y737198D01*
X496948Y737432D01*
D02*
G37*
G36*
X489074D02*
X488170D01*
X487297Y737198D01*
X486515Y736747D01*
X485876Y736107D01*
X485424Y735325D01*
X485190Y734452D01*
Y733548D01*
X485424Y732675D01*
X485876Y731892D01*
X486515Y731253D01*
X487297Y730802D01*
X488170Y730568D01*
X489074D01*
X489947Y730802D01*
X490730Y731253D01*
X491369Y731892D01*
X491820Y732675D01*
X492054Y733548D01*
Y734452D01*
X491820Y735325D01*
X491369Y736107D01*
X490730Y736747D01*
X489947Y737198D01*
X489074Y737432D01*
D02*
G37*
G36*
X301271Y737684D02*
X300367D01*
X299494Y737450D01*
X298711Y736999D01*
X298072Y736359D01*
X297621Y735577D01*
X297387Y734704D01*
Y733800D01*
X297621Y732927D01*
X298072Y732144D01*
X298356Y731861D01*
X298388Y731811D01*
X298879Y731290D01*
X299063Y731067D01*
X299222Y730851D01*
X299351Y730651D01*
X299451Y730467D01*
X299524Y730302D01*
X299571Y730157D01*
X299595Y730035D01*
Y725681D01*
X299689Y725213D01*
X299954Y724816D01*
X305135Y719635D01*
X305532Y719370D01*
X306000Y719277D01*
X350493D01*
X357776Y711993D01*
Y691242D01*
X357766Y691181D01*
X357753Y691126D01*
X357737Y691078D01*
X357719Y691036D01*
X357700Y690999D01*
X357678Y690965D01*
X357653Y690933D01*
X357604Y690880D01*
X357573Y690831D01*
X357347Y690605D01*
X357050Y689888D01*
Y689112D01*
X357347Y688395D01*
X357895Y687847D01*
X358612Y687550D01*
X359388D01*
X360105Y687847D01*
X360653Y688395D01*
X360950Y689112D01*
Y689888D01*
X360653Y690605D01*
X360427Y690831D01*
X360396Y690880D01*
X360347Y690933D01*
X360322Y690965D01*
X360300Y690999D01*
X360280Y691036D01*
X360263Y691078D01*
X360247Y691126D01*
X360234Y691181D01*
X360224Y691242D01*
Y712500D01*
X360130Y712968D01*
X359865Y713365D01*
X351865Y721365D01*
X351468Y721630D01*
X351000Y721724D01*
X306507D01*
X302042Y726188D01*
Y730035D01*
X302067Y730157D01*
X302114Y730302D01*
X302186Y730467D01*
X302286Y730651D01*
X302415Y730851D01*
X302569Y731060D01*
X302988Y731544D01*
X303240Y731800D01*
X303277Y731856D01*
X303565Y732144D01*
X304017Y732927D01*
X304251Y733800D01*
Y734704D01*
X304017Y735577D01*
X303565Y736359D01*
X302926Y736999D01*
X302144Y737450D01*
X301271Y737684D01*
D02*
G37*
G36*
X540985Y710011D02*
X539015D01*
X537070Y709703D01*
X535197Y709094D01*
X533443Y708200D01*
X531850Y707043D01*
X530457Y705650D01*
X529300Y704057D01*
X528406Y702303D01*
X527797Y700430D01*
X527489Y698485D01*
Y696515D01*
X527797Y694570D01*
X528406Y692697D01*
X529300Y690943D01*
X530457Y689350D01*
X531850Y687957D01*
X533443Y686800D01*
X535197Y685906D01*
X537070Y685297D01*
X539015Y684989D01*
X540985D01*
X542930Y685297D01*
X544803Y685906D01*
X546557Y686800D01*
X548150Y687957D01*
X549543Y689350D01*
X550700Y690943D01*
X551594Y692697D01*
X552203Y694570D01*
X552511Y696515D01*
Y698485D01*
X552203Y700430D01*
X551594Y702303D01*
X550700Y704057D01*
X549543Y705650D01*
X548150Y707043D01*
X546557Y708200D01*
X544803Y709094D01*
X542930Y709703D01*
X540985Y710011D01*
D02*
G37*
G36*
X230985D02*
X229015D01*
X227070Y709703D01*
X225197Y709094D01*
X223443Y708200D01*
X221850Y707043D01*
X220457Y705650D01*
X219300Y704057D01*
X218406Y702303D01*
X217797Y700430D01*
X217489Y698485D01*
Y696515D01*
X217797Y694570D01*
X218406Y692697D01*
X219300Y690943D01*
X220457Y689350D01*
X221850Y687957D01*
X223443Y686800D01*
X225197Y685906D01*
X227070Y685297D01*
X229015Y684989D01*
X230985D01*
X232930Y685297D01*
X234803Y685906D01*
X236557Y686800D01*
X238150Y687957D01*
X239543Y689350D01*
X240700Y690943D01*
X241594Y692697D01*
X242203Y694570D01*
X242511Y696515D01*
Y698485D01*
X242203Y700430D01*
X241594Y702303D01*
X240700Y704057D01*
X239543Y705650D01*
X238150Y707043D01*
X236557Y708200D01*
X234803Y709094D01*
X232930Y709703D01*
X230985Y710011D01*
D02*
G37*
G36*
X272755Y737684D02*
X265891D01*
Y730820D01*
X270620D01*
X270629Y730818D01*
X270637Y730820D01*
X270959D01*
X271035Y730767D01*
X271310Y730534D01*
X278210Y723635D01*
X278607Y723370D01*
X279075Y723277D01*
X295493D01*
X302635Y716135D01*
X303032Y715870D01*
X303472Y715782D01*
X303519Y715735D01*
X303916Y715470D01*
X304385Y715377D01*
X348878D01*
X352276Y711978D01*
Y686242D01*
X352266Y686181D01*
X352253Y686126D01*
X352237Y686078D01*
X352220Y686036D01*
X352200Y685999D01*
X352178Y685965D01*
X352153Y685933D01*
X352104Y685880D01*
X352073Y685831D01*
X351847Y685605D01*
X351550Y684888D01*
Y684112D01*
X351847Y683395D01*
X352395Y682847D01*
X353112Y682550D01*
X353888D01*
X354605Y682847D01*
X355153Y683395D01*
X355450Y684112D01*
Y684888D01*
X355153Y685605D01*
X354927Y685831D01*
X354896Y685880D01*
X354847Y685933D01*
X354822Y685965D01*
X354800Y685999D01*
X354781Y686036D01*
X354763Y686078D01*
X354747Y686126D01*
X354734Y686181D01*
X354724Y686242D01*
Y712485D01*
X354630Y712953D01*
X354365Y713350D01*
X350250Y717465D01*
X349853Y717730D01*
X349385Y717824D01*
X304891D01*
X304850Y717865D01*
X304453Y718130D01*
X304012Y718218D01*
X296865Y725365D01*
X296468Y725630D01*
X296000Y725724D01*
X279582D01*
X273084Y732221D01*
X272923Y732394D01*
X272813Y732532D01*
X272755Y732615D01*
Y732937D01*
X272757Y732946D01*
X272755Y732955D01*
Y737684D01*
D02*
G37*
G36*
X550637Y653524D02*
X550500D01*
Y649185D01*
X554839D01*
Y649322D01*
X554509Y650553D01*
X553872Y651656D01*
X552971Y652557D01*
X551868Y653194D01*
X550637Y653524D01*
D02*
G37*
G36*
X549500D02*
X549363D01*
X548132Y653194D01*
X547029Y652557D01*
X546128Y651656D01*
X545491Y650553D01*
X545161Y649322D01*
Y649185D01*
X549500D01*
Y653524D01*
D02*
G37*
G36*
X230126Y653648D02*
X221048D01*
Y644570D01*
X230126D01*
Y653648D01*
D02*
G37*
G36*
X554839Y648185D02*
X550500D01*
Y643847D01*
X550637D01*
X551868Y644176D01*
X552971Y644813D01*
X553872Y645714D01*
X554509Y646817D01*
X554839Y648048D01*
Y648185D01*
D02*
G37*
G36*
X549500D02*
X545161D01*
Y648048D01*
X545491Y646817D01*
X546128Y645714D01*
X547029Y644813D01*
X548132Y644176D01*
X549363Y643847D01*
X549500D01*
Y648185D01*
D02*
G37*
G36*
X496672Y643104D02*
X496500D01*
Y638500D01*
X501104D01*
Y638672D01*
X500757Y639970D01*
X500084Y641134D01*
X499134Y642085D01*
X497970Y642757D01*
X496672Y643104D01*
D02*
G37*
G36*
X226185Y633963D02*
X224990D01*
X223835Y633653D01*
X222800Y633056D01*
X221955Y632211D01*
X221358Y631176D01*
X221048Y630022D01*
Y628827D01*
X221358Y627672D01*
X221955Y626637D01*
X222800Y625792D01*
X223835Y625195D01*
X224990Y624886D01*
X226185D01*
X227339Y625195D01*
X228374Y625792D01*
X229219Y626637D01*
X229816Y627672D01*
X230126Y628827D01*
Y630022D01*
X229816Y631176D01*
X229219Y632211D01*
X228374Y633056D01*
X227339Y633653D01*
X226185Y633963D01*
D02*
G37*
G36*
X550597Y633539D02*
X549403D01*
X548248Y633229D01*
X547213Y632632D01*
X546368Y631787D01*
X545771Y630752D01*
X545461Y629598D01*
Y628403D01*
X545771Y627248D01*
X546368Y626213D01*
X547213Y625368D01*
X548248Y624771D01*
X549403Y624461D01*
X550597D01*
X551752Y624771D01*
X552787Y625368D01*
X553632Y626213D01*
X554229Y627248D01*
X554539Y628403D01*
Y629598D01*
X554229Y630752D01*
X553632Y631787D01*
X552787Y632632D01*
X551752Y633229D01*
X550597Y633539D01*
D02*
G37*
G36*
X284804Y644039D02*
X275196D01*
Y634431D01*
X278896D01*
X278962Y633931D01*
X278146Y633712D01*
X277050Y633080D01*
X276156Y632185D01*
X275523Y631090D01*
X275196Y629868D01*
Y628603D01*
X275523Y627381D01*
X276156Y626285D01*
X277050Y625391D01*
X278146Y624758D01*
X278552Y624649D01*
Y624132D01*
X278030Y623992D01*
X276866Y623320D01*
X275916Y622369D01*
X275243Y621205D01*
X274896Y619907D01*
Y619735D01*
X280000D01*
X285104D01*
Y619907D01*
X284756Y621205D01*
X284085Y622369D01*
X283134Y623320D01*
X281970Y623992D01*
X281448Y624132D01*
Y624649D01*
X281854Y624758D01*
X282950Y625391D01*
X283844Y626285D01*
X284477Y627381D01*
X284804Y628603D01*
Y629868D01*
X284477Y631090D01*
X283844Y632185D01*
X282950Y633080D01*
X281854Y633712D01*
X281038Y633931D01*
X281104Y634431D01*
X284804D01*
Y644039D01*
D02*
G37*
G36*
X285104Y618735D02*
X280500D01*
Y614131D01*
X280672D01*
X281970Y614479D01*
X283134Y615151D01*
X284085Y616101D01*
X284756Y617265D01*
X285104Y618563D01*
Y618735D01*
D02*
G37*
G36*
X279500D02*
X274896D01*
Y618563D01*
X275243Y617265D01*
X275916Y616101D01*
X276866Y615151D01*
X278030Y614479D01*
X279328Y614131D01*
X279500D01*
Y618735D01*
D02*
G37*
G36*
X226224Y614578D02*
X226087D01*
Y610239D01*
X230426D01*
Y610376D01*
X230096Y611607D01*
X229459Y612710D01*
X228558Y613611D01*
X227455Y614248D01*
X226224Y614578D01*
D02*
G37*
G36*
X225087D02*
X224950D01*
X223719Y614248D01*
X222616Y613611D01*
X221715Y612710D01*
X221078Y611607D01*
X220748Y610376D01*
Y610239D01*
X225087D01*
Y614578D01*
D02*
G37*
G36*
X230426Y609239D02*
X226087D01*
Y604900D01*
X226224D01*
X227455Y605230D01*
X228558Y605867D01*
X229459Y606768D01*
X230096Y607871D01*
X230426Y609102D01*
Y609239D01*
D02*
G37*
G36*
X225087D02*
X220748D01*
Y609102D01*
X221078Y607871D01*
X221715Y606768D01*
X222616Y605867D01*
X223719Y605230D01*
X224950Y604900D01*
X225087D01*
Y609239D01*
D02*
G37*
G36*
X554539Y613854D02*
X545461D01*
Y604776D01*
X554539D01*
Y613854D01*
D02*
G37*
G36*
X423421Y606700D02*
X422579D01*
X421765Y606482D01*
X421035Y606061D01*
X420439Y605465D01*
X420018Y604735D01*
X419800Y603921D01*
Y603079D01*
X420018Y602265D01*
X420439Y601535D01*
X421035Y600939D01*
X421765Y600518D01*
X422579Y600300D01*
X422945D01*
X423001Y600287D01*
X423178Y600281D01*
X423321Y600263D01*
X423461Y600233D01*
X423601Y600190D01*
X423741Y600133D01*
X423883Y600061D01*
X424027Y599974D01*
X424172Y599869D01*
X424213Y599836D01*
X434274Y589774D01*
X434837Y589399D01*
X435500Y589267D01*
X479552D01*
X479604Y589262D01*
X479781Y589233D01*
X479944Y589193D01*
X480095Y589144D01*
X480235Y589085D01*
X480364Y589016D01*
X480485Y588938D01*
X480598Y588850D01*
X480727Y588729D01*
X480776Y588698D01*
X481035Y588439D01*
X481765Y588018D01*
X482579Y587800D01*
X483421D01*
X484235Y588018D01*
X484965Y588439D01*
X485561Y589035D01*
X485982Y589765D01*
X486200Y590579D01*
Y591421D01*
X485982Y592235D01*
X485561Y592965D01*
X484965Y593561D01*
X484235Y593982D01*
X483421Y594200D01*
X482579D01*
X481765Y593982D01*
X481035Y593561D01*
X480776Y593302D01*
X480727Y593271D01*
X480598Y593150D01*
X480485Y593062D01*
X480364Y592984D01*
X480235Y592915D01*
X480095Y592857D01*
X479944Y592807D01*
X479781Y592767D01*
X479604Y592738D01*
X479552Y592733D01*
X436218D01*
X426664Y602287D01*
X426630Y602328D01*
X426526Y602473D01*
X426439Y602617D01*
X426367Y602759D01*
X426310Y602899D01*
X426267Y603039D01*
X426237Y603179D01*
X426219Y603322D01*
X426213Y603499D01*
X426200Y603555D01*
Y603921D01*
X425982Y604735D01*
X425561Y605465D01*
X424965Y606061D01*
X424235Y606482D01*
X423421Y606700D01*
D02*
G37*
G36*
X301638Y600200D02*
X300862D01*
X300145Y599903D01*
X299597Y599355D01*
X299300Y598638D01*
Y597862D01*
X299597Y597145D01*
X300145Y596597D01*
X300223Y596565D01*
X300224Y596563D01*
X300234Y596549D01*
X300245Y596529D01*
X300256Y596501D01*
X300267Y596463D01*
X300276Y596413D01*
Y589242D01*
X300266Y589181D01*
X300253Y589126D01*
X300237Y589078D01*
X300219Y589036D01*
X300200Y588999D01*
X300178Y588965D01*
X300153Y588933D01*
X300104Y588880D01*
X300073Y588831D01*
X299847Y588605D01*
X299550Y587888D01*
Y587112D01*
X299847Y586395D01*
X300395Y585847D01*
X301112Y585550D01*
X301888D01*
X302605Y585847D01*
X303153Y586395D01*
X303450Y587112D01*
Y587888D01*
X303153Y588605D01*
X302927Y588831D01*
X302896Y588880D01*
X302847Y588933D01*
X302822Y588965D01*
X302800Y588999D01*
X302781Y589036D01*
X302763Y589078D01*
X302747Y589126D01*
X302734Y589181D01*
X302724Y589242D01*
Y596685D01*
X302732Y596751D01*
X302745Y596822D01*
X302760Y596888D01*
X302779Y596949D01*
X302800Y597005D01*
X302823Y597057D01*
X302833Y597076D01*
X302903Y597145D01*
X303200Y597862D01*
Y598638D01*
X302903Y599355D01*
X302355Y599903D01*
X301638Y600200D01*
D02*
G37*
G36*
X550637Y579339D02*
X550500D01*
Y575000D01*
X554839D01*
Y575137D01*
X554509Y576368D01*
X553872Y577471D01*
X552971Y578372D01*
X551868Y579009D01*
X550637Y579339D01*
D02*
G37*
G36*
X549500D02*
X549363D01*
X548132Y579009D01*
X547029Y578372D01*
X546128Y577471D01*
X545491Y576368D01*
X545161Y575137D01*
Y575000D01*
X549500D01*
Y579339D01*
D02*
G37*
G36*
X230126Y579463D02*
X221048D01*
Y570386D01*
X230126D01*
Y579463D01*
D02*
G37*
G36*
X554839Y574000D02*
X550500D01*
Y569661D01*
X550637D01*
X551868Y569991D01*
X552971Y570628D01*
X553872Y571529D01*
X554509Y572632D01*
X554839Y573863D01*
Y574000D01*
D02*
G37*
G36*
X549500D02*
X545161D01*
Y573863D01*
X545491Y572632D01*
X546128Y571529D01*
X547029Y570628D01*
X548132Y569991D01*
X549363Y569661D01*
X549500D01*
Y574000D01*
D02*
G37*
G36*
X496672Y569104D02*
X496500D01*
Y564500D01*
X501104D01*
Y564672D01*
X500757Y565970D01*
X500084Y567134D01*
X499134Y568084D01*
X497970Y568756D01*
X496672Y569104D01*
D02*
G37*
G36*
X369908Y558253D02*
X367439D01*
Y555784D01*
X369908D01*
Y558253D01*
D02*
G37*
G36*
X366439D02*
X363971D01*
Y555784D01*
X366439D01*
Y558253D01*
D02*
G37*
G36*
X226185Y559778D02*
X224990D01*
X223835Y559468D01*
X222800Y558871D01*
X221955Y558026D01*
X221358Y556991D01*
X221048Y555836D01*
Y554641D01*
X221358Y553487D01*
X221955Y552452D01*
X222800Y551607D01*
X223835Y551010D01*
X224990Y550700D01*
X226185D01*
X227339Y551010D01*
X228374Y551607D01*
X229219Y552452D01*
X229816Y553487D01*
X230126Y554641D01*
Y555836D01*
X229816Y556991D01*
X229219Y558026D01*
X228374Y558871D01*
X227339Y559468D01*
X226185Y559778D01*
D02*
G37*
G36*
X284804Y568804D02*
X275196D01*
Y559196D01*
X278896D01*
X278962Y558696D01*
X278146Y558477D01*
X277050Y557844D01*
X276156Y556950D01*
X275523Y555854D01*
X275196Y554633D01*
Y553368D01*
X275523Y552146D01*
X276156Y551050D01*
X277050Y550156D01*
X278146Y549523D01*
X278552Y549414D01*
Y548897D01*
X278030Y548757D01*
X276866Y548084D01*
X275916Y547134D01*
X275243Y545970D01*
X274896Y544672D01*
Y544500D01*
X280000D01*
X285104D01*
Y544672D01*
X284756Y545970D01*
X284085Y547134D01*
X283134Y548084D01*
X281970Y548757D01*
X281448Y548897D01*
Y549414D01*
X281854Y549523D01*
X282950Y550156D01*
X283844Y551050D01*
X284477Y552146D01*
X284804Y553368D01*
Y554633D01*
X284477Y555854D01*
X283844Y556950D01*
X282950Y557844D01*
X281854Y558477D01*
X281038Y558696D01*
X281104Y559196D01*
X284804D01*
Y568804D01*
D02*
G37*
G36*
X285104Y543500D02*
X280500D01*
Y538896D01*
X280672D01*
X281970Y539244D01*
X283134Y539916D01*
X284085Y540866D01*
X284756Y542030D01*
X285104Y543328D01*
Y543500D01*
D02*
G37*
G36*
X279500D02*
X274896D01*
Y543328D01*
X275243Y542030D01*
X275916Y540866D01*
X276866Y539916D01*
X278030Y539244D01*
X279328Y538896D01*
X279500D01*
Y543500D01*
D02*
G37*
G36*
X226224Y540392D02*
X226087D01*
Y536054D01*
X230426D01*
Y536191D01*
X230096Y537422D01*
X229459Y538525D01*
X228558Y539426D01*
X227455Y540063D01*
X226224Y540392D01*
D02*
G37*
G36*
X225087D02*
X224950D01*
X223719Y540063D01*
X222616Y539426D01*
X221715Y538525D01*
X221078Y537422D01*
X220748Y536191D01*
Y536054D01*
X225087D01*
Y540392D01*
D02*
G37*
G36*
X230426Y535054D02*
X226087D01*
Y530715D01*
X226224D01*
X227455Y531045D01*
X228558Y531682D01*
X229459Y532583D01*
X230096Y533686D01*
X230426Y534917D01*
Y535054D01*
D02*
G37*
G36*
X225087D02*
X220748D01*
Y534917D01*
X221078Y533686D01*
X221715Y532583D01*
X222616Y531682D01*
X223719Y531045D01*
X224950Y530715D01*
X225087D01*
Y535054D01*
D02*
G37*
%LPD*%
G36*
X546000Y793000D02*
X510000D01*
Y803000D01*
X546000D01*
Y793000D01*
D02*
G37*
G36*
X269000D02*
X228750D01*
Y803000D01*
X269000D01*
Y793000D01*
D02*
G37*
G36*
X302463Y732028D02*
X302011Y731505D01*
X301827Y731256D01*
X301672Y731015D01*
X301545Y730781D01*
X301446Y730556D01*
X301375Y730338D01*
X301333Y730128D01*
X301319Y729926D01*
X300319D01*
X300305Y730128D01*
X300262Y730338D01*
X300192Y730556D01*
X300093Y730781D01*
X299966Y731015D01*
X299810Y731256D01*
X299627Y731505D01*
X299415Y731763D01*
X298906Y732301D01*
X302731D01*
X302463Y732028D01*
D02*
G37*
G36*
X359504Y691271D02*
X359515Y691152D01*
X359534Y691039D01*
X359560Y690930D01*
X359594Y690827D01*
X359635Y690730D01*
X359684Y690637D01*
X359740Y690550D01*
X359804Y690469D01*
X359875Y690393D01*
X358125D01*
X358196Y690469D01*
X358260Y690550D01*
X358316Y690637D01*
X358365Y690730D01*
X358406Y690827D01*
X358440Y690930D01*
X358466Y691039D01*
X358485Y691152D01*
X358496Y691271D01*
X358500Y691396D01*
X359500D01*
X359504Y691271D01*
D02*
G37*
G36*
X271987Y732868D02*
X271958Y732776D01*
Y732670D01*
X271987Y732550D01*
X272043Y732416D01*
X272128Y732267D01*
X272241Y732104D01*
X272382Y731928D01*
X272750Y731532D01*
X272043Y730825D01*
X271838Y731023D01*
X271470Y731334D01*
X271308Y731447D01*
X271159Y731532D01*
X271025Y731588D01*
X270905Y731616D01*
X270799D01*
X270707Y731588D01*
X270629Y731532D01*
X272043Y732946D01*
X271987Y732868D01*
D02*
G37*
G36*
X354004Y686271D02*
X354015Y686152D01*
X354034Y686038D01*
X354060Y685930D01*
X354094Y685827D01*
X354135Y685730D01*
X354184Y685637D01*
X354240Y685550D01*
X354304Y685469D01*
X354375Y685393D01*
X352625D01*
X352696Y685469D01*
X352760Y685550D01*
X352816Y685637D01*
X352865Y685730D01*
X352906Y685827D01*
X352940Y685930D01*
X352966Y686038D01*
X352985Y686152D01*
X352996Y686271D01*
X353000Y686396D01*
X354000D01*
X354004Y686271D01*
D02*
G37*
G36*
X425507Y603266D02*
X425532Y603061D01*
X425575Y602859D01*
X425637Y602659D01*
X425717Y602463D01*
X425814Y602269D01*
X425931Y602079D01*
X426065Y601892D01*
X426217Y601708D01*
X426388Y601526D01*
X424974Y600112D01*
X424792Y600283D01*
X424608Y600435D01*
X424421Y600569D01*
X424231Y600686D01*
X424037Y600783D01*
X423841Y600863D01*
X423641Y600925D01*
X423439Y600968D01*
X423234Y600993D01*
X423025Y601000D01*
X425500Y603475D01*
X425507Y603266D01*
D02*
G37*
G36*
X481215Y589250D02*
X481062Y589393D01*
X480899Y589520D01*
X480725Y589633D01*
X480541Y589730D01*
X480346Y589813D01*
X480140Y589880D01*
X479923Y589932D01*
X479696Y589970D01*
X479458Y589993D01*
X479209Y590000D01*
Y592000D01*
X479458Y592007D01*
X479696Y592030D01*
X479923Y592067D01*
X480140Y592120D01*
X480346Y592188D01*
X480541Y592270D01*
X480725Y592368D01*
X480899Y592480D01*
X481062Y592607D01*
X481215Y592750D01*
Y589250D01*
D02*
G37*
G36*
X302232Y597464D02*
X302183Y597373D01*
X302140Y597278D01*
X302103Y597179D01*
X302071Y597076D01*
X302046Y596969D01*
X302026Y596858D01*
X302011Y596743D01*
X302000Y596500D01*
X301000Y596275D01*
X300996Y596401D01*
X300983Y596520D01*
X300961Y596631D01*
X300931Y596734D01*
X300893Y596830D01*
X300846Y596919D01*
X300790Y597001D01*
X300726Y597075D01*
X300653Y597141D01*
X300571Y597200D01*
X302286Y597550D01*
X302232Y597464D01*
D02*
G37*
G36*
X302004Y589271D02*
X302015Y589152D01*
X302034Y589039D01*
X302060Y588930D01*
X302094Y588827D01*
X302135Y588730D01*
X302184Y588637D01*
X302240Y588550D01*
X302304Y588469D01*
X302375Y588393D01*
X300625D01*
X300696Y588469D01*
X300760Y588550D01*
X300816Y588637D01*
X300865Y588730D01*
X300906Y588827D01*
X300940Y588930D01*
X300966Y589039D01*
X300985Y589152D01*
X300996Y589271D01*
X301000Y589396D01*
X302000D01*
X302004Y589271D01*
D02*
G37*
%LPC*%
G36*
X369908Y547284D02*
X367439D01*
Y544816D01*
X369908D01*
Y547284D01*
D02*
G37*
G36*
X366439D02*
X363971D01*
Y544816D01*
X366439D01*
Y547284D01*
D02*
G37*
G36*
X454388Y544950D02*
X453612D01*
X452895Y544653D01*
X452347Y544105D01*
X452315Y544027D01*
X452313Y544026D01*
X452299Y544016D01*
X452279Y544005D01*
X452251Y543994D01*
X452213Y543983D01*
X452163Y543973D01*
X397250D01*
X396782Y543880D01*
X396385Y543615D01*
X391367Y538597D01*
X391316Y538561D01*
X391268Y538531D01*
X391223Y538508D01*
X391181Y538491D01*
X391140Y538479D01*
X391101Y538471D01*
X391061Y538466D01*
X390989Y538463D01*
X390932Y538450D01*
X390612D01*
X389895Y538153D01*
X389347Y537605D01*
X389050Y536888D01*
Y536112D01*
X389347Y535395D01*
X389895Y534847D01*
X390612Y534550D01*
X391388D01*
X392105Y534847D01*
X392653Y535395D01*
X392950Y536112D01*
Y536432D01*
X392963Y536489D01*
X392966Y536561D01*
X392971Y536601D01*
X392979Y536640D01*
X392991Y536681D01*
X393008Y536723D01*
X393031Y536768D01*
X393061Y536816D01*
X393097Y536867D01*
X397757Y541527D01*
X401143D01*
X401334Y541065D01*
X397367Y537097D01*
X397316Y537061D01*
X397268Y537031D01*
X397223Y537008D01*
X397181Y536991D01*
X397140Y536979D01*
X397101Y536971D01*
X397061Y536966D01*
X396989Y536963D01*
X396932Y536950D01*
X396612D01*
X395895Y536653D01*
X395347Y536105D01*
X395050Y535388D01*
Y534612D01*
X395347Y533895D01*
X395895Y533347D01*
X396612Y533050D01*
X397388D01*
X398105Y533347D01*
X398653Y533895D01*
X398950Y534612D01*
Y534932D01*
X398963Y534989D01*
X398966Y535061D01*
X398971Y535101D01*
X398979Y535140D01*
X398991Y535181D01*
X399008Y535223D01*
X399031Y535268D01*
X399061Y535316D01*
X399097Y535367D01*
X403507Y539777D01*
X448993D01*
X451903Y536867D01*
X451939Y536816D01*
X451969Y536768D01*
X451992Y536723D01*
X452009Y536681D01*
X452021Y536640D01*
X452029Y536601D01*
X452034Y536561D01*
X452037Y536489D01*
X452050Y536432D01*
Y536112D01*
X452347Y535395D01*
X452895Y534847D01*
X453612Y534550D01*
X454388D01*
X455105Y534847D01*
X455653Y535395D01*
X455950Y536112D01*
Y536888D01*
X455653Y537605D01*
X455105Y538153D01*
X454388Y538450D01*
X454068D01*
X454011Y538463D01*
X453939Y538466D01*
X453899Y538471D01*
X453860Y538479D01*
X453819Y538491D01*
X453777Y538509D01*
X453732Y538531D01*
X453684Y538561D01*
X453633Y538597D01*
X451166Y541065D01*
X451357Y541527D01*
X452435D01*
X452501Y541518D01*
X452572Y541505D01*
X452638Y541490D01*
X452699Y541471D01*
X452755Y541450D01*
X452807Y541427D01*
X452826Y541417D01*
X452895Y541347D01*
X453612Y541050D01*
X454388D01*
X455105Y541347D01*
X455653Y541895D01*
X455950Y542612D01*
Y543388D01*
X455653Y544105D01*
X455105Y544653D01*
X454388Y544950D01*
D02*
G37*
G36*
X380888Y539950D02*
X380112D01*
X379395Y539653D01*
X379169Y539427D01*
X379120Y539396D01*
X379067Y539347D01*
X379035Y539322D01*
X379001Y539300D01*
X378964Y539281D01*
X378922Y539263D01*
X378874Y539247D01*
X378819Y539234D01*
X378758Y539223D01*
X362000D01*
X361532Y539130D01*
X361135Y538865D01*
X357135Y534865D01*
X356870Y534468D01*
X356776Y534000D01*
Y520507D01*
X354993Y518723D01*
X347141D01*
X347075Y519223D01*
X348075Y519491D01*
X349300Y520199D01*
X350301Y521200D01*
X351009Y522425D01*
X351375Y523792D01*
Y525208D01*
X351009Y526575D01*
X350301Y527800D01*
X349300Y528801D01*
X348075Y529509D01*
X346708Y529875D01*
X345292D01*
X343925Y529509D01*
X342700Y528801D01*
X341699Y527800D01*
X340991Y526575D01*
X340625Y525208D01*
Y523792D01*
X340991Y522425D01*
X341699Y521200D01*
X342700Y520199D01*
X343925Y519491D01*
X344925Y519223D01*
X344859Y518723D01*
X324641D01*
X324575Y519223D01*
X325575Y519491D01*
X326800Y520199D01*
X327801Y521200D01*
X328509Y522425D01*
X328875Y523792D01*
Y525208D01*
X328509Y526575D01*
X327801Y527800D01*
X326800Y528801D01*
X325575Y529509D01*
X324208Y529875D01*
X322792D01*
X321425Y529509D01*
X320200Y528801D01*
X319199Y527800D01*
X318491Y526575D01*
X318125Y525208D01*
Y523792D01*
X318491Y522425D01*
X319199Y521200D01*
X320200Y520199D01*
X321425Y519491D01*
X322425Y519223D01*
X322359Y518723D01*
X316000D01*
X315532Y518630D01*
X315135Y518365D01*
X301993Y505224D01*
X299242D01*
X299181Y505234D01*
X299126Y505247D01*
X299078Y505263D01*
X299036Y505280D01*
X298999Y505300D01*
X298965Y505322D01*
X298933Y505347D01*
X298880Y505396D01*
X298831Y505427D01*
X298605Y505653D01*
X297888Y505950D01*
X297112D01*
X296395Y505653D01*
X295847Y505105D01*
X295550Y504388D01*
Y503612D01*
X295847Y502895D01*
X296395Y502347D01*
X297112Y502050D01*
X297888D01*
X298605Y502347D01*
X298831Y502573D01*
X298880Y502604D01*
X298933Y502653D01*
X298965Y502678D01*
X298999Y502700D01*
X299036Y502719D01*
X299078Y502737D01*
X299126Y502753D01*
X299181Y502766D01*
X299242Y502776D01*
X302500D01*
X302968Y502870D01*
X303365Y503135D01*
X316507Y516277D01*
X355500D01*
X355968Y516370D01*
X356365Y516635D01*
X358865Y519135D01*
X359130Y519532D01*
X359224Y520000D01*
Y533493D01*
X362507Y536776D01*
X378758D01*
X378819Y536766D01*
X378874Y536753D01*
X378922Y536737D01*
X378964Y536720D01*
X379001Y536700D01*
X379035Y536678D01*
X379067Y536653D01*
X379120Y536604D01*
X379169Y536573D01*
X379395Y536347D01*
X380112Y536050D01*
X380888D01*
X381605Y536347D01*
X382153Y536895D01*
X382450Y537612D01*
Y538388D01*
X382153Y539105D01*
X381605Y539653D01*
X380888Y539950D01*
D02*
G37*
G36*
X316349Y541146D02*
X315651D01*
X314977Y540966D01*
X314373Y540617D01*
X313879Y540123D01*
X313531Y539519D01*
X313350Y538845D01*
Y538147D01*
X313531Y537473D01*
X313879Y536869D01*
X314373Y536376D01*
X314977Y536027D01*
X315651Y535846D01*
X316349D01*
X317023Y536027D01*
X317627Y536376D01*
X318121Y536869D01*
X318469Y537473D01*
X318650Y538147D01*
Y538845D01*
X318469Y539519D01*
X318121Y540123D01*
X317627Y540617D01*
X317023Y540966D01*
X316349Y541146D01*
D02*
G37*
G36*
X346349Y537150D02*
X345651D01*
X344977Y536969D01*
X344373Y536621D01*
X343880Y536127D01*
X343531Y535523D01*
X343350Y534849D01*
Y534151D01*
X343531Y533477D01*
X343880Y532873D01*
X344373Y532379D01*
X344977Y532031D01*
X345651Y531850D01*
X346349D01*
X347023Y532031D01*
X347627Y532379D01*
X348120Y532873D01*
X348469Y533477D01*
X348650Y534151D01*
Y534849D01*
X348469Y535523D01*
X348120Y536127D01*
X347627Y536621D01*
X347023Y536969D01*
X346349Y537150D01*
D02*
G37*
G36*
X554539Y539669D02*
X545461D01*
Y530591D01*
X554539D01*
Y539669D01*
D02*
G37*
G36*
X316349Y533154D02*
X315651D01*
X314977Y532973D01*
X314373Y532624D01*
X313879Y532131D01*
X313531Y531527D01*
X313350Y530853D01*
Y530155D01*
X313531Y529481D01*
X313879Y528877D01*
X314373Y528383D01*
X314977Y528034D01*
X315651Y527854D01*
X316349D01*
X317023Y528034D01*
X317627Y528383D01*
X318121Y528877D01*
X318469Y529481D01*
X318650Y530155D01*
Y530853D01*
X318469Y531527D01*
X318121Y532131D01*
X317627Y532624D01*
X317023Y532973D01*
X316349Y533154D01*
D02*
G37*
G36*
X456388Y514950D02*
X455612D01*
X454895Y514653D01*
X454347Y514105D01*
X454300Y513992D01*
X454299Y513991D01*
X454291Y513983D01*
X454280Y513975D01*
X454264Y513967D01*
X454239Y513956D01*
X454203Y513946D01*
X454155Y513937D01*
X453463D01*
X452995Y513843D01*
X452598Y513578D01*
X452243Y513224D01*
X399742D01*
X399681Y513234D01*
X399626Y513247D01*
X399578Y513263D01*
X399536Y513280D01*
X399499Y513300D01*
X399465Y513322D01*
X399433Y513347D01*
X399380Y513396D01*
X399331Y513427D01*
X399105Y513653D01*
X398388Y513950D01*
X397612D01*
X396895Y513653D01*
X396347Y513105D01*
X396050Y512388D01*
Y511736D01*
X396035Y511724D01*
X390242D01*
X390181Y511734D01*
X390126Y511747D01*
X390078Y511763D01*
X390036Y511781D01*
X389999Y511800D01*
X389965Y511822D01*
X389933Y511847D01*
X389880Y511896D01*
X389831Y511927D01*
X389605Y512153D01*
X388888Y512450D01*
X388112D01*
X387395Y512153D01*
X386847Y511605D01*
X386550Y510888D01*
Y510112D01*
X386847Y509395D01*
X387395Y508847D01*
X388112Y508550D01*
X388888D01*
X389605Y508847D01*
X389831Y509073D01*
X389880Y509104D01*
X389933Y509153D01*
X389965Y509178D01*
X389999Y509200D01*
X390036Y509220D01*
X390078Y509237D01*
X390126Y509253D01*
X390181Y509266D01*
X390242Y509276D01*
X392812D01*
X393019Y508777D01*
X392847Y508605D01*
X392550Y507888D01*
Y507112D01*
X392192Y506671D01*
X392105Y506653D01*
X391388Y506950D01*
X390612D01*
X389895Y506653D01*
X389347Y506105D01*
X389050Y505388D01*
Y504612D01*
X389347Y503895D01*
X389895Y503347D01*
X390612Y503050D01*
X391388D01*
X392105Y503347D01*
X392331Y503573D01*
X392380Y503604D01*
X392433Y503653D01*
X392465Y503678D01*
X392499Y503700D01*
X392536Y503720D01*
X392578Y503737D01*
X392626Y503753D01*
X392681Y503766D01*
X392742Y503777D01*
X396594D01*
X396693Y503276D01*
X396395Y503153D01*
X395847Y502605D01*
X395550Y501888D01*
Y501112D01*
X395442Y500950D01*
X395112D01*
X394395Y500653D01*
X393847Y500105D01*
X393550Y499388D01*
Y498612D01*
X393847Y497895D01*
X394395Y497347D01*
X395112Y497050D01*
X395432D01*
X395489Y497037D01*
X395561Y497034D01*
X395601Y497029D01*
X395640Y497021D01*
X395681Y497009D01*
X395723Y496991D01*
X395768Y496969D01*
X395816Y496939D01*
X395867Y496903D01*
X396192Y496577D01*
X396158Y496061D01*
X395751Y495800D01*
X395388Y495950D01*
X394612D01*
X393895Y495653D01*
X393347Y495105D01*
X393271Y494920D01*
X392729D01*
X392653Y495105D01*
X392105Y495653D01*
X391388Y495950D01*
X390612D01*
X389895Y495653D01*
X389347Y495105D01*
X389050Y494388D01*
Y493612D01*
X389347Y492895D01*
X389573Y492669D01*
X389604Y492620D01*
X389653Y492567D01*
X389678Y492535D01*
X389700Y492501D01*
X389720Y492464D01*
X389737Y492422D01*
X389753Y492374D01*
X389766Y492319D01*
X389776Y492258D01*
Y446007D01*
X374993Y431223D01*
X358242D01*
X358181Y431234D01*
X358126Y431247D01*
X358078Y431263D01*
X358036Y431281D01*
X357999Y431300D01*
X357965Y431322D01*
X357933Y431347D01*
X357880Y431396D01*
X357831Y431427D01*
X357605Y431653D01*
X356888Y431950D01*
X356112D01*
X355395Y431653D01*
X354847Y431105D01*
X354550Y430388D01*
Y429612D01*
X354847Y428895D01*
X355395Y428347D01*
X356112Y428050D01*
X356888D01*
X357605Y428347D01*
X357831Y428573D01*
X357880Y428604D01*
X357933Y428653D01*
X357965Y428678D01*
X357999Y428700D01*
X358036Y428720D01*
X358078Y428737D01*
X358126Y428753D01*
X358181Y428766D01*
X358242Y428777D01*
X375500D01*
X375968Y428870D01*
X376365Y429135D01*
X391865Y444635D01*
X392130Y445032D01*
X392224Y445500D01*
Y492258D01*
X392234Y492319D01*
X392247Y492374D01*
X392263Y492422D01*
X392281Y492464D01*
X392300Y492501D01*
X392322Y492535D01*
X392347Y492567D01*
X392396Y492620D01*
X392427Y492669D01*
X392653Y492895D01*
X392729Y493080D01*
X393271D01*
X393347Y492895D01*
X393573Y492669D01*
X393604Y492620D01*
X393653Y492567D01*
X393678Y492535D01*
X393700Y492501D01*
X393720Y492464D01*
X393737Y492422D01*
X393753Y492374D01*
X393766Y492319D01*
X393776Y492258D01*
Y437507D01*
X388367Y432097D01*
X388316Y432061D01*
X388268Y432031D01*
X388223Y432008D01*
X388181Y431991D01*
X388140Y431979D01*
X388101Y431971D01*
X388061Y431966D01*
X387989Y431963D01*
X387932Y431950D01*
X387612D01*
X386895Y431653D01*
X386347Y431105D01*
X386050Y430388D01*
Y429612D01*
X386347Y428895D01*
X386895Y428347D01*
X387612Y428050D01*
X388388D01*
X389105Y428347D01*
X389653Y428895D01*
X389950Y429612D01*
Y429932D01*
X389963Y429989D01*
X389966Y430061D01*
X389971Y430101D01*
X389979Y430140D01*
X389991Y430181D01*
X390008Y430223D01*
X390031Y430268D01*
X390061Y430316D01*
X390097Y430367D01*
X395865Y436135D01*
X396130Y436532D01*
X396223Y437000D01*
Y461854D01*
X396378Y461960D01*
X396724Y462046D01*
X407403Y451367D01*
X407439Y451316D01*
X407469Y451268D01*
X407492Y451223D01*
X407509Y451181D01*
X407521Y451140D01*
X407529Y451101D01*
X407534Y451061D01*
X407537Y450989D01*
X407550Y450932D01*
Y450612D01*
X407847Y449895D01*
X408395Y449347D01*
X409112Y449050D01*
X409888D01*
X410605Y449347D01*
X411153Y449895D01*
X411450Y450612D01*
Y451388D01*
X411153Y452105D01*
X410605Y452653D01*
X409888Y452950D01*
X409568D01*
X409511Y452963D01*
X409439Y452966D01*
X409399Y452971D01*
X409360Y452979D01*
X409319Y452991D01*
X409277Y453009D01*
X409232Y453031D01*
X409184Y453061D01*
X409133Y453097D01*
X401439Y460791D01*
X401548Y461338D01*
X401577Y461361D01*
X402000Y461276D01*
X407758D01*
X407819Y461266D01*
X407874Y461253D01*
X407922Y461237D01*
X407964Y461220D01*
X408001Y461200D01*
X408035Y461178D01*
X408067Y461153D01*
X408120Y461104D01*
X408169Y461073D01*
X408395Y460847D01*
X409112Y460550D01*
X409888D01*
X410605Y460847D01*
X411153Y461395D01*
X411450Y462112D01*
Y462888D01*
X411153Y463605D01*
X410605Y464153D01*
X409888Y464450D01*
X409112D01*
X408395Y464153D01*
X408169Y463927D01*
X408120Y463896D01*
X408067Y463847D01*
X408035Y463822D01*
X408001Y463800D01*
X407964Y463780D01*
X407922Y463763D01*
X407874Y463747D01*
X407819Y463734D01*
X407758Y463724D01*
X402507D01*
X400423Y465807D01*
Y498800D01*
X400330Y499268D01*
X400065Y499665D01*
X399206Y500524D01*
X399450Y501112D01*
Y501888D01*
X399153Y502605D01*
X398605Y503153D01*
X398307Y503276D01*
X398406Y503777D01*
X449993D01*
X452385Y501385D01*
X452782Y501120D01*
X453250Y501026D01*
X454163D01*
X454213Y501017D01*
X454251Y501006D01*
X454279Y500995D01*
X454299Y500984D01*
X454313Y500974D01*
X454315Y500973D01*
X454347Y500895D01*
X454895Y500347D01*
X455612Y500050D01*
X456388D01*
X457105Y500347D01*
X457653Y500895D01*
X457950Y501612D01*
Y502388D01*
X457653Y503105D01*
X457105Y503653D01*
X456920Y503729D01*
Y504271D01*
X457105Y504347D01*
X457653Y504895D01*
X457950Y505612D01*
Y506388D01*
X457653Y507105D01*
X457334Y507423D01*
X457157Y507750D01*
X457334Y508077D01*
X457653Y508395D01*
X457950Y509112D01*
Y509888D01*
X457653Y510605D01*
X457334Y510923D01*
X457157Y511250D01*
X457334Y511577D01*
X457653Y511895D01*
X457950Y512612D01*
Y513388D01*
X457653Y514105D01*
X457105Y514653D01*
X456388Y514950D01*
D02*
G37*
G36*
X224421Y503200D02*
X223579D01*
X222765Y502982D01*
X222035Y502561D01*
X221439Y501965D01*
X221018Y501235D01*
X220800Y500421D01*
Y499579D01*
X221018Y498765D01*
X221439Y498035D01*
X222035Y497439D01*
X222765Y497018D01*
X223579Y496800D01*
X224421D01*
X225235Y497018D01*
X225965Y497439D01*
X226561Y498035D01*
X226982Y498765D01*
X227200Y499579D01*
Y500421D01*
X226982Y501235D01*
X226561Y501965D01*
X225965Y502561D01*
X225235Y502982D01*
X224421Y503200D01*
D02*
G37*
G36*
X460461Y497986D02*
X459551D01*
X458672Y497750D01*
X457884Y497295D01*
X457240Y496652D01*
X456785Y495864D01*
X456550Y494985D01*
Y494075D01*
X456785Y493196D01*
X457240Y492408D01*
X457884Y491764D01*
X458672Y491309D01*
X459551Y491074D01*
X460461D01*
X461339Y491309D01*
X462127Y491764D01*
X462771Y492408D01*
X463226Y493196D01*
X463461Y494075D01*
Y494985D01*
X463226Y495864D01*
X462771Y496652D01*
X462127Y497295D01*
X461339Y497750D01*
X460461Y497986D01*
D02*
G37*
G36*
X224421Y493200D02*
X223579D01*
X222765Y492982D01*
X222035Y492561D01*
X221439Y491965D01*
X221018Y491235D01*
X220800Y490421D01*
Y489579D01*
X221018Y488765D01*
X221439Y488035D01*
X222035Y487439D01*
X222765Y487018D01*
X223579Y486800D01*
X224421D01*
X225235Y487018D01*
X225965Y487439D01*
X226561Y488035D01*
X226982Y488765D01*
X227200Y489579D01*
Y490421D01*
X226982Y491235D01*
X226561Y491965D01*
X225965Y492561D01*
X225235Y492982D01*
X224421Y493200D01*
D02*
G37*
G36*
X224500Y480489D02*
Y477500D01*
X227489D01*
X227261Y478351D01*
X226801Y479149D01*
X226149Y479801D01*
X225351Y480262D01*
X224500Y480489D01*
D02*
G37*
G36*
X223500D02*
X222649Y480262D01*
X221851Y479801D01*
X221199Y479149D01*
X220739Y478351D01*
X220511Y477500D01*
X223500D01*
Y480489D01*
D02*
G37*
G36*
X379388Y495950D02*
X378612D01*
X377895Y495653D01*
X377347Y495105D01*
X377050Y494388D01*
Y493612D01*
X377347Y492895D01*
X377417Y492826D01*
X377427Y492807D01*
X377450Y492755D01*
X377471Y492699D01*
X377490Y492638D01*
X377505Y492572D01*
X377517Y492510D01*
X377526Y492410D01*
Y491257D01*
X362993Y476723D01*
X333742D01*
X333681Y476734D01*
X333626Y476747D01*
X333578Y476763D01*
X333536Y476781D01*
X333499Y476800D01*
X333465Y476822D01*
X333433Y476847D01*
X333380Y476896D01*
X333331Y476927D01*
X333105Y477153D01*
X332388Y477450D01*
X331612D01*
X330895Y477153D01*
X330347Y476605D01*
X330050Y475888D01*
Y475112D01*
X330347Y474395D01*
X330895Y473847D01*
X331612Y473550D01*
X332388D01*
X333105Y473847D01*
X333331Y474073D01*
X333380Y474104D01*
X333433Y474153D01*
X333465Y474178D01*
X333499Y474200D01*
X333536Y474220D01*
X333578Y474237D01*
X333626Y474253D01*
X333681Y474266D01*
X333742Y474276D01*
X363500D01*
X363968Y474370D01*
X364365Y474635D01*
X379615Y489885D01*
X379880Y490282D01*
X379974Y490750D01*
Y492163D01*
X379983Y492213D01*
X379994Y492252D01*
X380005Y492279D01*
X380016Y492299D01*
X380026Y492313D01*
X380027Y492315D01*
X380105Y492347D01*
X380653Y492895D01*
X380950Y493612D01*
Y494388D01*
X380653Y495105D01*
X380105Y495653D01*
X379388Y495950D01*
D02*
G37*
G36*
X304388Y477450D02*
X303612D01*
X302895Y477153D01*
X302347Y476605D01*
X302315Y476527D01*
X302313Y476526D01*
X302299Y476516D01*
X302279Y476505D01*
X302252Y476494D01*
X302213Y476483D01*
X302163Y476474D01*
X301250D01*
X300782Y476380D01*
X300385Y476115D01*
X297867Y473597D01*
X297816Y473561D01*
X297768Y473531D01*
X297723Y473508D01*
X297681Y473491D01*
X297640Y473479D01*
X297601Y473471D01*
X297561Y473466D01*
X297489Y473463D01*
X297432Y473450D01*
X297112D01*
X296395Y473153D01*
X295847Y472605D01*
X295550Y471888D01*
Y471112D01*
X295847Y470395D01*
X296395Y469847D01*
X297112Y469550D01*
X297888D01*
X298605Y469847D01*
X299153Y470395D01*
X299450Y471112D01*
Y471432D01*
X299463Y471489D01*
X299466Y471561D01*
X299471Y471601D01*
X299479Y471640D01*
X299491Y471681D01*
X299509Y471723D01*
X299531Y471768D01*
X299561Y471816D01*
X299597Y471867D01*
X301757Y474026D01*
X302435D01*
X302501Y474018D01*
X302572Y474006D01*
X302638Y473990D01*
X302699Y473971D01*
X302755Y473950D01*
X302807Y473927D01*
X302826Y473917D01*
X302895Y473847D01*
X303612Y473550D01*
X304388D01*
X305105Y473847D01*
X305653Y474395D01*
X305950Y475112D01*
Y475888D01*
X305653Y476605D01*
X305105Y477153D01*
X304388Y477450D01*
D02*
G37*
G36*
X227489Y476500D02*
X224500D01*
Y473511D01*
X225351Y473738D01*
X226149Y474199D01*
X226801Y474851D01*
X227261Y475649D01*
X227489Y476500D01*
D02*
G37*
G36*
X223500D02*
X220511D01*
X220739Y475649D01*
X221199Y474851D01*
X221851Y474199D01*
X222649Y473738D01*
X223500Y473511D01*
Y476500D01*
D02*
G37*
G36*
X371388Y473450D02*
X370612D01*
X369895Y473153D01*
X369669Y472927D01*
X369620Y472896D01*
X369567Y472847D01*
X369535Y472822D01*
X369501Y472800D01*
X369464Y472781D01*
X369422Y472763D01*
X369374Y472747D01*
X369319Y472734D01*
X369258Y472723D01*
X362742D01*
X362681Y472734D01*
X362626Y472747D01*
X362578Y472763D01*
X362536Y472781D01*
X362499Y472800D01*
X362465Y472822D01*
X362433Y472847D01*
X362380Y472896D01*
X362331Y472927D01*
X362105Y473153D01*
X361388Y473450D01*
X360612D01*
X359895Y473153D01*
X359347Y472605D01*
X359050Y471888D01*
Y471112D01*
X359347Y470395D01*
X359895Y469847D01*
X360612Y469550D01*
X361388D01*
X362105Y469847D01*
X362331Y470073D01*
X362380Y470104D01*
X362433Y470153D01*
X362465Y470178D01*
X362499Y470200D01*
X362536Y470220D01*
X362578Y470237D01*
X362626Y470253D01*
X362681Y470266D01*
X362742Y470276D01*
X369258D01*
X369319Y470266D01*
X369374Y470253D01*
X369422Y470237D01*
X369464Y470220D01*
X369501Y470200D01*
X369535Y470178D01*
X369567Y470153D01*
X369620Y470104D01*
X369669Y470073D01*
X369895Y469847D01*
X370612Y469550D01*
X371388D01*
X372105Y469847D01*
X372653Y470395D01*
X372950Y471112D01*
Y471888D01*
X372653Y472605D01*
X372105Y473153D01*
X371388Y473450D01*
D02*
G37*
G36*
X224421Y470200D02*
X223579D01*
X222765Y469982D01*
X222035Y469561D01*
X221439Y468965D01*
X221018Y468235D01*
X220800Y467421D01*
Y466579D01*
X221018Y465765D01*
X221439Y465035D01*
X222035Y464439D01*
X222765Y464018D01*
X223579Y463800D01*
X224421D01*
X225235Y464018D01*
X225965Y464439D01*
X226561Y465035D01*
X226982Y465765D01*
X227200Y466579D01*
Y467421D01*
X226982Y468235D01*
X226561Y468965D01*
X225965Y469561D01*
X225235Y469982D01*
X224421Y470200D01*
D02*
G37*
G36*
X428965Y481127D02*
X428189D01*
X427472Y480830D01*
X426924Y480281D01*
X426627Y479565D01*
Y478789D01*
X426924Y478072D01*
X427084Y477911D01*
X427100Y477883D01*
X427148Y477825D01*
X427174Y477788D01*
X427197Y477748D01*
X427218Y477705D01*
X427237Y477657D01*
X427253Y477603D01*
X427267Y477542D01*
X427277Y477479D01*
Y465742D01*
X427266Y465681D01*
X427253Y465626D01*
X427237Y465578D01*
X427219Y465536D01*
X427200Y465499D01*
X427178Y465465D01*
X427153Y465433D01*
X427104Y465380D01*
X427073Y465331D01*
X426847Y465105D01*
X426550Y464388D01*
Y463612D01*
X426847Y462895D01*
X427395Y462347D01*
X428112Y462050D01*
X428888D01*
X429605Y462347D01*
X430153Y462895D01*
X430450Y463612D01*
Y464388D01*
X430153Y465105D01*
X429927Y465331D01*
X429896Y465380D01*
X429847Y465433D01*
X429822Y465465D01*
X429800Y465499D01*
X429780Y465536D01*
X429763Y465578D01*
X429747Y465626D01*
X429734Y465681D01*
X429724Y465742D01*
Y477398D01*
X429734Y477456D01*
X429747Y477506D01*
X429761Y477548D01*
X429777Y477584D01*
X429795Y477614D01*
X429814Y477641D01*
X429837Y477667D01*
X429887Y477715D01*
X429922Y477764D01*
X430230Y478072D01*
X430527Y478789D01*
Y479565D01*
X430230Y480281D01*
X429681Y480830D01*
X428965Y481127D01*
D02*
G37*
G36*
X544279Y437143D02*
Y434500D01*
X546923D01*
X546729Y435222D01*
X546312Y435944D01*
X545723Y436533D01*
X545001Y436950D01*
X544279Y437143D01*
D02*
G37*
G36*
X543280D02*
X542558Y436950D01*
X541836Y436533D01*
X541247Y435944D01*
X540830Y435222D01*
X540636Y434500D01*
X543280D01*
Y437143D01*
D02*
G37*
G36*
X546923Y433500D02*
X544279D01*
Y430857D01*
X545001Y431050D01*
X545723Y431467D01*
X546312Y432056D01*
X546729Y432778D01*
X546923Y433500D01*
D02*
G37*
G36*
X543280D02*
X540636D01*
X540830Y432778D01*
X541247Y432056D01*
X541836Y431467D01*
X542558Y431050D01*
X543280Y430857D01*
Y433500D01*
D02*
G37*
G36*
X381414Y516723D02*
X359500D01*
X359032Y516630D01*
X358635Y516365D01*
X353493Y511224D01*
X347192D01*
X346724Y511130D01*
X346326Y510865D01*
X286185Y450724D01*
X246096D01*
X245628Y450630D01*
X245231Y450365D01*
X231746Y436880D01*
X231649Y436816D01*
X231503Y436736D01*
X229332Y435896D01*
X228819Y435731D01*
X228818Y435731D01*
X228816Y435730D01*
X228782Y435711D01*
X228495Y435634D01*
X227605Y435121D01*
X226879Y434395D01*
X226366Y433505D01*
X226100Y432513D01*
Y431487D01*
X226366Y430495D01*
X226879Y429605D01*
X227605Y428879D01*
X228495Y428366D01*
X229487Y428100D01*
X230513D01*
X231505Y428366D01*
X232395Y428879D01*
X233121Y429605D01*
X233634Y430495D01*
X233776Y431026D01*
X234277Y430960D01*
Y423040D01*
X233776Y422974D01*
X233634Y423505D01*
X233121Y424395D01*
X232395Y425121D01*
X231505Y425634D01*
X230513Y425900D01*
X229487D01*
X228495Y425634D01*
X227605Y425121D01*
X226879Y424395D01*
X226366Y423505D01*
X226100Y422513D01*
Y421487D01*
X226366Y420495D01*
X226879Y419605D01*
X227605Y418879D01*
X228495Y418366D01*
X229487Y418100D01*
X230513D01*
X231505Y418366D01*
X232395Y418879D01*
X232850Y419335D01*
X232916Y419321D01*
X234914D01*
X235382Y419415D01*
X235779Y419680D01*
X236083Y419984D01*
X236708Y419902D01*
X236879Y419605D01*
X237605Y418879D01*
X238495Y418366D01*
X239487Y418100D01*
X240513D01*
X241505Y418366D01*
X242395Y418879D01*
X243121Y419605D01*
X243634Y420495D01*
X243900Y421487D01*
Y421962D01*
X243914Y422027D01*
X243917Y422477D01*
X243967Y423273D01*
X244012Y423597D01*
X244070Y423889D01*
X244138Y424140D01*
X244214Y424349D01*
X244294Y424516D01*
X244375Y424642D01*
X244388Y424658D01*
X245865Y426135D01*
X246130Y426532D01*
X246223Y427000D01*
Y429741D01*
X246724Y429875D01*
X246879Y429605D01*
X247605Y428879D01*
X248495Y428366D01*
X249487Y428100D01*
X249615D01*
X249693Y427708D01*
X249958Y427311D01*
X250976Y426294D01*
X250717Y425845D01*
X250513Y425900D01*
X249487D01*
X248495Y425634D01*
X247605Y425121D01*
X246879Y424395D01*
X246366Y423505D01*
X246100Y422513D01*
Y421487D01*
X246366Y420495D01*
X246879Y419605D01*
X247215Y419270D01*
X247252Y419213D01*
X247568Y418893D01*
X248095Y418295D01*
X248292Y418034D01*
X248458Y417787D01*
X248587Y417561D01*
X248681Y417359D01*
X248743Y417184D01*
X248775Y417038D01*
X248777Y417018D01*
Y412500D01*
X248870Y412032D01*
X249135Y411635D01*
X256661Y404109D01*
X257058Y403843D01*
X257526Y403750D01*
X277629D01*
X278098Y403843D01*
X278495Y404109D01*
X288365Y413979D01*
X288630Y414376D01*
X288723Y414844D01*
Y437781D01*
X348719Y497777D01*
X373500D01*
X373968Y497870D01*
X374365Y498135D01*
X378133Y501903D01*
X378184Y501939D01*
X378232Y501969D01*
X378277Y501992D01*
X378319Y502009D01*
X378360Y502021D01*
X378399Y502029D01*
X378439Y502034D01*
X378511Y502037D01*
X378568Y502050D01*
X378888D01*
X379605Y502347D01*
X380153Y502895D01*
X380450Y503612D01*
Y504388D01*
X380153Y505105D01*
X379605Y505653D01*
X379420Y505729D01*
Y506271D01*
X379605Y506347D01*
X380153Y506895D01*
X380450Y507612D01*
Y507932D01*
X380463Y507989D01*
X380466Y508061D01*
X380471Y508101D01*
X380479Y508140D01*
X380491Y508181D01*
X380508Y508223D01*
X380531Y508268D01*
X380561Y508316D01*
X380597Y508367D01*
X382865Y510635D01*
X383130Y511032D01*
X383224Y511500D01*
Y514914D01*
X383130Y515382D01*
X382865Y515779D01*
X382279Y516365D01*
X381882Y516630D01*
X381414Y516723D01*
D02*
G37*
G36*
X383065Y422623D02*
X382893D01*
X381595Y422275D01*
X380431Y421603D01*
X379481Y420653D01*
X378809Y419489D01*
X378461Y418191D01*
Y418019D01*
X383065D01*
Y422623D01*
D02*
G37*
G36*
X323552Y422551D02*
X323380D01*
X322081Y422203D01*
X320918Y421531D01*
X319967Y420581D01*
X319295Y419417D01*
X318947Y418119D01*
Y417947D01*
X323552D01*
Y422551D01*
D02*
G37*
G36*
X384237Y422623D02*
X384065D01*
Y417519D01*
Y412415D01*
X384237D01*
X385536Y412762D01*
X386700Y413435D01*
X387650Y414385D01*
X388322Y415549D01*
X388462Y416071D01*
X388980D01*
X389089Y415665D01*
X389721Y414569D01*
X390616Y413674D01*
X391711Y413042D01*
X392933Y412715D01*
X394198D01*
X395420Y413042D01*
X396515Y413674D01*
X397410Y414569D01*
X398042Y415665D01*
X398261Y416481D01*
X398761Y416415D01*
Y412715D01*
X408370D01*
Y422323D01*
X398761D01*
Y418623D01*
X398261Y418557D01*
X398042Y419373D01*
X397410Y420469D01*
X396515Y421363D01*
X395420Y421996D01*
X394198Y422323D01*
X392933D01*
X391711Y421996D01*
X390616Y421363D01*
X389721Y420469D01*
X389089Y419373D01*
X388980Y418967D01*
X388462D01*
X388322Y419489D01*
X387650Y420653D01*
X386700Y421603D01*
X385536Y422275D01*
X384237Y422623D01*
D02*
G37*
G36*
X324724Y422551D02*
X324552D01*
Y417447D01*
Y412342D01*
X324724D01*
X326022Y412690D01*
X327186Y413362D01*
X328136Y414313D01*
X328808Y415477D01*
X328948Y415999D01*
X329466D01*
X329575Y415592D01*
X330207Y414497D01*
X331102Y413602D01*
X332197Y412970D01*
X333419Y412642D01*
X334684D01*
X335906Y412970D01*
X337001Y413602D01*
X337896Y414497D01*
X338528Y415592D01*
X338747Y416409D01*
X339247Y416343D01*
Y412642D01*
X348856D01*
Y422251D01*
X339247D01*
Y418551D01*
X338747Y418485D01*
X338528Y419301D01*
X337896Y420397D01*
X337001Y421291D01*
X335906Y421924D01*
X334684Y422251D01*
X333419D01*
X332197Y421924D01*
X331102Y421291D01*
X330207Y420397D01*
X329575Y419301D01*
X329466Y418894D01*
X328948D01*
X328808Y419417D01*
X328136Y420581D01*
X327186Y421531D01*
X326022Y422203D01*
X324724Y422551D01*
D02*
G37*
G36*
X383065Y417019D02*
X378461D01*
Y416847D01*
X378809Y415549D01*
X379481Y414385D01*
X380431Y413435D01*
X381595Y412762D01*
X382893Y412415D01*
X383065D01*
Y417019D01*
D02*
G37*
G36*
X323552Y416947D02*
X318947D01*
Y416775D01*
X319295Y415477D01*
X319967Y414313D01*
X320918Y413362D01*
X322081Y412690D01*
X323380Y412342D01*
X323552D01*
Y416947D01*
D02*
G37*
G36*
X540985Y402511D02*
X539015D01*
X537070Y402203D01*
X535197Y401594D01*
X533443Y400700D01*
X531850Y399543D01*
X530457Y398150D01*
X529300Y396557D01*
X528406Y394803D01*
X527797Y392930D01*
X527489Y390985D01*
Y389015D01*
X527797Y387070D01*
X528406Y385197D01*
X529300Y383443D01*
X530457Y381850D01*
X531850Y380457D01*
X533443Y379300D01*
X535197Y378406D01*
X537070Y377797D01*
X539015Y377489D01*
X540985D01*
X542930Y377797D01*
X544803Y378406D01*
X546557Y379300D01*
X548150Y380457D01*
X549543Y381850D01*
X550700Y383443D01*
X551594Y385197D01*
X552203Y387070D01*
X552511Y389015D01*
Y390985D01*
X552203Y392930D01*
X551594Y394803D01*
X550700Y396557D01*
X549543Y398150D01*
X548150Y399543D01*
X546557Y400700D01*
X544803Y401594D01*
X542930Y402203D01*
X540985Y402511D01*
D02*
G37*
G36*
X230985D02*
X229015D01*
X227070Y402203D01*
X225197Y401594D01*
X223443Y400700D01*
X221850Y399543D01*
X220457Y398150D01*
X219300Y396557D01*
X218406Y394803D01*
X217797Y392930D01*
X217489Y390985D01*
Y389015D01*
X217797Y387070D01*
X218406Y385197D01*
X219300Y383443D01*
X220457Y381850D01*
X221850Y380457D01*
X223443Y379300D01*
X225197Y378406D01*
X227070Y377797D01*
X229015Y377489D01*
X230985D01*
X232930Y377797D01*
X234803Y378406D01*
X236557Y379300D01*
X238150Y380457D01*
X239543Y381850D01*
X240700Y383443D01*
X241594Y385197D01*
X242203Y387070D01*
X242511Y389015D01*
Y390985D01*
X242203Y392930D01*
X241594Y394803D01*
X240700Y396557D01*
X239543Y398150D01*
X238150Y399543D01*
X236557Y400700D01*
X234803Y401594D01*
X232930Y402203D01*
X230985Y402511D01*
D02*
G37*
G36*
X406539Y384539D02*
X397461D01*
Y375461D01*
X406539D01*
Y384539D01*
D02*
G37*
G36*
X382912D02*
X381717D01*
X380563Y384229D01*
X379528Y383632D01*
X378683Y382787D01*
X378086Y381752D01*
X377776Y380597D01*
Y379402D01*
X378086Y378248D01*
X378683Y377213D01*
X379528Y376368D01*
X380563Y375771D01*
X381717Y375461D01*
X382912D01*
X384067Y375771D01*
X385102Y376368D01*
X385947Y377213D01*
X386544Y378248D01*
X386854Y379402D01*
Y380597D01*
X386544Y381752D01*
X385947Y382787D01*
X385102Y383632D01*
X384067Y384229D01*
X382912Y384539D01*
D02*
G37*
G36*
X348224D02*
X339146D01*
Y375461D01*
X348224D01*
Y384539D01*
D02*
G37*
G36*
X324598D02*
X323403D01*
X322248Y384229D01*
X321213Y383632D01*
X320368Y382787D01*
X319771Y381752D01*
X319461Y380597D01*
Y379402D01*
X319771Y378248D01*
X320368Y377213D01*
X321213Y376368D01*
X322248Y375771D01*
X323403Y375461D01*
X324598D01*
X325752Y375771D01*
X326787Y376368D01*
X327632Y377213D01*
X328229Y378248D01*
X328539Y379402D01*
Y380597D01*
X328229Y381752D01*
X327632Y382787D01*
X326787Y383632D01*
X325752Y384229D01*
X324598Y384539D01*
D02*
G37*
%LPD*%
G36*
X453300Y541964D02*
X453214Y542019D01*
X453123Y542067D01*
X453028Y542110D01*
X452929Y542147D01*
X452826Y542178D01*
X452719Y542204D01*
X452608Y542224D01*
X452493Y542239D01*
X452250Y542250D01*
X452025Y543250D01*
X452151Y543254D01*
X452270Y543267D01*
X452381Y543289D01*
X452484Y543319D01*
X452580Y543357D01*
X452669Y543404D01*
X452751Y543460D01*
X452825Y543524D01*
X452891Y543597D01*
X452950Y543679D01*
X453300Y541964D01*
D02*
G37*
G36*
X453104Y538109D02*
X453196Y538032D01*
X453290Y537965D01*
X453385Y537907D01*
X453481Y537858D01*
X453580Y537818D01*
X453679Y537788D01*
X453781Y537766D01*
X453883Y537753D01*
X453988Y537750D01*
X452750Y536513D01*
X452747Y536617D01*
X452734Y536720D01*
X452712Y536821D01*
X452681Y536920D01*
X452642Y537019D01*
X452593Y537115D01*
X452535Y537211D01*
X452468Y537304D01*
X452391Y537396D01*
X452306Y537487D01*
X453013Y538194D01*
X453104Y538109D01*
D02*
G37*
G36*
X392694Y537487D02*
X392609Y537396D01*
X392532Y537304D01*
X392465Y537211D01*
X392407Y537115D01*
X392358Y537019D01*
X392319Y536920D01*
X392288Y536821D01*
X392266Y536720D01*
X392253Y536617D01*
X392250Y536513D01*
X391013Y537750D01*
X391117Y537753D01*
X391219Y537766D01*
X391321Y537788D01*
X391420Y537818D01*
X391519Y537858D01*
X391615Y537907D01*
X391710Y537965D01*
X391804Y538032D01*
X391896Y538109D01*
X391987Y538194D01*
X392694Y537487D01*
D02*
G37*
G36*
X398694Y535987D02*
X398609Y535896D01*
X398532Y535804D01*
X398465Y535710D01*
X398407Y535615D01*
X398358Y535519D01*
X398319Y535420D01*
X398288Y535321D01*
X398266Y535219D01*
X398253Y535117D01*
X398250Y535012D01*
X397012Y536250D01*
X397117Y536253D01*
X397219Y536266D01*
X397321Y536288D01*
X397420Y536318D01*
X397519Y536358D01*
X397615Y536407D01*
X397710Y536465D01*
X397804Y536532D01*
X397896Y536609D01*
X397987Y536694D01*
X398694Y535987D01*
D02*
G37*
G36*
X379607Y537125D02*
X379531Y537196D01*
X379450Y537260D01*
X379363Y537316D01*
X379270Y537365D01*
X379173Y537406D01*
X379070Y537440D01*
X378961Y537466D01*
X378848Y537485D01*
X378729Y537496D01*
X378604Y537500D01*
Y538500D01*
X378729Y538504D01*
X378848Y538515D01*
X378961Y538534D01*
X379070Y538560D01*
X379173Y538594D01*
X379270Y538635D01*
X379363Y538684D01*
X379450Y538740D01*
X379531Y538804D01*
X379607Y538875D01*
Y537125D01*
D02*
G37*
G36*
X298469Y504804D02*
X298550Y504740D01*
X298637Y504684D01*
X298730Y504635D01*
X298827Y504594D01*
X298930Y504560D01*
X299039Y504534D01*
X299152Y504515D01*
X299271Y504504D01*
X299396Y504500D01*
Y503500D01*
X299271Y503496D01*
X299152Y503485D01*
X299039Y503466D01*
X298930Y503440D01*
X298827Y503406D01*
X298730Y503365D01*
X298637Y503316D01*
X298550Y503260D01*
X298469Y503196D01*
X298393Y503125D01*
Y504875D01*
X298469Y504804D01*
D02*
G37*
G36*
X455332Y511943D02*
X455245Y511995D01*
X455154Y512041D01*
X455058Y512081D01*
X454959Y512116D01*
X454855Y512146D01*
X454748Y512170D01*
X454637Y512189D01*
X454402Y512210D01*
X454279Y512213D01*
X454018Y513213D01*
X454144Y513217D01*
X454263Y513230D01*
X454373Y513252D01*
X454476Y513282D01*
X454571Y513321D01*
X454659Y513369D01*
X454738Y513425D01*
X454810Y513490D01*
X454874Y513564D01*
X454930Y513647D01*
X455332Y511943D01*
D02*
G37*
G36*
X398969Y512804D02*
X399050Y512740D01*
X399137Y512684D01*
X399230Y512635D01*
X399327Y512594D01*
X399430Y512560D01*
X399538Y512534D01*
X399652Y512515D01*
X399771Y512504D01*
X399896Y512500D01*
Y511500D01*
X399771Y511496D01*
X399652Y511485D01*
X399538Y511466D01*
X399430Y511440D01*
X399327Y511406D01*
X399230Y511365D01*
X399137Y511316D01*
X399050Y511260D01*
X398969Y511196D01*
X398893Y511125D01*
Y512875D01*
X398969Y512804D01*
D02*
G37*
G36*
X389469Y511304D02*
X389550Y511240D01*
X389637Y511184D01*
X389730Y511135D01*
X389827Y511094D01*
X389930Y511060D01*
X390038Y511034D01*
X390152Y511015D01*
X390271Y511004D01*
X390396Y511000D01*
Y510000D01*
X390271Y509996D01*
X390152Y509985D01*
X390038Y509966D01*
X389930Y509940D01*
X389827Y509906D01*
X389730Y509865D01*
X389637Y509816D01*
X389550Y509760D01*
X389469Y509696D01*
X389393Y509625D01*
Y511375D01*
X389469Y511304D01*
D02*
G37*
G36*
X455107Y508625D02*
X455031Y508696D01*
X454950Y508760D01*
X454863Y508816D01*
X454770Y508865D01*
X454673Y508906D01*
X454570Y508940D01*
X454461Y508966D01*
X454348Y508985D01*
X454229Y508996D01*
X454104Y509000D01*
Y510000D01*
X454229Y510004D01*
X454348Y510015D01*
X454461Y510034D01*
X454570Y510060D01*
X454673Y510094D01*
X454770Y510135D01*
X454863Y510184D01*
X454950Y510240D01*
X455031Y510304D01*
X455107Y510375D01*
Y508625D01*
D02*
G37*
G36*
X395469Y508304D02*
X395550Y508240D01*
X395637Y508184D01*
X395730Y508135D01*
X395827Y508094D01*
X395930Y508060D01*
X396039Y508034D01*
X396152Y508015D01*
X396271Y508004D01*
X396396Y508000D01*
Y507000D01*
X396271Y506996D01*
X396152Y506985D01*
X396039Y506966D01*
X395930Y506940D01*
X395827Y506906D01*
X395730Y506865D01*
X395637Y506816D01*
X395550Y506760D01*
X395469Y506696D01*
X395393Y506625D01*
Y508375D01*
X395469Y508304D01*
D02*
G37*
G36*
X454950Y505321D02*
X454891Y505403D01*
X454825Y505476D01*
X454751Y505540D01*
X454669Y505596D01*
X454580Y505643D01*
X454484Y505681D01*
X454381Y505711D01*
X454270Y505733D01*
X454151Y505746D01*
X454025Y505750D01*
X454250Y506750D01*
X454373Y506753D01*
X454608Y506776D01*
X454719Y506796D01*
X454826Y506821D01*
X454929Y506853D01*
X455028Y506890D01*
X455123Y506933D01*
X455214Y506982D01*
X455300Y507036D01*
X454950Y505321D01*
D02*
G37*
G36*
X391969Y505804D02*
X392050Y505740D01*
X392137Y505684D01*
X392230Y505635D01*
X392327Y505594D01*
X392430Y505560D01*
X392538Y505534D01*
X392652Y505515D01*
X392771Y505504D01*
X392896Y505500D01*
Y504500D01*
X392771Y504496D01*
X392652Y504485D01*
X392538Y504466D01*
X392430Y504440D01*
X392327Y504406D01*
X392230Y504365D01*
X392137Y504316D01*
X392050Y504260D01*
X391969Y504196D01*
X391893Y504125D01*
Y505875D01*
X391969Y505804D01*
D02*
G37*
G36*
X454950Y501321D02*
X454891Y501403D01*
X454825Y501476D01*
X454751Y501540D01*
X454669Y501596D01*
X454580Y501643D01*
X454484Y501681D01*
X454381Y501711D01*
X454270Y501733D01*
X454151Y501746D01*
X454025Y501750D01*
X454250Y502750D01*
X454373Y502753D01*
X454608Y502776D01*
X454719Y502796D01*
X454826Y502821D01*
X454929Y502853D01*
X455028Y502890D01*
X455123Y502933D01*
X455214Y502982D01*
X455300Y503036D01*
X454950Y501321D01*
D02*
G37*
G36*
X396753Y498883D02*
X396766Y498780D01*
X396788Y498679D01*
X396818Y498580D01*
X396858Y498481D01*
X396907Y498385D01*
X396965Y498289D01*
X397032Y498196D01*
X397109Y498104D01*
X397194Y498013D01*
X396487Y497306D01*
X396396Y497391D01*
X396304Y497468D01*
X396211Y497535D01*
X396115Y497593D01*
X396019Y497642D01*
X395920Y497682D01*
X395821Y497712D01*
X395720Y497734D01*
X395617Y497747D01*
X395513Y497750D01*
X396750Y498987D01*
X396753Y498883D01*
D02*
G37*
G36*
X395804Y493031D02*
X395740Y492950D01*
X395684Y492863D01*
X395635Y492770D01*
X395594Y492673D01*
X395560Y492570D01*
X395534Y492461D01*
X395515Y492348D01*
X395504Y492229D01*
X395500Y492104D01*
X394500D01*
X394496Y492229D01*
X394485Y492348D01*
X394466Y492461D01*
X394440Y492570D01*
X394406Y492673D01*
X394365Y492770D01*
X394316Y492863D01*
X394260Y492950D01*
X394196Y493031D01*
X394125Y493107D01*
X395875D01*
X395804Y493031D01*
D02*
G37*
G36*
X391804D02*
X391740Y492950D01*
X391684Y492863D01*
X391635Y492770D01*
X391594Y492673D01*
X391560Y492570D01*
X391534Y492461D01*
X391515Y492348D01*
X391504Y492229D01*
X391500Y492104D01*
X390500D01*
X390496Y492229D01*
X390485Y492348D01*
X390466Y492461D01*
X390440Y492570D01*
X390406Y492673D01*
X390365Y492770D01*
X390316Y492863D01*
X390260Y492950D01*
X390196Y493031D01*
X390125Y493107D01*
X391875D01*
X391804Y493031D01*
D02*
G37*
G36*
X408607Y461625D02*
X408531Y461696D01*
X408450Y461760D01*
X408363Y461816D01*
X408270Y461865D01*
X408173Y461906D01*
X408070Y461940D01*
X407962Y461966D01*
X407848Y461985D01*
X407729Y461996D01*
X407604Y462000D01*
Y463000D01*
X407729Y463004D01*
X407848Y463015D01*
X407962Y463034D01*
X408070Y463060D01*
X408173Y463094D01*
X408270Y463135D01*
X408363Y463184D01*
X408450Y463240D01*
X408531Y463304D01*
X408607Y463375D01*
Y461625D01*
D02*
G37*
G36*
X408604Y452609D02*
X408696Y452532D01*
X408789Y452465D01*
X408885Y452407D01*
X408981Y452358D01*
X409080Y452318D01*
X409179Y452288D01*
X409280Y452266D01*
X409383Y452253D01*
X409487Y452250D01*
X408250Y451013D01*
X408247Y451117D01*
X408234Y451220D01*
X408212Y451321D01*
X408181Y451420D01*
X408142Y451519D01*
X408093Y451615D01*
X408035Y451711D01*
X407968Y451804D01*
X407891Y451896D01*
X407806Y451987D01*
X408513Y452694D01*
X408604Y452609D01*
D02*
G37*
G36*
X389694Y430987D02*
X389609Y430896D01*
X389532Y430804D01*
X389465Y430711D01*
X389407Y430615D01*
X389358Y430519D01*
X389318Y430420D01*
X389288Y430321D01*
X389266Y430220D01*
X389253Y430117D01*
X389250Y430013D01*
X388013Y431250D01*
X388117Y431253D01*
X388219Y431266D01*
X388321Y431288D01*
X388420Y431319D01*
X388519Y431358D01*
X388615Y431407D01*
X388710Y431465D01*
X388804Y431532D01*
X388896Y431609D01*
X388987Y431694D01*
X389694Y430987D01*
D02*
G37*
G36*
X357469Y430804D02*
X357550Y430740D01*
X357637Y430684D01*
X357730Y430635D01*
X357827Y430594D01*
X357930Y430560D01*
X358038Y430534D01*
X358152Y430515D01*
X358271Y430504D01*
X358396Y430500D01*
Y429500D01*
X358271Y429496D01*
X358152Y429485D01*
X358038Y429466D01*
X357930Y429440D01*
X357827Y429406D01*
X357730Y429365D01*
X357637Y429316D01*
X357550Y429260D01*
X357469Y429196D01*
X357393Y429125D01*
Y430875D01*
X357469Y430804D01*
D02*
G37*
G36*
X379679Y492950D02*
X379597Y492891D01*
X379524Y492825D01*
X379460Y492751D01*
X379404Y492669D01*
X379357Y492580D01*
X379319Y492484D01*
X379289Y492381D01*
X379267Y492270D01*
X379254Y492151D01*
X379250Y492025D01*
X378250Y492250D01*
X378247Y492373D01*
X378224Y492608D01*
X378204Y492719D01*
X378179Y492826D01*
X378147Y492929D01*
X378110Y493028D01*
X378067Y493123D01*
X378018Y493214D01*
X377964Y493300D01*
X379679Y492950D01*
D02*
G37*
G36*
X332969Y476304D02*
X333050Y476240D01*
X333137Y476184D01*
X333230Y476135D01*
X333327Y476094D01*
X333430Y476060D01*
X333539Y476034D01*
X333652Y476015D01*
X333771Y476004D01*
X333896Y476000D01*
Y475000D01*
X333771Y474996D01*
X333652Y474985D01*
X333539Y474966D01*
X333430Y474940D01*
X333327Y474906D01*
X333230Y474865D01*
X333137Y474816D01*
X333050Y474760D01*
X332969Y474696D01*
X332893Y474625D01*
Y476375D01*
X332969Y476304D01*
D02*
G37*
G36*
X303300Y474464D02*
X303214Y474518D01*
X303123Y474567D01*
X303028Y474610D01*
X302929Y474647D01*
X302826Y474679D01*
X302719Y474704D01*
X302608Y474724D01*
X302493Y474739D01*
X302250Y474750D01*
X302025Y475750D01*
X302151Y475754D01*
X302270Y475767D01*
X302381Y475789D01*
X302484Y475819D01*
X302580Y475857D01*
X302669Y475904D01*
X302751Y475960D01*
X302825Y476024D01*
X302891Y476097D01*
X302950Y476179D01*
X303300Y474464D01*
D02*
G37*
G36*
X299194Y472487D02*
X299109Y472396D01*
X299032Y472304D01*
X298965Y472211D01*
X298907Y472115D01*
X298858Y472019D01*
X298818Y471920D01*
X298788Y471821D01*
X298766Y471720D01*
X298753Y471617D01*
X298750Y471513D01*
X297513Y472750D01*
X297617Y472753D01*
X297720Y472766D01*
X297821Y472788D01*
X297920Y472819D01*
X298019Y472858D01*
X298115Y472907D01*
X298211Y472965D01*
X298304Y473032D01*
X298396Y473109D01*
X298487Y473194D01*
X299194Y472487D01*
D02*
G37*
G36*
X370107Y470625D02*
X370031Y470696D01*
X369950Y470760D01*
X369863Y470816D01*
X369770Y470865D01*
X369673Y470906D01*
X369570Y470940D01*
X369461Y470966D01*
X369348Y470985D01*
X369229Y470996D01*
X369104Y471000D01*
Y472000D01*
X369229Y472004D01*
X369348Y472015D01*
X369461Y472034D01*
X369570Y472060D01*
X369673Y472094D01*
X369770Y472135D01*
X369863Y472184D01*
X369950Y472240D01*
X370031Y472304D01*
X370107Y472375D01*
Y470625D01*
D02*
G37*
G36*
X361969Y472304D02*
X362050Y472240D01*
X362137Y472184D01*
X362230Y472135D01*
X362327Y472094D01*
X362430Y472060D01*
X362539Y472034D01*
X362652Y472015D01*
X362771Y472004D01*
X362896Y472000D01*
Y471000D01*
X362771Y470996D01*
X362652Y470985D01*
X362539Y470966D01*
X362430Y470940D01*
X362327Y470906D01*
X362230Y470865D01*
X362137Y470816D01*
X362050Y470760D01*
X361969Y470696D01*
X361893Y470625D01*
Y472375D01*
X361969Y472304D01*
D02*
G37*
G36*
X429395Y478232D02*
X429320Y478160D01*
X429253Y478083D01*
X429194Y478000D01*
X429142Y477911D01*
X429099Y477815D01*
X429063Y477714D01*
X429036Y477607D01*
X429016Y477494D01*
X429004Y477375D01*
X429000Y477251D01*
X428000Y477318D01*
X427996Y477442D01*
X427986Y477561D01*
X427968Y477675D01*
X427944Y477785D01*
X427912Y477889D01*
X427874Y477989D01*
X427828Y478084D01*
X427775Y478174D01*
X427715Y478259D01*
X427649Y478339D01*
X429395Y478232D01*
D02*
G37*
G36*
X429004Y465771D02*
X429015Y465652D01*
X429034Y465539D01*
X429060Y465430D01*
X429094Y465327D01*
X429135Y465230D01*
X429184Y465137D01*
X429240Y465050D01*
X429304Y464969D01*
X429375Y464893D01*
X427625D01*
X427696Y464969D01*
X427760Y465050D01*
X427816Y465137D01*
X427865Y465230D01*
X427906Y465327D01*
X427940Y465430D01*
X427966Y465539D01*
X427985Y465652D01*
X427996Y465771D01*
X428000Y465896D01*
X429000D01*
X429004Y465771D01*
D02*
G37*
G36*
X377607Y511125D02*
X377531Y511196D01*
X377450Y511260D01*
X377363Y511316D01*
X377270Y511365D01*
X377173Y511406D01*
X377070Y511440D01*
X376961Y511466D01*
X376848Y511485D01*
X376729Y511496D01*
X376604Y511500D01*
Y512500D01*
X376729Y512504D01*
X376848Y512515D01*
X376961Y512534D01*
X377070Y512560D01*
X377173Y512594D01*
X377270Y512635D01*
X377363Y512684D01*
X377450Y512740D01*
X377531Y512804D01*
X377607Y512875D01*
Y511125D01*
D02*
G37*
G36*
X363607Y508625D02*
X363531Y508696D01*
X363450Y508760D01*
X363363Y508816D01*
X363270Y508865D01*
X363173Y508906D01*
X363070Y508940D01*
X362962Y508966D01*
X362848Y508985D01*
X362729Y508996D01*
X362604Y509000D01*
Y510000D01*
X362729Y510004D01*
X362848Y510015D01*
X362962Y510034D01*
X363070Y510060D01*
X363173Y510094D01*
X363270Y510135D01*
X363363Y510184D01*
X363450Y510240D01*
X363531Y510304D01*
X363607Y510375D01*
Y508625D01*
D02*
G37*
G36*
X380194Y508987D02*
X380109Y508896D01*
X380032Y508804D01*
X379965Y508710D01*
X379907Y508615D01*
X379858Y508519D01*
X379819Y508420D01*
X379788Y508321D01*
X379766Y508219D01*
X379753Y508117D01*
X379750Y508012D01*
X378513Y509250D01*
X378617Y509253D01*
X378719Y509266D01*
X378821Y509288D01*
X378920Y509318D01*
X379019Y509358D01*
X379115Y509407D01*
X379210Y509465D01*
X379304Y509532D01*
X379396Y509609D01*
X379487Y509694D01*
X380194Y508987D01*
D02*
G37*
G36*
X363607Y504625D02*
X363531Y504696D01*
X363450Y504760D01*
X363363Y504816D01*
X363270Y504865D01*
X363173Y504906D01*
X363070Y504940D01*
X362962Y504966D01*
X362848Y504985D01*
X362729Y504996D01*
X362604Y505000D01*
Y506000D01*
X362729Y506004D01*
X362848Y506015D01*
X362962Y506034D01*
X363070Y506060D01*
X363173Y506094D01*
X363270Y506135D01*
X363363Y506184D01*
X363450Y506240D01*
X363531Y506304D01*
X363607Y506375D01*
Y504625D01*
D02*
G37*
G36*
X378487Y502750D02*
X378383Y502747D01*
X378280Y502734D01*
X378179Y502712D01*
X378080Y502681D01*
X377981Y502642D01*
X377885Y502593D01*
X377789Y502535D01*
X377696Y502468D01*
X377604Y502391D01*
X377513Y502306D01*
X376806Y503013D01*
X376891Y503104D01*
X376968Y503196D01*
X377035Y503290D01*
X377093Y503385D01*
X377142Y503481D01*
X377182Y503580D01*
X377212Y503679D01*
X377234Y503781D01*
X377247Y503883D01*
X377250Y503988D01*
X378487Y502750D01*
D02*
G37*
G36*
X363607Y500625D02*
X363531Y500696D01*
X363450Y500760D01*
X363363Y500816D01*
X363270Y500865D01*
X363173Y500906D01*
X363070Y500940D01*
X362962Y500966D01*
X362848Y500985D01*
X362729Y500996D01*
X362604Y501000D01*
Y502000D01*
X362729Y502004D01*
X362848Y502015D01*
X362962Y502034D01*
X363070Y502060D01*
X363173Y502094D01*
X363270Y502135D01*
X363363Y502184D01*
X363450Y502240D01*
X363531Y502304D01*
X363607Y502375D01*
Y500625D01*
D02*
G37*
G36*
X376819Y510766D02*
X376874Y510753D01*
X376922Y510737D01*
X376964Y510719D01*
X377001Y510700D01*
X377035Y510678D01*
X377067Y510653D01*
X377120Y510604D01*
X377169Y510573D01*
X377395Y510347D01*
X377580Y510271D01*
Y509729D01*
X377395Y509653D01*
X376847Y509105D01*
X376550Y508388D01*
Y507612D01*
X376847Y506895D01*
X377395Y506347D01*
X377580Y506271D01*
Y505729D01*
X377395Y505653D01*
X376847Y505105D01*
X376550Y504388D01*
Y504068D01*
X376537Y504011D01*
X376534Y503939D01*
X376529Y503899D01*
X376521Y503860D01*
X376509Y503819D01*
X376491Y503777D01*
X376469Y503732D01*
X376439Y503684D01*
X376403Y503633D01*
X372993Y500223D01*
X366623D01*
X366289Y500724D01*
X366450Y501112D01*
Y501888D01*
X366153Y502605D01*
X365605Y503153D01*
X365420Y503229D01*
Y503771D01*
X365605Y503847D01*
X366153Y504395D01*
X366450Y505112D01*
Y505888D01*
X366153Y506605D01*
X365605Y507153D01*
X365420Y507229D01*
Y507771D01*
X365605Y507847D01*
X366153Y508395D01*
X366450Y509112D01*
Y509888D01*
X366289Y510277D01*
X366623Y510777D01*
X376758D01*
X376819Y510766D01*
D02*
G37*
G36*
X286046Y445777D02*
X284193Y443924D01*
X272350D01*
X272347Y443923D01*
X271645Y443830D01*
X270988Y443558D01*
X270424Y443126D01*
X269992Y442562D01*
X269720Y441905D01*
X269657Y441428D01*
X269165Y441261D01*
X269074Y441341D01*
Y444300D01*
X269073Y444303D01*
X268981Y445005D01*
X268708Y445662D01*
X268620Y445777D01*
X268867Y446277D01*
X285921D01*
X286046Y445777D01*
D02*
G37*
G36*
X240517Y436857D02*
X240570Y436620D01*
X240657Y436371D01*
X240778Y436110D01*
X240935Y435837D01*
X241126Y435551D01*
X241353Y435253D01*
X241909Y434620D01*
X242240Y434285D01*
X237760D01*
X238091Y434620D01*
X238647Y435253D01*
X238874Y435551D01*
X239065Y435837D01*
X239222Y436110D01*
X239343Y436371D01*
X239430Y436620D01*
X239483Y436857D01*
X239500Y437081D01*
X240500D01*
X240517Y436857D01*
D02*
G37*
G36*
X248350Y441471D02*
X248541Y441391D01*
X248621Y441200D01*
X248626D01*
Y440700D01*
X248627Y440697D01*
X248720Y439995D01*
X248992Y439338D01*
X249080Y439223D01*
X248833Y438724D01*
X248000D01*
X247532Y438630D01*
X247135Y438365D01*
X244135Y435365D01*
X243870Y434968D01*
X243776Y434500D01*
Y434259D01*
X243277Y434125D01*
X243121Y434395D01*
X242785Y434730D01*
X242748Y434787D01*
X242432Y435107D01*
X241905Y435705D01*
X241708Y435966D01*
X241542Y436213D01*
X241413Y436439D01*
X241318Y436641D01*
X241257Y436816D01*
X241225Y436962D01*
X241224Y436982D01*
Y437993D01*
X244707Y441476D01*
X248350D01*
Y441471D01*
D02*
G37*
G36*
X233245Y435942D02*
X233082Y435751D01*
X232950Y435539D01*
X232850Y435303D01*
X232781Y435045D01*
X232744Y434764D01*
X232738Y434461D01*
X232764Y434136D01*
X232822Y433787D01*
X232911Y433417D01*
X233032Y433023D01*
X229038Y435052D01*
X229571Y435223D01*
X231805Y436088D01*
X232017Y436205D01*
X232183Y436313D01*
X232303Y436415D01*
X233245Y435942D01*
D02*
G37*
G36*
X283688Y441014D02*
X280574Y437900D01*
X280572Y437898D01*
X280142Y437336D01*
X279870Y436679D01*
X279777Y435978D01*
X279777Y435975D01*
Y430584D01*
X279303Y430396D01*
X279224Y430465D01*
Y436000D01*
X279223Y436003D01*
X279131Y436705D01*
X278858Y437362D01*
X278426Y437926D01*
X277862Y438358D01*
X277205Y438630D01*
X276500Y438723D01*
X275795Y438630D01*
X275138Y438358D01*
X274574Y437926D01*
X274142Y437362D01*
X273869Y436705D01*
X273777Y436003D01*
X273777Y436000D01*
Y429585D01*
X273303Y429398D01*
X273224Y429467D01*
Y436000D01*
X273223Y436003D01*
X273131Y436705D01*
X272859Y437362D01*
X272426Y437926D01*
X271862Y438358D01*
X271515Y438502D01*
X271450Y438624D01*
X271386Y439092D01*
X271708Y439513D01*
X271981Y440169D01*
X272073Y440871D01*
X272074Y440874D01*
Y441200D01*
X272079D01*
X272159Y441391D01*
X272350Y441471D01*
Y441476D01*
X283497D01*
X283688Y441014D01*
D02*
G37*
G36*
X251562Y429197D02*
X251512Y429141D01*
X251468Y429071D01*
X251429Y428986D01*
X251397Y428887D01*
X251371Y428774D01*
X251350Y428646D01*
X251335Y428504D01*
X251323Y428177D01*
X250323D01*
X250320Y428295D01*
X250309Y428400D01*
X250291Y428493D01*
X250267Y428574D01*
X250235Y428643D01*
X250196Y428699D01*
X250150Y428743D01*
X250097Y428774D01*
X250037Y428793D01*
X249969Y428800D01*
X251618Y429239D01*
X251562Y429197D01*
D02*
G37*
G36*
X284577Y437789D02*
Y416055D01*
X276418Y407897D01*
X266000D01*
Y407903D01*
X265809Y407982D01*
X265729Y408174D01*
X265724D01*
Y410852D01*
X265723Y410855D01*
X265631Y411557D01*
X265358Y412214D01*
X264926Y412778D01*
X264362Y413211D01*
X263705Y413483D01*
X263000Y413576D01*
X262295Y413483D01*
X261638Y413211D01*
X261074Y412778D01*
X260642Y412214D01*
X260369Y411557D01*
X260277Y410855D01*
X260277Y410852D01*
Y408174D01*
X260271D01*
X260191Y407982D01*
X260000Y407903D01*
Y407897D01*
X259007D01*
X256224Y410680D01*
Y419741D01*
X256723Y419875D01*
X256879Y419605D01*
X257605Y418879D01*
X258495Y418366D01*
X259487Y418100D01*
X260513D01*
X261505Y418366D01*
X262395Y418879D01*
X263121Y419605D01*
X263634Y420495D01*
X263900Y421487D01*
Y422513D01*
X263634Y423505D01*
X263121Y424395D01*
X262395Y425121D01*
X261505Y425634D01*
X260513Y425900D01*
X259487D01*
X258495Y425634D01*
X257605Y425121D01*
X256879Y424395D01*
X256712Y424106D01*
X256185Y424193D01*
X256130Y424468D01*
X255865Y424865D01*
X252416Y428314D01*
X252402Y428697D01*
X252476Y428961D01*
X253121Y429605D01*
X253634Y430495D01*
X253900Y431487D01*
Y432513D01*
X253634Y433505D01*
X253121Y434395D01*
X252395Y435121D01*
X251505Y435634D01*
X250974Y435777D01*
X251040Y436276D01*
X255332D01*
X255800Y436200D01*
X255800Y435777D01*
Y432500D01*
X260000D01*
X264200D01*
Y435777D01*
X264200Y436200D01*
X264668Y436276D01*
X270500D01*
Y436271D01*
X270691Y436191D01*
X270771Y436000D01*
X270777D01*
Y429000D01*
X270777Y428997D01*
X270869Y428295D01*
X271142Y427638D01*
X271574Y427074D01*
X272138Y426642D01*
X272795Y426369D01*
X273500Y426277D01*
X274205Y426369D01*
X274862Y426642D01*
X275426Y427074D01*
X275858Y427638D01*
X276131Y428295D01*
X276223Y428997D01*
X276224Y429000D01*
Y435415D01*
X276697Y435602D01*
X276777Y435533D01*
Y429998D01*
X276777Y429995D01*
X276870Y429293D01*
X277142Y428637D01*
X277574Y428073D01*
X278138Y427640D01*
X278795Y427368D01*
X279500Y427275D01*
X280205Y427368D01*
X280862Y427640D01*
X281426Y428073D01*
X281858Y428637D01*
X282131Y429293D01*
X282223Y429995D01*
X282224Y429998D01*
Y435477D01*
X282229Y435975D01*
X282309Y436166D01*
X282657Y436522D01*
X284115Y437980D01*
X284577Y437789D01*
D02*
G37*
G36*
X243946Y425239D02*
X243800Y425068D01*
X243670Y424864D01*
X243555Y424627D01*
X243457Y424356D01*
X243374Y424052D01*
X243307Y423715D01*
X243257Y423344D01*
X243203Y422503D01*
X243200Y422032D01*
X240032Y425200D01*
X240503Y425203D01*
X241344Y425257D01*
X241715Y425308D01*
X242052Y425374D01*
X242356Y425457D01*
X242627Y425555D01*
X242864Y425670D01*
X243068Y425800D01*
X243239Y425946D01*
X243946Y425239D01*
D02*
G37*
G36*
X251909Y419380D02*
X251353Y418747D01*
X251126Y418449D01*
X250935Y418163D01*
X250778Y417890D01*
X250657Y417629D01*
X250570Y417380D01*
X250517Y417143D01*
X250500Y416919D01*
X249500D01*
X249483Y417143D01*
X249430Y417380D01*
X249343Y417629D01*
X249222Y417890D01*
X249065Y418163D01*
X248874Y418449D01*
X248647Y418747D01*
X248091Y419380D01*
X247760Y419715D01*
X252240D01*
X251909Y419380D01*
D02*
G37*
%LPC*%
G36*
X264200Y431500D02*
X260500D01*
Y427800D01*
X264200D01*
Y431500D01*
D02*
G37*
G36*
X259500D02*
X255800D01*
Y427800D01*
X259500D01*
Y431500D01*
D02*
G37*
%LPD*%
D16*
X519500Y494500D02*
X519939Y493439D01*
X521000Y493000D01*
X519500Y498454D02*
X519214Y499336D01*
X518464Y499881D01*
X517536D01*
X516786Y499336D01*
X516500Y498454D01*
X515000Y493000D02*
X516061Y493439D01*
X516500Y494500D01*
X519500Y485500D02*
X519939Y484439D01*
X521000Y484000D01*
X519500Y488649D02*
X519214Y489531D01*
X518464Y490076D01*
X517536D01*
X516786Y489531D01*
X516500Y488649D01*
X515000Y484000D02*
X516061Y484439D01*
X516500Y485500D01*
X272350Y442700D02*
X271289Y442261D01*
X270850Y441200D01*
X267850Y440874D02*
X268137Y439993D01*
X268886Y439448D01*
X269814D01*
X270564Y439993D01*
X270850Y440874D01*
X267850Y444300D02*
X267564Y445182D01*
X266814Y445727D01*
X265886D01*
X265137Y445182D01*
X264850Y444300D01*
X261850Y440700D02*
X262137Y439818D01*
X262887Y439273D01*
X263814D01*
X264564Y439818D01*
X264850Y440700D01*
X261850Y444300D02*
X261564Y445182D01*
X260814Y445727D01*
X259887D01*
X259137Y445182D01*
X258850Y444300D01*
X255850Y440700D02*
X256136Y439818D01*
X256887Y439273D01*
X257814D01*
X258564Y439818D01*
X258850Y440700D01*
X255850Y444300D02*
X255564Y445182D01*
X254814Y445727D01*
X253887D01*
X253136Y445182D01*
X252850Y444300D01*
X249850Y440700D02*
X250136Y439818D01*
X250887Y439273D01*
X251814D01*
X252564Y439818D01*
X252850Y440700D01*
X249850Y441200D02*
X249411Y442261D01*
X248350Y442700D01*
X281439Y437035D02*
X281000Y435975D01*
X278000Y429998D02*
X278287Y429116D01*
X279036Y428572D01*
X279964D01*
X280714Y429116D01*
X281000Y429998D01*
X278000Y436000D02*
X277714Y436882D01*
X276964Y437427D01*
X276037D01*
X275287Y436882D01*
X275000Y436000D01*
X272000Y429000D02*
X272287Y428118D01*
X273037Y427573D01*
X273964D01*
X274714Y428118D01*
X275000Y429000D01*
X272000Y436000D02*
X271561Y437061D01*
X270500Y437500D01*
X264500Y408174D02*
X264939Y407113D01*
X266000Y406674D01*
X264500Y410852D02*
X264214Y411734D01*
X263464Y412279D01*
X262537D01*
X261787Y411734D01*
X261500Y410852D01*
X260000Y406674D02*
X261061Y407113D01*
X261500Y408174D01*
X521000Y493000D02*
X529594D01*
X519500Y494500D02*
Y498454D01*
X516500Y494500D02*
Y498454D01*
X514500Y493000D02*
X515000D01*
X529594D02*
X539000D01*
X521000Y484000D02*
X525633D01*
X519500Y485500D02*
Y488649D01*
X516500Y485500D02*
Y488649D01*
X514500Y484000D02*
X515000D01*
X525633D02*
X539000D01*
X494906Y480370D02*
Y501734D01*
Y480370D02*
X499776Y475500D01*
X539000D01*
X471500Y527500D02*
X472500Y526500D01*
X462500Y527500D02*
X471500D01*
X496630Y505713D02*
X497356Y504987D01*
X495050Y506000D02*
X495337Y505713D01*
X497356Y484586D02*
Y504987D01*
X495337Y505713D02*
X496630D01*
X497942Y484000D02*
X514500D01*
X497356Y484586D02*
X497942Y484000D01*
X397250Y542750D02*
X453750D01*
X391000Y536500D02*
X397250Y542750D01*
X449500Y541000D02*
X454000Y536500D01*
X453750Y542750D02*
X454000Y543000D01*
X460500Y529500D02*
X462500Y527500D01*
X426500Y529500D02*
X460500D01*
X500070Y496895D02*
Y505930D01*
Y496895D02*
X500139Y496825D01*
X505500Y493586D02*
Y508914D01*
X500000Y506000D02*
X500070Y505930D01*
X453250Y502250D02*
X455750D01*
X456000Y502000D01*
X504914Y509500D02*
X505500Y508914D01*
X495500Y509500D02*
X504914D01*
X506086Y493000D02*
X514500D01*
X272350Y442700D02*
X283500D01*
X270850Y440874D02*
Y441200D01*
X267850Y440874D02*
Y444300D01*
X264850Y440700D02*
Y444300D01*
X261850Y440700D02*
Y444300D01*
X258850Y440700D02*
Y444300D01*
X255850Y440700D02*
Y444300D01*
X252850Y440700D02*
Y444300D01*
X249850Y440700D02*
Y441200D01*
X244850Y442700D02*
X248350D01*
X283500D02*
X284700D01*
X287096Y447500D02*
X346996Y507400D01*
X235500Y436500D02*
X246500Y447500D01*
X287096D01*
X246096Y449500D02*
X286692D01*
X347192Y510000D01*
X230000Y433404D02*
X246096Y449500D01*
X244200Y442700D02*
X244850D01*
X284700D02*
X287000Y445000D01*
X235500Y422586D02*
X235500Y422586D01*
X235500Y422586D02*
Y436500D01*
X234914Y420545D02*
X235500Y421131D01*
Y422586D01*
X240000Y438500D02*
X244200Y442700D01*
X281439Y437035D02*
X290500Y446096D01*
X281000Y429998D02*
Y435975D01*
X278000Y429998D02*
Y436000D01*
X275000Y429000D02*
Y436000D01*
X272000Y429000D02*
Y436000D01*
X249000Y437500D02*
X270500D01*
X290500Y446096D02*
X348404Y504000D01*
X248000Y437500D02*
X249000D01*
X287000Y445000D02*
X347700Y505700D01*
X266000Y406674D02*
X274250D01*
X264500Y408174D02*
Y410852D01*
X261500Y408174D02*
Y410852D01*
X259500Y406674D02*
X260000D01*
X274250D02*
X275500D01*
X276925D01*
X258500D02*
X259500D01*
X276925D02*
X285800Y415549D01*
X240000Y422000D02*
X245000Y427000D01*
Y434500D02*
X248000Y437500D01*
X245000Y427000D02*
Y434500D01*
X255000Y410174D02*
Y424000D01*
X250823Y428177D02*
X255000Y424000D01*
X250823Y428177D02*
Y431177D01*
X250000Y432000D02*
X250823Y431177D01*
X255000Y410174D02*
X258500Y406674D01*
X285800Y415549D02*
Y438992D01*
X257526Y404974D02*
X277629D01*
X287500Y414844D01*
Y438287D01*
X250000Y412500D02*
X257526Y404974D01*
X250000Y412500D02*
Y422000D01*
X287500Y438287D02*
X348213Y499000D01*
X373500D01*
X332000Y475500D02*
X363500D01*
X378750Y490750D01*
X232916Y420545D02*
X234914D01*
X231461Y422000D02*
X232916Y420545D01*
X230000Y422000D02*
X231461D01*
X285800Y438992D02*
X348308Y501500D01*
X240000Y432000D02*
Y438500D01*
X230000Y432000D02*
Y433404D01*
X347192Y510000D02*
X354000D01*
X347700Y505700D02*
X355700D01*
X346996Y507400D02*
X354500D01*
X348308Y501500D02*
X364500D01*
X348404Y504000D02*
X358500D01*
X303750Y475250D02*
X304000Y475500D01*
X301250Y475250D02*
X303750D01*
X297500Y471500D02*
X301250Y475250D01*
X354000Y510000D02*
X359500Y515500D01*
X355500Y517500D02*
X358000Y520000D01*
X316000Y517500D02*
X355500D01*
X358000Y520000D02*
Y534000D01*
X359500Y515500D02*
X381414D01*
X382000Y511500D02*
Y514914D01*
X381414Y515500D02*
X382000Y514914D01*
X359100Y512000D02*
X378500D01*
X354500Y507400D02*
X359100Y512000D01*
X378500Y508000D02*
X382000Y511500D01*
X360000Y505500D02*
X364500D01*
X358500Y504000D02*
X360000Y505500D01*
X355700Y505700D02*
X359500Y509500D01*
X364500D01*
X505500Y493586D02*
X506086Y493000D01*
X450500Y505000D02*
X453250Y502250D01*
X452000Y507500D02*
X453250Y506250D01*
X455750D01*
X456000Y506000D01*
X394500Y507500D02*
X452000D01*
X397035Y509500D02*
X456000D01*
X455713Y512713D02*
X456000Y513000D01*
X452750Y512000D02*
X453463Y512713D01*
X455713D01*
X398000Y512000D02*
X452750D01*
X391000Y505000D02*
X450500D01*
X396035Y510500D02*
X397035Y509500D01*
X388500Y510500D02*
X396035D01*
X302500Y504000D02*
X316000Y517500D01*
X297500Y504000D02*
X302500D01*
X373500Y499000D02*
X378500Y504000D01*
X362000Y538000D02*
X380500D01*
X358000Y534000D02*
X362000Y538000D01*
X388000Y430000D02*
X395000Y437000D01*
Y494000D01*
X375500Y430000D02*
X391000Y445500D01*
Y494000D01*
X356500Y430000D02*
X375500D01*
X378750Y493750D02*
X379000Y494000D01*
X378750Y490750D02*
Y493750D01*
X395500Y499000D02*
X397500Y497000D01*
Y463000D02*
Y497000D01*
X397787Y500213D02*
X399200Y498800D01*
X397787Y500213D02*
Y501213D01*
X399200Y465300D02*
Y498800D01*
X397500Y501500D02*
X397787Y501213D01*
X397500Y463000D02*
X409500Y451000D01*
X399200Y465300D02*
X402000Y462500D01*
X428500Y479100D02*
X428577Y479177D01*
X428500Y464000D02*
Y479100D01*
X402000Y462500D02*
X409500D01*
X361000Y471500D02*
X371000D01*
X403000Y541000D02*
X449500D01*
X397000Y535000D02*
X403000Y541000D01*
X301500Y587500D02*
Y598500D01*
X486500Y682500D02*
Y712969D01*
X489531Y716000D01*
X481000Y687300D02*
Y712985D01*
X480700Y687000D02*
X481000Y687300D01*
Y712985D02*
X488515Y720500D01*
X470500Y696500D02*
X470600Y696600D01*
Y712652D01*
X475500Y713000D02*
X487500Y725000D01*
X475500Y692000D02*
Y713000D01*
X449252Y734000D02*
X470600Y712652D01*
X465500Y702000D02*
Y712236D01*
X448769Y728968D02*
X465500Y712236D01*
X369500Y700500D02*
Y735680D01*
X365895Y739284D02*
X369500Y735680D01*
X363811Y734252D02*
X363906Y734158D01*
Y695094D02*
Y734158D01*
Y695094D02*
X364000Y695000D01*
X359000Y689500D02*
Y712500D01*
X375000Y706000D02*
Y738500D01*
X369000Y744500D02*
X375000Y738500D01*
X353500Y684500D02*
Y712485D01*
X349385Y716600D02*
X353500Y712485D01*
X304385Y716600D02*
X349385D01*
X303500Y717000D02*
X303985D01*
X304385Y716600D01*
X306000Y720500D02*
X351000D01*
X359000Y712500D01*
X300819Y725681D02*
X306000Y720500D01*
X417756Y734000D02*
X418888Y732868D01*
X419646D02*
X423546Y728968D01*
X448769D01*
X418888Y732868D02*
X419646D01*
X488515Y720500D02*
X507000D01*
X489531Y716000D02*
X510000D01*
X487500Y725000D02*
X503244D01*
X507000Y720500D02*
X517500Y731000D01*
X503244Y725000D02*
X512244Y734000D01*
X510000Y716000D02*
X521400Y727400D01*
Y743772D01*
X510392Y754780D02*
X521400Y743772D01*
X501021Y749748D02*
X506053Y754780D01*
X510392D01*
X500433Y749748D02*
X501021D01*
X452363Y742700D02*
X510661D01*
X517500Y735861D01*
Y731000D02*
Y735861D01*
X445315Y749748D02*
X452363Y742700D01*
X358257Y744500D02*
X369000D01*
X355906Y746851D02*
X358257Y744500D01*
X352613Y750000D02*
X355761Y746851D01*
X355906D01*
X307598Y739284D02*
X365895D01*
X303930Y742951D02*
X303930D01*
X307598Y739284D01*
X296882Y750000D02*
X303930Y742951D01*
X352000Y750000D02*
X352613D01*
X296000Y724500D02*
X303500Y717000D01*
X300819Y725681D02*
Y734252D01*
X279075Y724500D02*
X296000D01*
X269323Y734252D02*
X279075Y724500D01*
D43*
X316000Y538496D02*
D03*
Y530504D02*
D03*
X346000Y534500D02*
D03*
D69*
X467979Y450021D02*
X468000Y450000D01*
X424000Y525000D02*
X454000D01*
X365188Y533000D02*
X368688Y529500D01*
X365000Y533000D02*
X365188D01*
X368688Y529500D02*
X419500D01*
X424000Y525000D01*
D72*
X515000Y683500D02*
Y707000D01*
X489000Y657500D02*
X515000Y683500D01*
X423000Y603500D02*
X435500Y591000D01*
X489000Y532500D02*
Y657500D01*
Y532500D02*
X492003Y529497D01*
X435500Y591000D02*
X483000D01*
X492003Y529497D02*
X493000Y528500D01*
X510000D01*
D73*
X455000Y483000D02*
X458476D01*
X470006Y494530D01*
D74*
X461687Y450021D02*
X467979D01*
X522500Y525000D02*
Y557500D01*
X523000Y558000D01*
X492500Y520500D02*
X518000D01*
X522500Y525000D01*
X488000Y516000D02*
X492500Y520500D01*
X488000Y502675D02*
X491185Y499490D01*
X488000Y502675D02*
Y516000D01*
X480500Y451000D02*
X491000D01*
X491185Y451815D02*
Y499490D01*
D75*
X224000Y477000D02*
D03*
Y467000D02*
D03*
Y500000D02*
D03*
Y490000D02*
D03*
X317500Y726500D02*
D03*
X309500D02*
D03*
X446500Y722500D02*
D03*
X452500Y716000D02*
D03*
X446000D02*
D03*
X515000Y707000D02*
D03*
X395500Y671000D02*
D03*
X388500D02*
D03*
X480500Y451000D02*
D03*
X491000D02*
D03*
X402000Y565000D02*
D03*
X408000D02*
D03*
X485500Y482000D02*
D03*
X454000Y525000D02*
D03*
X423000Y603500D02*
D03*
X483000Y591000D02*
D03*
X510000Y528500D02*
D03*
X365000Y533000D02*
D03*
X461687Y450021D02*
D03*
X419500Y529500D02*
D03*
X426500D02*
D03*
X520500Y798500D02*
D03*
X264000Y798000D02*
D03*
X257000D02*
D03*
X514000Y798500D02*
D03*
D76*
X225587Y649109D02*
D03*
Y574924D02*
D03*
X550000Y535130D02*
D03*
Y609315D02*
D03*
D77*
X225587Y629424D02*
D03*
Y609739D02*
D03*
X324000Y380000D02*
D03*
X382315D02*
D03*
X225587Y535554D02*
D03*
Y555239D02*
D03*
X550000Y554815D02*
D03*
Y574500D02*
D03*
Y629000D02*
D03*
Y648685D02*
D03*
X400000Y796000D02*
D03*
X537815Y798000D02*
D03*
X214815D02*
D03*
D78*
X260000Y432000D02*
D03*
D79*
X250000D02*
D03*
X240000D02*
D03*
X230000D02*
D03*
X250000Y422000D02*
D03*
X240000D02*
D03*
X230000D02*
D03*
X260000D02*
D03*
D80*
X230000Y697500D02*
D03*
X540000D02*
D03*
X230000Y390000D02*
D03*
X540000D02*
D03*
D81*
X343685Y380000D02*
D03*
X402000D02*
D03*
X380315Y796000D02*
D03*
X557500Y798000D02*
D03*
X234500D02*
D03*
D82*
X344052Y417447D02*
D03*
X403565Y417519D02*
D03*
D83*
X334052Y417447D02*
D03*
X324052D02*
D03*
X393565Y417519D02*
D03*
X383565D02*
D03*
X280000Y554000D02*
D03*
Y544000D02*
D03*
Y619235D02*
D03*
Y629235D02*
D03*
X496000Y638000D02*
D03*
Y628000D02*
D03*
Y564000D02*
D03*
Y554000D02*
D03*
D84*
X323500Y544500D02*
D03*
X346000D02*
D03*
X323500Y524500D02*
D03*
X346000D02*
D03*
D85*
X543780Y434000D02*
D03*
D86*
X530000D02*
D03*
D87*
X480006Y494530D02*
D03*
X470006D02*
D03*
X460006D02*
D03*
D88*
X280000Y564000D02*
D03*
Y639235D02*
D03*
X496000Y618000D02*
D03*
Y544000D02*
D03*
D89*
X512244Y734000D02*
D03*
X508307Y749748D02*
D03*
X504370Y734000D02*
D03*
X500433Y749748D02*
D03*
X496496Y734000D02*
D03*
X492559Y749748D02*
D03*
X488622Y734000D02*
D03*
X484685Y749748D02*
D03*
X480748Y734000D02*
D03*
X476811Y749748D02*
D03*
X472874Y734000D02*
D03*
X468937Y749748D02*
D03*
X465000Y734000D02*
D03*
X461063Y749748D02*
D03*
X457126Y734000D02*
D03*
X453189Y749748D02*
D03*
X449252Y734000D02*
D03*
X445315Y749748D02*
D03*
X441378Y734000D02*
D03*
X437441Y749748D02*
D03*
X433504Y734000D02*
D03*
X429567Y749748D02*
D03*
X425630Y734000D02*
D03*
X421693Y749748D02*
D03*
X363811Y734252D02*
D03*
X359874Y750000D02*
D03*
X355937Y734252D02*
D03*
X352000Y750000D02*
D03*
X348063Y734252D02*
D03*
X344126Y750000D02*
D03*
X340189Y734252D02*
D03*
X336252Y750000D02*
D03*
X332315Y734252D02*
D03*
X328378Y750000D02*
D03*
X324441Y734252D02*
D03*
X320504Y750000D02*
D03*
X316567Y734252D02*
D03*
X312630Y750000D02*
D03*
X308693Y734252D02*
D03*
X304756Y750000D02*
D03*
X300819Y734252D02*
D03*
X296882Y750000D02*
D03*
X292945Y734252D02*
D03*
X289008Y750000D02*
D03*
X285071Y734252D02*
D03*
X281134Y750000D02*
D03*
X277197Y734252D02*
D03*
X273260Y750000D02*
D03*
D90*
X417756Y734000D02*
D03*
X269323Y734252D02*
D03*
D91*
X452500Y721500D02*
D03*
X420000Y660000D02*
D03*
X560000Y780000D02*
D03*
Y740000D02*
D03*
Y700000D02*
D03*
Y660000D02*
D03*
Y620000D02*
D03*
X540000Y740000D02*
D03*
X550000Y720000D02*
D03*
Y680000D02*
D03*
X540000Y660000D02*
D03*
X550000Y640000D02*
D03*
X540000Y620000D02*
D03*
X550000Y600000D02*
D03*
X540000Y580000D02*
D03*
X530000Y760000D02*
D03*
Y680000D02*
D03*
X520000Y660000D02*
D03*
X530000Y640000D02*
D03*
X520000Y620000D02*
D03*
X530000Y600000D02*
D03*
X520000Y580000D02*
D03*
X530000Y560000D02*
D03*
X500000Y700000D02*
D03*
Y660000D02*
D03*
X510000Y640000D02*
D03*
Y600000D02*
D03*
X500000Y580000D02*
D03*
X490000Y800000D02*
D03*
Y680000D02*
D03*
X470000Y800000D02*
D03*
X460000Y780000D02*
D03*
X470000Y720000D02*
D03*
X460000Y700000D02*
D03*
X470000Y680000D02*
D03*
X460000Y660000D02*
D03*
X470000Y640000D02*
D03*
Y600000D02*
D03*
X450000Y800000D02*
D03*
X440000Y700000D02*
D03*
X450000Y680000D02*
D03*
X430000Y720000D02*
D03*
Y680000D02*
D03*
Y640000D02*
D03*
X420000Y620000D02*
D03*
X380000Y780000D02*
D03*
Y580000D02*
D03*
X370000Y800000D02*
D03*
X360000Y780000D02*
D03*
X370000Y680000D02*
D03*
Y560000D02*
D03*
X350000Y800000D02*
D03*
X340000Y700000D02*
D03*
X350000Y680000D02*
D03*
Y600000D02*
D03*
Y560000D02*
D03*
X320000Y780000D02*
D03*
Y700000D02*
D03*
X330000Y680000D02*
D03*
X320000Y660000D02*
D03*
Y620000D02*
D03*
X330000Y600000D02*
D03*
Y560000D02*
D03*
X310000Y800000D02*
D03*
X300000Y700000D02*
D03*
X310000Y680000D02*
D03*
X300000Y660000D02*
D03*
Y620000D02*
D03*
X310000Y600000D02*
D03*
X300000Y580000D02*
D03*
X310000Y560000D02*
D03*
X300000Y540000D02*
D03*
X290000Y800000D02*
D03*
Y720000D02*
D03*
X280000Y700000D02*
D03*
X290000Y680000D02*
D03*
X280000Y660000D02*
D03*
X290000Y600000D02*
D03*
X280000Y580000D02*
D03*
X270000Y760000D02*
D03*
X260000Y700000D02*
D03*
X270000Y680000D02*
D03*
X260000Y660000D02*
D03*
X270000Y640000D02*
D03*
Y600000D02*
D03*
Y560000D02*
D03*
X260000Y540000D02*
D03*
X250000Y760000D02*
D03*
Y720000D02*
D03*
Y680000D02*
D03*
X240000Y660000D02*
D03*
X250000Y640000D02*
D03*
X240000Y620000D02*
D03*
X250000Y600000D02*
D03*
X240000Y580000D02*
D03*
X250000Y560000D02*
D03*
X240000Y540000D02*
D03*
X220000Y780000D02*
D03*
Y740000D02*
D03*
X230000Y720000D02*
D03*
Y680000D02*
D03*
X220000Y660000D02*
D03*
X230000Y640000D02*
D03*
X220000Y620000D02*
D03*
X230000Y600000D02*
D03*
X220000Y540000D02*
D03*
X440000Y460000D02*
D03*
X331500Y544500D02*
D03*
X530000Y480000D02*
D03*
X375500Y546000D02*
D03*
X372000D02*
D03*
X384000Y467000D02*
D03*
X560000Y500000D02*
D03*
Y420000D02*
D03*
Y380000D02*
D03*
X550000Y520000D02*
D03*
X540000Y500000D02*
D03*
Y460000D02*
D03*
X550000Y440000D02*
D03*
X540000Y420000D02*
D03*
X550000Y400000D02*
D03*
X520000Y460000D02*
D03*
Y420000D02*
D03*
X530000Y400000D02*
D03*
X520000Y380000D02*
D03*
X500000Y460000D02*
D03*
X510000Y400000D02*
D03*
X500000Y380000D02*
D03*
X490000Y400000D02*
D03*
X480000Y380000D02*
D03*
X450000Y440000D02*
D03*
Y400000D02*
D03*
X440000Y380000D02*
D03*
X420000Y460000D02*
D03*
X430000Y440000D02*
D03*
X420000Y420000D02*
D03*
X430000Y400000D02*
D03*
X420000Y380000D02*
D03*
X410000Y440000D02*
D03*
Y400000D02*
D03*
X380000Y500000D02*
D03*
X390000Y440000D02*
D03*
Y400000D02*
D03*
X370000Y520000D02*
D03*
X360000Y460000D02*
D03*
X370000Y440000D02*
D03*
X360000Y420000D02*
D03*
X370000Y400000D02*
D03*
X360000Y380000D02*
D03*
X350000Y480000D02*
D03*
X340000Y460000D02*
D03*
X350000Y440000D02*
D03*
Y400000D02*
D03*
X330000Y520000D02*
D03*
X320000Y500000D02*
D03*
Y460000D02*
D03*
X330000Y440000D02*
D03*
Y400000D02*
D03*
X310000Y520000D02*
D03*
Y480000D02*
D03*
X260000Y500000D02*
D03*
X270000Y480000D02*
D03*
X240000Y500000D02*
D03*
X250000Y480000D02*
D03*
X230000D02*
D03*
X495050Y506000D02*
D03*
X494906Y501734D02*
D03*
X454000Y536500D02*
D03*
Y543000D02*
D03*
X500139Y496825D02*
D03*
X456000Y502000D02*
D03*
X500000Y506000D02*
D03*
X428500Y464000D02*
D03*
X428577Y479177D02*
D03*
X391000Y536500D02*
D03*
X397000Y535000D02*
D03*
X301250Y598250D02*
D03*
X301500Y587500D02*
D03*
X486500Y682500D02*
D03*
X480700Y687000D02*
D03*
X475500Y692000D02*
D03*
X470500Y696500D02*
D03*
X465500Y702000D02*
D03*
X369500Y700500D02*
D03*
X364000Y695000D02*
D03*
X359000Y689500D02*
D03*
X353500Y684500D02*
D03*
X375000Y706000D02*
D03*
X495500Y509500D02*
D03*
X332000Y475500D02*
D03*
X304000D02*
D03*
X364500Y509500D02*
D03*
Y505500D02*
D03*
X539000Y493000D02*
D03*
Y484000D02*
D03*
Y475500D02*
D03*
X456000Y506000D02*
D03*
Y509500D02*
D03*
Y513000D02*
D03*
X394500Y507500D02*
D03*
X391000Y505000D02*
D03*
X388500Y510500D02*
D03*
X398000Y512000D02*
D03*
X364500Y501500D02*
D03*
X297500Y471500D02*
D03*
X378500Y504000D02*
D03*
Y508000D02*
D03*
Y512000D02*
D03*
X380500Y538000D02*
D03*
X356500Y430000D02*
D03*
X388000D02*
D03*
X395000Y494000D02*
D03*
X379000D02*
D03*
X395500Y499000D02*
D03*
X397500Y501500D02*
D03*
X391000Y494000D02*
D03*
X297500Y504000D02*
D03*
X409500Y462500D02*
D03*
Y451000D02*
D03*
X361000Y471500D02*
D03*
X371000D02*
D03*
D92*
X366939Y547784D02*
D03*
Y555284D02*
D03*
D93*
Y551534D02*
D03*
M02*
