G04*
G04 #@! TF.GenerationSoftware,Altium Limited,Altium Designer,24.2.2 (26)*
G04*
G04 Layer_Color=32768*
%FSLAX25Y25*%
%MOIN*%
G70*
G04*
G04 #@! TF.SameCoordinates,1A1EAA83-3352-477D-9F2F-1BB8837AECD5*
G04*
G04*
G04 #@! TF.FilePolarity,Positive*
G04*
G01*
G75*
%ADD11C,0.00394*%
%ADD14C,0.00787*%
%ADD17C,0.00500*%
%ADD94C,0.00197*%
D11*
X245666Y596156D02*
Y662889D01*
X205705Y596156D02*
X245666D01*
X205705D02*
Y662889D01*
X245666D01*
X313343Y404750D02*
X354760D01*
X313343D02*
Y423057D01*
X354760D01*
Y404750D02*
Y423057D01*
X349760Y404750D02*
X354760Y409750D01*
X372857Y404822D02*
X414274D01*
X372857D02*
Y423129D01*
X414274D01*
Y404822D02*
Y423129D01*
X409274Y404822D02*
X414274Y409822D01*
X443234Y480357D02*
Y524057D01*
Y480357D02*
X496777D01*
Y524057D01*
X443234D02*
X496777D01*
X205705Y588704D02*
X245666D01*
X205705Y521971D02*
Y588704D01*
Y521971D02*
X245666D01*
Y588704D01*
X292697Y533291D02*
Y574709D01*
X274390Y533291D02*
X292697D01*
X274390D02*
Y574709D01*
X292697D01*
X287697D02*
X292697Y569709D01*
X287697Y649944D02*
X292697Y644944D01*
X274390Y649944D02*
X292697D01*
X274390Y608527D02*
Y649944D01*
Y608527D02*
X292697D01*
Y649944D01*
X483303Y612291D02*
X488303Y607291D01*
X483303D02*
X501610D01*
Y648709D01*
X483303D02*
X501610D01*
X483303Y607291D02*
Y648709D01*
X529921Y521350D02*
Y588083D01*
X569882D01*
Y521350D02*
Y588083D01*
X529921Y521350D02*
X569882D01*
X483303Y538291D02*
X488303Y533291D01*
X483303D02*
X501610D01*
Y574709D01*
X483303D02*
X501610D01*
X483303Y533291D02*
Y574709D01*
X529921Y595535D02*
Y662268D01*
X569882D01*
Y595535D02*
Y662268D01*
X529921Y595535D02*
X569882D01*
X388681Y443327D02*
X399713D01*
Y452776D01*
X388681D02*
X399713D01*
X388681Y443327D02*
Y452776D01*
X388716Y453558D02*
X399748D01*
Y463007D01*
X388716D02*
X399748D01*
X388716Y453558D02*
Y463007D01*
X424508Y810492D02*
X450492D01*
Y791004D02*
Y810492D01*
X443996Y784508D02*
X450492Y791004D01*
X431004Y784508D02*
X443996D01*
X424508Y791004D02*
X431004Y784508D01*
X424508Y791004D02*
Y810492D01*
X555031Y735508D02*
Y761492D01*
X535543Y735508D02*
X555031D01*
X529047Y742004D02*
X535543Y735508D01*
X529047Y742004D02*
Y754996D01*
X535543Y761492D01*
X555031D01*
X330008Y810492D02*
X355992D01*
Y791004D02*
Y810492D01*
X349496Y784508D02*
X355992Y791004D01*
X336504Y784508D02*
X349496D01*
X330008Y791004D02*
X336504Y784508D01*
X330008Y791004D02*
Y810492D01*
X226508Y735508D02*
Y761492D01*
X245996D01*
X252492Y754996D01*
Y742004D02*
Y754996D01*
X245996Y735508D02*
X252492Y742004D01*
X226508Y735508D02*
X245996D01*
D14*
X512447Y461985D02*
Y515528D01*
X569337D01*
Y461985D02*
Y515528D01*
X512447Y461985D02*
X569337D01*
D17*
X478340Y454722D02*
Y478344D01*
X454718D02*
X478340D01*
X454718Y454722D02*
Y478344D01*
Y454722D02*
X478340D01*
D94*
X554606Y434000D02*
X554578Y435002D01*
X554493Y436001D01*
X554352Y436994D01*
X554154Y437977D01*
X553901Y438948D01*
X553594Y439902D01*
X553234Y440838D01*
X552821Y441751D01*
X552356Y442640D01*
X551843Y443502D01*
X551281Y444332D01*
X550674Y445130D01*
X550022Y445892D01*
X549328Y446616D01*
X548595Y447299D01*
X547823Y447940D01*
X547017Y448536D01*
X546179Y449086D01*
X545310Y449587D01*
X544415Y450039D01*
X543496Y450439D01*
X542555Y450786D01*
X541596Y451080D01*
X540622Y451319D01*
X539637Y451502D01*
X538642Y451630D01*
X537642Y451701D01*
X536639Y451715D01*
X535637Y451672D01*
X534640Y451573D01*
X533649Y451418D01*
X532669Y451206D01*
X531702Y450940D01*
X530752Y450619D01*
X529821Y450246D01*
X528914Y449820D01*
X528031Y449343D01*
X527178Y448817D01*
X526355Y448244D01*
X525566Y447625D01*
X524813Y446963D01*
X524099Y446259D01*
X523426Y445515D01*
X522796Y444735D01*
X522211Y443921D01*
X521674Y443075D01*
X521185Y442199D01*
X520746Y441297D01*
X520359Y440373D01*
X520025Y439427D01*
X519745Y438464D01*
X519520Y437487D01*
X519350Y436499D01*
X519237Y435502D01*
X519180Y434501D01*
X519180Y433499D01*
X519237Y432498D01*
X519350Y431501D01*
X519520Y430513D01*
X519745Y429536D01*
X520025Y428573D01*
X520359Y427628D01*
X520746Y426703D01*
X521185Y425801D01*
X521674Y424926D01*
X522211Y424079D01*
X522796Y423265D01*
X523426Y422484D01*
X524099Y421741D01*
X524813Y421037D01*
X525566Y420375D01*
X526355Y419756D01*
X527178Y419183D01*
X528031Y418657D01*
X528914Y418181D01*
X529821Y417755D01*
X530752Y417381D01*
X531702Y417060D01*
X532669Y416794D01*
X533649Y416582D01*
X534639Y416427D01*
X535637Y416328D01*
X536639Y416285D01*
X537642Y416299D01*
X538642Y416370D01*
X539636Y416498D01*
X540622Y416681D01*
X541596Y416920D01*
X542555Y417214D01*
X543496Y417561D01*
X544415Y417961D01*
X545310Y418412D01*
X546179Y418914D01*
X547017Y419463D01*
X547823Y420060D01*
X548595Y420701D01*
X549328Y421384D01*
X550022Y422108D01*
X550674Y422870D01*
X551281Y423668D01*
X551843Y424499D01*
X552357Y425360D01*
X552821Y426249D01*
X553234Y427162D01*
X553594Y428098D01*
X553901Y429052D01*
X554154Y430023D01*
X554352Y431006D01*
X554493Y431999D01*
X554578Y432998D01*
X554606Y434000D01*
X367429Y481429D02*
X408571D01*
Y522571D01*
X367429D02*
X408571D01*
X367429Y481429D02*
Y522571D01*
X310221Y357362D02*
X360417D01*
X310221D02*
Y402638D01*
X360417D01*
Y357362D02*
Y402638D01*
X356276Y518839D02*
Y550161D01*
X305724D02*
X356276D01*
X305724Y518839D02*
Y550161D01*
Y518839D02*
X356276D01*
X368535Y357362D02*
X418732D01*
X368535D02*
Y402638D01*
X418732D01*
Y357362D02*
Y402638D01*
X375077Y459708D02*
X383738D01*
Y469945D01*
X375077D02*
X383738D01*
X375077Y459708D02*
Y469945D01*
X406063Y730260D02*
Y767307D01*
Y730260D02*
X523937D01*
Y767307D01*
X406063D02*
X523937D01*
X257630Y730512D02*
Y767559D01*
Y730512D02*
X375504D01*
Y767559D01*
X257630D02*
X375504D01*
X363583Y818638D02*
X413779D01*
Y773362D02*
Y818638D01*
X363583Y773362D02*
X413779D01*
X363583D02*
Y818638D01*
X574232Y775362D02*
Y820638D01*
X524035D02*
X574232D01*
X524035Y775362D02*
Y820638D01*
Y775362D02*
X574232D01*
X251232D02*
Y820638D01*
X201035D02*
X251232D01*
X201035Y775362D02*
Y820638D01*
Y775362D02*
X251232D01*
M02*
