G04*
G04 #@! TF.GenerationSoftware,Altium Limited,Altium Designer,24.2.2 (26)*
G04*
G04 Layer_Color=128*
%FSLAX25Y25*%
%MOIN*%
G70*
G04*
G04 #@! TF.SameCoordinates,1A1EAA83-3352-477D-9F2F-1BB8837AECD5*
G04*
G04*
G04 #@! TF.FilePolarity,Positive*
G04*
G01*
G75*
%ADD17C,0.00500*%
D17*
X222500Y477000D02*
X225500D01*
X224000Y475500D02*
Y478500D01*
X222500Y467000D02*
X225500D01*
X224000Y465500D02*
Y468500D01*
X223028Y649109D02*
X228146D01*
X225587Y646550D02*
Y651668D01*
X223028Y629424D02*
X228146D01*
X225587Y626865D02*
Y631983D01*
X223028Y609739D02*
X228146D01*
X225587Y607180D02*
Y612298D01*
X258000Y432000D02*
X262000D01*
X260000Y430000D02*
Y434000D01*
X248000Y432000D02*
X252000D01*
X250000Y430000D02*
Y434000D01*
X238000Y432000D02*
X242000D01*
X240000Y430000D02*
Y434000D01*
X228000Y432000D02*
X232000D01*
X230000Y430000D02*
Y434000D01*
X248000Y422000D02*
X252000D01*
X250000Y420000D02*
Y424000D01*
X238000Y422000D02*
X242000D01*
X240000Y420000D02*
Y424000D01*
X228000Y422000D02*
X232000D01*
X230000Y420000D02*
Y424000D01*
X258000Y422000D02*
X262000D01*
X260000Y420000D02*
Y424000D01*
X218189Y697500D02*
X241811D01*
X230000Y685689D02*
Y709311D01*
X528189Y697500D02*
X551811D01*
X540000Y685689D02*
Y709311D01*
X341126Y380000D02*
X346244D01*
X343685Y377441D02*
Y382559D01*
X321441Y380000D02*
X326559D01*
X324000Y377441D02*
Y382559D01*
X218189Y390000D02*
X241811D01*
X230000Y378189D02*
Y401811D01*
X341315Y417447D02*
X346788D01*
X344052Y414711D02*
Y420183D01*
X331315Y417447D02*
X336788D01*
X334052Y414711D02*
Y420183D01*
X321315Y417447D02*
X326788D01*
X324052Y414711D02*
Y420183D01*
X222500Y500000D02*
X225500D01*
X224000Y498500D02*
Y501500D01*
X222500Y490000D02*
X225500D01*
X224000Y488500D02*
Y491500D01*
X318825Y544500D02*
X328175D01*
X323500Y539825D02*
Y549175D01*
X341325Y544500D02*
X350675D01*
X346000Y539825D02*
Y549175D01*
X318825Y524500D02*
X328175D01*
X323500Y519825D02*
Y529175D01*
X341325Y524500D02*
X350675D01*
X346000Y519825D02*
Y529175D01*
X314050Y538496D02*
X317950D01*
X316000Y536546D02*
Y540446D01*
X314050Y530504D02*
X317950D01*
X316000Y528554D02*
Y532454D01*
X344050Y534500D02*
X347950D01*
X346000Y532550D02*
Y536450D01*
X399441Y380000D02*
X404559D01*
X402000Y377441D02*
Y382559D01*
X379756Y380000D02*
X384874D01*
X382315Y377441D02*
Y382559D01*
X528189Y390000D02*
X551811D01*
X540000Y378189D02*
Y401811D01*
X400829Y417519D02*
X406302D01*
X403565Y414783D02*
Y420255D01*
X390829Y417519D02*
X396302D01*
X393565Y414783D02*
Y420255D01*
X380829Y417519D02*
X386302D01*
X383565Y414783D02*
Y420255D01*
X542402Y434000D02*
X545157D01*
X543780Y432622D02*
Y435378D01*
X528622Y434000D02*
X531378D01*
X530000Y432622D02*
Y435378D01*
X478234Y494530D02*
X481777D01*
X480006Y492758D02*
Y496302D01*
X468234Y494530D02*
X471777D01*
X470006Y492758D02*
Y496302D01*
X458234Y494530D02*
X461777D01*
X460006Y492758D02*
Y496302D01*
X223028Y535554D02*
X228146D01*
X225587Y532995D02*
Y538113D01*
X223028Y555239D02*
X228146D01*
X225587Y552680D02*
Y557798D01*
X223028Y574924D02*
X228146D01*
X225587Y572365D02*
Y577483D01*
X277264Y564000D02*
X282736D01*
X280000Y561264D02*
Y566736D01*
X277264Y554000D02*
X282736D01*
X280000Y551264D02*
Y556736D01*
X277264Y544000D02*
X282736D01*
X280000Y541264D02*
Y546736D01*
X277264Y619235D02*
X282736D01*
X280000Y616499D02*
Y621971D01*
X277264Y629235D02*
X282736D01*
X280000Y626499D02*
Y631971D01*
X277264Y639235D02*
X282736D01*
X280000Y636499D02*
Y641971D01*
X493264Y638000D02*
X498736D01*
X496000Y635264D02*
Y640736D01*
X493264Y628000D02*
X498736D01*
X496000Y625264D02*
Y630736D01*
X493264Y618000D02*
X498736D01*
X496000Y615264D02*
Y620736D01*
X547441Y535130D02*
X552559D01*
X550000Y532571D02*
Y537689D01*
X547441Y554815D02*
X552559D01*
X550000Y552256D02*
Y557374D01*
X547441Y574500D02*
X552559D01*
X550000Y571941D02*
Y577059D01*
X493264Y564000D02*
X498736D01*
X496000Y561264D02*
Y566736D01*
X493264Y554000D02*
X498736D01*
X496000Y551264D02*
Y556736D01*
X493264Y544000D02*
X498736D01*
X496000Y541264D02*
Y546736D01*
X547441Y609315D02*
X552559D01*
X550000Y606756D02*
Y611874D01*
X547441Y629000D02*
X552559D01*
X550000Y626441D02*
Y631559D01*
X547441Y648685D02*
X552559D01*
X550000Y646126D02*
Y651244D01*
X510512Y734000D02*
X513976D01*
X512244Y732268D02*
Y735732D01*
X506575Y749748D02*
X510039D01*
X508307Y748016D02*
Y751480D01*
X502638Y734000D02*
X506102D01*
X504370Y732268D02*
Y735732D01*
X498701Y749748D02*
X502165D01*
X500433Y748016D02*
Y751480D01*
X494764Y734000D02*
X498228D01*
X496496Y732268D02*
Y735732D01*
X490827Y749748D02*
X494291D01*
X492559Y748016D02*
Y751480D01*
X486890Y734000D02*
X490354D01*
X488622Y732268D02*
Y735732D01*
X482953Y749748D02*
X486417D01*
X484685Y748016D02*
Y751480D01*
X479016Y734000D02*
X482480D01*
X480748Y732268D02*
Y735732D01*
X475079Y749748D02*
X478543D01*
X476811Y748016D02*
Y751480D01*
X471142Y734000D02*
X474606D01*
X472874Y732268D02*
Y735732D01*
X467205Y749748D02*
X470669D01*
X468937Y748016D02*
Y751480D01*
X463268Y734000D02*
X466732D01*
X465000Y732268D02*
Y735732D01*
X459331Y749748D02*
X462795D01*
X461063Y748016D02*
Y751480D01*
X455394Y734000D02*
X458858D01*
X457126Y732268D02*
Y735732D01*
X451457Y749748D02*
X454921D01*
X453189Y748016D02*
Y751480D01*
X447520Y734000D02*
X450984D01*
X449252Y732268D02*
Y735732D01*
X443583Y749748D02*
X447047D01*
X445315Y748016D02*
Y751480D01*
X439646Y734000D02*
X443110D01*
X441378Y732268D02*
Y735732D01*
X435709Y749748D02*
X439173D01*
X437441Y748016D02*
Y751480D01*
X431772Y734000D02*
X435236D01*
X433504Y732268D02*
Y735732D01*
X427835Y749748D02*
X431299D01*
X429567Y748016D02*
Y751480D01*
X423898Y734000D02*
X427362D01*
X425630Y732268D02*
Y735732D01*
X419961Y749748D02*
X423425D01*
X421693Y748016D02*
Y751480D01*
X416024Y734000D02*
X419488D01*
X417756Y732268D02*
Y735732D01*
X362079Y734252D02*
X365543D01*
X363811Y732520D02*
Y735984D01*
X358142Y750000D02*
X361606D01*
X359874Y748268D02*
Y751732D01*
X354205Y734252D02*
X357669D01*
X355937Y732520D02*
Y735984D01*
X350268Y750000D02*
X353732D01*
X352000Y748268D02*
Y751732D01*
X346331Y734252D02*
X349795D01*
X348063Y732520D02*
Y735984D01*
X342394Y750000D02*
X345858D01*
X344126Y748268D02*
Y751732D01*
X338457Y734252D02*
X341921D01*
X340189Y732520D02*
Y735984D01*
X334520Y750000D02*
X337984D01*
X336252Y748268D02*
Y751732D01*
X330583Y734252D02*
X334047D01*
X332315Y732520D02*
Y735984D01*
X326646Y750000D02*
X330110D01*
X328378Y748268D02*
Y751732D01*
X322709Y734252D02*
X326173D01*
X324441Y732520D02*
Y735984D01*
X318772Y750000D02*
X322236D01*
X320504Y748268D02*
Y751732D01*
X314835Y734252D02*
X318299D01*
X316567Y732520D02*
Y735984D01*
X310898Y750000D02*
X314362D01*
X312630Y748268D02*
Y751732D01*
X306961Y734252D02*
X310425D01*
X308693Y732520D02*
Y735984D01*
X303024Y750000D02*
X306488D01*
X304756Y748268D02*
Y751732D01*
X299087Y734252D02*
X302551D01*
X300819Y732520D02*
Y735984D01*
X295150Y750000D02*
X298614D01*
X296882Y748268D02*
Y751732D01*
X291213Y734252D02*
X294677D01*
X292945Y732520D02*
Y735984D01*
X287276Y750000D02*
X290740D01*
X289008Y748268D02*
Y751732D01*
X283339Y734252D02*
X286803D01*
X285071Y732520D02*
Y735984D01*
X279402Y750000D02*
X282866D01*
X281134Y748268D02*
Y751732D01*
X275465Y734252D02*
X278929D01*
X277197Y732520D02*
Y735984D01*
X271528Y750000D02*
X274992D01*
X273260Y748268D02*
Y751732D01*
X267590Y734252D02*
X271055D01*
X269323Y732520D02*
Y735984D01*
X377756Y796000D02*
X382874D01*
X380315Y793441D02*
Y798559D01*
X397441Y796000D02*
X402559D01*
X400000Y793441D02*
Y798559D01*
X535256Y798000D02*
X540374D01*
X537815Y795441D02*
Y800559D01*
X554941Y798000D02*
X560059D01*
X557500Y795441D02*
Y800559D01*
X212256Y798000D02*
X217374D01*
X214815Y795441D02*
Y800559D01*
X231941Y798000D02*
X237059D01*
X234500Y795441D02*
Y800559D01*
X451909Y721500D02*
X453090D01*
X452500Y720910D02*
Y722090D01*
X419410Y660000D02*
X420590D01*
X420000Y659410D02*
Y660591D01*
X559410Y780000D02*
X560591D01*
X560000Y779410D02*
Y780590D01*
X559410Y740000D02*
X560591D01*
X560000Y739409D02*
Y740590D01*
X559410Y700000D02*
X560591D01*
X560000Y699409D02*
Y700591D01*
X559410Y660000D02*
X560591D01*
X560000Y659410D02*
Y660591D01*
X559410Y620000D02*
X560591D01*
X560000Y619410D02*
Y620590D01*
X539409Y740000D02*
X540590D01*
X540000Y739409D02*
Y740590D01*
X549409Y720000D02*
X550591D01*
X550000Y719410D02*
Y720590D01*
X549409Y680000D02*
X550591D01*
X550000Y679410D02*
Y680590D01*
X539409Y660000D02*
X540590D01*
X540000Y659410D02*
Y660591D01*
X549409Y640000D02*
X550591D01*
X550000Y639409D02*
Y640590D01*
X539409Y620000D02*
X540590D01*
X540000Y619410D02*
Y620590D01*
X549409Y600000D02*
X550591D01*
X550000Y599409D02*
Y600591D01*
X539409Y580000D02*
X540590D01*
X540000Y579410D02*
Y580590D01*
X529410Y760000D02*
X530590D01*
X530000Y759410D02*
Y760591D01*
X529410Y680000D02*
X530590D01*
X530000Y679410D02*
Y680590D01*
X519410Y660000D02*
X520590D01*
X520000Y659410D02*
Y660591D01*
X529410Y640000D02*
X530590D01*
X530000Y639409D02*
Y640590D01*
X519410Y620000D02*
X520590D01*
X520000Y619410D02*
Y620590D01*
X529410Y600000D02*
X530590D01*
X530000Y599409D02*
Y600591D01*
X519410Y580000D02*
X520590D01*
X520000Y579410D02*
Y580590D01*
X529410Y560000D02*
X530590D01*
X530000Y559410D02*
Y560591D01*
X499409Y700000D02*
X500591D01*
X500000Y699409D02*
Y700591D01*
X499409Y660000D02*
X500591D01*
X500000Y659410D02*
Y660591D01*
X509410Y640000D02*
X510591D01*
X510000Y639409D02*
Y640590D01*
X509410Y600000D02*
X510591D01*
X510000Y599409D02*
Y600591D01*
X499409Y580000D02*
X500591D01*
X500000Y579410D02*
Y580590D01*
X489409Y800000D02*
X490590D01*
X490000Y799409D02*
Y800591D01*
X489409Y680000D02*
X490590D01*
X490000Y679410D02*
Y680590D01*
X469410Y800000D02*
X470590D01*
X470000Y799409D02*
Y800591D01*
X459410Y780000D02*
X460591D01*
X460000Y779410D02*
Y780590D01*
X469410Y720000D02*
X470590D01*
X470000Y719410D02*
Y720590D01*
X459410Y700000D02*
X460591D01*
X460000Y699409D02*
Y700591D01*
X469410Y680000D02*
X470590D01*
X470000Y679410D02*
Y680590D01*
X459410Y660000D02*
X460591D01*
X460000Y659410D02*
Y660591D01*
X469410Y640000D02*
X470590D01*
X470000Y639409D02*
Y640590D01*
X469410Y600000D02*
X470590D01*
X470000Y599409D02*
Y600591D01*
X449409Y800000D02*
X450591D01*
X450000Y799409D02*
Y800591D01*
X439409Y700000D02*
X440590D01*
X440000Y699409D02*
Y700591D01*
X449409Y680000D02*
X450591D01*
X450000Y679410D02*
Y680590D01*
X429410Y720000D02*
X430590D01*
X430000Y719410D02*
Y720590D01*
X429410Y680000D02*
X430590D01*
X430000Y679410D02*
Y680590D01*
X429410Y640000D02*
X430590D01*
X430000Y639409D02*
Y640590D01*
X419410Y620000D02*
X420590D01*
X420000Y619410D02*
Y620590D01*
X379410Y780000D02*
X380591D01*
X380000Y779410D02*
Y780590D01*
X379410Y580000D02*
X380591D01*
X380000Y579410D02*
Y580590D01*
X369409Y800000D02*
X370590D01*
X370000Y799409D02*
Y800591D01*
X359409Y780000D02*
X360591D01*
X360000Y779410D02*
Y780590D01*
X369409Y680000D02*
X370590D01*
X370000Y679410D02*
Y680590D01*
X369409Y560000D02*
X370590D01*
X370000Y559410D02*
Y560591D01*
X349410Y800000D02*
X350590D01*
X350000Y799409D02*
Y800591D01*
X339409Y700000D02*
X340591D01*
X340000Y699409D02*
Y700591D01*
X349410Y680000D02*
X350590D01*
X350000Y679410D02*
Y680590D01*
X349410Y600000D02*
X350590D01*
X350000Y599409D02*
Y600591D01*
X349410Y560000D02*
X350590D01*
X350000Y559410D02*
Y560591D01*
X319409Y780000D02*
X320590D01*
X320000Y779410D02*
Y780590D01*
X319409Y700000D02*
X320590D01*
X320000Y699409D02*
Y700591D01*
X329410Y680000D02*
X330591D01*
X330000Y679410D02*
Y680590D01*
X319409Y660000D02*
X320590D01*
X320000Y659410D02*
Y660591D01*
X319409Y620000D02*
X320590D01*
X320000Y619410D02*
Y620590D01*
X329410Y600000D02*
X330591D01*
X330000Y599409D02*
Y600591D01*
X329410Y560000D02*
X330591D01*
X330000Y559410D02*
Y560591D01*
X309409Y800000D02*
X310591D01*
X310000Y799409D02*
Y800591D01*
X299410Y700000D02*
X300590D01*
X300000Y699409D02*
Y700591D01*
X309409Y680000D02*
X310591D01*
X310000Y679410D02*
Y680590D01*
X299410Y660000D02*
X300590D01*
X300000Y659410D02*
Y660591D01*
X299410Y620000D02*
X300590D01*
X300000Y619410D02*
Y620590D01*
X309409Y600000D02*
X310591D01*
X310000Y599409D02*
Y600591D01*
X299410Y580000D02*
X300590D01*
X300000Y579410D02*
Y580590D01*
X309409Y560000D02*
X310591D01*
X310000Y559410D02*
Y560591D01*
X299410Y540000D02*
X300590D01*
X300000Y539409D02*
Y540590D01*
X289409Y800000D02*
X290591D01*
X290000Y799409D02*
Y800591D01*
X289409Y720000D02*
X290591D01*
X290000Y719410D02*
Y720590D01*
X279410Y700000D02*
X280591D01*
X280000Y699409D02*
Y700591D01*
X289409Y680000D02*
X290591D01*
X290000Y679410D02*
Y680590D01*
X279410Y660000D02*
X280591D01*
X280000Y659410D02*
Y660591D01*
X289409Y600000D02*
X290591D01*
X290000Y599409D02*
Y600591D01*
X279410Y580000D02*
X280591D01*
X280000Y579410D02*
Y580590D01*
X269409Y760000D02*
X270590D01*
X270000Y759410D02*
Y760591D01*
X259409Y700000D02*
X260591D01*
X260000Y699409D02*
Y700591D01*
X269409Y680000D02*
X270590D01*
X270000Y679410D02*
Y680590D01*
X259409Y660000D02*
X260591D01*
X260000Y659410D02*
Y660591D01*
X269409Y640000D02*
X270590D01*
X270000Y639409D02*
Y640590D01*
X269409Y600000D02*
X270590D01*
X270000Y599409D02*
Y600591D01*
X269409Y560000D02*
X270590D01*
X270000Y559410D02*
Y560591D01*
X259409Y540000D02*
X260591D01*
X260000Y539409D02*
Y540590D01*
X249410Y760000D02*
X250590D01*
X250000Y759410D02*
Y760591D01*
X249410Y720000D02*
X250590D01*
X250000Y719410D02*
Y720590D01*
X249410Y680000D02*
X250590D01*
X250000Y679410D02*
Y680590D01*
X239409Y660000D02*
X240591D01*
X240000Y659410D02*
Y660591D01*
X249410Y640000D02*
X250590D01*
X250000Y639409D02*
Y640590D01*
X239409Y620000D02*
X240591D01*
X240000Y619410D02*
Y620590D01*
X249410Y600000D02*
X250590D01*
X250000Y599409D02*
Y600591D01*
X239409Y580000D02*
X240591D01*
X240000Y579410D02*
Y580590D01*
X249410Y560000D02*
X250590D01*
X250000Y559410D02*
Y560591D01*
X239409Y540000D02*
X240591D01*
X240000Y539409D02*
Y540590D01*
X219409Y780000D02*
X220590D01*
X220000Y779410D02*
Y780590D01*
X219409Y740000D02*
X220590D01*
X220000Y739409D02*
Y740590D01*
X229410Y720000D02*
X230591D01*
X230000Y719410D02*
Y720590D01*
X229410Y680000D02*
X230591D01*
X230000Y679410D02*
Y680590D01*
X219409Y660000D02*
X220590D01*
X220000Y659410D02*
Y660591D01*
X229410Y640000D02*
X230591D01*
X230000Y639409D02*
Y640590D01*
X219409Y620000D02*
X220590D01*
X220000Y619410D02*
Y620590D01*
X229410Y600000D02*
X230591D01*
X230000Y599409D02*
Y600591D01*
X219409Y540000D02*
X220590D01*
X220000Y539409D02*
Y540590D01*
X439409Y460000D02*
X440590D01*
X440000Y459410D02*
Y460591D01*
X330909Y544500D02*
X332090D01*
X331500Y543910D02*
Y545090D01*
X529410Y480000D02*
X530590D01*
X530000Y479410D02*
Y480590D01*
X374909Y546000D02*
X376091D01*
X375500Y545409D02*
Y546591D01*
X371410Y546000D02*
X372590D01*
X372000Y545409D02*
Y546591D01*
X383410Y467000D02*
X384591D01*
X384000Y466409D02*
Y467591D01*
X559410Y500000D02*
X560591D01*
X560000Y499409D02*
Y500591D01*
X559410Y420000D02*
X560591D01*
X560000Y419410D02*
Y420590D01*
X559410Y380000D02*
X560591D01*
X560000Y379410D02*
Y380591D01*
X549409Y520000D02*
X550591D01*
X550000Y519410D02*
Y520590D01*
X539409Y500000D02*
X540590D01*
X540000Y499409D02*
Y500591D01*
X539409Y460000D02*
X540590D01*
X540000Y459410D02*
Y460591D01*
X549409Y440000D02*
X550591D01*
X550000Y439409D02*
Y440590D01*
X539409Y420000D02*
X540590D01*
X540000Y419410D02*
Y420590D01*
X549409Y400000D02*
X550591D01*
X550000Y399410D02*
Y400591D01*
X519410Y460000D02*
X520590D01*
X520000Y459410D02*
Y460591D01*
X519410Y420000D02*
X520590D01*
X520000Y419410D02*
Y420590D01*
X529410Y400000D02*
X530590D01*
X530000Y399410D02*
Y400591D01*
X519410Y380000D02*
X520590D01*
X520000Y379410D02*
Y380591D01*
X499409Y460000D02*
X500591D01*
X500000Y459410D02*
Y460591D01*
X509410Y400000D02*
X510591D01*
X510000Y399410D02*
Y400591D01*
X499409Y380000D02*
X500591D01*
X500000Y379410D02*
Y380591D01*
X489409Y400000D02*
X490590D01*
X490000Y399410D02*
Y400591D01*
X479410Y380000D02*
X480590D01*
X480000Y379410D02*
Y380591D01*
X449409Y440000D02*
X450591D01*
X450000Y439409D02*
Y440590D01*
X449409Y400000D02*
X450591D01*
X450000Y399410D02*
Y400591D01*
X439409Y380000D02*
X440590D01*
X440000Y379410D02*
Y380591D01*
X419410Y460000D02*
X420590D01*
X420000Y459410D02*
Y460591D01*
X429410Y440000D02*
X430590D01*
X430000Y439409D02*
Y440590D01*
X419410Y420000D02*
X420590D01*
X420000Y419410D02*
Y420590D01*
X429410Y400000D02*
X430590D01*
X430000Y399410D02*
Y400591D01*
X419410Y380000D02*
X420590D01*
X420000Y379410D02*
Y380591D01*
X409410Y440000D02*
X410591D01*
X410000Y439409D02*
Y440590D01*
X409410Y400000D02*
X410591D01*
X410000Y399410D02*
Y400591D01*
X379410Y500000D02*
X380591D01*
X380000Y499409D02*
Y500591D01*
X389409Y440000D02*
X390591D01*
X390000Y439409D02*
Y440590D01*
X389409Y400000D02*
X390591D01*
X390000Y399410D02*
Y400591D01*
X369409Y520000D02*
X370590D01*
X370000Y519410D02*
Y520590D01*
X359409Y460000D02*
X360591D01*
X360000Y459410D02*
Y460591D01*
X369409Y440000D02*
X370590D01*
X370000Y439409D02*
Y440590D01*
X359409Y420000D02*
X360591D01*
X360000Y419410D02*
Y420590D01*
X369409Y400000D02*
X370590D01*
X370000Y399410D02*
Y400591D01*
X359409Y380000D02*
X360591D01*
X360000Y379410D02*
Y380591D01*
X349410Y480000D02*
X350590D01*
X350000Y479410D02*
Y480590D01*
X339409Y460000D02*
X340591D01*
X340000Y459410D02*
Y460591D01*
X349410Y440000D02*
X350590D01*
X350000Y439409D02*
Y440590D01*
X349410Y400000D02*
X350590D01*
X350000Y399410D02*
Y400591D01*
X329410Y520000D02*
X330591D01*
X330000Y519410D02*
Y520590D01*
X319409Y500000D02*
X320590D01*
X320000Y499409D02*
Y500591D01*
X319409Y460000D02*
X320590D01*
X320000Y459410D02*
Y460591D01*
X329410Y440000D02*
X330591D01*
X330000Y439409D02*
Y440590D01*
X329410Y400000D02*
X330591D01*
X330000Y399410D02*
Y400591D01*
X309409Y520000D02*
X310591D01*
X310000Y519410D02*
Y520590D01*
X309409Y480000D02*
X310591D01*
X310000Y479410D02*
Y480590D01*
X259409Y500000D02*
X260591D01*
X260000Y499409D02*
Y500591D01*
X269409Y480000D02*
X270590D01*
X270000Y479410D02*
Y480590D01*
X239409Y500000D02*
X240591D01*
X240000Y499409D02*
Y500591D01*
X249410Y480000D02*
X250590D01*
X250000Y479410D02*
Y480590D01*
X229410Y480000D02*
X230591D01*
X230000Y479410D02*
Y480590D01*
X316100Y726500D02*
X318900D01*
X317500Y725100D02*
Y727900D01*
X308100Y726500D02*
X310900D01*
X309500Y725100D02*
Y727900D01*
X445100Y722500D02*
X447900D01*
X446500Y721100D02*
Y723900D01*
X451100Y716000D02*
X453900D01*
X452500Y714600D02*
Y717400D01*
X444600Y716000D02*
X447400D01*
X446000Y714600D02*
Y717400D01*
X513600Y707000D02*
X516400D01*
X515000Y705600D02*
Y708400D01*
X394100Y671000D02*
X396900D01*
X395500Y669600D02*
Y672400D01*
X387100Y671000D02*
X389900D01*
X388500Y669600D02*
Y672400D01*
X479100Y451000D02*
X481900D01*
X480500Y449600D02*
Y452400D01*
X489600Y451000D02*
X492400D01*
X491000Y449600D02*
Y452400D01*
X494459Y506000D02*
X495641D01*
X495050Y505409D02*
Y506591D01*
X494315Y501734D02*
X495496D01*
X494906Y501143D02*
Y502324D01*
X400600Y565000D02*
X403400D01*
X402000Y563600D02*
Y566400D01*
X406600Y565000D02*
X409400D01*
X408000Y563600D02*
Y566400D01*
X484100Y482000D02*
X486900D01*
X485500Y480600D02*
Y483400D01*
X453409Y536500D02*
X454591D01*
X454000Y535910D02*
Y537090D01*
X453409Y543000D02*
X454591D01*
X454000Y542410D02*
Y543590D01*
X452600Y525000D02*
X455400D01*
X454000Y523600D02*
Y526400D01*
X499549Y496825D02*
X500730D01*
X500139Y496235D02*
Y497416D01*
X455409Y502000D02*
X456591D01*
X456000Y501409D02*
Y502591D01*
X421600Y603500D02*
X424400D01*
X423000Y602100D02*
Y604900D01*
X481600Y591000D02*
X484400D01*
X483000Y589600D02*
Y592400D01*
X508600Y528500D02*
X511400D01*
X510000Y527100D02*
Y529900D01*
X499409Y506000D02*
X500591D01*
X500000Y505409D02*
Y506591D01*
X427910Y464000D02*
X429090D01*
X428500Y463410D02*
Y464591D01*
X427986Y479177D02*
X429167D01*
X428577Y478586D02*
Y479767D01*
X390409Y536500D02*
X391590D01*
X391000Y535910D02*
Y537090D01*
X396410Y535000D02*
X397590D01*
X397000Y534410D02*
Y535591D01*
X300659Y598250D02*
X301840D01*
X301250Y597659D02*
Y598841D01*
X300909Y587500D02*
X302091D01*
X301500Y586909D02*
Y588091D01*
X485910Y682500D02*
X487090D01*
X486500Y681910D02*
Y683090D01*
X480110Y687000D02*
X481290D01*
X480700Y686410D02*
Y687591D01*
X474909Y692000D02*
X476090D01*
X475500Y691409D02*
Y692591D01*
X469909Y696500D02*
X471091D01*
X470500Y695910D02*
Y697090D01*
X464910Y702000D02*
X466090D01*
X465500Y701409D02*
Y702591D01*
X368910Y700500D02*
X370091D01*
X369500Y699909D02*
Y701090D01*
X363409Y695000D02*
X364591D01*
X364000Y694410D02*
Y695590D01*
X358410Y689500D02*
X359591D01*
X359000Y688909D02*
Y690091D01*
X352909Y684500D02*
X354090D01*
X353500Y683910D02*
Y685090D01*
X374410Y706000D02*
X375590D01*
X375000Y705409D02*
Y706591D01*
X494909Y509500D02*
X496091D01*
X495500Y508910D02*
Y510090D01*
X331410Y475500D02*
X332591D01*
X332000Y474909D02*
Y476090D01*
X303410Y475500D02*
X304591D01*
X304000Y474909D02*
Y476090D01*
X363910Y509500D02*
X365090D01*
X364500Y508910D02*
Y510090D01*
X363910Y505500D02*
X365090D01*
X364500Y504910D02*
Y506090D01*
X538410Y493000D02*
X539591D01*
X539000Y492410D02*
Y493590D01*
X538410Y484000D02*
X539591D01*
X539000Y483410D02*
Y484590D01*
X538410Y475500D02*
X539591D01*
X539000Y474909D02*
Y476090D01*
X455409Y506000D02*
X456591D01*
X456000Y505409D02*
Y506591D01*
X455409Y509500D02*
X456591D01*
X456000Y508910D02*
Y510090D01*
X455409Y513000D02*
X456591D01*
X456000Y512409D02*
Y513590D01*
X393910Y507500D02*
X395091D01*
X394500Y506910D02*
Y508090D01*
X390409Y505000D02*
X391590D01*
X391000Y504410D02*
Y505590D01*
X387910Y510500D02*
X389090D01*
X388500Y509909D02*
Y511091D01*
X397410Y512000D02*
X398590D01*
X398000Y511410D02*
Y512591D01*
X363910Y501500D02*
X365090D01*
X364500Y500910D02*
Y502091D01*
X296909Y471500D02*
X298091D01*
X297500Y470910D02*
Y472090D01*
X377909Y504000D02*
X379090D01*
X378500Y503409D02*
Y504591D01*
X377909Y508000D02*
X379090D01*
X378500Y507409D02*
Y508591D01*
X377909Y512000D02*
X379090D01*
X378500Y511410D02*
Y512591D01*
X379909Y538000D02*
X381090D01*
X380500Y537409D02*
Y538590D01*
X363600Y533000D02*
X366400D01*
X365000Y531600D02*
Y534400D01*
X355909Y430000D02*
X357090D01*
X356500Y429410D02*
Y430590D01*
X387409Y430000D02*
X388591D01*
X388000Y429410D02*
Y430590D01*
X394409Y494000D02*
X395590D01*
X395000Y493409D02*
Y494591D01*
X378410Y494000D02*
X379591D01*
X379000Y493409D02*
Y494591D01*
X394910Y499000D02*
X396091D01*
X395500Y498410D02*
Y499590D01*
X396909Y501500D02*
X398091D01*
X397500Y500910D02*
Y502091D01*
X390409Y494000D02*
X391590D01*
X391000Y493409D02*
Y494591D01*
X460287Y450021D02*
X463087D01*
X461687Y448621D02*
Y451421D01*
X296909Y504000D02*
X298091D01*
X297500Y503409D02*
Y504591D01*
X408910Y462500D02*
X410090D01*
X409500Y461909D02*
Y463091D01*
X408910Y451000D02*
X410090D01*
X409500Y450410D02*
Y451590D01*
X360409Y471500D02*
X361591D01*
X361000Y470910D02*
Y472090D01*
X370409Y471500D02*
X371590D01*
X371000Y470910D02*
Y472090D01*
X418100Y529500D02*
X420900D01*
X419500Y528100D02*
Y530900D01*
X425100Y529500D02*
X427900D01*
X426500Y528100D02*
Y530900D01*
X519100Y798500D02*
X521900D01*
X520500Y797100D02*
Y799900D01*
X262600Y798000D02*
X265400D01*
X264000Y796600D02*
Y799400D01*
X255600Y798000D02*
X258400D01*
X257000Y796600D02*
Y799400D01*
X512600Y798500D02*
X515400D01*
X514000Y797100D02*
Y799900D01*
M02*
