G04*
G04 #@! TF.GenerationSoftware,Altium Limited,Altium Designer,24.2.2 (26)*
G04*
G04 Layer_Color=32896*
%FSLAX25Y25*%
%MOIN*%
G70*
G04*
G04 #@! TF.SameCoordinates,1A1EAA83-3352-477D-9F2F-1BB8837AECD5*
G04*
G04*
G04 #@! TF.FilePolarity,Positive*
G04*
G01*
G75*
%ADD11C,0.00394*%
%ADD94C,0.00197*%
D11*
X508510Y454524D02*
Y522989D01*
X573274D01*
Y454524D02*
Y522989D01*
X508510Y454524D02*
X573274D01*
D94*
X312359Y403766D02*
X355745D01*
X312359D02*
Y424041D01*
X355745D01*
Y403766D02*
Y424041D01*
X371872Y403838D02*
X415258D01*
X371872D02*
Y424114D01*
X415258D01*
Y403838D02*
Y424114D01*
X293681Y532307D02*
Y575693D01*
X273406Y532307D02*
X293681D01*
X273406D02*
Y575693D01*
X293681D01*
X273406Y650928D02*
X293681D01*
X273406Y607542D02*
Y650928D01*
Y607542D02*
X293681D01*
Y650928D01*
X482319Y606307D02*
X502595D01*
Y649693D01*
X482319D02*
X502595D01*
X482319Y606307D02*
Y649693D01*
Y532307D02*
X502595D01*
Y575693D01*
X482319D02*
X502595D01*
X482319Y532307D02*
Y575693D01*
X481339Y473339D02*
X489685D01*
X481339Y457118D02*
Y473339D01*
Y457118D02*
X489685D01*
Y473339D01*
X443345D02*
X451692D01*
X443345Y457118D02*
Y473339D01*
Y457118D02*
X451692D01*
Y473339D01*
X422146Y779291D02*
X452854D01*
Y815709D01*
X422146D02*
X452854D01*
X422146Y779291D02*
Y815709D01*
X523831Y733146D02*
Y763854D01*
Y733146D02*
X560248D01*
Y763854D01*
X523831D02*
X560248D01*
X327646Y779291D02*
X358354D01*
Y815709D01*
X327646D02*
X358354D01*
X327646Y779291D02*
Y815709D01*
X257709Y733146D02*
Y763854D01*
X221291D02*
X257709D01*
X221291Y733146D02*
Y763854D01*
Y733146D02*
X257709D01*
M02*
