G04*
G04 #@! TF.GenerationSoftware,Altium Limited,Altium Designer,24.2.2 (26)*
G04*
G04 Layer_Color=32768*
%FSLAX25Y25*%
%MOIN*%
G70*
G04*
G04 #@! TF.SameCoordinates,1A1EAA83-3352-477D-9F2F-1BB8837AECD5*
G04*
G04*
G04 #@! TF.FilePolarity,Positive*
G04*
G01*
G75*
%ADD11C,0.00394*%
%ADD95C,0.00600*%
D11*
X323622Y597563D02*
X323321Y598489D01*
X322534Y599061D01*
X321561D01*
X320773Y598489D01*
X320472Y597563D01*
X320773Y596637D01*
X321561Y596065D01*
X322534D01*
X323321Y596637D01*
X323622Y597563D01*
X354528Y565437D02*
X354227Y566363D01*
X353439Y566935D01*
X352466D01*
X351679Y566363D01*
X351378Y565437D01*
X351679Y564511D01*
X352466Y563939D01*
X353439D01*
X354227Y564511D01*
X354528Y565437D01*
X407028Y639937D02*
X406727Y640863D01*
X405939Y641435D01*
X404966D01*
X404179Y640863D01*
X403878Y639937D01*
X404179Y639011D01*
X404966Y638439D01*
X405939D01*
X406727Y639011D01*
X407028Y639937D01*
X376122Y672063D02*
X375821Y672989D01*
X375034Y673561D01*
X374061D01*
X373273Y672989D01*
X372972Y672063D01*
X373273Y671137D01*
X374061Y670565D01*
X375034D01*
X375821Y671137D01*
X376122Y672063D01*
X476122Y442063D02*
X475821Y442989D01*
X475034Y443561D01*
X474061D01*
X473273Y442989D01*
X472972Y442063D01*
X473273Y441137D01*
X474061Y440565D01*
X475034D01*
X475821Y441137D01*
X476122Y442063D01*
X507028Y409937D02*
X506727Y410863D01*
X505939Y411435D01*
X504966D01*
X504179Y410863D01*
X503878Y409937D01*
X504179Y409011D01*
X504966Y408439D01*
X505939D01*
X506727Y409011D01*
X507028Y409937D01*
X318110Y561500D02*
X356890D01*
X318110D02*
Y601500D01*
X356890D01*
Y561500D02*
Y601500D01*
Y580142D02*
X372323D01*
Y582858D01*
X356890D02*
X372323D01*
X356890Y577858D02*
X372323D01*
Y575142D02*
Y577858D01*
X356890Y575142D02*
X372323D01*
X356890Y572858D02*
X372323D01*
Y570142D02*
Y572858D01*
X356890Y570142D02*
X372323D01*
X356890Y567858D02*
X372323D01*
Y565142D02*
Y567858D01*
X356890Y565142D02*
X372323D01*
X356890Y587858D02*
X372323D01*
Y585142D02*
Y587858D01*
X356890Y585142D02*
X372323D01*
X356890Y592858D02*
X372323D01*
Y590142D02*
Y592858D01*
X356890Y590142D02*
X372323D01*
X356890Y597858D02*
X372323D01*
Y595142D02*
Y597858D01*
X356890Y595142D02*
X372323D01*
X370610Y676000D02*
X409390D01*
Y636000D02*
Y676000D01*
X370610Y636000D02*
X409390D01*
X370610D02*
Y676000D01*
X355177Y657358D02*
X370610D01*
X355177Y654642D02*
Y657358D01*
Y654642D02*
X370610D01*
X355177Y659642D02*
X370610D01*
X355177D02*
Y662358D01*
X370610D01*
X355177Y664642D02*
X370610D01*
X355177D02*
Y667358D01*
X370610D01*
X355177Y669642D02*
X370610D01*
X355177D02*
Y672358D01*
X370610D01*
X355177Y649642D02*
X370610D01*
X355177D02*
Y652358D01*
X370610D01*
X355177Y644642D02*
X370610D01*
X355177D02*
Y647358D01*
X370610D01*
X355177Y639642D02*
X370610D01*
X355177D02*
Y642358D01*
X370610D01*
X455177Y412358D02*
X470610D01*
X455177Y409642D02*
Y412358D01*
Y409642D02*
X470610D01*
X455177Y417358D02*
X470610D01*
X455177Y414642D02*
Y417358D01*
Y414642D02*
X470610D01*
X455177Y422358D02*
X470610D01*
X455177Y419642D02*
Y422358D01*
Y419642D02*
X470610D01*
X455177Y442358D02*
X470610D01*
X455177Y439642D02*
Y442358D01*
Y439642D02*
X470610D01*
X455177Y437358D02*
X470610D01*
X455177Y434642D02*
Y437358D01*
Y434642D02*
X470610D01*
X455177Y432358D02*
X470610D01*
X455177Y429642D02*
Y432358D01*
Y429642D02*
X470610D01*
X455177Y424642D02*
X470610D01*
X455177D02*
Y427358D01*
X470610D01*
Y406000D02*
Y446000D01*
Y406000D02*
X509390D01*
Y446000D01*
X470610D02*
X509390D01*
D95*
X385000Y657499D02*
Y655000D01*
X385500Y654500D01*
X386500D01*
X386999Y655000D01*
Y657499D01*
X389498Y654500D02*
Y657499D01*
X387999Y656000D01*
X389998D01*
X390998Y654000D02*
X392997D01*
X395996Y656999D02*
X395497Y657499D01*
X394497D01*
X393997Y656999D01*
Y656499D01*
X394497Y656000D01*
X395497D01*
X395996Y655500D01*
Y655000D01*
X395497Y654500D01*
X394497D01*
X393997Y655000D01*
X396996Y654500D02*
X397996D01*
X397496D01*
Y657499D01*
X396996Y656999D01*
X485000Y427499D02*
Y425000D01*
X485500Y424500D01*
X486500D01*
X486999Y425000D01*
Y427499D01*
X489998D02*
X487999D01*
Y425999D01*
X488999Y426499D01*
X489499D01*
X489998Y425999D01*
Y425000D01*
X489499Y424500D01*
X488499D01*
X487999Y425000D01*
M02*
