G04*
G04 #@! TF.GenerationSoftware,Altium Limited,Altium Designer,24.2.2 (26)*
G04*
G04 Layer_Color=16711935*
%FSLAX25Y25*%
%MOIN*%
G70*
G04*
G04 #@! TF.SameCoordinates,1A1EAA83-3352-477D-9F2F-1BB8837AECD5*
G04*
G04*
G04 #@! TF.FilePolarity,Positive*
G04*
G01*
G75*
%ADD11C,0.00394*%
%ADD13C,0.00945*%
%ADD14C,0.00787*%
%ADD17C,0.00500*%
D11*
X552638Y434000D02*
X552606Y434999D01*
X552511Y435994D01*
X552353Y436980D01*
X552133Y437955D01*
X551852Y438914D01*
X551510Y439853D01*
X551109Y440768D01*
X550651Y441657D01*
X550138Y442514D01*
X549571Y443337D01*
X548953Y444123D01*
X548287Y444867D01*
X547575Y445568D01*
X546820Y446223D01*
X546025Y446828D01*
X545192Y447381D01*
X544327Y447881D01*
X543432Y448325D01*
X542510Y448711D01*
X541566Y449038D01*
X540602Y449304D01*
X539624Y449509D01*
X538635Y449651D01*
X537639Y449730D01*
X536640Y449746D01*
X535642Y449698D01*
X534649Y449588D01*
X533665Y449414D01*
X532693Y449179D01*
X531739Y448882D01*
X530806Y448525D01*
X529897Y448110D01*
X529016Y447638D01*
X528167Y447111D01*
X527353Y446532D01*
X526577Y445902D01*
X525843Y445224D01*
X525153Y444500D01*
X524511Y443735D01*
X523918Y442930D01*
X523378Y442089D01*
X522892Y441216D01*
X522463Y440314D01*
X522091Y439386D01*
X521780Y438437D01*
X521529Y437469D01*
X521340Y436488D01*
X521213Y435497D01*
X521150Y434500D01*
Y433500D01*
X521213Y432503D01*
X521340Y431512D01*
X521529Y430531D01*
X521780Y429563D01*
X522091Y428614D01*
X522463Y427686D01*
X522892Y426784D01*
X523378Y425911D01*
X523918Y425070D01*
X524511Y424265D01*
X525153Y423500D01*
X525843Y422777D01*
X526577Y422098D01*
X527353Y421468D01*
X528167Y420889D01*
X529016Y420362D01*
X529897Y419890D01*
X530806Y419475D01*
X531739Y419118D01*
X532693Y418821D01*
X533665Y418586D01*
X534649Y418412D01*
X535642Y418301D01*
X536640Y418254D01*
X537639Y418270D01*
X538635Y418349D01*
X539624Y418491D01*
X540602Y418696D01*
X541566Y418962D01*
X542510Y419289D01*
X543432Y419675D01*
X544327Y420119D01*
X545192Y420618D01*
X546025Y421172D01*
X546820Y421777D01*
X547575Y422432D01*
X548287Y423133D01*
X548953Y423877D01*
X549571Y424663D01*
X550138Y425486D01*
X550651Y426343D01*
X551109Y427232D01*
X551510Y428147D01*
X551852Y429086D01*
X552133Y430045D01*
X552353Y431020D01*
X552511Y432006D01*
X552606Y433001D01*
X552638Y434000D01*
X374220Y490189D02*
X376189Y488221D01*
X374220D02*
X401780D01*
Y515779D01*
X374220D02*
X401780D01*
X374220Y488221D02*
Y515779D01*
X392917Y447303D02*
X395477D01*
X392917D02*
Y448800D01*
X395477D01*
Y447303D02*
Y448800D01*
X392953Y457534D02*
X395512D01*
X392953D02*
Y459030D01*
X395512D01*
Y457534D02*
Y459030D01*
D13*
X341689Y551749D02*
X340980Y552158D01*
Y551340D01*
X341689Y551749D01*
D14*
X382164Y458527D02*
X381376D01*
X382164D01*
X412244Y733606D02*
X411457D01*
X412244D01*
X263811Y733858D02*
X263024D01*
X263811D01*
X254245Y450754D02*
Y474376D01*
X277867D01*
Y450754D02*
Y474376D01*
X254245Y450754D02*
X277867D01*
X209642Y600093D02*
Y658952D01*
Y600093D02*
X241729D01*
Y658952D01*
X209642D02*
X241729D01*
X254245Y483219D02*
X277867D01*
Y506841D01*
X254245D02*
X277867D01*
X254245Y483219D02*
Y506841D01*
X314158Y361299D02*
X353528D01*
X314158D02*
Y398701D01*
X353528D01*
Y361299D02*
Y398701D01*
X372472Y361299D02*
X411842D01*
X372472D02*
Y398701D01*
X411842D01*
Y361299D02*
Y398701D01*
X447171Y486656D02*
Y520120D01*
Y486656D02*
X492840D01*
Y520120D01*
X447171D02*
X492840D01*
X209642Y584767D02*
X241729D01*
Y525908D02*
Y584767D01*
X209642Y525908D02*
X241729D01*
X209642D02*
Y584767D01*
X565945Y525287D02*
Y584146D01*
X533858D02*
X565945D01*
X533858Y525287D02*
Y584146D01*
Y525287D02*
X565945D01*
Y599472D02*
Y658331D01*
X533858D02*
X565945D01*
X533858Y599472D02*
Y658331D01*
Y599472D02*
X565945D01*
X321749Y449429D02*
X345371D01*
Y473051D01*
X321749D02*
X345371D01*
X321749Y449429D02*
Y473051D01*
X370472Y814701D02*
X409842D01*
Y777299D02*
Y814701D01*
X370472Y777299D02*
X409842D01*
X370472D02*
Y814701D01*
X567343Y779299D02*
Y816701D01*
X527972D02*
X567343D01*
X527972Y779299D02*
Y816701D01*
Y779299D02*
X567343D01*
X244342D02*
Y816701D01*
X204972D02*
X244342D01*
X204972Y779299D02*
Y816701D01*
Y779299D02*
X244342D01*
D17*
X355291Y519823D02*
Y549177D01*
X306709D02*
X355291D01*
X306709Y519823D02*
Y549177D01*
Y519823D02*
X355291D01*
X376258Y460889D02*
X382557D01*
Y468763D01*
X376258D02*
X382557D01*
X376258Y460889D02*
Y468763D01*
X460131Y466533D02*
X472927D01*
X457267Y457318D02*
Y475748D01*
X475791Y457318D02*
Y475748D01*
X407323Y748016D02*
X522677D01*
Y766323D01*
X407323D02*
X522677D01*
X407323Y748016D02*
Y766323D01*
X258890Y748268D02*
X374244D01*
Y766575D01*
X258890D02*
X374244D01*
X258890Y748268D02*
Y766575D01*
M02*
