G04*
G04 #@! TF.GenerationSoftware,Altium Limited,Altium Designer,24.2.2 (26)*
G04*
G04 Layer_Color=255*
%FSLAX25Y25*%
%MOIN*%
G70*
G04*
G04 #@! TF.SameCoordinates,1A1EAA83-3352-477D-9F2F-1BB8837AECD5*
G04*
G04*
G04 #@! TF.FilePolarity,Positive*
G04*
G01*
G75*
%ADD43C,0.03900*%
%ADD75C,0.05000*%
%ADD76R,0.07677X0.07677*%
%ADD77C,0.07677*%
%ADD78R,0.06400X0.06400*%
%ADD79C,0.06400*%
%ADD80O,0.07795X0.02087*%
%ADD81R,0.07677X0.07677*%
%ADD82R,0.08209X0.08209*%
%ADD83C,0.08209*%
%ADD84C,0.09350*%
%ADD85C,0.04331*%
%ADD86R,0.04331X0.04331*%
%ADD87C,0.05512*%
%ADD88R,0.08209X0.08209*%
%ADD89C,0.05465*%
%ADD90R,0.05465X0.05465*%
%ADD92R,0.03937X0.03937*%
D43*
X316000Y538496D02*
D03*
Y530504D02*
D03*
X346000Y534500D02*
D03*
D75*
X224000Y477000D02*
D03*
Y467000D02*
D03*
Y500000D02*
D03*
Y490000D02*
D03*
D76*
X225587Y649109D02*
D03*
Y574924D02*
D03*
X550000Y535130D02*
D03*
Y609315D02*
D03*
D77*
X225587Y629424D02*
D03*
Y609739D02*
D03*
X324000Y380000D02*
D03*
X382315D02*
D03*
X225587Y535554D02*
D03*
Y555239D02*
D03*
X550000Y554815D02*
D03*
Y574500D02*
D03*
Y629000D02*
D03*
Y648685D02*
D03*
X400000Y796000D02*
D03*
X537815Y798000D02*
D03*
X214815D02*
D03*
D78*
X260000Y432000D02*
D03*
D79*
X250000D02*
D03*
X240000D02*
D03*
X230000D02*
D03*
X250000Y422000D02*
D03*
X240000D02*
D03*
X230000D02*
D03*
X260000D02*
D03*
D80*
X230000Y697500D02*
D03*
X540000D02*
D03*
X230000Y390000D02*
D03*
X540000D02*
D03*
D81*
X343685Y380000D02*
D03*
X402000D02*
D03*
X380315Y796000D02*
D03*
X557500Y798000D02*
D03*
X234500D02*
D03*
D82*
X344052Y417447D02*
D03*
X403565Y417519D02*
D03*
D83*
X334052Y417447D02*
D03*
X324052D02*
D03*
X393565Y417519D02*
D03*
X383565D02*
D03*
X280000Y554000D02*
D03*
Y544000D02*
D03*
Y619235D02*
D03*
Y629235D02*
D03*
X496000Y638000D02*
D03*
Y628000D02*
D03*
Y564000D02*
D03*
Y554000D02*
D03*
D84*
X323500Y544500D02*
D03*
X346000D02*
D03*
X323500Y524500D02*
D03*
X346000D02*
D03*
D85*
X543780Y434000D02*
D03*
D86*
X530000D02*
D03*
D87*
X480006Y494530D02*
D03*
X470006D02*
D03*
X460006D02*
D03*
D88*
X280000Y564000D02*
D03*
Y639235D02*
D03*
X496000Y618000D02*
D03*
Y544000D02*
D03*
D89*
X512244Y734000D02*
D03*
X508307Y749748D02*
D03*
X504370Y734000D02*
D03*
X500433Y749748D02*
D03*
X496496Y734000D02*
D03*
X492559Y749748D02*
D03*
X488622Y734000D02*
D03*
X484685Y749748D02*
D03*
X480748Y734000D02*
D03*
X476811Y749748D02*
D03*
X472874Y734000D02*
D03*
X468937Y749748D02*
D03*
X465000Y734000D02*
D03*
X461063Y749748D02*
D03*
X457126Y734000D02*
D03*
X453189Y749748D02*
D03*
X449252Y734000D02*
D03*
X445315Y749748D02*
D03*
X441378Y734000D02*
D03*
X437441Y749748D02*
D03*
X433504Y734000D02*
D03*
X429567Y749748D02*
D03*
X425630Y734000D02*
D03*
X421693Y749748D02*
D03*
X363811Y734252D02*
D03*
X359874Y750000D02*
D03*
X355937Y734252D02*
D03*
X352000Y750000D02*
D03*
X348063Y734252D02*
D03*
X344126Y750000D02*
D03*
X340189Y734252D02*
D03*
X336252Y750000D02*
D03*
X332315Y734252D02*
D03*
X328378Y750000D02*
D03*
X324441Y734252D02*
D03*
X320504Y750000D02*
D03*
X316567Y734252D02*
D03*
X312630Y750000D02*
D03*
X308693Y734252D02*
D03*
X304756Y750000D02*
D03*
X300819Y734252D02*
D03*
X296882Y750000D02*
D03*
X292945Y734252D02*
D03*
X289008Y750000D02*
D03*
X285071Y734252D02*
D03*
X281134Y750000D02*
D03*
X277197Y734252D02*
D03*
X273260Y750000D02*
D03*
D90*
X417756Y734000D02*
D03*
X269323Y734252D02*
D03*
D92*
X366939Y547784D02*
D03*
Y555284D02*
D03*
M02*
