G04*
G04 #@! TF.GenerationSoftware,Altium Limited,Altium Designer,24.2.2 (26)*
G04*
G04 Layer_Color=65535*
%FSLAX25Y25*%
%MOIN*%
G70*
G04*
G04 #@! TF.SameCoordinates,1A1EAA83-3352-477D-9F2F-1BB8837AECD5*
G04*
G04*
G04 #@! TF.FilePolarity,Positive*
G04*
G01*
G75*
%ADD10C,0.00787*%
%ADD11C,0.00394*%
%ADD12C,0.00984*%
%ADD13C,0.00945*%
%ADD14C,0.00787*%
%ADD15C,0.01575*%
%ADD16C,0.01000*%
%ADD17C,0.00500*%
D10*
X240517Y471423D02*
D03*
Y503888D02*
D03*
X357071Y380000D02*
D03*
X415386D02*
D03*
X308021Y470098D02*
D03*
X367323Y796000D02*
D03*
X570886Y798000D02*
D03*
X247886D02*
D03*
D11*
X551128Y515430D02*
X551522D01*
X551128D01*
X241729Y600093D02*
Y658952D01*
X209642Y600093D02*
X241729D01*
X209642D02*
Y658952D01*
X241729D01*
X512447Y461985D02*
X523175D01*
X512447D02*
Y515528D01*
X522782D01*
X532231Y461985D02*
X555065D01*
X532231Y515528D02*
X555065D01*
X564908Y461985D02*
X569337D01*
Y515528D01*
X564908D02*
X569337D01*
X314158Y361299D02*
X353528D01*
X314158D02*
Y398701D01*
X353528D01*
Y361299D02*
Y398701D01*
X372472Y361299D02*
X411842D01*
X372472D02*
Y398701D01*
X411842D01*
Y361299D02*
Y398701D01*
X447171Y486656D02*
Y520120D01*
Y486656D02*
X492840D01*
Y520120D01*
X447171D02*
X492840D01*
X209642Y584767D02*
X241729D01*
X209642Y525908D02*
Y584767D01*
Y525908D02*
X241729D01*
Y584767D01*
X533858Y525287D02*
Y584146D01*
X565945D01*
Y525287D02*
Y584146D01*
X533858Y525287D02*
X565945D01*
X533858Y599472D02*
Y658331D01*
X565945D01*
Y599472D02*
Y658331D01*
X533858Y599472D02*
X565945D01*
X370472Y814701D02*
X409842D01*
Y777299D02*
Y814701D01*
X370472Y777299D02*
X409842D01*
X370472D02*
Y814701D01*
X567343Y779299D02*
Y816701D01*
X527972D02*
X567343D01*
X527972Y779299D02*
Y816701D01*
Y779299D02*
X567343D01*
X244342D02*
Y816701D01*
X204972D02*
X244342D01*
X204972Y779299D02*
Y816701D01*
Y779299D02*
X244342D01*
D12*
X374713Y483398D02*
X373974Y483824D01*
Y482971D01*
X374713Y483398D01*
D13*
X341709Y551749D02*
X341000Y552158D01*
Y551340D01*
X341709Y551749D01*
D14*
X552638Y434000D02*
X552606Y434999D01*
X552511Y435994D01*
X552353Y436980D01*
X552133Y437955D01*
X551852Y438914D01*
X551510Y439853D01*
X551109Y440768D01*
X550651Y441657D01*
X550138Y442514D01*
X549571Y443337D01*
X548953Y444123D01*
X548287Y444867D01*
X547575Y445568D01*
X546820Y446223D01*
X546025Y446828D01*
X545192Y447381D01*
X544327Y447881D01*
X543432Y448325D01*
X542510Y448711D01*
X541566Y449038D01*
X540602Y449304D01*
X539624Y449509D01*
X538635Y449651D01*
X537639Y449730D01*
X536640Y449746D01*
X535642Y449698D01*
X534649Y449588D01*
X533665Y449414D01*
X532693Y449179D01*
X531739Y448882D01*
X530806Y448525D01*
X529897Y448110D01*
X529016Y447638D01*
X528167Y447111D01*
X527353Y446532D01*
X526577Y445902D01*
X525843Y445224D01*
X525153Y444500D01*
X524511Y443735D01*
X523918Y442930D01*
X523378Y442089D01*
X522892Y441216D01*
X522463Y440314D01*
X522091Y439386D01*
X521780Y438437D01*
X521529Y437469D01*
X521340Y436488D01*
X521213Y435497D01*
X521150Y434500D01*
Y433500D01*
X521213Y432503D01*
X521340Y431512D01*
X521529Y430531D01*
X521780Y429563D01*
X522091Y428614D01*
X522463Y427686D01*
X522892Y426784D01*
X523378Y425911D01*
X523918Y425070D01*
X524511Y424265D01*
X525153Y423500D01*
X525843Y422777D01*
X526577Y422098D01*
X527353Y421468D01*
X528167Y420889D01*
X529016Y420362D01*
X529897Y419890D01*
X530806Y419475D01*
X531739Y419118D01*
X532693Y418821D01*
X533665Y418586D01*
X534649Y418412D01*
X535642Y418301D01*
X536640Y418254D01*
X537639Y418270D01*
X538635Y418349D01*
X539624Y418491D01*
X540602Y418696D01*
X541566Y418962D01*
X542510Y419289D01*
X543432Y419675D01*
X544327Y420119D01*
X545192Y420618D01*
X546025Y421172D01*
X546820Y421777D01*
X547575Y422432D01*
X548287Y423133D01*
X548953Y423877D01*
X549571Y424663D01*
X550138Y425486D01*
X550651Y426343D01*
X551109Y427232D01*
X551510Y428147D01*
X551852Y429086D01*
X552133Y430045D01*
X552353Y431020D01*
X552511Y432006D01*
X552606Y433001D01*
X552638Y434000D01*
X459612Y484687D02*
X460399D01*
X459612D01*
X390260Y448052D02*
X390654D01*
X390260D01*
X390654D01*
X382164Y458527D02*
X381376D01*
X382164D01*
X390295Y458283D02*
X390689D01*
X390295D01*
X390689D01*
X412244Y733606D02*
X411457D01*
X412244D01*
X263811Y733858D02*
X263024D01*
X263811D01*
X254245Y450754D02*
X277867D01*
Y474376D01*
X254245D02*
X277867D01*
X254245Y450754D02*
Y474376D01*
Y483219D02*
Y506841D01*
X277867D01*
Y483219D02*
Y506841D01*
X254245Y483219D02*
X277867D01*
X375598Y489598D02*
X400402D01*
Y514402D01*
X375598D02*
X400402D01*
X375598Y489598D02*
Y514402D01*
X313343Y404750D02*
Y423057D01*
Y404750D02*
X354760D01*
Y417447D01*
X372857Y404822D02*
Y423129D01*
Y404822D02*
X414274D01*
Y417519D01*
X274390Y533291D02*
X292697D01*
Y574709D01*
X280000D02*
X292697D01*
X280000Y649944D02*
X292697D01*
Y608527D02*
Y649944D01*
X274390Y608527D02*
X292697D01*
X483303Y607291D02*
X496000D01*
X483303D02*
Y648709D01*
X501610D01*
X483303Y533291D02*
X496000D01*
X483303D02*
Y574709D01*
X501610D01*
X321749Y449429D02*
Y473051D01*
X345371D01*
Y449429D02*
Y473051D01*
X321749Y449429D02*
X345371D01*
X357382Y561008D02*
Y601992D01*
X317618D02*
X357382D01*
X317618Y561008D02*
Y601992D01*
Y561008D02*
X357382D01*
X370118Y635508D02*
Y676492D01*
Y635508D02*
X409882D01*
Y676492D01*
X370118D02*
X409882D01*
X470118Y446492D02*
X509882D01*
Y405508D02*
Y446492D01*
X470118Y405508D02*
X509882D01*
X470118D02*
Y446492D01*
X450492Y791004D02*
Y810492D01*
X424508Y781260D02*
Y810492D01*
X535543Y735508D02*
X555031D01*
X525799Y761492D02*
X555031D01*
X355992Y791004D02*
Y810492D01*
X330008Y781260D02*
Y810492D01*
X226508Y761492D02*
X245996D01*
X226508Y735508D02*
X255740D01*
D15*
X353740Y565437D02*
X353196Y566186D01*
X352316Y565900D01*
Y564974D01*
X353196Y564688D01*
X353740Y565437D01*
X322835Y597563D02*
X322291Y598312D01*
X321410Y598026D01*
Y597100D01*
X322291Y596814D01*
X322835Y597563D01*
X375335Y672063D02*
X374791Y672812D01*
X373910Y672526D01*
Y671600D01*
X374791Y671314D01*
X375335Y672063D01*
X406240Y639937D02*
X405696Y640686D01*
X404816Y640400D01*
Y639474D01*
X405696Y639188D01*
X406240Y639937D01*
X506240Y409937D02*
X505696Y410686D01*
X504816Y410400D01*
Y409474D01*
X505696Y409188D01*
X506240Y409937D01*
X475335Y442063D02*
X474791Y442812D01*
X473910Y442526D01*
Y441600D01*
X474791Y441314D01*
X475335Y442063D01*
D16*
X457398Y401217D02*
X469602D01*
Y379366D02*
Y401217D01*
X457398Y379366D02*
Y401217D01*
X458933Y379366D02*
X469602D01*
X457398D02*
X458933D01*
X360748Y621898D02*
Y634102D01*
X382598D01*
X360748Y621898D02*
X382598D01*
Y623433D02*
Y634102D01*
Y621898D02*
Y623433D01*
X360748Y605398D02*
Y617602D01*
X382598D01*
X360748Y605398D02*
X382598D01*
Y606933D02*
Y617602D01*
Y605398D02*
Y606933D01*
X254784Y426980D02*
Y436035D01*
Y426980D02*
X265512D01*
Y417630D02*
Y436331D01*
X224764D02*
X265512D01*
X224764Y417630D02*
Y436331D01*
Y417630D02*
X265512D01*
X294528Y630522D02*
X300328D01*
Y642122D01*
X294528D02*
X300328D01*
X294528Y630522D02*
Y642122D01*
X341827Y426765D02*
X353427D01*
X341827D02*
Y432565D01*
X353427D01*
Y426765D02*
Y432565D01*
X295911Y507018D02*
Y518618D01*
X290111Y507018D02*
X295911D01*
X290111D02*
Y518618D01*
X295911D01*
Y489230D02*
Y500830D01*
X290111Y489230D02*
X295911D01*
X290111D02*
Y500830D01*
X295911D01*
Y456765D02*
Y468365D01*
X290111Y456765D02*
X295911D01*
X290111D02*
Y468365D01*
X295911D01*
Y474424D02*
Y486024D01*
X290111Y474424D02*
X295911D01*
X290111D02*
Y486024D01*
X295911D01*
X348684Y478017D02*
Y489617D01*
X342884Y478017D02*
X348684D01*
X342884D02*
Y489617D01*
X348684D01*
X260900Y551200D02*
Y562800D01*
X255100Y551200D02*
X260900D01*
X255100D02*
Y562800D01*
X260900D01*
X294799Y555296D02*
Y566896D01*
X300599D01*
Y555296D02*
Y566896D01*
X294799Y555296D02*
X300599D01*
X357971Y456765D02*
Y468365D01*
X352171Y456765D02*
X357971D01*
X352171D02*
Y468365D01*
X357971D01*
X361400Y478200D02*
Y489800D01*
X355600Y478200D02*
X361400D01*
X355600D02*
Y489800D01*
X361400D01*
X360930Y450861D02*
X372530D01*
X360930D02*
Y456661D01*
X372530D01*
Y450861D02*
Y456661D01*
X374758Y450861D02*
X386358D01*
X374758D02*
Y456661D01*
X386358D01*
Y450861D02*
Y456661D01*
X374807Y472294D02*
X386407D01*
X374807D02*
Y478094D01*
X386407D01*
Y472294D02*
Y478094D01*
X388212Y464660D02*
X399812D01*
X388212D02*
Y470460D01*
X399812D01*
Y464660D02*
Y470460D01*
X388289Y472214D02*
X399889D01*
X388289D02*
Y478014D01*
X399889D01*
Y472214D02*
Y478014D01*
X348900Y499200D02*
Y510800D01*
X343100Y499200D02*
X348900D01*
X343100D02*
Y510800D01*
X348900D01*
X370398Y530785D02*
X381998D01*
Y524985D02*
Y530785D01*
X370398Y524985D02*
X381998D01*
X370398D02*
Y530785D01*
X503100Y488200D02*
Y499800D01*
X508900D01*
Y488200D02*
Y499800D01*
X503100Y488200D02*
X508900D01*
Y475251D02*
Y486851D01*
X503100Y475251D02*
X508900D01*
X503100D02*
Y486851D01*
X508900D01*
X517400Y551200D02*
Y562800D01*
X511600Y551200D02*
X517400D01*
X511600D02*
Y562800D01*
X517400D01*
X511265Y619149D02*
Y630749D01*
X517065D01*
Y619149D02*
Y630749D01*
X511265Y619149D02*
X517065D01*
X383985Y575938D02*
Y587538D01*
X389785D01*
Y575938D02*
Y587538D01*
X383985Y575938D02*
X389785D01*
X383995Y562690D02*
Y574290D01*
X389795D01*
Y562690D02*
Y574290D01*
X383995Y562690D02*
X389795D01*
X405400Y582649D02*
Y594249D01*
X399600Y582649D02*
X405400D01*
X399600D02*
Y594249D01*
X405400D01*
X391952Y562690D02*
Y574290D01*
X397752D01*
Y562690D02*
Y574290D01*
X391952Y562690D02*
X397752D01*
X407100Y584200D02*
Y595800D01*
X412900D01*
Y584200D02*
Y595800D01*
X407100Y584200D02*
X412900D01*
X389724Y589057D02*
Y600657D01*
X383924Y589057D02*
X389724D01*
X383924D02*
Y600657D01*
X389724D01*
X397752Y589057D02*
Y600657D01*
X391952Y589057D02*
X397752D01*
X391952D02*
Y600657D01*
X397752D01*
X473100Y608200D02*
Y619800D01*
X478900D01*
Y608200D02*
Y619800D01*
X473100Y608200D02*
X478900D01*
X335430Y662076D02*
Y673676D01*
X329630Y662076D02*
X335430D01*
X329630D02*
Y673676D01*
X335430D01*
X343710Y649312D02*
Y660912D01*
X337910Y649312D02*
X343710D01*
X337910D02*
Y660912D01*
X343710D01*
X343650Y662143D02*
Y673743D01*
X337850Y662143D02*
X343650D01*
X337850D02*
Y673743D01*
X343650D01*
X415400Y511200D02*
Y522800D01*
X409600Y511200D02*
X415400D01*
X409600D02*
Y522800D01*
X415400D01*
X422400Y511200D02*
Y522800D01*
X416600Y511200D02*
X422400D01*
X416600D02*
Y522800D01*
X422400D01*
X400674Y442907D02*
X412274D01*
X400674D02*
Y448707D01*
X412274D01*
Y442907D02*
Y448707D01*
X400721Y453980D02*
X412321D01*
X400721D02*
Y459780D01*
X412321D01*
Y453980D02*
Y459780D01*
X423600Y498149D02*
Y509749D01*
X429400D01*
Y498149D02*
Y509749D01*
X423600Y498149D02*
X429400D01*
X490512Y456228D02*
Y474228D01*
X480512Y456228D02*
X490512D01*
X480512D02*
Y474228D01*
X490512D01*
X475100Y534200D02*
Y545800D01*
X480900D01*
Y534200D02*
Y545800D01*
X475100Y534200D02*
X480900D01*
X423600Y511149D02*
Y522749D01*
X429400D01*
Y511149D02*
Y522749D01*
X423600Y511149D02*
X429400D01*
X452519Y456228D02*
Y474228D01*
X442519Y456228D02*
X452519D01*
X442519D02*
Y474228D01*
X452519D01*
X446519Y419110D02*
Y430710D01*
X440719Y419110D02*
X446519D01*
X440719D02*
Y430710D01*
X446519D01*
X394958Y432565D02*
X406558D01*
Y426765D02*
Y432565D01*
X394958Y426765D02*
X406558D01*
X394958D02*
Y432565D01*
X424742Y419110D02*
Y430710D01*
X430542D01*
Y419110D02*
Y430710D01*
X424742Y419110D02*
X430542D01*
X440759Y405707D02*
Y417307D01*
X446559D01*
Y405707D02*
Y417307D01*
X440759Y405707D02*
X446559D01*
X432825D02*
Y417307D01*
X438625D01*
Y405707D02*
Y417307D01*
X432825Y405707D02*
X438625D01*
X438190Y432824D02*
Y444424D01*
X432390Y432824D02*
X438190D01*
X432390D02*
Y444424D01*
X438190D01*
X446519Y432824D02*
Y444424D01*
X440719Y432824D02*
X446519D01*
X440719D02*
Y444424D01*
X446519D01*
X255100Y620700D02*
X260900D01*
Y632300D01*
X255100D02*
X260900D01*
X255100Y620700D02*
Y632300D01*
X320400Y640200D02*
Y651800D01*
X314600Y640200D02*
X320400D01*
X314600D02*
Y651800D01*
X320400D01*
X329630Y636289D02*
Y647889D01*
X335430D01*
Y636289D02*
Y647889D01*
X329630Y636289D02*
X335430D01*
X337889Y636276D02*
Y647876D01*
X343689D01*
Y636276D02*
Y647876D01*
X337889Y636276D02*
X343689D01*
X322100Y643200D02*
Y654800D01*
X327900D01*
Y643200D02*
Y654800D01*
X322100Y643200D02*
X327900D01*
X414700Y727900D02*
X426300D01*
Y722100D02*
Y727900D01*
X414700Y722100D02*
X426300D01*
X414700D02*
Y727900D01*
X509475Y728300D02*
X521075D01*
Y722500D02*
Y728300D01*
X509475Y722500D02*
X521075D01*
X509475D02*
Y728300D01*
X495200Y773400D02*
X506800D01*
Y767600D02*
Y773400D01*
X495200Y767600D02*
X506800D01*
X495200D02*
Y773400D01*
X266676Y728800D02*
X278276D01*
Y723000D02*
Y728800D01*
X266676Y723000D02*
X278276D01*
X266676D02*
Y728800D01*
X501600Y716700D02*
Y728300D01*
X507400D01*
Y716700D02*
Y728300D01*
X501600Y716700D02*
X507400D01*
X361100Y723000D02*
Y728800D01*
Y723000D02*
X372700D01*
Y728800D01*
X361100D02*
X372700D01*
X439800Y769100D02*
Y774900D01*
X428200D02*
X439800D01*
X428200Y769100D02*
Y774900D01*
Y769100D02*
X439800D01*
X528200Y728100D02*
Y733900D01*
Y728100D02*
X539800D01*
Y733900D01*
X528200D02*
X539800D01*
X353100Y717200D02*
X358900D01*
Y728800D01*
X353100D02*
X358900D01*
X353100Y717200D02*
Y728800D01*
X377100Y752800D02*
X382900D01*
X377100Y741200D02*
Y752800D01*
Y741200D02*
X382900D01*
Y752800D01*
X282851Y768600D02*
Y774400D01*
X271251D02*
X282851D01*
X271251Y768600D02*
Y774400D01*
Y768600D02*
X282851D01*
X346851Y769100D02*
Y774900D01*
X335251D02*
X346851D01*
X335251Y769100D02*
Y774900D01*
Y769100D02*
X346851D01*
X381000Y496500D02*
Y502498D01*
X383999D01*
X384999Y501498D01*
Y499499D01*
X383999Y498499D01*
X381000D01*
X382999D02*
X384999Y496500D01*
X390997Y501498D02*
X389997Y502498D01*
X387998D01*
X386998Y501498D01*
Y497500D01*
X387998Y496500D01*
X389997D01*
X390997Y497500D01*
Y499499D01*
X388997D01*
X222163Y485074D02*
X221114D01*
X221639D01*
Y482450D01*
X221114Y481926D01*
X220589D01*
X220064Y482450D01*
X223213Y481926D02*
X224262D01*
X223738D01*
Y485074D01*
X223213Y484550D01*
X225837D02*
X226361Y485074D01*
X227411D01*
X227936Y484550D01*
Y482450D01*
X227411Y481926D01*
X226361D01*
X225837Y482450D01*
Y484550D01*
X222099Y511149D02*
X221049D01*
X221574D01*
Y508525D01*
X221049Y508000D01*
X220525D01*
X220000Y508525D01*
X223149D02*
X223673Y508000D01*
X224723D01*
X225248Y508525D01*
Y510624D01*
X224723Y511149D01*
X223673D01*
X223149Y510624D01*
Y510099D01*
X223673Y509574D01*
X225248D01*
D17*
X306709Y519823D02*
Y549177D01*
X351669D02*
X355291D01*
X329031D02*
X340252D01*
X306709D02*
X317811D01*
X355291Y519823D02*
Y549177D01*
X306709Y519823D02*
X318795D01*
X328244D02*
X341433D01*
X350488D02*
X355291D01*
X457267Y457318D02*
X475744D01*
X457267Y475748D02*
X475791D01*
X513819Y748016D02*
X522677D01*
X407323D02*
X415787D01*
X522677D02*
Y766323D01*
X407323Y748016D02*
Y766323D01*
X522677D01*
X365386Y748268D02*
X374244D01*
X258890D02*
X267354D01*
X374244D02*
Y766575D01*
X258890Y748268D02*
Y766575D01*
X374244D01*
X320500Y445000D02*
Y448149D01*
X322074D01*
X322599Y447624D01*
Y446574D01*
X322074Y446049D01*
X320500D01*
X321550D02*
X322599Y445000D01*
X325223D02*
X324173D01*
X323649Y445525D01*
Y446574D01*
X324173Y447099D01*
X325223D01*
X325748Y446574D01*
Y446049D01*
X323649D01*
X326797Y445000D02*
X328372D01*
X328896Y445525D01*
X328372Y446049D01*
X327322D01*
X326797Y446574D01*
X327322Y447099D01*
X328896D01*
X331520Y445000D02*
X330470D01*
X329946Y445525D01*
Y446574D01*
X330470Y447099D01*
X331520D01*
X332045Y446574D01*
Y446049D01*
X329946D01*
X333619Y447624D02*
Y447099D01*
X333094D01*
X334144D01*
X333619D01*
Y445525D01*
X334144Y445000D01*
X516475Y522074D02*
X515426D01*
X515950D01*
Y519451D01*
X515426Y518926D01*
X514901D01*
X514376Y519451D01*
X517525Y521550D02*
X518049Y522074D01*
X519099D01*
X519624Y521550D01*
Y521025D01*
X519099Y520500D01*
X519624Y519975D01*
Y519451D01*
X519099Y518926D01*
X518049D01*
X517525Y519451D01*
Y519975D01*
X518049Y520500D01*
X517525Y521025D01*
Y521550D01*
X518049Y520500D02*
X519099D01*
X400430Y452746D02*
Y449598D01*
X402005D01*
X402530Y450122D01*
Y452221D01*
X402005Y452746D01*
X400430D01*
X405678Y449598D02*
X403579D01*
X405678Y451697D01*
Y452221D01*
X405153Y452746D01*
X404104D01*
X403579Y452221D01*
X400860Y464051D02*
Y460903D01*
X402434D01*
X402959Y461428D01*
Y463527D01*
X402434Y464051D01*
X400860D01*
X404008Y460903D02*
X405058D01*
X404533D01*
Y464051D01*
X404008Y463527D01*
X368774Y469202D02*
Y466578D01*
X369299Y466053D01*
X370349D01*
X370873Y466578D01*
Y469202D01*
X371923D02*
X374022D01*
Y468677D01*
X371923Y466578D01*
Y466053D01*
X215500Y446349D02*
Y443725D01*
X216025Y443200D01*
X217074D01*
X217599Y443725D01*
Y446349D01*
X220748D02*
X219698Y445824D01*
X218649Y444774D01*
Y443725D01*
X219173Y443200D01*
X220223D01*
X220748Y443725D01*
Y444249D01*
X220223Y444774D01*
X218649D01*
X495876Y451574D02*
Y448950D01*
X496401Y448426D01*
X497450D01*
X497975Y448950D01*
Y451574D01*
X501124D02*
X499025D01*
Y450000D01*
X500074Y450525D01*
X500599D01*
X501124Y450000D01*
Y448950D01*
X500599Y448426D01*
X499549D01*
X499025Y448950D01*
X383178Y681337D02*
Y678713D01*
X383703Y678188D01*
X384752D01*
X385277Y678713D01*
Y681337D01*
X387901Y678188D02*
Y681337D01*
X386327Y679762D01*
X388426D01*
X389475Y677663D02*
X391574D01*
X394723Y680812D02*
X394198Y681337D01*
X393149D01*
X392624Y680812D01*
Y680287D01*
X393149Y679762D01*
X394198D01*
X394723Y679238D01*
Y678713D01*
X394198Y678188D01*
X393149D01*
X392624Y678713D01*
X395772Y678188D02*
X396822D01*
X396297D01*
Y681337D01*
X395772Y680812D01*
X317200Y609049D02*
Y606425D01*
X317725Y605900D01*
X318774D01*
X319299Y606425D01*
Y609049D01*
X321923Y605900D02*
Y609049D01*
X320349Y607474D01*
X322448D01*
X323497Y605375D02*
X325596D01*
X328745Y608524D02*
X328220Y609049D01*
X327170D01*
X326646Y608524D01*
Y607999D01*
X327170Y607474D01*
X328220D01*
X328745Y606950D01*
Y606425D01*
X328220Y605900D01*
X327170D01*
X326646Y606425D01*
X329794Y608524D02*
X330319Y609049D01*
X331369D01*
X331893Y608524D01*
Y606425D01*
X331369Y605900D01*
X330319D01*
X329794Y606425D01*
Y608524D01*
X444908Y528511D02*
Y525888D01*
X445432Y525363D01*
X446482D01*
X447007Y525888D01*
Y528511D01*
X448056Y527987D02*
X448581Y528511D01*
X449630D01*
X450155Y527987D01*
Y527462D01*
X449630Y526937D01*
X449106D01*
X449630D01*
X450155Y526412D01*
Y525888D01*
X449630Y525363D01*
X448581D01*
X448056Y525888D01*
X364178Y771837D02*
Y769213D01*
X364703Y768688D01*
X365752D01*
X366277Y769213D01*
Y771837D01*
X369426Y768688D02*
X367327D01*
X369426Y770787D01*
Y771312D01*
X368901Y771837D01*
X367851D01*
X367327Y771312D01*
X370475Y768163D02*
X372574D01*
X373624Y768688D02*
Y771837D01*
X374673Y770787D01*
X375723Y771837D01*
Y768688D01*
X376772D02*
X377822D01*
X377297D01*
Y771837D01*
X376772Y771312D01*
X408653Y771837D02*
Y769213D01*
X409178Y768688D01*
X410228D01*
X410752Y769213D01*
Y771837D01*
X413901Y768688D02*
X411802D01*
X413901Y770787D01*
Y771312D01*
X413376Y771837D01*
X412327D01*
X411802Y771312D01*
X414951Y768163D02*
X417050D01*
X418099Y768688D02*
Y771837D01*
X419149Y770787D01*
X420198Y771837D01*
Y768688D01*
X421248Y771312D02*
X421772Y771837D01*
X422822D01*
X423347Y771312D01*
Y769213D01*
X422822Y768688D01*
X421772D01*
X421248Y769213D01*
Y771312D01*
X362362Y521911D02*
Y519287D01*
X362887Y518762D01*
X363937D01*
X364461Y519287D01*
Y521911D01*
X365511Y518762D02*
X366561D01*
X366036D01*
Y521911D01*
X365511Y521386D01*
X333396Y477155D02*
X332872Y477680D01*
X331822D01*
X331297Y477155D01*
Y476630D01*
X331822Y476106D01*
X332872D01*
X333396Y475581D01*
Y475056D01*
X332872Y474531D01*
X331822D01*
X331297Y475056D01*
X334446Y477155D02*
X334971Y477680D01*
X336020D01*
X336545Y477155D01*
Y476630D01*
X336020Y476106D01*
X335495D01*
X336020D01*
X336545Y475581D01*
Y475056D01*
X336020Y474531D01*
X334971D01*
X334446Y475056D01*
X266291Y510877D02*
X265767Y511402D01*
X264717D01*
X264192Y510877D01*
Y510352D01*
X264717Y509827D01*
X265767D01*
X266291Y509303D01*
Y508778D01*
X265767Y508253D01*
X264717D01*
X264192Y508778D01*
X269440Y508253D02*
X267341D01*
X269440Y510352D01*
Y510877D01*
X268915Y511402D01*
X267866D01*
X267341Y510877D01*
X267079Y478218D02*
X266554Y478743D01*
X265505D01*
X264980Y478218D01*
Y477693D01*
X265505Y477168D01*
X266554D01*
X267079Y476644D01*
Y476119D01*
X266554Y475594D01*
X265505D01*
X264980Y476119D01*
X268128Y475594D02*
X269178D01*
X268653D01*
Y478743D01*
X268128Y478218D01*
X349888Y508982D02*
X353036D01*
Y507408D01*
X352512Y506883D01*
X351462D01*
X350937Y507408D01*
Y508982D01*
Y507933D02*
X349888Y506883D01*
Y503735D02*
Y505834D01*
X351987Y503735D01*
X352512D01*
X353036Y504259D01*
Y505309D01*
X352512Y505834D01*
X353036Y502685D02*
Y500586D01*
X352512D01*
X350413Y502685D01*
X349888D01*
X423022Y493701D02*
Y496850D01*
X424596D01*
X425121Y496325D01*
Y495275D01*
X424596Y494751D01*
X423022D01*
X424071D02*
X425121Y493701D01*
X428269D02*
X426170D01*
X428269Y495800D01*
Y496325D01*
X427745Y496850D01*
X426695D01*
X426170Y496325D01*
X431418Y496850D02*
X430369Y496325D01*
X429319Y495275D01*
Y494226D01*
X429844Y493701D01*
X430893D01*
X431418Y494226D01*
Y494751D01*
X430893Y495275D01*
X429319D01*
X424302Y523926D02*
Y527074D01*
X425876D01*
X426401Y526549D01*
Y525500D01*
X425876Y524975D01*
X424302D01*
X425351D02*
X426401Y523926D01*
X429550D02*
X427451D01*
X429550Y526025D01*
Y526549D01*
X429025Y527074D01*
X427975D01*
X427451Y526549D01*
X432698Y527074D02*
X430599D01*
Y525500D01*
X431649Y526025D01*
X432173D01*
X432698Y525500D01*
Y524450D01*
X432173Y523926D01*
X431124D01*
X430599Y524450D01*
X342399Y491212D02*
Y494361D01*
X343973D01*
X344498Y493836D01*
Y492787D01*
X343973Y492262D01*
X342399D01*
X343448D02*
X344498Y491212D01*
X347646D02*
X345547D01*
X347646Y493311D01*
Y493836D01*
X347121Y494361D01*
X346072D01*
X345547Y493836D01*
X350270Y491212D02*
Y494361D01*
X348696Y492787D01*
X350795D01*
X375829Y446214D02*
Y449363D01*
X377403D01*
X377928Y448838D01*
Y447788D01*
X377403Y447264D01*
X375829D01*
X376878D02*
X377928Y446214D01*
X381076D02*
X378977D01*
X381076Y448313D01*
Y448838D01*
X380552Y449363D01*
X379502D01*
X378977Y448838D01*
X382126D02*
X382651Y449363D01*
X383700D01*
X384225Y448838D01*
Y448313D01*
X383700Y447788D01*
X383175D01*
X383700D01*
X384225Y447264D01*
Y446739D01*
X383700Y446214D01*
X382651D01*
X382126Y446739D01*
X364909Y473766D02*
Y476914D01*
X366483D01*
X367008Y476390D01*
Y475340D01*
X366483Y474815D01*
X364909D01*
X365958D02*
X367008Y473766D01*
X370156D02*
X368057D01*
X370156Y475865D01*
Y476390D01*
X369632Y476914D01*
X368582D01*
X368057Y476390D01*
X373305Y473766D02*
X371206D01*
X373305Y475865D01*
Y476390D01*
X372780Y476914D01*
X371731D01*
X371206Y476390D01*
X502352Y501423D02*
Y504571D01*
X503926D01*
X504451Y504046D01*
Y502997D01*
X503926Y502472D01*
X502352D01*
X503402D02*
X504451Y501423D01*
X507600D02*
X505501D01*
X507600Y503522D01*
Y504046D01*
X507075Y504571D01*
X506026D01*
X505501Y504046D01*
X508649Y501423D02*
X509699D01*
X509174D01*
Y504571D01*
X508649Y504046D01*
X413795Y444303D02*
Y447452D01*
X415370D01*
X415894Y446927D01*
Y445878D01*
X415370Y445353D01*
X413795D01*
X414845D02*
X415894Y444303D01*
X419043D02*
X416944D01*
X419043Y446402D01*
Y446927D01*
X418518Y447452D01*
X417469D01*
X416944Y446927D01*
X420092D02*
X420617Y447452D01*
X421667D01*
X422191Y446927D01*
Y444828D01*
X421667Y444303D01*
X420617D01*
X420092Y444828D01*
Y446927D01*
X413767Y455247D02*
Y458395D01*
X415341D01*
X415866Y457871D01*
Y456821D01*
X415341Y456296D01*
X413767D01*
X414816D02*
X415866Y455247D01*
X416915D02*
X417965D01*
X417440D01*
Y458395D01*
X416915Y457871D01*
X419539Y455771D02*
X420064Y455247D01*
X421114D01*
X421638Y455771D01*
Y457871D01*
X421114Y458395D01*
X420064D01*
X419539Y457871D01*
Y457346D01*
X420064Y456821D01*
X421638D01*
X297564Y510926D02*
Y514074D01*
X299139D01*
X299663Y513550D01*
Y512500D01*
X299139Y511975D01*
X297564D01*
X298614D02*
X299663Y510926D01*
X300713D02*
X301762D01*
X301238D01*
Y514074D01*
X300713Y513550D01*
X303337D02*
X303861Y514074D01*
X304911D01*
X305436Y513550D01*
Y513025D01*
X304911Y512500D01*
X305436Y511975D01*
Y511450D01*
X304911Y510926D01*
X303861D01*
X303337Y511450D01*
Y511975D01*
X303861Y512500D01*
X303337Y513025D01*
Y513550D01*
X303861Y512500D02*
X304911D01*
X297375Y479002D02*
Y482150D01*
X298950D01*
X299475Y481625D01*
Y480576D01*
X298950Y480051D01*
X297375D01*
X298425D02*
X299475Y479002D01*
X300524D02*
X301574D01*
X301049D01*
Y482150D01*
X300524Y481625D01*
X303148Y482150D02*
X305247D01*
Y481625D01*
X303148Y479526D01*
Y479002D01*
X422564Y431926D02*
Y435074D01*
X424139D01*
X424663Y434550D01*
Y433500D01*
X424139Y432975D01*
X422564D01*
X423614D02*
X424663Y431926D01*
X425713D02*
X426762D01*
X426238D01*
Y435074D01*
X425713Y434550D01*
X430436Y435074D02*
X429386Y434550D01*
X428337Y433500D01*
Y432450D01*
X428861Y431926D01*
X429911D01*
X430436Y432450D01*
Y432975D01*
X429911Y433500D01*
X428337D01*
X439957Y401202D02*
Y404351D01*
X441531D01*
X442056Y403826D01*
Y402776D01*
X441531Y402252D01*
X439957D01*
X441006D02*
X442056Y401202D01*
X443105D02*
X444155D01*
X443630D01*
Y404351D01*
X443105Y403826D01*
X447828Y404351D02*
X445729D01*
Y402776D01*
X446778Y403301D01*
X447303D01*
X447828Y402776D01*
Y401727D01*
X447303Y401202D01*
X446254D01*
X445729Y401727D01*
X440588Y445969D02*
Y449118D01*
X442162D01*
X442687Y448593D01*
Y447543D01*
X442162Y447018D01*
X440588D01*
X441638D02*
X442687Y445969D01*
X443737D02*
X444786D01*
X444261D01*
Y449118D01*
X443737Y448593D01*
X447935Y445969D02*
Y449118D01*
X446360Y447543D01*
X448459D01*
X397154Y434174D02*
Y437323D01*
X398728D01*
X399253Y436798D01*
Y435749D01*
X398728Y435224D01*
X397154D01*
X398203D02*
X399253Y434174D01*
X400302D02*
X401352D01*
X400827D01*
Y437323D01*
X400302Y436798D01*
X402926D02*
X403451Y437323D01*
X404500D01*
X405025Y436798D01*
Y436273D01*
X404500Y435749D01*
X403976D01*
X404500D01*
X405025Y435224D01*
Y434699D01*
X404500Y434174D01*
X403451D01*
X402926Y434699D01*
X344292Y434215D02*
Y437364D01*
X345866D01*
X346391Y436839D01*
Y435789D01*
X345866Y435265D01*
X344292D01*
X345342D02*
X346391Y434215D01*
X347441D02*
X348490D01*
X347965D01*
Y437364D01*
X347441Y436839D01*
X352164Y434215D02*
X350064D01*
X352164Y436314D01*
Y436839D01*
X351639Y437364D01*
X350589D01*
X350064Y436839D01*
X294183Y625214D02*
Y628363D01*
X295757D01*
X296282Y627838D01*
Y626789D01*
X295757Y626264D01*
X294183D01*
X295232D02*
X296282Y625214D01*
X297331D02*
X298381D01*
X297856D01*
Y628363D01*
X297331Y627838D01*
X299955Y625214D02*
X301005D01*
X300480D01*
Y628363D01*
X299955Y627838D01*
X302579Y624690D02*
X304678D01*
X307827Y627838D02*
X307302Y628363D01*
X306252D01*
X305728Y627838D01*
Y627314D01*
X306252Y626789D01*
X307302D01*
X307827Y626264D01*
Y625739D01*
X307302Y625214D01*
X306252D01*
X305728Y625739D01*
X308876Y625214D02*
X309926D01*
X309401D01*
Y628363D01*
X308876Y627838D01*
X294800Y570400D02*
Y573549D01*
X296374D01*
X296899Y573024D01*
Y571974D01*
X296374Y571450D01*
X294800D01*
X295849D02*
X296899Y570400D01*
X297949D02*
X298998D01*
X298473D01*
Y573549D01*
X297949Y573024D01*
X300572Y570400D02*
X301622D01*
X301097D01*
Y573549D01*
X300572Y573024D01*
X303196Y569875D02*
X305295D01*
X308444Y573024D02*
X307919Y573549D01*
X306870D01*
X306345Y573024D01*
Y572499D01*
X306870Y571974D01*
X307919D01*
X308444Y571450D01*
Y570925D01*
X307919Y570400D01*
X306870D01*
X306345Y570925D01*
X309493Y573024D02*
X310018Y573549D01*
X311068D01*
X311593Y573024D01*
Y570925D01*
X311068Y570400D01*
X310018D01*
X309493Y570925D01*
Y573024D01*
X309366Y635688D02*
Y638837D01*
X310940D01*
X311465Y638312D01*
Y637262D01*
X310940Y636738D01*
X309366D01*
X310416D02*
X311465Y635688D01*
X312515D02*
X313564D01*
X313039D01*
Y638837D01*
X312515Y638312D01*
X315139D02*
X315663Y638837D01*
X316713D01*
X317238Y638312D01*
Y636213D01*
X316713Y635688D01*
X315663D01*
X315139Y636213D01*
Y638312D01*
X318287Y635163D02*
X320386D01*
X323535Y638312D02*
X323010Y638837D01*
X321960D01*
X321436Y638312D01*
Y637787D01*
X321960Y637262D01*
X323010D01*
X323535Y636738D01*
Y636213D01*
X323010Y635688D01*
X321960D01*
X321436Y636213D01*
X324584Y635688D02*
X325634D01*
X325109D01*
Y638837D01*
X324584Y638312D01*
X400841Y597188D02*
Y600337D01*
X402416D01*
X402940Y599812D01*
Y598762D01*
X402416Y598238D01*
X400841D01*
X401891D02*
X402940Y597188D01*
X403990D02*
X405040D01*
X404515D01*
Y600337D01*
X403990Y599812D01*
X406614D02*
X407139Y600337D01*
X408188D01*
X408713Y599812D01*
Y597713D01*
X408188Y597188D01*
X407139D01*
X406614Y597713D01*
Y599812D01*
X409762Y596663D02*
X411861D01*
X415010Y599812D02*
X414485Y600337D01*
X413436D01*
X412911Y599812D01*
Y599287D01*
X413436Y598762D01*
X414485D01*
X415010Y598238D01*
Y597713D01*
X414485Y597188D01*
X413436D01*
X412911Y597713D01*
X416060Y599812D02*
X416584Y600337D01*
X417634D01*
X418159Y599812D01*
Y597713D01*
X417634Y597188D01*
X416584D01*
X416060Y597713D01*
Y599812D01*
X250678Y634188D02*
Y637337D01*
X252252D01*
X252777Y636812D01*
Y635762D01*
X252252Y635238D01*
X250678D01*
X251728D02*
X252777Y634188D01*
X253827Y634713D02*
X254351Y634188D01*
X255401D01*
X255926Y634713D01*
Y636812D01*
X255401Y637337D01*
X254351D01*
X253827Y636812D01*
Y636287D01*
X254351Y635762D01*
X255926D01*
X256975Y633663D02*
X259074D01*
X262223Y636812D02*
X261698Y637337D01*
X260649D01*
X260124Y636812D01*
Y636287D01*
X260649Y635762D01*
X261698D01*
X262223Y635238D01*
Y634713D01*
X261698Y634188D01*
X260649D01*
X260124Y634713D01*
X263272Y634188D02*
X264322D01*
X263797D01*
Y637337D01*
X263272Y636812D01*
X250653Y564739D02*
Y567888D01*
X252228D01*
X252752Y567363D01*
Y566314D01*
X252228Y565789D01*
X250653D01*
X251703D02*
X252752Y564739D01*
X253802Y565264D02*
X254327Y564739D01*
X255376D01*
X255901Y565264D01*
Y567363D01*
X255376Y567888D01*
X254327D01*
X253802Y567363D01*
Y566838D01*
X254327Y566314D01*
X255901D01*
X256950Y564215D02*
X259050D01*
X262198Y567363D02*
X261673Y567888D01*
X260624D01*
X260099Y567363D01*
Y566838D01*
X260624Y566314D01*
X261673D01*
X262198Y565789D01*
Y565264D01*
X261673Y564739D01*
X260624D01*
X260099Y565264D01*
X263248Y567363D02*
X263772Y567888D01*
X264822D01*
X265347Y567363D01*
Y565264D01*
X264822Y564739D01*
X263772D01*
X263248Y565264D01*
Y567363D01*
X307178Y653688D02*
Y656837D01*
X308752D01*
X309277Y656312D01*
Y655262D01*
X308752Y654738D01*
X307178D01*
X308228D02*
X309277Y653688D01*
X310327Y656312D02*
X310851Y656837D01*
X311901D01*
X312426Y656312D01*
Y655787D01*
X311901Y655262D01*
X312426Y654738D01*
Y654213D01*
X311901Y653688D01*
X310851D01*
X310327Y654213D01*
Y654738D01*
X310851Y655262D01*
X310327Y655787D01*
Y656312D01*
X310851Y655262D02*
X311901D01*
X313475Y653163D02*
X315574D01*
X318723Y656312D02*
X318198Y656837D01*
X317149D01*
X316624Y656312D01*
Y655787D01*
X317149Y655262D01*
X318198D01*
X318723Y654738D01*
Y654213D01*
X318198Y653688D01*
X317149D01*
X316624Y654213D01*
X319772Y653688D02*
X320822D01*
X320297D01*
Y656837D01*
X319772Y656312D01*
X406653Y579688D02*
Y582837D01*
X408228D01*
X408752Y582312D01*
Y581262D01*
X408228Y580738D01*
X406653D01*
X407703D02*
X408752Y579688D01*
X409802Y582312D02*
X410327Y582837D01*
X411376D01*
X411901Y582312D01*
Y581787D01*
X411376Y581262D01*
X411901Y580738D01*
Y580213D01*
X411376Y579688D01*
X410327D01*
X409802Y580213D01*
Y580738D01*
X410327Y581262D01*
X409802Y581787D01*
Y582312D01*
X410327Y581262D02*
X411376D01*
X412951Y579163D02*
X415050D01*
X418198Y582312D02*
X417673Y582837D01*
X416624D01*
X416099Y582312D01*
Y581787D01*
X416624Y581262D01*
X417673D01*
X418198Y580738D01*
Y580213D01*
X417673Y579688D01*
X416624D01*
X416099Y580213D01*
X419248Y582312D02*
X419772Y582837D01*
X420822D01*
X421347Y582312D01*
Y580213D01*
X420822Y579688D01*
X419772D01*
X419248Y580213D01*
Y582312D01*
X342178Y631688D02*
Y634837D01*
X343752D01*
X344277Y634312D01*
Y633262D01*
X343752Y632738D01*
X342178D01*
X343228D02*
X344277Y631688D01*
X345327Y634837D02*
X347426D01*
Y634312D01*
X345327Y632213D01*
Y631688D01*
X348475Y631163D02*
X350574D01*
X353723Y634312D02*
X353198Y634837D01*
X352149D01*
X351624Y634312D01*
Y633787D01*
X352149Y633262D01*
X353198D01*
X353723Y632738D01*
Y632213D01*
X353198Y631688D01*
X352149D01*
X351624Y632213D01*
X354772Y631688D02*
X355822D01*
X355297D01*
Y634837D01*
X354772Y634312D01*
X367844Y600290D02*
Y603439D01*
X369418D01*
X369943Y602914D01*
Y601864D01*
X369418Y601339D01*
X367844D01*
X368893D02*
X369943Y600290D01*
X370992Y603439D02*
X373092D01*
Y602914D01*
X370992Y600815D01*
Y600290D01*
X374141Y599765D02*
X376240D01*
X379389Y602914D02*
X378864Y603439D01*
X377814D01*
X377290Y602914D01*
Y602389D01*
X377814Y601864D01*
X378864D01*
X379389Y601339D01*
Y600815D01*
X378864Y600290D01*
X377814D01*
X377290Y600815D01*
X380438Y602914D02*
X380963Y603439D01*
X382013D01*
X382537Y602914D01*
Y600815D01*
X382013Y600290D01*
X380963D01*
X380438Y600815D01*
Y602914D01*
X338178Y675188D02*
Y678337D01*
X339752D01*
X340277Y677812D01*
Y676762D01*
X339752Y676238D01*
X338178D01*
X339228D02*
X340277Y675188D01*
X343426Y678337D02*
X342376Y677812D01*
X341327Y676762D01*
Y675713D01*
X341851Y675188D01*
X342901D01*
X343426Y675713D01*
Y676238D01*
X342901Y676762D01*
X341327D01*
X344475Y674663D02*
X346574D01*
X349723Y677812D02*
X349198Y678337D01*
X348149D01*
X347624Y677812D01*
Y677287D01*
X348149Y676762D01*
X349198D01*
X349723Y676238D01*
Y675713D01*
X349198Y675188D01*
X348149D01*
X347624Y675713D01*
X350772Y675188D02*
X351822D01*
X351297D01*
Y678337D01*
X350772Y677812D01*
X374653Y558188D02*
Y561337D01*
X376228D01*
X376752Y560812D01*
Y559762D01*
X376228Y559238D01*
X374653D01*
X375703D02*
X376752Y558188D01*
X379901Y561337D02*
X378851Y560812D01*
X377802Y559762D01*
Y558713D01*
X378327Y558188D01*
X379376D01*
X379901Y558713D01*
Y559238D01*
X379376Y559762D01*
X377802D01*
X380950Y557663D02*
X383050D01*
X386198Y560812D02*
X385673Y561337D01*
X384624D01*
X384099Y560812D01*
Y560287D01*
X384624Y559762D01*
X385673D01*
X386198Y559238D01*
Y558713D01*
X385673Y558188D01*
X384624D01*
X384099Y558713D01*
X387248Y560812D02*
X387772Y561337D01*
X388822D01*
X389347Y560812D01*
Y558713D01*
X388822Y558188D01*
X387772D01*
X387248Y558713D01*
Y560812D01*
X461678Y621688D02*
Y624837D01*
X463252D01*
X463777Y624312D01*
Y623262D01*
X463252Y622738D01*
X461678D01*
X462728D02*
X463777Y621688D01*
X466926Y624837D02*
X464827D01*
Y623262D01*
X465876Y623787D01*
X466401D01*
X466926Y623262D01*
Y622213D01*
X466401Y621688D01*
X465351D01*
X464827Y622213D01*
X467975Y621163D02*
X470074D01*
X473223Y624312D02*
X472698Y624837D01*
X471649D01*
X471124Y624312D01*
Y623787D01*
X471649Y623262D01*
X472698D01*
X473223Y622738D01*
Y622213D01*
X472698Y621688D01*
X471649D01*
X471124Y622213D01*
X474272Y621688D02*
X475322D01*
X474797D01*
Y624837D01*
X474272Y624312D01*
X465653Y548188D02*
Y551337D01*
X467228D01*
X467752Y550812D01*
Y549762D01*
X467228Y549238D01*
X465653D01*
X466703D02*
X467752Y548188D01*
X470901Y551337D02*
X468802D01*
Y549762D01*
X469851Y550287D01*
X470376D01*
X470901Y549762D01*
Y548713D01*
X470376Y548188D01*
X469327D01*
X468802Y548713D01*
X471950Y547663D02*
X474050D01*
X477198Y550812D02*
X476673Y551337D01*
X475624D01*
X475099Y550812D01*
Y550287D01*
X475624Y549762D01*
X476673D01*
X477198Y549238D01*
Y548713D01*
X476673Y548188D01*
X475624D01*
X475099Y548713D01*
X478248Y550812D02*
X478772Y551337D01*
X479822D01*
X480347Y550812D01*
Y548713D01*
X479822Y548188D01*
X478772D01*
X478248Y548713D01*
Y550812D01*
X508178Y632688D02*
Y635837D01*
X509752D01*
X510277Y635312D01*
Y634262D01*
X509752Y633738D01*
X508178D01*
X509228D02*
X510277Y632688D01*
X512901D02*
Y635837D01*
X511327Y634262D01*
X513426D01*
X514475Y632163D02*
X516574D01*
X519723Y635312D02*
X519198Y635837D01*
X518149D01*
X517624Y635312D01*
Y634787D01*
X518149Y634262D01*
X519198D01*
X519723Y633738D01*
Y633213D01*
X519198Y632688D01*
X518149D01*
X517624Y633213D01*
X520772Y632688D02*
X521822D01*
X521297D01*
Y635837D01*
X520772Y635312D01*
X507153Y546688D02*
Y549837D01*
X508728D01*
X509252Y549312D01*
Y548262D01*
X508728Y547738D01*
X507153D01*
X508203D02*
X509252Y546688D01*
X511876D02*
Y549837D01*
X510302Y548262D01*
X512401D01*
X513450Y546163D02*
X515550D01*
X518698Y549312D02*
X518173Y549837D01*
X517124D01*
X516599Y549312D01*
Y548787D01*
X517124Y548262D01*
X518173D01*
X518698Y547738D01*
Y547213D01*
X518173Y546688D01*
X517124D01*
X516599Y547213D01*
X519748Y549312D02*
X520272Y549837D01*
X521322D01*
X521847Y549312D01*
Y547213D01*
X521322Y546688D01*
X520272D01*
X519748Y547213D01*
Y549312D01*
X337678Y717688D02*
Y720837D01*
X339252D01*
X339777Y720312D01*
Y719262D01*
X339252Y718738D01*
X337678D01*
X338728D02*
X339777Y717688D01*
X340827Y720312D02*
X341351Y720837D01*
X342401D01*
X342926Y720312D01*
Y719787D01*
X342401Y719262D01*
X341876D01*
X342401D01*
X342926Y718738D01*
Y718213D01*
X342401Y717688D01*
X341351D01*
X340827Y718213D01*
X343975Y717163D02*
X346074D01*
X347124Y717688D02*
Y720837D01*
X348173Y719787D01*
X349223Y720837D01*
Y717688D01*
X350272D02*
X351322D01*
X350797D01*
Y720837D01*
X350272Y720312D01*
X485653Y717688D02*
Y720837D01*
X487228D01*
X487752Y720312D01*
Y719262D01*
X487228Y718738D01*
X485653D01*
X486703D02*
X487752Y717688D01*
X488802Y720312D02*
X489327Y720837D01*
X490376D01*
X490901Y720312D01*
Y719787D01*
X490376Y719262D01*
X489851D01*
X490376D01*
X490901Y718738D01*
Y718213D01*
X490376Y717688D01*
X489327D01*
X488802Y718213D01*
X491951Y717163D02*
X494050D01*
X495099Y717688D02*
Y720837D01*
X496149Y719787D01*
X497198Y720837D01*
Y717688D01*
X498248Y720312D02*
X498772Y720837D01*
X499822D01*
X500347Y720312D01*
Y718213D01*
X499822Y717688D01*
X498772D01*
X498248Y718213D01*
Y720312D01*
X375178Y724188D02*
Y727337D01*
X376752D01*
X377277Y726812D01*
Y725762D01*
X376752Y725238D01*
X375178D01*
X376228D02*
X377277Y724188D01*
X380426D02*
X378327D01*
X380426Y726287D01*
Y726812D01*
X379901Y727337D01*
X378851D01*
X378327Y726812D01*
X381475Y723663D02*
X383574D01*
X384624Y724188D02*
Y727337D01*
X385673Y726287D01*
X386723Y727337D01*
Y724188D01*
X387772D02*
X388822D01*
X388297D01*
Y727337D01*
X387772Y726812D01*
X522653Y723188D02*
Y726337D01*
X524228D01*
X524752Y725812D01*
Y724762D01*
X524228Y724238D01*
X522653D01*
X523703D02*
X524752Y723188D01*
X527901D02*
X525802D01*
X527901Y725287D01*
Y725812D01*
X527376Y726337D01*
X526327D01*
X525802Y725812D01*
X528951Y722663D02*
X531049D01*
X532099Y723188D02*
Y726337D01*
X533149Y725287D01*
X534198Y726337D01*
Y723188D01*
X535248Y725812D02*
X535772Y726337D01*
X536822D01*
X537347Y725812D01*
Y723713D01*
X536822Y723188D01*
X535772D01*
X535248Y723713D01*
Y725812D01*
X252440Y724188D02*
Y727337D01*
X254015D01*
X254539Y726812D01*
Y725762D01*
X254015Y725238D01*
X252440D01*
X253490D02*
X254539Y724188D01*
X255589D02*
X256639D01*
X256114D01*
Y727337D01*
X255589Y726812D01*
X258213Y723663D02*
X260312D01*
X261362Y724188D02*
Y727337D01*
X262411Y726287D01*
X263460Y727337D01*
Y724188D01*
X264510D02*
X265560D01*
X265035D01*
Y727337D01*
X264510Y726812D01*
X398416Y723188D02*
Y726337D01*
X399990D01*
X400515Y725812D01*
Y724762D01*
X399990Y724238D01*
X398416D01*
X399465D02*
X400515Y723188D01*
X401564D02*
X402614D01*
X402089D01*
Y726337D01*
X401564Y725812D01*
X404188Y722663D02*
X406287D01*
X407337Y723188D02*
Y726337D01*
X408386Y725287D01*
X409436Y726337D01*
Y723188D01*
X410485Y725812D02*
X411010Y726337D01*
X412060D01*
X412584Y725812D01*
Y723713D01*
X412060Y723188D01*
X411010D01*
X410485Y723713D01*
Y725812D01*
X367806Y413989D02*
Y416088D01*
X367281Y416612D01*
X366231D01*
X365706Y416088D01*
Y413989D01*
X366231Y413464D01*
X367281D01*
X366756Y414513D02*
X367806Y413464D01*
X367281D02*
X367806Y413989D01*
X370429Y413464D02*
Y416612D01*
X368855Y415038D01*
X370954D01*
X307669Y414160D02*
Y416259D01*
X307144Y416784D01*
X306095D01*
X305570Y416259D01*
Y414160D01*
X306095Y413635D01*
X307144D01*
X306619Y414685D02*
X307669Y413635D01*
X307144D02*
X307669Y414160D01*
X308718Y416259D02*
X309243Y416784D01*
X310293D01*
X310817Y416259D01*
Y415734D01*
X310293Y415209D01*
X309768D01*
X310293D01*
X310817Y414685D01*
Y414160D01*
X310293Y413635D01*
X309243D01*
X308718Y414160D01*
X273777Y652948D02*
Y655047D01*
X273252Y655572D01*
X272203D01*
X271678Y655047D01*
Y652948D01*
X272203Y652423D01*
X273252D01*
X272728Y653473D02*
X273777Y652423D01*
X273252D02*
X273777Y652948D01*
X276926Y652423D02*
X274827D01*
X276926Y654522D01*
Y655047D01*
X276401Y655572D01*
X275351D01*
X274827Y655047D01*
X277975Y651898D02*
X280074D01*
X283223Y655047D02*
X282698Y655572D01*
X281649D01*
X281124Y655047D01*
Y654522D01*
X281649Y653998D01*
X282698D01*
X283223Y653473D01*
Y652948D01*
X282698Y652423D01*
X281649D01*
X281124Y652948D01*
X284272Y652423D02*
X285322D01*
X284797D01*
Y655572D01*
X284272Y655047D01*
X275899Y579325D02*
Y581424D01*
X275374Y581949D01*
X274325D01*
X273800Y581424D01*
Y579325D01*
X274325Y578800D01*
X275374D01*
X274850Y579849D02*
X275899Y578800D01*
X275374D02*
X275899Y579325D01*
X279048Y578800D02*
X276949D01*
X279048Y580899D01*
Y581424D01*
X278523Y581949D01*
X277473D01*
X276949Y581424D01*
X280097Y578275D02*
X282196D01*
X285345Y581424D02*
X284820Y581949D01*
X283770D01*
X283246Y581424D01*
Y580899D01*
X283770Y580374D01*
X284820D01*
X285345Y579849D01*
Y579325D01*
X284820Y578800D01*
X283770D01*
X283246Y579325D01*
X286394Y581424D02*
X286919Y581949D01*
X287969D01*
X288493Y581424D01*
Y579325D01*
X287969Y578800D01*
X286919D01*
X286394Y579325D01*
Y581424D01*
X488540Y651213D02*
Y653312D01*
X488015Y653837D01*
X486965D01*
X486440Y653312D01*
Y651213D01*
X486965Y650688D01*
X488015D01*
X487490Y651738D02*
X488540Y650688D01*
X488015D02*
X488540Y651213D01*
X489589Y650688D02*
X490639D01*
X490114D01*
Y653837D01*
X489589Y653312D01*
X492213Y650163D02*
X494312D01*
X497461Y653312D02*
X496936Y653837D01*
X495886D01*
X495361Y653312D01*
Y652787D01*
X495886Y652262D01*
X496936D01*
X497461Y651738D01*
Y651213D01*
X496936Y650688D01*
X495886D01*
X495361Y651213D01*
X498510Y650688D02*
X499560D01*
X499035D01*
Y653837D01*
X498510Y653312D01*
X488015Y576713D02*
Y578812D01*
X487490Y579337D01*
X486440D01*
X485916Y578812D01*
Y576713D01*
X486440Y576188D01*
X487490D01*
X486965Y577238D02*
X488015Y576188D01*
X487490D02*
X488015Y576713D01*
X489064Y576188D02*
X490114D01*
X489589D01*
Y579337D01*
X489064Y578812D01*
X491688Y575663D02*
X493787D01*
X496936Y578812D02*
X496411Y579337D01*
X495361D01*
X494837Y578812D01*
Y578287D01*
X495361Y577762D01*
X496411D01*
X496936Y577238D01*
Y576713D01*
X496411Y576188D01*
X495361D01*
X494837Y576713D01*
X497985Y578812D02*
X498510Y579337D01*
X499560D01*
X500084Y578812D01*
Y576713D01*
X499560Y576188D01*
X498510D01*
X497985Y576713D01*
Y578812D01*
X468401Y455574D02*
Y452426D01*
X470500D01*
X471550D02*
X472599D01*
X472074D01*
Y455574D01*
X471550Y455050D01*
X333475Y553574D02*
X332426D01*
X332950D01*
Y550950D01*
X332426Y550426D01*
X331901D01*
X331376Y550950D01*
X334525Y553574D02*
X336624D01*
Y553050D01*
X334525Y550950D01*
Y550426D01*
X364084Y381680D02*
X363034D01*
X363559D01*
Y379056D01*
X363034Y378531D01*
X362510D01*
X361985Y379056D01*
X367232Y381680D02*
X366183Y381155D01*
X365133Y380105D01*
Y379056D01*
X365658Y378531D01*
X366708D01*
X367232Y379056D01*
Y379580D01*
X366708Y380105D01*
X365133D01*
X208099Y669249D02*
X207049D01*
X207574D01*
Y666625D01*
X207049Y666100D01*
X206525D01*
X206000Y666625D01*
X211248Y669249D02*
X209149D01*
Y667674D01*
X210198Y668199D01*
X210723D01*
X211248Y667674D01*
Y666625D01*
X210723Y666100D01*
X209673D01*
X209149Y666625D01*
X212297Y665575D02*
X214396D01*
X217545Y668724D02*
X217020Y669249D01*
X215970D01*
X215446Y668724D01*
Y668199D01*
X215970Y667674D01*
X217020D01*
X217545Y667149D01*
Y666625D01*
X217020Y666100D01*
X215970D01*
X215446Y666625D01*
X218594Y666100D02*
X219644D01*
X219119D01*
Y669249D01*
X218594Y668724D01*
X208099Y595049D02*
X207049D01*
X207574D01*
Y592425D01*
X207049Y591900D01*
X206525D01*
X206000Y592425D01*
X211248Y595049D02*
X209149D01*
Y593474D01*
X210198Y593999D01*
X210723D01*
X211248Y593474D01*
Y592425D01*
X210723Y591900D01*
X209673D01*
X209149Y592425D01*
X212297Y591375D02*
X214396D01*
X217545Y594524D02*
X217020Y595049D01*
X215970D01*
X215446Y594524D01*
Y593999D01*
X215970Y593474D01*
X217020D01*
X217545Y592949D01*
Y592425D01*
X217020Y591900D01*
X215970D01*
X215446Y592425D01*
X218594Y594524D02*
X219119Y595049D01*
X220169D01*
X220693Y594524D01*
Y592425D01*
X220169Y591900D01*
X219119D01*
X218594Y592425D01*
Y594524D01*
X533777Y666837D02*
X532728D01*
X533252D01*
Y664213D01*
X532728Y663688D01*
X532203D01*
X531678Y664213D01*
X536401Y663688D02*
Y666837D01*
X534827Y665262D01*
X536926D01*
X537975Y663163D02*
X540074D01*
X543223Y666312D02*
X542698Y666837D01*
X541649D01*
X541124Y666312D01*
Y665787D01*
X541649Y665262D01*
X542698D01*
X543223Y664738D01*
Y664213D01*
X542698Y663688D01*
X541649D01*
X541124Y664213D01*
X544272Y663688D02*
X545322D01*
X544797D01*
Y666837D01*
X544272Y666312D01*
X533252Y592837D02*
X532203D01*
X532728D01*
Y590213D01*
X532203Y589688D01*
X531678D01*
X531153Y590213D01*
X535876Y589688D02*
Y592837D01*
X534302Y591262D01*
X536401D01*
X537451Y589163D02*
X539549D01*
X542698Y592312D02*
X542173Y592837D01*
X541124D01*
X540599Y592312D01*
Y591787D01*
X541124Y591262D01*
X542173D01*
X542698Y590738D01*
Y590213D01*
X542173Y589688D01*
X541124D01*
X540599Y590213D01*
X543748Y592312D02*
X544272Y592837D01*
X545322D01*
X545847Y592312D01*
Y590213D01*
X545322Y589688D01*
X544272D01*
X543748Y590213D01*
Y592312D01*
X306031Y382219D02*
X304982D01*
X305507D01*
Y379595D01*
X304982Y379070D01*
X304457D01*
X303932Y379595D01*
X307081Y381694D02*
X307606Y382219D01*
X308655D01*
X309180Y381694D01*
Y381169D01*
X308655Y380644D01*
X308130D01*
X308655D01*
X309180Y380119D01*
Y379595D01*
X308655Y379070D01*
X307606D01*
X307081Y379595D01*
X358975Y816574D02*
X357926D01*
X358451D01*
Y813951D01*
X357926Y813426D01*
X357401D01*
X356876Y813951D01*
X362124Y813426D02*
X360025D01*
X362124Y815525D01*
Y816049D01*
X361599Y816574D01*
X360549D01*
X360025Y816049D01*
X256040Y814837D02*
X254990D01*
X255515D01*
Y812213D01*
X254990Y811688D01*
X254465D01*
X253940Y812213D01*
X257089Y811688D02*
X258139D01*
X257614D01*
Y814837D01*
X257089Y814312D01*
X259713Y811163D02*
X261812D01*
X262861Y811688D02*
Y814837D01*
X263911Y813787D01*
X264961Y814837D01*
Y811688D01*
X266010D02*
X267060D01*
X266535D01*
Y814837D01*
X266010Y814312D01*
X509015Y814337D02*
X507965D01*
X508490D01*
Y811713D01*
X507965Y811188D01*
X507440D01*
X506916Y811713D01*
X510064Y811188D02*
X511114D01*
X510589D01*
Y814337D01*
X510064Y813812D01*
X512688Y810663D02*
X514787D01*
X515837Y811188D02*
Y814337D01*
X516886Y813287D01*
X517936Y814337D01*
Y811188D01*
X518985Y813812D02*
X519510Y814337D01*
X520560D01*
X521084Y813812D01*
Y811713D01*
X520560Y811188D01*
X519510D01*
X518985Y811713D01*
Y813812D01*
X361401Y467550D02*
X360876Y468074D01*
X359827D01*
X359302Y467550D01*
Y465450D01*
X359827Y464926D01*
X360876D01*
X361401Y465450D01*
X364549Y464926D02*
X362451D01*
X364549Y467025D01*
Y467550D01*
X364025Y468074D01*
X362975D01*
X362451Y467550D01*
X365599Y468074D02*
X367698D01*
Y467550D01*
X365599Y465450D01*
Y464926D01*
X364737Y460931D02*
X364212Y461456D01*
X363162D01*
X362638Y460931D01*
Y458832D01*
X363162Y458308D01*
X364212D01*
X364737Y458832D01*
X367885Y458308D02*
X365786D01*
X367885Y460407D01*
Y460931D01*
X367360Y461456D01*
X366311D01*
X365786Y460931D01*
X371034Y461456D02*
X369984Y460931D01*
X368935Y459882D01*
Y458832D01*
X369460Y458308D01*
X370509D01*
X371034Y458832D01*
Y459357D01*
X370509Y459882D01*
X368935D01*
X403827Y468540D02*
X403302Y469065D01*
X402253D01*
X401728Y468540D01*
Y466441D01*
X402253Y465917D01*
X403302D01*
X403827Y466441D01*
X406976Y465917D02*
X404876D01*
X406976Y468016D01*
Y468540D01*
X406451Y469065D01*
X405401D01*
X404876Y468540D01*
X410124Y469065D02*
X408025D01*
Y467491D01*
X409074Y468016D01*
X409599D01*
X410124Y467491D01*
Y466441D01*
X409599Y465917D01*
X408550D01*
X408025Y466441D01*
X403718Y476220D02*
X403193Y476745D01*
X402143D01*
X401618Y476220D01*
Y474121D01*
X402143Y473596D01*
X403193D01*
X403718Y474121D01*
X406866Y473596D02*
X404767D01*
X406866Y475695D01*
Y476220D01*
X406341Y476745D01*
X405292D01*
X404767Y476220D01*
X409490Y473596D02*
Y476745D01*
X407916Y475170D01*
X410015D01*
X416901Y526549D02*
X416376Y527074D01*
X415327D01*
X414802Y526549D01*
Y524450D01*
X415327Y523926D01*
X416376D01*
X416901Y524450D01*
X420049Y523926D02*
X417950D01*
X420049Y526025D01*
Y526549D01*
X419525Y527074D01*
X418475D01*
X417950Y526549D01*
X421099D02*
X421624Y527074D01*
X422673D01*
X423198Y526549D01*
Y526025D01*
X422673Y525500D01*
X422149D01*
X422673D01*
X423198Y524975D01*
Y524450D01*
X422673Y523926D01*
X421624D01*
X421099Y524450D01*
X374824Y535035D02*
X374299Y535559D01*
X373250D01*
X372725Y535035D01*
Y532935D01*
X373250Y532411D01*
X374299D01*
X374824Y532935D01*
X377973Y532411D02*
X375874D01*
X377973Y534510D01*
Y535035D01*
X377448Y535559D01*
X376398D01*
X375874Y535035D01*
X381121Y532411D02*
X379022D01*
X381121Y534510D01*
Y535035D01*
X380596Y535559D01*
X379547D01*
X379022Y535035D01*
X407926Y526549D02*
X407401Y527074D01*
X406351D01*
X405827Y526549D01*
Y524450D01*
X406351Y523926D01*
X407401D01*
X407926Y524450D01*
X411074Y523926D02*
X408975D01*
X411074Y526025D01*
Y526549D01*
X410549Y527074D01*
X409500D01*
X408975Y526549D01*
X412124Y523926D02*
X413173D01*
X412649D01*
Y527074D01*
X412124Y526549D01*
X356401Y493549D02*
X355876Y494074D01*
X354827D01*
X354302Y493549D01*
Y491451D01*
X354827Y490926D01*
X355876D01*
X356401Y491451D01*
X359549Y490926D02*
X357451D01*
X359549Y493025D01*
Y493549D01*
X359025Y494074D01*
X357975D01*
X357451Y493549D01*
X360599D02*
X361124Y494074D01*
X362173D01*
X362698Y493549D01*
Y491451D01*
X362173Y490926D01*
X361124D01*
X360599Y491451D01*
Y493549D01*
X504372Y473041D02*
X503847Y473566D01*
X502797D01*
X502273Y473041D01*
Y470942D01*
X502797Y470417D01*
X503847D01*
X504372Y470942D01*
X505421Y470417D02*
X506471D01*
X505946D01*
Y473566D01*
X505421Y473041D01*
X508045Y470942D02*
X508570Y470417D01*
X509619D01*
X510144Y470942D01*
Y473041D01*
X509619Y473566D01*
X508570D01*
X508045Y473041D01*
Y472516D01*
X508570Y471991D01*
X510144D01*
X291437Y504600D02*
X290912Y505125D01*
X289862D01*
X289338Y504600D01*
Y502501D01*
X289862Y501977D01*
X290912D01*
X291437Y502501D01*
X292486Y501977D02*
X293536D01*
X293011D01*
Y505125D01*
X292486Y504600D01*
X295110D02*
X295635Y505125D01*
X296684D01*
X297209Y504600D01*
Y504076D01*
X296684Y503551D01*
X297209Y503026D01*
Y502501D01*
X296684Y501977D01*
X295635D01*
X295110Y502501D01*
Y503026D01*
X295635Y503551D01*
X295110Y504076D01*
Y504600D01*
X295635Y503551D02*
X296684D01*
X292028Y472298D02*
X291504Y472823D01*
X290454D01*
X289929Y472298D01*
Y470199D01*
X290454Y469674D01*
X291504D01*
X292028Y470199D01*
X293078Y469674D02*
X294127D01*
X293602D01*
Y472823D01*
X293078Y472298D01*
X295702Y472823D02*
X297801D01*
Y472298D01*
X295702Y470199D01*
Y469674D01*
X476663Y391549D02*
X476139Y392074D01*
X475089D01*
X474564Y391549D01*
Y389451D01*
X475089Y388926D01*
X476139D01*
X476663Y389451D01*
X477713Y388926D02*
X478762D01*
X478238D01*
Y392074D01*
X477713Y391549D01*
X482436Y392074D02*
X481386Y391549D01*
X480337Y390500D01*
Y389451D01*
X480861Y388926D01*
X481911D01*
X482436Y389451D01*
Y389975D01*
X481911Y390500D01*
X480337D01*
X433799Y426191D02*
X433275Y426716D01*
X432225D01*
X431700Y426191D01*
Y424092D01*
X432225Y423567D01*
X433275D01*
X433799Y424092D01*
X434849Y423567D02*
X435898D01*
X435374D01*
Y426716D01*
X434849Y426191D01*
X439572Y426716D02*
X437473D01*
Y425141D01*
X438522Y425666D01*
X439047D01*
X439572Y425141D01*
Y424092D01*
X439047Y423567D01*
X437997D01*
X437473Y424092D01*
X433359Y448546D02*
X432835Y449071D01*
X431785D01*
X431260Y448546D01*
Y446447D01*
X431785Y445923D01*
X432835D01*
X433359Y446447D01*
X434409Y445923D02*
X435458D01*
X434934D01*
Y449071D01*
X434409Y448546D01*
X438607Y445923D02*
Y449071D01*
X437033Y447497D01*
X439132D01*
X433710Y403850D02*
X433186Y404375D01*
X432136D01*
X431611Y403850D01*
Y401751D01*
X432136Y401226D01*
X433186D01*
X433710Y401751D01*
X434760Y401226D02*
X435810D01*
X435285D01*
Y404375D01*
X434760Y403850D01*
X437384D02*
X437909Y404375D01*
X438958D01*
X439483Y403850D01*
Y403326D01*
X438958Y402801D01*
X438433D01*
X438958D01*
X439483Y402276D01*
Y401751D01*
X438958Y401226D01*
X437909D01*
X437384Y401751D01*
X445508Y478458D02*
X444983Y478982D01*
X443933D01*
X443409Y478458D01*
Y476359D01*
X443933Y475834D01*
X444983D01*
X445508Y476359D01*
X446557Y475834D02*
X447607D01*
X447082D01*
Y478982D01*
X446557Y478458D01*
X451280Y475834D02*
X449181D01*
X451280Y477933D01*
Y478458D01*
X450755Y478982D01*
X449706D01*
X449181Y478458D01*
X483872Y478431D02*
X483347Y478956D01*
X482297D01*
X481773Y478431D01*
Y476332D01*
X482297Y475807D01*
X483347D01*
X483872Y476332D01*
X484921Y475807D02*
X485971D01*
X485446D01*
Y478956D01*
X484921Y478431D01*
X487545Y475807D02*
X488595D01*
X488070D01*
Y478956D01*
X487545Y478431D01*
X546589Y455197D02*
X546064Y455722D01*
X545014D01*
X544489Y455197D01*
Y453098D01*
X545014Y452573D01*
X546064D01*
X546589Y453098D01*
X547638Y452573D02*
X548688D01*
X548163D01*
Y455722D01*
X547638Y455197D01*
X550262D02*
X550787Y455722D01*
X551836D01*
X552361Y455197D01*
Y453098D01*
X551836Y452573D01*
X550787D01*
X550262Y453098D01*
Y455197D01*
X386742Y632312D02*
X386217Y632837D01*
X385167D01*
X384643Y632312D01*
Y630213D01*
X385167Y629688D01*
X386217D01*
X386742Y630213D01*
X387791D02*
X388316Y629688D01*
X389366D01*
X389890Y630213D01*
Y632312D01*
X389366Y632837D01*
X388316D01*
X387791Y632312D01*
Y631787D01*
X388316Y631262D01*
X389890D01*
X390940Y629163D02*
X393039D01*
X396187Y632312D02*
X395663Y632837D01*
X394613D01*
X394088Y632312D01*
Y631787D01*
X394613Y631262D01*
X395663D01*
X396187Y630738D01*
Y630213D01*
X395663Y629688D01*
X394613D01*
X394088Y630213D01*
X397237Y629688D02*
X398287D01*
X397762D01*
Y632837D01*
X397237Y632312D01*
X386752Y613312D02*
X386228Y613837D01*
X385178D01*
X384653Y613312D01*
Y611213D01*
X385178Y610688D01*
X386228D01*
X386752Y611213D01*
X387802D02*
X388327Y610688D01*
X389376D01*
X389901Y611213D01*
Y613312D01*
X389376Y613837D01*
X388327D01*
X387802Y613312D01*
Y612787D01*
X388327Y612262D01*
X389901D01*
X390950Y610163D02*
X393050D01*
X396198Y613312D02*
X395673Y613837D01*
X394624D01*
X394099Y613312D01*
Y612787D01*
X394624Y612262D01*
X395673D01*
X396198Y611738D01*
Y611213D01*
X395673Y610688D01*
X394624D01*
X394099Y611213D01*
X397248Y613312D02*
X397772Y613837D01*
X398822D01*
X399347Y613312D01*
Y611213D01*
X398822Y610688D01*
X397772D01*
X397248Y611213D01*
Y613312D01*
X324777Y659812D02*
X324252Y660337D01*
X323203D01*
X322678Y659812D01*
Y657713D01*
X323203Y657188D01*
X324252D01*
X324777Y657713D01*
X325827Y659812D02*
X326351Y660337D01*
X327401D01*
X327926Y659812D01*
Y659287D01*
X327401Y658762D01*
X327926Y658238D01*
Y657713D01*
X327401Y657188D01*
X326351D01*
X325827Y657713D01*
Y658238D01*
X326351Y658762D01*
X325827Y659287D01*
Y659812D01*
X326351Y658762D02*
X327401D01*
X328975Y656663D02*
X331074D01*
X334223Y659812D02*
X333698Y660337D01*
X332649D01*
X332124Y659812D01*
Y659287D01*
X332649Y658762D01*
X333698D01*
X334223Y658238D01*
Y657713D01*
X333698Y657188D01*
X332649D01*
X332124Y657713D01*
X335272Y657188D02*
X336322D01*
X335797D01*
Y660337D01*
X335272Y659812D01*
X393252Y578312D02*
X392728Y578837D01*
X391678D01*
X391153Y578312D01*
Y576213D01*
X391678Y575688D01*
X392728D01*
X393252Y576213D01*
X394302Y578312D02*
X394827Y578837D01*
X395876D01*
X396401Y578312D01*
Y577787D01*
X395876Y577262D01*
X396401Y576738D01*
Y576213D01*
X395876Y575688D01*
X394827D01*
X394302Y576213D01*
Y576738D01*
X394827Y577262D01*
X394302Y577787D01*
Y578312D01*
X394827Y577262D02*
X395876D01*
X397450Y575163D02*
X399550D01*
X402698Y578312D02*
X402173Y578837D01*
X401124D01*
X400599Y578312D01*
Y577787D01*
X401124Y577262D01*
X402173D01*
X402698Y576738D01*
Y576213D01*
X402173Y575688D01*
X401124D01*
X400599Y576213D01*
X403748Y578312D02*
X404272Y578837D01*
X405322D01*
X405847Y578312D01*
Y576213D01*
X405322Y575688D01*
X404272D01*
X403748Y576213D01*
Y578312D01*
X328777Y634312D02*
X328252Y634837D01*
X327203D01*
X326678Y634312D01*
Y632213D01*
X327203Y631688D01*
X328252D01*
X328777Y632213D01*
X329827Y634837D02*
X331926D01*
Y634312D01*
X329827Y632213D01*
Y631688D01*
X332975Y631163D02*
X335074D01*
X338223Y634312D02*
X337698Y634837D01*
X336649D01*
X336124Y634312D01*
Y633787D01*
X336649Y633262D01*
X337698D01*
X338223Y632738D01*
Y632213D01*
X337698Y631688D01*
X336649D01*
X336124Y632213D01*
X339272Y631688D02*
X340322D01*
X339797D01*
Y634837D01*
X339272Y634312D01*
X393252Y604812D02*
X392728Y605337D01*
X391678D01*
X391153Y604812D01*
Y602713D01*
X391678Y602188D01*
X392728D01*
X393252Y602713D01*
X394302Y605337D02*
X396401D01*
Y604812D01*
X394302Y602713D01*
Y602188D01*
X397450Y601663D02*
X399550D01*
X402698Y604812D02*
X402173Y605337D01*
X401124D01*
X400599Y604812D01*
Y604287D01*
X401124Y603762D01*
X402173D01*
X402698Y603238D01*
Y602713D01*
X402173Y602188D01*
X401124D01*
X400599Y602713D01*
X403748Y604812D02*
X404272Y605337D01*
X405322D01*
X405847Y604812D01*
Y602713D01*
X405322Y602188D01*
X404272D01*
X403748Y602713D01*
Y604812D01*
X324777Y677812D02*
X324252Y678337D01*
X323203D01*
X322678Y677812D01*
Y675713D01*
X323203Y675188D01*
X324252D01*
X324777Y675713D01*
X327926Y678337D02*
X326876Y677812D01*
X325827Y676762D01*
Y675713D01*
X326351Y675188D01*
X327401D01*
X327926Y675713D01*
Y676238D01*
X327401Y676762D01*
X325827D01*
X328975Y674663D02*
X331074D01*
X334223Y677812D02*
X333698Y678337D01*
X332649D01*
X332124Y677812D01*
Y677287D01*
X332649Y676762D01*
X333698D01*
X334223Y676238D01*
Y675713D01*
X333698Y675188D01*
X332649D01*
X332124Y675713D01*
X335272Y675188D02*
X336322D01*
X335797D01*
Y678337D01*
X335272Y677812D01*
X394252Y560812D02*
X393728Y561337D01*
X392678D01*
X392153Y560812D01*
Y558713D01*
X392678Y558188D01*
X393728D01*
X394252Y558713D01*
X397401Y561337D02*
X396351Y560812D01*
X395302Y559762D01*
Y558713D01*
X395827Y558188D01*
X396876D01*
X397401Y558713D01*
Y559238D01*
X396876Y559762D01*
X395302D01*
X398450Y557663D02*
X400550D01*
X403698Y560812D02*
X403173Y561337D01*
X402124D01*
X401599Y560812D01*
Y560287D01*
X402124Y559762D01*
X403173D01*
X403698Y559238D01*
Y558713D01*
X403173Y558188D01*
X402124D01*
X401599Y558713D01*
X404748Y560812D02*
X405272Y561337D01*
X406322D01*
X406847Y560812D01*
Y558713D01*
X406322Y558188D01*
X405272D01*
X404748Y558713D01*
Y560812D01*
X316777Y804812D02*
X316252Y805337D01*
X315203D01*
X314678Y804812D01*
Y802713D01*
X315203Y802188D01*
X316252D01*
X316777Y802713D01*
X319926Y805337D02*
X317827D01*
Y803762D01*
X318876Y804287D01*
X319401D01*
X319926Y803762D01*
Y802713D01*
X319401Y802188D01*
X318351D01*
X317827Y802713D01*
X320975Y801663D02*
X323074D01*
X324124Y802188D02*
Y805337D01*
X325173Y804287D01*
X326223Y805337D01*
Y802188D01*
X327272D02*
X328322D01*
X327797D01*
Y805337D01*
X327272Y804812D01*
X455252Y805312D02*
X454728Y805837D01*
X453678D01*
X453153Y805312D01*
Y803213D01*
X453678Y802688D01*
X454728D01*
X455252Y803213D01*
X458401Y805837D02*
X456302D01*
Y804262D01*
X457351Y804787D01*
X457876D01*
X458401Y804262D01*
Y803213D01*
X457876Y802688D01*
X456827D01*
X456302Y803213D01*
X459450Y802163D02*
X461550D01*
X462599Y802688D02*
Y805837D01*
X463649Y804787D01*
X464698Y805837D01*
Y802688D01*
X465748Y805312D02*
X466272Y805837D01*
X467322D01*
X467847Y805312D01*
Y803213D01*
X467322Y802688D01*
X466272D01*
X465748Y803213D01*
Y805312D01*
X235277Y732812D02*
X234752Y733337D01*
X233703D01*
X233178Y732812D01*
Y730713D01*
X233703Y730188D01*
X234752D01*
X235277Y730713D01*
X237901Y730188D02*
Y733337D01*
X236327Y731762D01*
X238426D01*
X239475Y729663D02*
X241574D01*
X242624Y730188D02*
Y733337D01*
X243673Y732287D01*
X244723Y733337D01*
Y730188D01*
X245772D02*
X246822D01*
X246297D01*
Y733337D01*
X245772Y732812D01*
X536551Y766258D02*
X536026Y766782D01*
X534976D01*
X534452Y766258D01*
Y764159D01*
X534976Y763634D01*
X536026D01*
X536551Y764159D01*
X539175Y763634D02*
Y766782D01*
X537600Y765208D01*
X539699D01*
X540749Y763109D02*
X542848D01*
X543897Y763634D02*
Y766782D01*
X544947Y765733D01*
X545996Y766782D01*
Y763634D01*
X547046Y766258D02*
X547571Y766782D01*
X548620D01*
X549145Y766258D01*
Y764159D01*
X548620Y763634D01*
X547571D01*
X547046Y764159D01*
Y766258D01*
X257777Y772312D02*
X257252Y772837D01*
X256203D01*
X255678Y772312D01*
Y770213D01*
X256203Y769688D01*
X257252D01*
X257777Y770213D01*
X258827Y772312D02*
X259351Y772837D01*
X260401D01*
X260926Y772312D01*
Y771787D01*
X260401Y771262D01*
X259876D01*
X260401D01*
X260926Y770738D01*
Y770213D01*
X260401Y769688D01*
X259351D01*
X258827Y770213D01*
X261975Y769163D02*
X264074D01*
X265124Y769688D02*
Y772837D01*
X266173Y771787D01*
X267223Y772837D01*
Y769688D01*
X268272D02*
X269322D01*
X268797D01*
Y772837D01*
X268272Y772312D01*
X428752Y779312D02*
X428228Y779837D01*
X427178D01*
X426653Y779312D01*
Y777213D01*
X427178Y776688D01*
X428228D01*
X428752Y777213D01*
X429802Y779312D02*
X430327Y779837D01*
X431376D01*
X431901Y779312D01*
Y778787D01*
X431376Y778262D01*
X430851D01*
X431376D01*
X431901Y777738D01*
Y777213D01*
X431376Y776688D01*
X430327D01*
X429802Y777213D01*
X432950Y776163D02*
X435049D01*
X436099Y776688D02*
Y779837D01*
X437149Y778787D01*
X438198Y779837D01*
Y776688D01*
X439248Y779312D02*
X439772Y779837D01*
X440822D01*
X441347Y779312D01*
Y777213D01*
X440822Y776688D01*
X439772D01*
X439248Y777213D01*
Y779312D01*
X350777Y773312D02*
X350252Y773837D01*
X349203D01*
X348678Y773312D01*
Y771213D01*
X349203Y770688D01*
X350252D01*
X350777Y771213D01*
X353926Y770688D02*
X351827D01*
X353926Y772787D01*
Y773312D01*
X353401Y773837D01*
X352351D01*
X351827Y773312D01*
X354975Y770163D02*
X357074D01*
X358124Y770688D02*
Y773837D01*
X359173Y772787D01*
X360223Y773837D01*
Y770688D01*
X361272D02*
X362322D01*
X361797D01*
Y773837D01*
X361272Y773312D01*
X510303Y771812D02*
X509779Y772337D01*
X508729D01*
X508205Y771812D01*
Y769713D01*
X508729Y769188D01*
X509779D01*
X510303Y769713D01*
X513452Y769188D02*
X511353D01*
X513452Y771287D01*
Y771812D01*
X512927Y772337D01*
X511878D01*
X511353Y771812D01*
X514502Y768663D02*
X516601D01*
X517650Y769188D02*
Y772337D01*
X518700Y771287D01*
X519749Y772337D01*
Y769188D01*
X520799Y771812D02*
X521324Y772337D01*
X522373D01*
X522898Y771812D01*
Y769713D01*
X522373Y769188D01*
X521324D01*
X520799Y769713D01*
Y771812D01*
X379539Y757312D02*
X379015Y757837D01*
X377965D01*
X377440Y757312D01*
Y755213D01*
X377965Y754688D01*
X379015D01*
X379539Y755213D01*
X380589Y754688D02*
X381639D01*
X381114D01*
Y757837D01*
X380589Y757312D01*
X383213Y754163D02*
X385312D01*
X386362Y754688D02*
Y757837D01*
X387411Y756787D01*
X388460Y757837D01*
Y754688D01*
X389510D02*
X390560D01*
X390035D01*
Y757837D01*
X389510Y757312D01*
X543515Y732312D02*
X542990Y732837D01*
X541940D01*
X541416Y732312D01*
Y730213D01*
X541940Y729688D01*
X542990D01*
X543515Y730213D01*
X544564Y729688D02*
X545614D01*
X545089D01*
Y732837D01*
X544564Y732312D01*
X547188Y729163D02*
X549287D01*
X550337Y729688D02*
Y732837D01*
X551386Y731787D01*
X552436Y732837D01*
Y729688D01*
X553485Y732312D02*
X554010Y732837D01*
X555060D01*
X555584Y732312D01*
Y730213D01*
X555060Y729688D01*
X554010D01*
X553485Y730213D01*
Y732312D01*
M02*
