M48
;Layer_Color=9474304
;FILE_FORMAT=2:4
INCH,TZ
;TYPE=PLATED
T01F00S00C0.0118
T02F00S00C0.0276
T03F00S00C0.0280
T04F00S00C0.0300
T05F00S00C0.0346
T06F00S00C0.0354
T07F00S00C0.0400
T08F00S00C0.0512
T09F00S00C0.0547
T10F00S00C0.2362
;TYPE=NON_PLATED
T11F00S00C0.0390
T12F00S00C0.0935
%
T01
X33000Y40000
X35000
X37000
X39000
X41000
X43000
X45000
X44000Y38000
X42000
Y42000
X43000Y44000
X45000
X44000Y46000
X42850Y46400
X42000Y46000
X40950Y46250
Y45100
X41000Y44000
X39000
X38800Y43000
X37000Y44000
X35000
X35650Y43000
X36000Y42000
Y46000
X34000
X32000
X33000Y44000
X38400Y46700
X36000Y38000
X48000
X50000
X52000
X53000Y40000
X55000
X56000Y42000
X54000
X52000
X51000Y40000
X49000
X50000Y46000
X52000
X54000
X55000Y44000
X56000Y38000
X53900Y47550
Y48400
Y49300
X54000Y50000
X56000
X55000Y52000
X53000Y56000
X54000Y58000
X52000
X50000
X51000Y60000
X53000
X55000
X56000Y62000
X54000
X52000
X47000Y60000
X49550Y50950
X49505Y50600
X49491Y50173
X50000Y50600
X50014Y49683
X53000Y48000
X45600Y50200
Y50600
Y50950
Y51300
X45400Y53650
Y54300
X39700Y53500
X39100Y53650
X38050Y53800
X37550Y54600
X37200
X37000Y56000
X35000
X33000
X33150Y54450
X33000Y52000
X32000Y50000
X33200Y47550
X35000Y48000
X36100Y47150
X37100
X37900Y49400
X38000Y50000
X37850Y50400
Y50800
Y51200
X38850Y51050
X39100Y50500
X39450Y50750
X39800Y51200
X39750Y50150
X39550Y49900
X39500Y49400
X39100
X36450Y50150
Y50550
Y50950
X37000Y52000
X38000Y58000
X35000Y60000
X33000
X32000Y62000
X42000
X42858Y47918
X31000Y48000
X30400Y47550
X29750Y47150
Y50400
X31000Y52000
X30000Y54000
X31000Y56000
X30000Y58000
X30150Y58750
X30125Y59825
X31000Y60000
X29000
X27000
X25000
X23000
X24000Y62000
X22000
X24000Y58000
X25000Y56000
X27000
X28000Y58000
X30000Y62000
X26000Y54000
X24000
X22000
X24000Y50000
X26000
X27000Y48000
X25000
X23000
Y64000
X25000
X27000
X28000Y66000
X30000
X31000Y68000
X29000
X27000
X25000
X23000
X24000Y66000
X26000
Y70000
X28000
X30000
X29000Y72000
X25000
X23000
X22000Y74000
Y78000
X25000Y76000
X27000
X22000Y66000
X32000
X33000Y68000
X35000
X35350Y68450
X35900Y68950
X36400Y69500
X36950Y70050
X37500Y70600
X37000Y68000
X34000Y70000
X32000
Y78000
X36000
X38000
X46000
X45250Y72150
X43000Y72000
X44000Y70000
X46000
X46550Y70200
X45000Y68000
X43000
X42000Y66000
X43000Y64000
X46000Y66000
X47000Y68000
X47050Y69650
X47550Y69200
X48070Y68700
X48650Y68250
X49000Y68000
X50000Y70000
Y66000
X52000
X54000
X56000
X55000Y68000
X53000
Y64000
X55000
X51000
X47000
Y72000
X55000
X56000Y74000
X54000
X53000Y76000
X56000Y78000
Y70000
X49000Y80000
X47000
X45000
X37000
X35000
X31000
X29000
T02
X53000Y43400
X54378
T03
X46169Y45002
X48050Y45100
X49100
X48550Y48200
X51000Y52850
X48300Y59100
X42300Y60350
X40800Y56500
X40200
X41950Y52950
X42650
X45400Y52500
X36500Y53300
X30950Y72650
X31750
X38850Y67100
X39550
X44600Y71600
X45250
X44650Y72250
X51500Y70700
X51400Y79850
X52050
X26400Y79800
X25700
T04
X22400Y46700
Y47700
Y49000
Y50000
T05
X26932Y73425
X27720
X28507
X29294
X30082
X30869
X30476Y75000
X29688
X28901
X28113
X27326
X31263
X32050
X32838
X33625
X34413
X35200
X35987
X36381Y73425
X35594
X34806
X34019
X33231
X32444
X31657
X41776Y73400
X42563
X43350
X44138
X44925
X45713
X46500
X46106Y74975
X45319
X44531
X43744
X42957
X42169
X46894
X47681
X48468
X49256
X50043
X50831
X51224Y73400
X50437
X49650
X48862
X48075
X47287
T06
X47001Y49453
X48001
X46001
T07
X23000Y42200
Y43200
X24000
X25000
X26000
Y42200
X25000
X24000
T08
X32400Y38000
X34369
X38231
X40200
X55000Y53513
Y55482
Y57450
Y60932
X22559Y60974
Y57492
Y55524
Y53555
Y62942
Y64911
X55000Y64868
Y62900
X55750Y79800
X53781
X40000Y79600
X38031
X23450Y79800
X21481
T09
X32405Y41745
X33405
X34405
X38357Y41752
X39357
X40357
X49600Y54400
Y55400
Y56400
Y61800
X28000Y61924
Y56400
Y55400
Y54400
Y62924
Y63924
X49600Y63800
Y62800
T10
X23000Y39000
X54000
X23000Y69750
X54000
T11
X31600Y53050
Y53850
X34600Y53450
T12
X32350Y52450
Y54450
X34600
Y52450
M30
