G04*
G04 #@! TF.GenerationSoftware,Altium Limited,Altium Designer,24.2.2 (26)*
G04*
G04 Layer_Color=8421504*
%FSLAX25Y25*%
%MOIN*%
G70*
G04*
G04 #@! TF.SameCoordinates,1A1EAA83-3352-477D-9F2F-1BB8837AECD5*
G04*
G04*
G04 #@! TF.FilePolarity,Positive*
G04*
G01*
G75*
%ADD18R,0.10000X0.05984*%
%ADD19R,0.05984X0.10000*%
%ADD20R,0.08268X0.05512*%
%ADD21R,0.04724X0.03150*%
%ADD22R,0.07874X0.05906*%
%ADD23R,0.05807X0.01181*%
%ADD24R,0.01181X0.05807*%
%ADD25R,0.03402X0.03098*%
%ADD26R,0.01083X0.01575*%
%ADD27R,0.03098X0.03402*%
%ADD28R,0.02756X0.03150*%
%ADD29R,0.12047X0.03504*%
%ADD30R,0.07165X0.04331*%
%ADD31R,0.06890X0.17717*%
%ADD32R,0.07087X0.12402*%
%ADD33R,0.12402X0.07087*%
G36*
X352953Y576815D02*
X349213D01*
Y581106D01*
X352953D01*
Y576815D01*
D02*
G37*
G36*
X348425D02*
X344685D01*
Y581106D01*
X348425D01*
Y576815D01*
D02*
G37*
G36*
X343898D02*
X340158D01*
Y581106D01*
X343898D01*
Y576815D01*
D02*
G37*
G36*
X339370D02*
X335630D01*
Y581106D01*
X339370D01*
Y576815D01*
D02*
G37*
G36*
X334842D02*
X331102D01*
Y581106D01*
X334842D01*
Y576815D01*
D02*
G37*
G36*
X330315D02*
X326575D01*
Y581106D01*
X330315D01*
Y576815D01*
D02*
G37*
G36*
X325787D02*
X322047D01*
Y581106D01*
X325787D01*
Y576815D01*
D02*
G37*
G36*
X352953Y571736D02*
X349213D01*
Y576028D01*
X352953D01*
Y571736D01*
D02*
G37*
G36*
X348425D02*
X344685D01*
Y576028D01*
X348425D01*
Y571736D01*
D02*
G37*
G36*
X343898D02*
X340158D01*
Y576028D01*
X343898D01*
Y571736D01*
D02*
G37*
G36*
X339370D02*
X335630D01*
Y576028D01*
X339370D01*
Y571736D01*
D02*
G37*
G36*
X334842D02*
X331102D01*
Y576028D01*
X334842D01*
Y571736D01*
D02*
G37*
G36*
X330315D02*
X326575D01*
Y576028D01*
X330315D01*
Y571736D01*
D02*
G37*
G36*
X325787D02*
X322047D01*
Y576028D01*
X325787D01*
Y571736D01*
D02*
G37*
G36*
X505453Y431472D02*
X501713D01*
Y435764D01*
X505453D01*
Y431472D01*
D02*
G37*
G36*
X500925D02*
X497185D01*
Y435764D01*
X500925D01*
Y431472D01*
D02*
G37*
G36*
X496398D02*
X492658D01*
Y435764D01*
X496398D01*
Y431472D01*
D02*
G37*
G36*
X491870D02*
X488130D01*
Y435764D01*
X491870D01*
Y431472D01*
D02*
G37*
G36*
X487343D02*
X483602D01*
Y435764D01*
X487343D01*
Y431472D01*
D02*
G37*
G36*
X482815D02*
X479075D01*
Y435764D01*
X482815D01*
Y431472D01*
D02*
G37*
G36*
X478287D02*
X474547D01*
Y435764D01*
X478287D01*
Y431472D01*
D02*
G37*
G36*
X505453Y426394D02*
X501713D01*
Y430685D01*
X505453D01*
Y426394D01*
D02*
G37*
G36*
X500925D02*
X497185D01*
Y430685D01*
X500925D01*
Y426394D01*
D02*
G37*
G36*
X496398D02*
X492658D01*
Y430685D01*
X496398D01*
Y426394D01*
D02*
G37*
G36*
X491870D02*
X488130D01*
Y430685D01*
X491870D01*
Y426394D01*
D02*
G37*
G36*
X487343D02*
X483602D01*
Y430685D01*
X487343D01*
Y426394D01*
D02*
G37*
G36*
X482815D02*
X479075D01*
Y430685D01*
X482815D01*
Y426394D01*
D02*
G37*
G36*
X478287D02*
X474547D01*
Y430685D01*
X478287D01*
Y426394D01*
D02*
G37*
G36*
X505453Y421315D02*
X501713D01*
Y425606D01*
X505453D01*
Y421315D01*
D02*
G37*
G36*
X500925D02*
X497185D01*
Y425606D01*
X500925D01*
Y421315D01*
D02*
G37*
G36*
X496398D02*
X492658D01*
Y425606D01*
X496398D01*
Y421315D01*
D02*
G37*
G36*
X491870D02*
X488130D01*
Y425606D01*
X491870D01*
Y421315D01*
D02*
G37*
G36*
X487343D02*
X483602D01*
Y425606D01*
X487343D01*
Y421315D01*
D02*
G37*
G36*
X482815D02*
X479075D01*
Y425606D01*
X482815D01*
Y421315D01*
D02*
G37*
G36*
X478287D02*
X474547D01*
Y425606D01*
X478287D01*
Y421315D01*
D02*
G37*
G36*
X505453Y416236D02*
X501713D01*
Y420528D01*
X505453D01*
Y416236D01*
D02*
G37*
G36*
X500925D02*
X497185D01*
Y420528D01*
X500925D01*
Y416236D01*
D02*
G37*
G36*
X496398D02*
X492658D01*
Y420528D01*
X496398D01*
Y416236D01*
D02*
G37*
G36*
X491870D02*
X488130D01*
Y420528D01*
X491870D01*
Y416236D01*
D02*
G37*
G36*
X487343D02*
X483602D01*
Y420528D01*
X487343D01*
Y416236D01*
D02*
G37*
G36*
X482815D02*
X479075D01*
Y420528D01*
X482815D01*
Y416236D01*
D02*
G37*
G36*
X478287D02*
X474547D01*
Y420528D01*
X478287D01*
Y416236D01*
D02*
G37*
G36*
X405453Y646236D02*
X401713D01*
Y650528D01*
X405453D01*
Y646236D01*
D02*
G37*
G36*
X400925D02*
X397185D01*
Y650528D01*
X400925D01*
Y646236D01*
D02*
G37*
G36*
X396398D02*
X392657D01*
Y650528D01*
X396398D01*
Y646236D01*
D02*
G37*
G36*
X391870D02*
X388130D01*
Y650528D01*
X391870D01*
Y646236D01*
D02*
G37*
G36*
X387343D02*
X383602D01*
Y650528D01*
X387343D01*
Y646236D01*
D02*
G37*
G36*
X382815D02*
X379075D01*
Y650528D01*
X382815D01*
Y646236D01*
D02*
G37*
G36*
X378287D02*
X374547D01*
Y650528D01*
X378287D01*
Y646236D01*
D02*
G37*
G36*
X352953Y586972D02*
X349213D01*
Y591264D01*
X352953D01*
Y586972D01*
D02*
G37*
G36*
X348425D02*
X344685D01*
Y591264D01*
X348425D01*
Y586972D01*
D02*
G37*
G36*
X343898D02*
X340158D01*
Y591264D01*
X343898D01*
Y586972D01*
D02*
G37*
G36*
X339370D02*
X335630D01*
Y591264D01*
X339370D01*
Y586972D01*
D02*
G37*
G36*
X334842D02*
X331102D01*
Y591264D01*
X334842D01*
Y586972D01*
D02*
G37*
G36*
X330315D02*
X326575D01*
Y591264D01*
X330315D01*
Y586972D01*
D02*
G37*
G36*
X325787D02*
X322047D01*
Y591264D01*
X325787D01*
Y586972D01*
D02*
G37*
G36*
X352953Y581894D02*
X349213D01*
Y586185D01*
X352953D01*
Y581894D01*
D02*
G37*
G36*
X348425D02*
X344685D01*
Y586185D01*
X348425D01*
Y581894D01*
D02*
G37*
G36*
X343898D02*
X340158D01*
Y586185D01*
X343898D01*
Y581894D01*
D02*
G37*
G36*
X339370D02*
X335630D01*
Y586185D01*
X339370D01*
Y581894D01*
D02*
G37*
G36*
X334842D02*
X331102D01*
Y586185D01*
X334842D01*
Y581894D01*
D02*
G37*
G36*
X330315D02*
X326575D01*
Y586185D01*
X330315D01*
Y581894D01*
D02*
G37*
G36*
X325787D02*
X322047D01*
Y586185D01*
X325787D01*
Y581894D01*
D02*
G37*
G36*
X405453Y661472D02*
X401713D01*
Y665764D01*
X405453D01*
Y661472D01*
D02*
G37*
G36*
X400925D02*
X397185D01*
Y665764D01*
X400925D01*
Y661472D01*
D02*
G37*
G36*
X396398D02*
X392657D01*
Y665764D01*
X396398D01*
Y661472D01*
D02*
G37*
G36*
X391870D02*
X388130D01*
Y665764D01*
X391870D01*
Y661472D01*
D02*
G37*
G36*
X387343D02*
X383602D01*
Y665764D01*
X387343D01*
Y661472D01*
D02*
G37*
G36*
X382815D02*
X379075D01*
Y665764D01*
X382815D01*
Y661472D01*
D02*
G37*
G36*
X378287D02*
X374547D01*
Y665764D01*
X378287D01*
Y661472D01*
D02*
G37*
G36*
X405453Y656394D02*
X401713D01*
Y660685D01*
X405453D01*
Y656394D01*
D02*
G37*
G36*
X400925D02*
X397185D01*
Y660685D01*
X400925D01*
Y656394D01*
D02*
G37*
G36*
X396398D02*
X392657D01*
Y660685D01*
X396398D01*
Y656394D01*
D02*
G37*
G36*
X391870D02*
X388130D01*
Y660685D01*
X391870D01*
Y656394D01*
D02*
G37*
G36*
X387343D02*
X383602D01*
Y660685D01*
X387343D01*
Y656394D01*
D02*
G37*
G36*
X382815D02*
X379075D01*
Y660685D01*
X382815D01*
Y656394D01*
D02*
G37*
G36*
X378287D02*
X374547D01*
Y660685D01*
X378287D01*
Y656394D01*
D02*
G37*
G36*
X405453Y651315D02*
X401713D01*
Y655606D01*
X405453D01*
Y651315D01*
D02*
G37*
G36*
X400925D02*
X397185D01*
Y655606D01*
X400925D01*
Y651315D01*
D02*
G37*
G36*
X396398D02*
X392657D01*
Y655606D01*
X396398D01*
Y651315D01*
D02*
G37*
G36*
X391870D02*
X388130D01*
Y655606D01*
X391870D01*
Y651315D01*
D02*
G37*
G36*
X387343D02*
X383602D01*
Y655606D01*
X387343D01*
Y651315D01*
D02*
G37*
G36*
X382815D02*
X379075D01*
Y655606D01*
X382815D01*
Y651315D01*
D02*
G37*
G36*
X378287D02*
X374547D01*
Y655606D01*
X378287D01*
Y651315D01*
D02*
G37*
D18*
X463500Y396965D02*
D03*
Y383500D02*
D03*
D19*
X365000Y628000D02*
D03*
X378465D02*
D03*
X365000Y611500D02*
D03*
X378465D02*
D03*
D20*
X248143Y471423D02*
D03*
X283969D02*
D03*
X248143Y453707D02*
D03*
X283969D02*
D03*
Y486172D02*
D03*
X248143D02*
D03*
X283969Y503888D02*
D03*
X248143D02*
D03*
X351474Y452382D02*
D03*
X315647D02*
D03*
X351474Y470098D02*
D03*
X315647D02*
D03*
D21*
X551227Y501453D02*
D03*
Y497123D02*
D03*
Y492792D02*
D03*
Y488461D02*
D03*
Y484130D02*
D03*
Y479800D02*
D03*
Y475469D02*
D03*
Y471138D02*
D03*
D22*
X559888Y461414D02*
D03*
Y516099D02*
D03*
X527605D02*
D03*
Y461414D02*
D03*
D23*
X371315Y491173D02*
D03*
Y493142D02*
D03*
Y495110D02*
D03*
Y497079D02*
D03*
Y499047D02*
D03*
Y501016D02*
D03*
Y502984D02*
D03*
Y504953D02*
D03*
Y506921D02*
D03*
Y508890D02*
D03*
Y510858D02*
D03*
Y512827D02*
D03*
X404685D02*
D03*
Y510858D02*
D03*
Y508890D02*
D03*
Y506921D02*
D03*
Y504953D02*
D03*
Y502984D02*
D03*
Y501016D02*
D03*
Y499047D02*
D03*
Y497079D02*
D03*
Y495110D02*
D03*
Y493142D02*
D03*
Y491173D02*
D03*
D24*
X377173Y518685D02*
D03*
X379142D02*
D03*
X381110D02*
D03*
X383079D02*
D03*
X385047D02*
D03*
X387016D02*
D03*
X388984D02*
D03*
X390953D02*
D03*
X392921D02*
D03*
X394890D02*
D03*
X396858D02*
D03*
X398827D02*
D03*
Y485315D02*
D03*
X396858D02*
D03*
X394890D02*
D03*
X392921D02*
D03*
X390953D02*
D03*
X388984D02*
D03*
X387016D02*
D03*
X385047D02*
D03*
X383079D02*
D03*
X381110D02*
D03*
X379142D02*
D03*
X377173D02*
D03*
D25*
X297428Y633271D02*
D03*
Y639373D02*
D03*
X293011Y509766D02*
D03*
Y515869D02*
D03*
Y491979D02*
D03*
Y498081D02*
D03*
Y459514D02*
D03*
Y465616D02*
D03*
Y477173D02*
D03*
Y483275D02*
D03*
X345784Y480765D02*
D03*
Y486868D02*
D03*
X258000Y553949D02*
D03*
Y560051D02*
D03*
X297699Y564148D02*
D03*
Y558045D02*
D03*
X355071Y459514D02*
D03*
Y465616D02*
D03*
X358500Y480949D02*
D03*
Y487051D02*
D03*
X346000Y501949D02*
D03*
Y508051D02*
D03*
X506000Y497051D02*
D03*
Y490949D02*
D03*
Y478000D02*
D03*
Y484102D02*
D03*
X514500Y553949D02*
D03*
Y560051D02*
D03*
X514165Y628000D02*
D03*
Y621898D02*
D03*
X386885Y584789D02*
D03*
Y578687D02*
D03*
X386895Y571541D02*
D03*
Y565439D02*
D03*
X402500Y585398D02*
D03*
Y591500D02*
D03*
X394852Y571541D02*
D03*
Y565439D02*
D03*
X410000Y593051D02*
D03*
Y586949D02*
D03*
X386824Y591806D02*
D03*
Y597908D02*
D03*
X394852Y591806D02*
D03*
Y597908D02*
D03*
X476000Y617051D02*
D03*
Y610949D02*
D03*
X332530Y664825D02*
D03*
Y670927D02*
D03*
X340810Y652061D02*
D03*
Y658163D02*
D03*
X340750Y664892D02*
D03*
Y670995D02*
D03*
X412500Y513949D02*
D03*
Y520051D02*
D03*
X419500Y513949D02*
D03*
Y520051D02*
D03*
X426500Y507000D02*
D03*
Y500898D02*
D03*
X478000Y543051D02*
D03*
Y536949D02*
D03*
X426500Y520000D02*
D03*
Y513898D02*
D03*
X443618Y421858D02*
D03*
Y427961D02*
D03*
X427642Y427961D02*
D03*
Y421858D02*
D03*
X443659Y414558D02*
D03*
Y408456D02*
D03*
X435725Y414558D02*
D03*
Y408456D02*
D03*
X435290Y435573D02*
D03*
Y441676D02*
D03*
X443618Y435573D02*
D03*
Y441676D02*
D03*
X258000Y623449D02*
D03*
Y629551D02*
D03*
X317500Y642949D02*
D03*
Y649051D02*
D03*
X332530Y645140D02*
D03*
Y639038D02*
D03*
X340789Y645127D02*
D03*
Y639025D02*
D03*
X325000Y652051D02*
D03*
Y645949D02*
D03*
X504500Y725551D02*
D03*
Y719449D02*
D03*
X356000Y719949D02*
D03*
Y726051D02*
D03*
X380000Y750051D02*
D03*
Y743949D02*
D03*
D26*
X395233Y448052D02*
D03*
X393162D02*
D03*
X395268Y458283D02*
D03*
X393197D02*
D03*
D27*
X344576Y429665D02*
D03*
X350679D02*
D03*
X363678Y453760D02*
D03*
X369781D02*
D03*
X377507D02*
D03*
X383609D02*
D03*
X377555Y475194D02*
D03*
X383658D02*
D03*
X390961Y467560D02*
D03*
X397064D02*
D03*
X391038Y475114D02*
D03*
X397140D02*
D03*
X379249Y527885D02*
D03*
X373147D02*
D03*
X403423Y445807D02*
D03*
X409525D02*
D03*
X403469Y456880D02*
D03*
X409572D02*
D03*
X403809Y429665D02*
D03*
X397707D02*
D03*
X423551Y725000D02*
D03*
X417449D02*
D03*
X518326Y725400D02*
D03*
X512223D02*
D03*
X504051Y770500D02*
D03*
X497949D02*
D03*
X275528Y725900D02*
D03*
X269425D02*
D03*
X363849D02*
D03*
X369951D02*
D03*
X437051Y772000D02*
D03*
X430949D02*
D03*
X530949Y731000D02*
D03*
X537051D02*
D03*
X280102Y771500D02*
D03*
X274000D02*
D03*
X344102Y772000D02*
D03*
X338000D02*
D03*
D28*
X377439Y462267D02*
D03*
Y467385D02*
D03*
X381376D02*
D03*
Y462267D02*
D03*
D29*
X367657Y586500D02*
D03*
Y566500D02*
D03*
Y571500D02*
D03*
Y576500D02*
D03*
Y581500D02*
D03*
Y591500D02*
D03*
Y596500D02*
D03*
X359842Y651000D02*
D03*
Y671000D02*
D03*
Y666000D02*
D03*
Y661000D02*
D03*
Y656000D02*
D03*
Y646000D02*
D03*
Y641000D02*
D03*
X459842Y411000D02*
D03*
Y416000D02*
D03*
Y426000D02*
D03*
Y431000D02*
D03*
Y436000D02*
D03*
Y441000D02*
D03*
Y421000D02*
D03*
D30*
X485512Y459874D02*
D03*
Y470583D02*
D03*
X447518Y459874D02*
D03*
Y470583D02*
D03*
D31*
X472927Y466533D02*
D03*
X460131D02*
D03*
D32*
X437500Y807539D02*
D03*
Y787461D02*
D03*
X343000Y807539D02*
D03*
Y787461D02*
D03*
D33*
X552079Y748500D02*
D03*
X532000D02*
D03*
X229461D02*
D03*
X249539D02*
D03*
M02*
